<?xml version="1.0" encoding="UTF-8" standalone="no"?>
<!-- Created with Inkscape (http://www.inkscape.org/) -->

<svg
   xmlns:dc="http://purl.org/dc/elements/1.1/"
   xmlns:cc="http://creativecommons.org/ns#"
   xmlns:rdf="http://www.w3.org/1999/02/22-rdf-syntax-ns#"
   xmlns:svg="http://www.w3.org/2000/svg"
   xmlns="http://www.w3.org/2000/svg"
   xmlns:sodipodi="http://sodipodi.sourceforge.net/DTD/sodipodi-0.dtd"
   xmlns:inkscape="http://www.inkscape.org/namespaces/inkscape"
   width="297mm"
   height="210mm"
   id="svg2"
   version="1.1"
   inkscape:version="0.91 r13725"
   sodipodi:docname="scrabble2.svg"
   viewBox="0 0 296.99999 210">
  <defs
     id="defs4" />
  <sodipodi:namedview
     id="base"
     pagecolor="#ffffff"
     bordercolor="#666666"
     borderopacity="1.0"
     inkscape:pageopacity="0.0"
     inkscape:pageshadow="2"
     inkscape:zoom="0.7"
     inkscape:cx="680.97167"
     inkscape:cy="611.66826"
     inkscape:document-units="mm"
     inkscape:current-layer="layer1"
     showgrid="false"
     units="mm"
     inkscape:showpageshadow="false"
     borderlayer="true"
     inkscape:window-width="1920"
     inkscape:window-height="1058"
     inkscape:window-x="1912"
     inkscape:window-y="-8"
     inkscape:window-maximized="1" />
  <metadata
     id="metadata7">
    <rdf:RDF>
      <cc:Work
         rdf:about="">
        <dc:format>image/svg+xml</dc:format>
        <dc:type
           rdf:resource="http://purl.org/dc/dcmitype/StillImage" />
        <dc:title></dc:title>
      </cc:Work>
    </rdf:RDF>
  </metadata>
  <g
     inkscape:label="Layer 1"
     inkscape:groupmode="layer"
     id="layer1"
     transform="translate(0,-308.2677)">
    <g
       style="font-style:normal;font-weight:normal;font-size:4.23333311px;line-height:125%;font-family:Sans;letter-spacing:0px;word-spacing:0px;fill:#000000;fill-opacity:1;stroke:none;stroke-width:1px;stroke-linecap:butt;stroke-linejoin:miter;stroke-opacity:1"
       id="text3335" />
    <path
       inkscape:connector-curvature="0"
       id="path3412"
       style="font-style:normal;font-variant:normal;font-weight:normal;font-stretch:normal;font-size:25.39999962px;line-height:125%;font-family:Scramble;-inkscape-font-specification:Scramble;letter-spacing:0.79304445px;word-spacing:0px;fill:#00ff00;fill-opacity:1;stroke:#00ff00;stroke-width:0.1;stroke-linecap:butt;stroke-linejoin:miter;stroke-opacity:1"
       d="m 56.629169,339.06351 -0.49674,-1.40744 -4.47067,0 -0.53814,1.40744 c -0.11039,0.33115 -0.23457,0.64851 -0.37255,0.95208 -0.13799,0.30357 -0.41395,0.45535 -0.8279,0.45535 -0.27597,0 -0.52434,-0.0966 -0.74511,-0.28977 -0.30357,-0.24837 -0.41395,-0.53813 -0.33116,-0.8693 0.0828,-0.33116 0.19317,-0.64852 0.33116,-0.95208 0.49674,-1.29705 1.00728,-2.59409 1.53162,-3.89114 0.52433,-1.32464 1.03487,-2.64928 1.53161,-3.97392 0.0828,-0.22078 0.19317,-0.44155 0.33116,-0.66232 0.13799,-0.22078 0.31737,-0.38636 0.53814,-0.49675 0.49674,-0.30356 1.00728,-0.30356 1.53162,0 0.33115,0.19318 0.56572,0.46915 0.70371,0.8279 0.16558,0.35876 0.31736,0.70372 0.45535,1.03488 l 2.89765,7.07856 c 0.22077,0.57953 0.33116,0.96589 0.33116,1.15906 0,0.46914 -0.24837,0.8003 -0.74511,0.99348 -0.49674,0.16558 -0.8693,0.069 -1.11767,-0.28977 -0.11039,-0.13798 -0.20698,-0.30356 -0.28977,-0.49673 -0.0828,-0.22078 -0.16557,-0.41396 -0.24836,-0.57953 z m -4.38788,-3.06324 3.27021,0 -1.6558,-4.51206 z m 8.52739,6.83018 0,-1.82138 c -0.33117,0.24837 -0.55194,0.37256 -0.66232,0.37256 -0.11039,0 -0.19319,-0.0414 -0.24838,-0.12419 -0.0276,-0.0828 0,-0.16558 0.0828,-0.24837 0.0828,-0.0552 0.17937,-0.0966 0.28976,-0.12418 0.13799,-0.0552 0.24837,-0.12419 0.33116,-0.20698 0.11039,-0.11039 0.24838,-0.27597 0.41395,-0.49674 l 0,0 c 0.0276,-0.0276 0.069,-0.0414 0.12419,-0.0414 0.16558,0 0.24837,0.11039 0.24837,0.33117 l 0,2.27672 c 0,0.27597 -0.0966,0.41395 -0.28977,0.41395 -0.19317,0 -0.28976,-0.11039 -0.28976,-0.33116 z"
       sodipodi:nodetypes="cccccscccccccccccsccccccccscsccccccsssss" />
    <path
       inkscape:connector-curvature="0"
       id="path3414"
       style="font-style:normal;font-variant:normal;font-weight:normal;font-stretch:normal;font-size:25.39999962px;line-height:125%;font-family:Scramble;-inkscape-font-specification:Scramble;letter-spacing:0.79304445px;word-spacing:0px;fill:#00ff00;fill-opacity:1;stroke:#00ff00;stroke-width:0.1;stroke-linecap:butt;stroke-linejoin:miter;stroke-opacity:1"
       d="m 78.029829,340.30536 -3.353,0 c -0.8831,0 -1.32465,-0.45535 -1.32465,-1.36604 l 0,-8.23762 c 0,-0.91069 0.44155,-1.36604 1.32465,-1.36604 l 3.55998,0 c 0.41395,0 0.86929,0.0276 1.36603,0.0828 0.66232,0.11039 1.21425,0.41396 1.6558,0.9107 0.44155,0.49674 0.66232,1.07627 0.66232,1.73859 0,1.13147 -0.55193,1.93177 -1.6558,2.40092 1.46263,0.46914 2.19394,1.36603 2.19394,2.69068 0,1.35223 -0.59333,2.26292 -1.77999,2.73206 -0.41395,0.19318 -0.85549,0.31737 -1.32464,0.37256 -0.46915,0.0276 -0.91069,0.0414 -1.32464,0.0414 l 0,0 z m -0.16558,-4.88462 -2.31812,0 0,3.18741 2.40091,0 c 1.49022,0 2.23533,-0.53813 2.23533,-1.6144 0,-0.66232 -0.26217,-1.09007 -0.7865,-1.28324 -0.49675,-0.19318 -1.00729,-0.28977 -1.53162,-0.28977 z m -2.31812,-4.42927 0,2.85626 2.02835,0 c 0.35876,0 0.71752,-0.0414 1.07627,-0.12419 0.38635,-0.0828 0.68992,-0.30356 0.9107,-0.66232 0.46914,-0.8555 0.35875,-1.40744 -0.33117,-1.65581 -0.66231,-0.27596 -1.28324,-0.41394 -1.86277,-0.41394 z m 8.89993,10.34876 c 0.30357,0 0.45535,-0.13798 0.45535,-0.41395 0,-0.16558 -0.069,-0.27597 -0.20698,-0.33116 -0.13798,-0.0552 -0.26217,-0.069 -0.37256,-0.0414 -0.13798,0.0828 -0.23457,0.22078 -0.28976,0.41396 -0.0552,0.13798 -0.16559,0.15178 -0.33116,0.0414 -0.11039,-0.11039 -0.11039,-0.24837 0,-0.41395 0.16558,-0.33116 0.49674,-0.46914 0.99348,-0.41395 0.49675,0.0276 0.74512,0.26217 0.74512,0.70372 0,0.24837 -0.11039,0.45534 -0.33117,0.62092 0.33117,0.16559 0.49675,0.40016 0.49675,0.70372 0,0.52434 -0.28977,0.8417 -0.8693,0.95208 -0.57953,0.0828 -0.95209,-0.11038 -1.11767,-0.57953 -0.11039,-0.16557 -0.11039,-0.30356 0,-0.41395 0.16558,-0.16558 0.28977,-0.15178 0.37256,0.0414 0.0828,0.35875 0.26216,0.53813 0.53813,0.53813 0.33116,0 0.49674,-0.16558 0.49674,-0.49673 0.0276,-0.33116 -0.12418,-0.49674 -0.45534,-0.49674 -0.0828,0 -0.17938,0.0138 -0.28976,0.0414 -0.11039,0 -0.16559,-0.0828 -0.16559,-0.24837 0,-0.13799 0.11039,-0.20698 0.33116,-0.20698 z"
       sodipodi:nodetypes="cssssscsscsccccccccsscccccscccsccsccccccscsccccscscscc" />
    <path
       inkscape:connector-curvature="0"
       id="path3416"
       style="font-style:normal;font-variant:normal;font-weight:normal;font-stretch:normal;font-size:25.39999962px;line-height:125%;font-family:Scramble;-inkscape-font-specification:Scramble;letter-spacing:0.79304445px;word-spacing:0px;fill:#00ff00;fill-opacity:1;stroke:#00ff00;stroke-width:0.1;stroke-linecap:butt;stroke-linejoin:miter;stroke-opacity:1"
       d="m 106.26067,336.82817 c 0,0.44155 -0.11039,0.8693 -0.33116,1.28325 -0.22077,0.38635 -0.46914,0.73131 -0.74511,1.03488 -0.44155,0.49673 -0.96588,0.84169 -1.57301,1.03487 -0.60713,0.19318 -1.22805,0.28977 -1.86278,0.28977 -1.13147,0 -2.083551,-0.22077 -2.856261,-0.66232 -0.60713,-0.33117 -1.10387,-0.81411 -1.49022,-1.44883 -0.38635,-0.66233 -0.64852,-1.32465 -0.78651,-1.98696 -0.27597,-1.35224 -0.19318,-2.66308 0.24837,-3.93253 0.52434,-1.43503 1.44883,-2.40092 2.77347,-2.89766 0.662321,-0.24837 1.393631,-0.37255 2.193941,-0.37255 0.82791,0 1.57302,0.16558 2.23533,0.49673 0.66233,0.33116 1.20046,0.77271 1.61441,1.32465 0.16558,0.27596 0.31736,0.63472 0.45535,1.07627 0.13799,0.41395 0.069,0.7727 -0.20698,1.07627 -0.33116,0.38635 -0.66232,0.46914 -0.99348,0.24837 -0.33116,-0.24837 -0.57953,-0.53813 -0.74511,-0.86929 -0.30356,-0.52434 -0.64852,-0.9245 -1.03488,-1.20047 -0.35876,-0.27596 -0.8417,-0.41394 -1.44882,-0.41394 -0.93829,0 -1.65581,0.34496 -2.152551,1.03487 -0.55193,0.74511 -0.8279,1.7248 -0.8279,2.93905 0,0.63473 0.0828,1.28325 0.24837,1.94557 0.19317,0.63473 0.56573,1.11767 1.117671,1.44883 0.44155,0.30356 0.96588,0.45534 1.57301,0.45534 0.63472,0 1.15906,-0.16558 1.57301,-0.49674 0.46915,-0.30356 0.81411,-0.7727 1.03488,-1.40743 0.0828,-0.24837 0.17938,-0.46914 0.28976,-0.66232 0.13799,-0.19318 0.37256,-0.28977 0.70372,-0.28977 0.66232,0 0.99348,0.31736 0.99348,0.95209 z m 1.90418,4.51206 c 0.30356,0 0.45534,-0.13798 0.45534,-0.41395 0,-0.16558 -0.069,-0.27597 -0.20697,-0.33116 -0.13799,-0.0552 -0.26217,-0.069 -0.37256,-0.0414 -0.13799,0.0828 -0.23457,0.22078 -0.28976,0.41396 -0.0552,0.13798 -0.16559,0.15178 -0.33117,0.0414 -0.11039,-0.11039 -0.11039,-0.24837 0,-0.41395 0.16559,-0.33116 0.49675,-0.46914 0.99349,-0.41395 0.49673,0.0276 0.7451,0.26217 0.7451,0.70372 0,0.24837 -0.11038,0.45534 -0.33115,0.62092 0.33116,0.16559 0.49674,0.40016 0.49674,0.70372 0,0.52434 -0.28977,0.8417 -0.8693,0.95208 -0.57953,0.0828 -0.95208,-0.11038 -1.11767,-0.57953 -0.11039,-0.16557 -0.11039,-0.30356 0,-0.41395 0.16559,-0.16558 0.28977,-0.15178 0.37256,0.0414 0.0828,0.35875 0.26217,0.53813 0.53814,0.53813 0.33116,0 0.49674,-0.16558 0.49674,-0.49673 0.0276,-0.33116 -0.12418,-0.49674 -0.45535,-0.49674 -0.0828,0 -0.17938,0.0138 -0.28977,0.0414 -0.11039,0 -0.16558,-0.0828 -0.16558,-0.24837 0,-0.13799 0.11039,-0.20698 0.33117,-0.20698 z"
       sodipodi:nodetypes="cccssccccsssccccccscsccscccscccsccccccscsccccscscscc" />
    <path
       inkscape:connector-curvature="0"
       id="path3418"
       style="font-style:normal;font-variant:normal;font-weight:normal;font-stretch:normal;font-size:25.39999962px;line-height:125%;font-family:Scramble;-inkscape-font-specification:Scramble;letter-spacing:0.79304445px;word-spacing:0px;fill:#00ff00;fill-opacity:1;stroke:#00ff00;stroke-width:0.1;stroke-linecap:butt;stroke-linejoin:miter;stroke-opacity:1"
       d="m 121.9902,329.33566 2.89766,0 c 0.60713,0 1.20046,0.069 1.77999,0.20698 0.57953,0.11039 1.11767,0.37256 1.61441,0.78651 1.15906,0.96588 1.73859,2.4423 1.73859,4.42926 0,0.57953 -0.0552,1.15907 -0.16558,1.7386 -0.11039,0.55193 -0.28977,1.06247 -0.53814,1.53161 -0.66232,1.26945 -1.6696,1.98697 -3.02184,2.15255 -0.68992,0.11039 -1.40743,0.16558 -2.15254,0.16558 -0.71751,-0.0276 -1.42123,-0.0414 -2.11115,-0.0414 -0.57953,0 -0.95208,-0.13798 -1.11766,-0.41395 -0.16559,-0.27597 -0.24838,-0.66232 -0.24838,-1.15906 l 0,-8.03064 c 0,-0.91069 0.44155,-1.36604 1.32464,-1.36604 z m 0.8693,1.7386 0,7.4511 c 0.55194,0 1.21426,0.0138 1.98697,0.0414 0.77271,0 1.36603,-0.19318 1.77998,-0.57953 0.74511,-0.60713 1.11767,-1.6834 1.11767,-3.22881 0,-0.60713 -0.11039,-1.26945 -0.33116,-1.98697 -0.19317,-0.74511 -0.64852,-1.22805 -1.36604,-1.44883 -0.49674,-0.16557 -1.03487,-0.24836 -1.6144,-0.24836 z m 8.81715,11.54922 1.07627,0 c 0.19318,0 0.28977,0.0828 0.28977,0.24837 0,0.16558 -0.0828,0.24837 -0.24837,0.24837 l -1.49023,0 c -0.19317,0 -0.28976,-0.0966 -0.28976,-0.28977 0,-0.13798 0.0828,-0.28976 0.24837,-0.45534 0.16558,-0.16558 0.28977,-0.30356 0.37256,-0.41395 l 0.33115,-0.24837 c 0.0828,-0.0552 0.17938,-0.13799 0.28977,-0.24837 0.13799,-0.13799 0.20698,-0.28977 0.20698,-0.45535 0,-0.24837 -0.12419,-0.38636 -0.37256,-0.41395 -0.22077,-0.0552 -0.38635,0.0138 -0.49674,0.20698 -0.0552,0.0828 -0.0966,0.17937 -0.12418,0.28976 -0.0276,0.0828 -0.11039,0.12418 -0.24838,0.12418 -0.13798,0 -0.20697,-0.0828 -0.20697,-0.24836 0,-0.35876 0.17938,-0.59333 0.53814,-0.70372 0.35875,-0.11039 0.68991,-0.12419 0.99347,-0.0414 0.30357,0.13799 0.45536,0.38636 0.45536,0.74512 0,0.41395 -0.17938,0.73131 -0.53814,0.95208 -0.33117,0.22077 -0.59334,0.45534 -0.78651,0.70371 z"
       sodipodi:nodetypes="sscssccccscsssccccsccsccsssssscccscccssscsccc" />
    <path
       inkscape:connector-curvature="0"
       id="path3420"
       style="font-style:normal;font-variant:normal;font-weight:normal;font-stretch:normal;font-size:25.39999962px;line-height:125%;font-family:Scramble;-inkscape-font-specification:Scramble;letter-spacing:0.79304445px;word-spacing:0px;fill:#00ff00;fill-opacity:1;stroke:#00ff00;stroke-width:0.1;stroke-linecap:butt;stroke-linejoin:miter;stroke-opacity:1"
       d="m 152.12522,331.03286 -5.0088,0 0,2.69068 4.59485,0 c 0.68993,0 1.03489,0.27597 1.03489,0.8279 0,0.33116 -0.11039,0.56573 -0.33117,0.70371 -0.22077,0.11039 -0.45534,0.16559 -0.70372,0.16559 l -4.59485,0 0,3.10462 5.17438,0 c 0.71752,0 1.07628,0.28977 1.07628,0.8693 0,0.33116 -0.12419,0.56573 -0.37256,0.70372 -0.22077,0.13799 -0.45534,0.20698 -0.70372,0.20698 l -6.04368,0 c -0.88309,0 -1.32464,-0.45535 -1.32464,-1.36604 l 0,-8.23762 c 0,-0.91069 0.44155,-1.36604 1.32464,-1.36604 l 5.8781,0 c 0.24837,0 0.48295,0.069 0.70372,0.20698 0.22077,0.11039 0.33116,0.31736 0.33116,0.62092 0,0.57953 -0.34496,0.8693 -1.03488,0.8693 z m 3.51859,11.79759 0,-1.82138 c -0.33116,0.24837 -0.55194,0.37256 -0.66233,0.37256 -0.11039,0 -0.19317,-0.0414 -0.24836,-0.12419 -0.0276,-0.0828 0,-0.16558 0.0828,-0.24837 0.0828,-0.0552 0.17938,-0.0966 0.28977,-0.12418 0.13799,-0.0552 0.24837,-0.12419 0.33116,-0.20698 0.11039,-0.11039 0.24837,-0.27597 0.41396,-0.49674 l 0,0 c 0.0276,-0.0276 0.069,-0.0414 0.12418,-0.0414 0.16558,0 0.24837,0.11039 0.24837,0.33117 l 0,2.27672 c 0,0.27597 -0.0966,0.41395 -0.28976,0.41395 -0.19318,0 -0.28977,-0.11039 -0.28977,-0.33116 z"
       sodipodi:nodetypes="sccsscsccsscsssssscssccscccsccsssscc" />
    <path
       inkscape:connector-curvature="0"
       id="path3422"
       style="font-style:normal;font-variant:normal;font-weight:normal;font-stretch:normal;font-size:25.39999962px;line-height:125%;font-family:Scramble;-inkscape-font-specification:Scramble;letter-spacing:0.79304445px;word-spacing:0px;fill:#00ff00;fill-opacity:1;stroke:#00ff00;stroke-width:0.1;stroke-linecap:butt;stroke-linejoin:miter;stroke-opacity:1"
       d="m 175.63704,331.03286 -4.34649,0 0,2.81487 3.64277,0 c 0.24837,0 0.48294,0.069 0.70372,0.20697 0.22077,0.11039 0.33116,0.31736 0.33116,0.62092 0,0.33117 -0.11039,0.55194 -0.33116,0.66232 -0.22078,0.11039 -0.45535,0.16559 -0.70372,0.16559 l -3.64277,0 0,3.60137 c 0,0.38635 -0.0966,0.71751 -0.28976,0.99348 -0.16558,0.24837 -0.44155,0.37256 -0.8279,0.37256 -0.41395,0 -0.70372,-0.12419 -0.8693,-0.37256 -0.16558,-0.27597 -0.24837,-0.60713 -0.24837,-0.99348 l 0,-8.4032 c 0,-0.91069 0.45535,-1.36604 1.36604,-1.36604 l 5.21578,0 c 0.71751,0 1.07627,0.27597 1.07627,0.8279 0,0.57953 -0.35876,0.8693 -1.07627,0.8693 z m 4.01532,11.83899 0,-0.37256 -0.99349,0 c -0.16558,0 -0.28976,-0.0414 -0.37255,-0.12418 -0.0552,-0.11039 -0.0414,-0.23457 0.0414,-0.37256 0.16558,-0.24837 0.34496,-0.51054 0.53813,-0.78651 l 0.66233,-0.82789 c 0.0828,-0.16559 0.19317,-0.24838 0.33115,-0.24838 0.19318,0 0.28977,0.11039 0.28977,0.33117 l 0,1.57301 c 0.30356,0 0.45534,0.069 0.45534,0.20697 0,0.16558 -0.15178,0.24837 -0.45534,0.24837 l 0,0.41396 c 0,0.16557 -0.0828,0.24836 -0.24837,0.24836 -0.16558,0 -0.24837,-0.0966 -0.24837,-0.28976 z m -0.8693,-0.8279 0.8693,0 0,-1.20046 z"
       sodipodi:nodetypes="cccscscscscscsssssccscsccccsscscssscccc" />
    <path
       inkscape:connector-curvature="0"
       id="path3424"
       style="font-style:normal;font-variant:normal;font-weight:normal;font-stretch:normal;font-size:25.39999962px;line-height:125%;font-family:Scramble;-inkscape-font-specification:Scramble;letter-spacing:0.79304445px;word-spacing:0px;fill:#00ff00;fill-opacity:1;stroke:#00ff00;stroke-width:0.1;stroke-linecap:butt;stroke-linejoin:miter;stroke-opacity:1"
       d="m 59.071479,362.32753 0,2.11114 c 0,0.55194 -0.12419,0.9245 -0.37256,1.11768 -0.11039,0.11038 -0.30356,0.23456 -0.57953,0.37255 -0.71751,0.38635 -1.35224,0.64852 -1.90418,0.78651 -1.02107,0.27596 -2.11114,0.33115 -3.27021,0.16558 -1.13146,-0.16558 -2.06974,-0.64852 -2.81485,-1.44883 -0.80031,-0.77271 -1.28326,-1.77999 -1.44883,-3.02184 -0.16559,-1.24185 -0.0552,-2.38712 0.33115,-3.43579 0.24837,-0.71751 0.62093,-1.32464 1.11768,-1.82139 0.55193,-0.55193 1.20045,-0.93828 1.94556,-1.15906 0.74511,-0.24837 1.50402,-0.37255 2.27673,-0.37255 0.55193,0 1.13147,0.0828 1.7386,0.24837 0.60712,0.16558 1.13145,0.42775 1.573,0.7865 0.24837,0.22078 0.48295,0.51055 0.70372,0.8693 0.24837,0.33116 0.37256,0.66232 0.37256,0.99348 0,0.49674 -0.24837,0.8141 -0.74511,0.95209 -0.49675,0.13799 -0.86931,0.0138 -1.11768,-0.37256 -0.16557,-0.19317 -0.30355,-0.37255 -0.41394,-0.53813 -0.11039,-0.19317 -0.20698,-0.34496 -0.28977,-0.45535 -0.41395,-0.41395 -0.96589,-0.64852 -1.6558,-0.70371 -0.66233,-0.0828 -1.24186,-0.0138 -1.73859,0.20697 -0.71752,0.33116 -1.21426,0.8417 -1.49022,1.53162 -0.27597,0.68992 -0.41395,1.39364 -0.41395,2.11115 0,1.29704 0.28976,2.27672 0.86929,2.93905 0.46915,0.57953 1.07627,0.92448 1.82138,1.03487 0.74511,0.0828 1.44883,0.0276 2.11115,-0.16558 0.38635,-0.11038 0.8417,-0.30356 1.36604,-0.57953 l 0,-1.77999 -1.6972,0 c -0.30357,0 -0.59333,-0.0414 -0.8693,-0.12418 -0.27596,-0.11039 -0.41394,-0.34496 -0.41394,-0.70372 0,-0.27597 0.0966,-0.48294 0.28976,-0.62092 0.22077,-0.13799 0.45534,-0.20698 0.70371,-0.20698 l 2.5251,0 c 0.38635,0 0.64852,0.0276 0.78651,0.0828 0.27597,0.0828 0.45534,0.24838 0.53813,0.49675 0.11039,0.22077 0.16559,0.45535 0.16559,0.70372 l 0,0 z m 1.44882,6.78879 1.07627,0 c 0.19318,0 0.28977,0.0828 0.28977,0.24837 0,0.16558 -0.0828,0.24837 -0.24837,0.24837 l -1.49023,0 c -0.19317,0 -0.28976,-0.0966 -0.28976,-0.28976 0,-0.13799 0.0828,-0.28977 0.24838,-0.45535 0.16557,-0.16558 0.28976,-0.30356 0.37255,-0.41395 l 0.33116,-0.24837 c 0.0828,-0.0552 0.17937,-0.13799 0.28976,-0.24837 0.13799,-0.13799 0.20698,-0.28977 0.20698,-0.45535 0,-0.24837 -0.12419,-0.38636 -0.37256,-0.41395 -0.22077,-0.0552 -0.38635,0.0138 -0.49674,0.20698 -0.0552,0.0828 -0.0966,0.17938 -0.12418,0.28977 -0.0276,0.0828 -0.11039,0.12417 -0.24837,0.12417 -0.13799,0 -0.20698,-0.0828 -0.20698,-0.24836 0,-0.35876 0.17938,-0.59333 0.53814,-0.70372 0.35875,-0.11039 0.68991,-0.12419 0.99348,-0.0414 0.30357,0.13799 0.45535,0.38636 0.45535,0.74512 0,0.41395 -0.17938,0.73131 -0.53814,0.95208 -0.33116,0.22077 -0.59333,0.45535 -0.78651,0.70372 z"
       sodipodi:nodetypes="cscccccccscssccsscccccsscccccscscssccccccsssssccccscccssscscc" />
    <path
       inkscape:connector-curvature="0"
       id="path3426"
       style="font-style:normal;font-variant:normal;font-weight:normal;font-stretch:normal;font-size:25.39999962px;line-height:125%;font-family:Scramble;-inkscape-font-specification:Scramble;letter-spacing:0.79304445px;word-spacing:0px;fill:#00ff00;fill-opacity:1;stroke:#00ff00;stroke-width:0.1;stroke-linecap:butt;stroke-linejoin:miter;stroke-opacity:1"
       d="m 75.256359,356.98757 0,3.14602 4.80183,0 0,-3.14602 c 0,-0.33117 0.0828,-0.63473 0.24837,-0.9107 0.16557,-0.30356 0.45534,-0.45534 0.86929,-0.45534 0.38635,0 0.66232,0.15178 0.8279,0.45534 0.19318,0.27597 0.28977,0.57953 0.28977,0.9107 l 0,8.61017 c 0,0.35876 -0.0966,0.67612 -0.28977,0.95208 -0.16558,0.27597 -0.44155,0.41395 -0.8279,0.41395 -0.41395,0 -0.70372,-0.12418 -0.86929,-0.37255 -0.16558,-0.27597 -0.24837,-0.60713 -0.24837,-0.99348 l 0,-3.68416 -4.80183,0 0,3.68416 c 0,0.35876 -0.0828,0.67612 -0.24837,0.95208 -0.16558,0.27597 -0.45535,0.41395 -0.8693,0.41395 -0.41395,0 -0.70371,-0.12418 -0.8693,-0.37255 -0.13798,-0.27597 -0.20697,-0.60713 -0.20697,-0.99348 l 0,-8.61017 c 0,-0.35876 0.069,-0.67612 0.20697,-0.95209 0.16559,-0.27597 0.45535,-0.41395 0.8693,-0.41395 0.41395,0 0.70372,0.13798 0.8693,0.41395 0.16558,0.27597 0.24837,0.59333 0.24837,0.95209 z m 9.52086,12.37712 0,-0.37256 -0.99348,0 c -0.16558,0 -0.28976,-0.0414 -0.37255,-0.12418 -0.0552,-0.11039 -0.0414,-0.23457 0.0414,-0.37256 0.16558,-0.24837 0.34496,-0.51054 0.53814,-0.78651 l 0.66232,-0.82789 c 0.0828,-0.16558 0.19318,-0.24837 0.33116,-0.24837 0.19318,0 0.28977,0.11038 0.28977,0.33115 l 0,1.57302 c 0.30356,0 0.45534,0.069 0.45534,0.20698 0,0.16557 -0.15178,0.24836 -0.45534,0.24836 l 0,0.41396 c 0,0.16557 -0.0828,0.24836 -0.24838,0.24836 -0.16557,0 -0.24836,-0.0966 -0.24836,-0.28976 z m -0.86929,-0.8279 0.86929,0 0,-1.20046 z"
       sodipodi:nodetypes="sccscscsscscsccssscsscsssccsccccsscscsscccccc" />
    <path
       inkscape:connector-curvature="0"
       id="path3428"
       style="font-style:normal;font-variant:normal;font-weight:normal;font-stretch:normal;font-size:25.39999962px;line-height:125%;font-family:Scramble;-inkscape-font-specification:Scramble;letter-spacing:0.79304445px;word-spacing:0px;fill:#00ff00;fill-opacity:1;stroke:#00ff00;stroke-width:0.1;stroke-linecap:butt;stroke-linejoin:miter;stroke-opacity:1"
       d="m 100.25839,365.59774 0,-8.61017 c 0,-0.33117 0.0828,-0.63473 0.24836,-0.9107 0.16559,-0.30356 0.45535,-0.45534 0.8693,-0.45534 0.38635,0 0.66232,0.15178 0.82791,0.45534 0.19317,0.27597 0.28976,0.57953 0.28976,0.9107 l 0,8.61017 c 0,0.38635 -0.0966,0.71751 -0.28976,0.99348 -0.16559,0.24837 -0.44156,0.37255 -0.82791,0.37255 -0.41395,0 -0.70371,-0.13798 -0.8693,-0.41395 -0.16557,-0.27596 -0.24836,-0.59332 -0.24836,-0.95208 z m 7.94785,3.72556 0,-1.82139 c -0.33116,0.24837 -0.55193,0.37256 -0.66232,0.37256 -0.11039,0 -0.19318,-0.0414 -0.24837,-0.12419 -0.0276,-0.0828 0,-0.16558 0.0828,-0.24837 0.0828,-0.0552 0.17938,-0.0966 0.28977,-0.12418 0.11038,-0.0552 0.22077,-0.12419 0.33116,-0.20698 0.0828,-0.0828 0.15178,-0.16558 0.20697,-0.24837 0.0552,-0.0828 0.12419,-0.16558 0.20698,-0.24837 0,-0.0276 0.0414,-0.0414 0.12418,-0.0414 0.16558,0 0.24837,0.11039 0.24837,0.33116 l 0,2.27673 c 0,0.27597 -0.0966,0.41395 -0.28976,0.41395 -0.19318,0 -0.28977,-0.11039 -0.28977,-0.33116 z"
       sodipodi:nodetypes="sscscsscscsccsccccccsssscc" />
    <path
       inkscape:connector-curvature="0"
       id="path3430"
       style="font-style:normal;font-variant:normal;font-weight:normal;font-stretch:normal;font-size:25.39999962px;line-height:125%;font-family:Scramble;-inkscape-font-specification:Scramble;letter-spacing:0.79304445px;word-spacing:0px;fill:#00ff00;fill-opacity:1;stroke:#00ff00;stroke-width:0.1;stroke-linecap:butt;stroke-linejoin:miter;stroke-opacity:1"
       d="m 128.28226,356.98757 0,5.75391 c 0,1.21425 -0.26217,2.22153 -0.78651,3.02184 -0.52434,0.8003 -1.49023,1.20045 -2.89766,1.20045 -0.85549,0 -1.5868,-0.17938 -2.19393,-0.53813 -0.60713,-0.35876 -1.02108,-0.99348 -1.24185,-1.90417 -0.0828,-0.24837 -0.13799,-0.55194 -0.16558,-0.91069 -0.0276,-0.38636 0.069,-0.70372 0.28976,-0.95209 0.38636,-0.35876 0.75892,-0.41395 1.11767,-0.16558 0.35875,0.22077 0.57953,0.53814 0.66232,0.95209 0.0828,0.49674 0.20698,0.91069 0.37255,1.24185 0.19318,0.33116 0.57953,0.49674 1.15906,0.49674 0.96589,0 1.44883,-0.71752 1.44883,-2.15255 l 0,-6.04367 c 0,-0.35876 0.0828,-0.67612 0.24837,-0.95209 0.16558,-0.27597 0.45535,-0.41395 0.8693,-0.41395 0.38635,0 0.66232,0.13798 0.8279,0.41395 0.19318,0.27597 0.28977,0.59333 0.28977,0.95209 z m 2.77347,10.43155 c 0,-0.49674 0.30356,-0.74511 0.91068,-0.74511 0.63473,0 0.9521,0.24837 0.9521,0.74511 0,0.27597 -0.12419,0.46914 -0.37257,0.57953 0.33117,0.16559 0.49675,0.42776 0.49675,0.78651 0,0.35876 -0.16558,0.60713 -0.49675,0.74511 -0.22077,0.11039 -0.49673,0.15178 -0.82789,0.12418 -0.30357,-0.0552 -0.52434,-0.20698 -0.66232,-0.45534 -0.13799,-0.19317 -0.16559,-0.41395 -0.0828,-0.66232 0.0828,-0.24837 0.24837,-0.42775 0.49674,-0.53814 -0.27596,-0.11039 -0.41394,-0.30356 -0.41394,-0.57953 z m 1.44882,1.32465 c 0,-0.35876 -0.17938,-0.53814 -0.53814,-0.53814 -0.33115,0 -0.49673,0.17938 -0.49673,0.53814 0.0276,0.35875 0.20698,0.53813 0.53813,0.53813 0.33116,0 0.49674,-0.17938 0.49674,-0.53813 z m -0.49674,-1.7386 c -0.30356,0 -0.45534,0.13798 -0.45534,0.41395 0,0.27597 0.13798,0.41395 0.41394,0.41395 0.30357,0 0.45536,-0.13798 0.45536,-0.41395 0,-0.27597 -0.13799,-0.41395 -0.41396,-0.41395 z"
       sodipodi:nodetypes="sssssccccccssssscsssscscccccssscsscssscc" />
    <path
       inkscape:connector-curvature="0"
       id="path3432"
       style="font-style:normal;font-variant:normal;font-weight:normal;font-stretch:normal;font-size:25.39999962px;line-height:125%;font-family:Scramble;-inkscape-font-specification:Scramble;letter-spacing:0.79304445px;word-spacing:0px;fill:#00ff00;fill-opacity:1;stroke:#00ff00;stroke-width:0.1;stroke-linecap:butt;stroke-linejoin:miter;stroke-opacity:1"
       d="m 146.57829,356.98757 0,3.84974 4.34648,-4.55346 c 0.16558,-0.16558 0.33116,-0.31736 0.49674,-0.45535 0.16558,-0.13798 0.37256,-0.20697 0.62093,-0.20697 0.71751,0 1.07627,0.33116 1.07627,0.99348 0,0.35875 -0.16558,0.67612 -0.49674,0.95209 l -2.69068,2.56649 3.10463,4.42927 c 0.16558,0.30356 0.34496,0.66232 0.53813,1.07628 0.22078,0.41395 0.16559,0.7727 -0.16557,1.07627 -0.19318,0.16557 -0.45535,0.26216 -0.78651,0.28976 -0.30357,0 -0.55194,-0.0828 -0.74511,-0.24837 -0.19318,-0.11039 -0.35876,-0.27597 -0.49674,-0.49674 -0.13799,-0.22077 -0.26217,-0.42775 -0.37256,-0.62092 l -2.60789,-4.01532 -1.82138,1.73859 0,2.23533 c 0,0.41395 -0.11039,0.75891 -0.33117,1.03488 -0.19317,0.27596 -0.49673,0.38634 -0.91068,0.33115 -0.52434,-0.0552 -0.81411,-0.27597 -0.8693,-0.66232 -0.0552,-0.38635 -0.0828,-0.77271 -0.0828,-1.15906 l 0,-8.15482 c 0,-0.35876 0.069,-0.67612 0.20698,-0.95209 0.16558,-0.27597 0.45535,-0.41395 0.8693,-0.41395 0.38635,0 0.66232,0.13798 0.8279,0.41395 0.19318,0.27597 0.28977,0.59333 0.28977,0.95209 z m 9.81063,10.18318 -0.95209,0 -0.12418,0.62093 c 0.35875,-0.13798 0.66232,-0.16558 0.91069,-0.0828 0.35875,0.16558 0.53813,0.46915 0.53813,0.9107 0,0.41395 -0.16558,0.71751 -0.49674,0.91069 -0.22077,0.11038 -0.49674,0.15177 -0.8279,0.12418 -0.30357,-0.0552 -0.51054,-0.20698 -0.62093,-0.45535 -0.13798,-0.16558 -0.15178,-0.30356 -0.0414,-0.41394 0.0552,-0.0828 0.12419,-0.0966 0.20698,-0.0414 0.11039,0.0276 0.17939,0.0828 0.20698,0.16558 0.0828,0.24837 0.26217,0.37255 0.53813,0.37255 0.33116,0 0.49674,-0.20697 0.49674,-0.62092 0,-0.41395 -0.16558,-0.62093 -0.49674,-0.62093 -0.0828,0 -0.15178,0.0138 -0.20697,0.0414 l -0.0414,0 c -0.0828,0.0552 -0.19317,0.12419 -0.33116,0.20697 -0.11039,0.0828 -0.20698,0.0828 -0.28977,0 -0.0828,-0.0552 -0.0966,-0.16559 -0.0414,-0.33116 l 0.16558,-0.95209 c 0.0276,-0.22077 0.13799,-0.33115 0.33116,-0.33115 l 1.07627,0 c 0.19318,0 0.28977,0.0828 0.28977,0.24837 0,0.16558 -0.0966,0.24837 -0.28977,0.24837 l 0,0 z"
       sodipodi:nodetypes="scccsscccccccccccscccsscscsccccsccccccsssccccccsssccc" />
    <path
       inkscape:connector-curvature="0"
       id="path3434"
       style="font-style:normal;font-variant:normal;font-weight:normal;font-stretch:normal;font-size:25.39999962px;line-height:125%;font-family:Scramble;-inkscape-font-specification:Scramble;letter-spacing:0.79304445px;word-spacing:0px;fill:#00ff00;fill-opacity:1;stroke:#00ff00;stroke-width:0.1;stroke-linecap:butt;stroke-linejoin:miter;stroke-opacity:1"
       d="m 171.29055,356.98757 0,7.94785 4.51206,0 c 0.24837,0 0.48295,0.0828 0.70372,0.24837 0.24837,0.13798 0.37256,0.37255 0.37256,0.70371 0,0.33116 -0.12419,0.56573 -0.37256,0.70372 -0.22077,0.13799 -0.45535,0.20698 -0.70372,0.20698 l -5.38135,0 c -0.91069,0 -1.36604,-0.45535 -1.36604,-1.36604 l 0,-8.44459 c 0,-0.41395 0.11039,-0.75891 0.33116,-1.03488 0.16558,-0.19317 0.41395,-0.28976 0.74511,-0.28976 0.35876,0 0.63473,0.0966 0.82791,0.28976 0.22077,0.27597 0.33115,0.62093 0.33115,1.03488 z m 8.07204,12.33573 0,-1.82139 c -0.33116,0.24837 -0.55193,0.37256 -0.66232,0.37256 -0.11039,0 -0.19318,-0.0414 -0.24837,-0.12419 -0.0276,-0.0828 0,-0.16558 0.0828,-0.24837 0.0828,-0.0552 0.17938,-0.0966 0.28977,-0.12418 0.11039,-0.0552 0.22077,-0.12419 0.33116,-0.20698 0.0828,-0.0828 0.15178,-0.16558 0.20697,-0.24837 0.0552,-0.0828 0.12419,-0.16558 0.20698,-0.24837 0,-0.0276 0.0414,-0.0414 0.12419,-0.0414 0.16557,0 0.24836,0.11039 0.24836,0.33116 l 0,2.27673 c 0,0.27597 -0.0966,0.41395 -0.28976,0.41395 -0.19318,0 -0.28977,-0.11039 -0.28977,-0.33116 z"
       sodipodi:nodetypes="scscscsssscscsccsccccccsssscc" />
    <path
       inkscape:connector-curvature="0"
       id="path3436"
       style="font-style:normal;font-variant:normal;font-weight:normal;font-stretch:normal;font-size:25.39999962px;line-height:125%;font-family:Scramble;-inkscape-font-specification:Scramble;letter-spacing:0.79304445px;word-spacing:0px;fill:#00ff00;fill-opacity:1;stroke:#00ff00;stroke-width:0.1;stroke-linecap:butt;stroke-linejoin:miter;stroke-opacity:1"
       d="m 194.76097,365.14239 -1.7386,-6.99576 0,7.57529 c 0,0.33117 -0.0828,0.62093 -0.24837,0.8693 -0.16558,0.24837 -0.42775,0.37255 -0.78651,0.37255 -0.38635,0 -0.64852,-0.12418 -0.7865,-0.37255 -0.13799,-0.24837 -0.20698,-0.53813 -0.20698,-0.8693 l 0,-8.69296 c 0,-0.46914 0.12419,-0.7865 0.37256,-0.95209 0.22077,-0.16558 0.48294,-0.24837 0.78651,-0.24837 l 0.91068,0 c 0.22078,0 0.45535,0.0276 0.70372,0.0828 0.27597,0.0276 0.46915,0.16558 0.57953,0.41395 0.11039,0.30356 0.22077,0.62092 0.33116,0.95208 l 1.57301,6.00229 1.61441,-6.00229 c 0.0552,-0.19317 0.0966,-0.37255 0.12419,-0.53813 0.0552,-0.16558 0.11039,-0.30356 0.16558,-0.41395 0.11039,-0.24837 0.28977,-0.38636 0.53814,-0.41395 0.27596,-0.0552 0.53813,-0.0828 0.7865,-0.0828 l 0.8279,0 c 0.33117,0 0.62093,0.0828 0.8693,0.24837 0.24837,0.16559 0.37255,0.48295 0.37255,0.95209 l 0,8.69296 c 0,0.46915 -0.0966,0.77271 -0.28976,0.9107 -0.19318,0.24837 -0.44155,0.37255 -0.74511,0.37255 -0.30357,-0.0276 -0.53814,-0.15178 -0.70372,-0.37255 -0.19318,-0.13799 -0.28977,-0.44155 -0.28977,-0.9107 l 0,-7.57529 -1.77998,6.99576 c -0.0828,0.27597 -0.16558,0.56574 -0.24837,0.8693 -0.0552,0.27597 -0.19319,0.51054 -0.41396,0.70372 -0.49674,0.38635 -0.99348,0.41395 -1.49022,0.0828 -0.27597,-0.16558 -0.46914,-0.40015 -0.57953,-0.70372 -0.0828,-0.33115 -0.16558,-0.64852 -0.24836,-0.95209 l 0,0 z m 8.279,2.69068 c 0.30357,0 0.45535,-0.13798 0.45535,-0.41395 0,-0.16558 -0.069,-0.27597 -0.20697,-0.33116 -0.13799,-0.0552 -0.26217,-0.069 -0.37256,-0.0414 -0.13798,0.0828 -0.23457,0.22078 -0.28976,0.41396 -0.0552,0.13798 -0.16559,0.15178 -0.33117,0.0414 -0.11038,-0.11039 -0.11038,-0.24837 0,-0.41395 0.16558,-0.33116 0.49674,-0.46914 0.99349,-0.41395 0.49674,0.0276 0.74511,0.26217 0.74511,0.70372 0,0.24837 -0.11039,0.45534 -0.33117,0.62092 0.33116,0.16559 0.49674,0.40016 0.49674,0.70372 0,0.52434 -0.28976,0.8417 -0.86929,0.95208 -0.57953,0.0828 -0.95209,-0.11038 -1.11767,-0.57953 -0.11038,-0.16557 -0.11038,-0.30356 0,-0.41395 0.16558,-0.16558 0.28977,-0.15178 0.37256,0.0414 0.0828,0.35876 0.26217,0.53814 0.53813,0.53814 0.33116,0 0.49674,-0.16558 0.49674,-0.49674 0.0276,-0.33116 -0.12418,-0.49674 -0.45534,-0.49674 -0.0828,0 -0.17938,0.0138 -0.28977,0.0414 -0.11038,0 -0.16557,-0.0828 -0.16557,-0.24837 0,-0.13799 0.11038,-0.20698 0.33115,-0.20698 z"
       sodipodi:nodetypes="ccssscsscssccccccccsscsscccsccccccccccsccccccscsccccscscscc" />
    <path
       inkscape:connector-curvature="0"
       id="path3438"
       style="font-style:normal;font-variant:normal;font-weight:normal;font-stretch:normal;font-size:25.39999962px;line-height:125%;font-family:Scramble;-inkscape-font-specification:Scramble;letter-spacing:0.79304445px;word-spacing:0px;fill:#00ff00;fill-opacity:1;stroke:#00ff00;stroke-width:0.1;stroke-linecap:butt;stroke-linejoin:miter;stroke-opacity:1"
       d="m 52.199889,383.43901 4.2637,6.45763 0,-6.49902 c 0,-0.33117 0.069,-0.62093 0.20697,-0.8693 0.16558,-0.27597 0.44155,-0.41395 0.8279,-0.41395 0.35876,0 0.62093,0.13798 0.78651,0.41395 0.16558,0.24837 0.24837,0.53813 0.24837,0.8693 l 0,8.61017 c 0,0.96588 -0.40015,1.44882 -1.20045,1.44882 -0.44155,0 -0.80031,-0.13798 -1.07628,-0.41394 -0.24837,-0.27597 -0.46914,-0.57953 -0.66232,-0.9107 l -4.1809,-6.37484 0,6.41624 c 0,0.33116 -0.0828,0.63472 -0.24837,0.91069 -0.16558,0.24837 -0.42775,0.37255 -0.78651,0.37255 -0.38635,0 -0.66232,-0.12418 -0.82789,-0.37255 -0.13799,-0.24837 -0.20698,-0.55193 -0.20698,-0.91069 l 0,-8.44459 c 0,-0.38635 0.0414,-0.66232 0.12418,-0.82791 0.16558,-0.41395 0.46914,-0.66231 0.91069,-0.7451 0.46915,-0.0828 0.8555,0.0276 1.15906,0.33115 l 0.33117,0.49674 c 0.11039,0.16559 0.22077,0.31737 0.33115,0.45535 z m 8.56879,12.37713 0,-1.82138 c -0.33117,0.24837 -0.55194,0.37255 -0.66232,0.37255 -0.11039,0 -0.19319,-0.0414 -0.24838,-0.12419 -0.0276,-0.0828 0,-0.16558 0.0828,-0.24836 0.0828,-0.0552 0.17937,-0.0966 0.28976,-0.12419 0.11039,-0.0552 0.22077,-0.12419 0.33116,-0.20698 0.0828,-0.0828 0.15179,-0.16558 0.20698,-0.24836 0.0552,-0.0828 0.12419,-0.16559 0.20697,-0.24838 l 0,0 c 0.0276,-0.0276 0.069,-0.0414 0.12419,-0.0414 0.16558,0 0.24837,0.11039 0.24837,0.33116 l 0,2.27673 c 0,0.27597 -0.0966,0.41395 -0.28977,0.41395 -0.19317,0 -0.28976,-0.11039 -0.28976,-0.33116 z"
       sodipodi:nodetypes="ccscscssscccscscsscccccccscccccccsssscc" />
    <path
       inkscape:connector-curvature="0"
       id="path3440"
       style="font-style:normal;font-variant:normal;font-weight:normal;font-stretch:normal;font-size:25.39999962px;line-height:125%;font-family:Scramble;-inkscape-font-specification:Scramble;letter-spacing:0.79304445px;word-spacing:0px;fill:#00ff00;fill-opacity:1;stroke:#00ff00;stroke-width:0.1;stroke-linecap:butt;stroke-linejoin:miter;stroke-opacity:1"
       d="m 77.615879,382.11437 c 1.10387,0 2.08355,0.23457 2.93904,0.70372 0.8831,0.52433 1.51783,1.24185 1.90418,2.15254 0.38635,0.88309 0.57953,1.82138 0.57953,2.81486 0,0.74511 -0.11039,1.47643 -0.33116,2.19394 -0.22077,0.71751 -0.57953,1.35224 -1.07627,1.90418 -0.49674,0.57953 -1.10387,0.99348 -1.82139,1.24185 -0.68991,0.22077 -1.40742,0.33115 -2.15253,0.33115 -0.74512,0 -1.47644,-0.11038 -2.19395,-0.33115 -0.68992,-0.24837 -1.28325,-0.66232 -1.77998,-1.24185 -0.49674,-0.55194 -0.8555,-1.18667 -1.07628,-1.90418 -0.22077,-0.74511 -0.33115,-1.49022 -0.33115,-2.23533 0,-0.71751 0.11038,-1.43503 0.33115,-2.15255 0.22078,-0.71751 0.57954,-1.36604 1.07628,-1.94557 0.49673,-0.52433 1.09006,-0.91069 1.77998,-1.15906 0.68992,-0.24837 1.40744,-0.37255 2.15255,-0.37255 z m 3.14602,5.62973 c 0,-0.60713 -0.11039,-1.22806 -0.33116,-1.86278 -0.19317,-0.66233 -0.57953,-1.17287 -1.15906,-1.53162 -0.93829,-0.57953 -1.90417,-0.64852 -2.89766,-0.20697 -0.68991,0.33116 -1.17285,0.8417 -1.44882,1.53161 -0.24837,0.68992 -0.37256,1.37984 -0.37256,2.06976 0,0.74511 0.12419,1.47642 0.37256,2.19394 0.27597,0.68991 0.77271,1.18665 1.49022,1.49022 0.93829,0.46914 1.87657,0.41395 2.81486,-0.16558 0.57953,-0.33116 0.97969,-0.8279 1.20046,-1.49022 0.22077,-0.68992 0.33116,-1.36604 0.33116,-2.02836 z m 3.72556,8.07204 0,-1.82138 c -0.33116,0.24837 -0.55194,0.37255 -0.66233,0.37255 -0.11039,0 -0.19317,-0.0414 -0.24836,-0.12419 -0.0276,-0.0828 0,-0.16558 0.0828,-0.24836 0.0828,-0.0552 0.17938,-0.0966 0.28977,-0.12419 0.11039,-0.0552 0.22078,-0.12419 0.33117,-0.20698 0.0828,-0.0828 0.15178,-0.16558 0.20697,-0.24836 0.0552,-0.0828 0.12419,-0.16559 0.20698,-0.24838 0,-0.0276 0.0414,-0.0414 0.12418,-0.0414 0.16558,0 0.24837,0.11039 0.24837,0.33116 l 0,2.27673 c 0,0.27597 -0.0966,0.41395 -0.28976,0.41395 -0.19318,0 -0.28977,-0.11039 -0.28977,-0.33116 z"
       sodipodi:nodetypes="sccssccscccsccsssccccsccccsccsccccccsssscc" />
    <path
       inkscape:connector-curvature="0"
       id="path3442"
       style="font-style:normal;font-variant:normal;font-weight:normal;font-stretch:normal;font-size:25.39999962px;line-height:125%;font-family:Scramble;-inkscape-font-specification:Scramble;letter-spacing:0.79304445px;word-spacing:0px;fill:#00ff00;fill-opacity:1;stroke:#00ff00;stroke-width:0.1;stroke-linecap:butt;stroke-linejoin:miter;stroke-opacity:1"
       d="m 101.70722,388.98595 -2.028361,0 0,3.10463 c 0,0.35876 -0.0966,0.67612 -0.28977,0.95209 -0.16557,0.27596 -0.42774,0.41394 -0.78651,0.41394 -0.41395,0 -0.70371,-0.12418 -0.86929,-0.37255 -0.16558,-0.27597 -0.24837,-0.59333 -0.24837,-0.95209 l 0,-8.44459 c 0,-0.91069 0.46914,-1.36604 1.40743,-1.36604 l 2.814871,0 c 0.52433,0 1.06247,0.0552 1.6144,0.16558 0.57953,0.0828 1.07628,0.28977 1.49023,0.62093 0.66231,0.63473 0.99347,1.46263 0.99347,2.4837 0,1.13147 -0.33116,1.98696 -0.99347,2.56649 -0.74511,0.55194 -1.77999,0.82791 -3.10463,0.82791 z m -0.53814,-5.0088 -1.490221,0 0,3.353 1.490221,0 c 0.35876,0 0.73132,-0.0276 1.11767,-0.0828 0.41395,-0.0828 0.74511,-0.28976 0.99348,-0.62092 0.22077,-0.27597 0.31736,-0.63473 0.28976,-1.07628 -0.0276,-0.46914 -0.16558,-0.8279 -0.41395,-1.07627 -0.33116,-0.33115 -0.99348,-0.49673 -1.98696,-0.49673 z m 6.99577,10.34876 c 0.30356,0 0.45534,-0.13798 0.45534,-0.41395 0,-0.16558 -0.069,-0.27597 -0.20697,-0.33116 -0.13799,-0.0552 -0.26217,-0.069 -0.37256,-0.0414 -0.13799,0.0828 -0.23457,0.22078 -0.28976,0.41396 -0.0552,0.13798 -0.16559,0.15178 -0.33117,0.0414 -0.11039,-0.11039 -0.11039,-0.24838 0,-0.41396 0.16559,-0.33116 0.49675,-0.46914 0.99349,-0.41395 0.49673,0.0276 0.7451,0.26217 0.7451,0.70372 0,0.24837 -0.11038,0.45534 -0.33115,0.62092 0.33116,0.16559 0.49674,0.40016 0.49674,0.70372 0,0.52434 -0.28977,0.8417 -0.8693,0.95208 -0.57953,0.0828 -0.95208,-0.11038 -1.11767,-0.57953 -0.11039,-0.16557 -0.11039,-0.30355 0,-0.41394 0.16559,-0.16559 0.28977,-0.15179 0.37256,0.0414 0.0828,0.35876 0.26217,0.53814 0.53814,0.53814 0.33116,0 0.49674,-0.16558 0.49674,-0.49674 0.0276,-0.33116 -0.12418,-0.49674 -0.45535,-0.49674 -0.0828,0 -0.17938,0.0138 -0.28977,0.0414 -0.11039,0 -0.16558,-0.0828 -0.16558,-0.24837 0,-0.13799 0.11039,-0.20698 0.33117,-0.20698 z"
       sodipodi:nodetypes="scscscssssccscssccsccccscsccccccscsccscscscscc" />
    <path
       inkscape:connector-curvature="0"
       id="path3444"
       style="font-style:normal;font-variant:normal;font-weight:normal;font-stretch:normal;font-size:25.39999962px;line-height:125%;font-family:Scramble;-inkscape-font-specification:Scramble;letter-spacing:0.79304445px;word-spacing:0px;fill:#00ff00;fill-opacity:1;stroke:#00ff00;stroke-width:0.1;stroke-linecap:butt;stroke-linejoin:miter;stroke-opacity:1"
       d="m 127.45435,392.95987 c -0.38635,0.19318 -0.74511,0.33117 -1.07626,0.41396 -0.33117,0.0552 -0.75892,0.0828 -1.28325,0.0828 -0.74511,0 -1.47643,-0.11038 -2.19394,-0.33115 -0.68991,-0.24837 -1.28324,-0.66232 -1.77999,-1.24185 -0.49674,-0.55194 -0.8555,-1.18666 -1.07627,-1.90417 -0.22077,-0.74512 -0.33116,-1.49023 -0.33116,-2.23534 0,-0.71751 0.11039,-1.43503 0.33116,-2.15255 0.22077,-0.74511 0.57953,-1.39363 1.07627,-1.94556 0.49675,-0.52434 1.09008,-0.91069 1.77999,-1.15906 0.68991,-0.24837 1.40743,-0.37256 2.15254,-0.37256 1.10387,0 2.08355,0.23457 2.93905,0.70372 0.88309,0.49673 1.51782,1.20045 1.90417,2.11114 0.41395,0.91069 0.60713,1.86278 0.57954,2.85626 -0.0828,1.21425 -0.31737,2.12495 -0.70372,2.73208 -0.35876,0.57953 -0.73132,1.14526 -1.11767,1.69719 0.16558,0.27597 0.35876,0.55194 0.57953,0.82791 0.22077,0.24837 0.33116,0.48294 0.33116,0.70371 0,0.41395 -0.22077,0.62093 -0.66232,0.62093 -0.24837,0 -0.51054,-0.16558 -0.7865,-0.49674 -0.27597,-0.33116 -0.49674,-0.63472 -0.66233,-0.91069 z m -0.16558,-2.27672 c 0.35876,-0.38635 0.59333,-0.8279 0.70372,-1.32464 0.13799,-0.52434 0.20698,-1.06248 0.20698,-1.61441 0,-0.60713 -0.11039,-1.22806 -0.33117,-1.86278 -0.22077,-0.66233 -0.60712,-1.17287 -1.15906,-1.53162 -0.93829,-0.55193 -1.90417,-0.62092 -2.89765,-0.20697 -0.68992,0.33116 -1.17286,0.8417 -1.44883,1.53161 -0.24837,0.68992 -0.37256,1.37984 -0.37256,2.06976 0,1.29704 0.28977,2.27672 0.8693,2.93905 0.41395,0.49674 0.92449,0.8141 1.53162,0.95208 0.60713,0.13799 1.21425,0.0828 1.82138,-0.16558 -0.16558,-0.27597 -0.35876,-0.51054 -0.57953,-0.70371 -0.22077,-0.22077 -0.37255,-0.42775 -0.45534,-0.62093 -0.16558,-0.22077 -0.17938,-0.44155 -0.0414,-0.66232 0.13798,-0.22077 0.33116,-0.33116 0.57953,-0.33116 0.19317,0 0.40015,0.15178 0.62093,0.45534 0.24837,0.30357 0.56573,0.66233 0.95208,1.07628 z m 6.04368,3.93253 c 0,-0.16558 -0.0276,-0.38635 -0.0828,-0.66232 -0.0276,-0.27597 -0.16558,-0.41396 -0.41395,-0.41396 -0.24837,0 -0.38635,0.13799 -0.41395,0.41396 -0.0276,0.27597 -0.0414,0.49674 -0.0414,0.66232 0,0.16558 0.0138,0.40015 0.0414,0.70372 0.0276,0.27596 0.16558,0.41394 0.41395,0.41394 0.24837,0 0.38635,-0.13798 0.41395,-0.41394 0.0552,-0.30357 0.0828,-0.53814 0.0828,-0.70372 z m 0.53814,0.0414 c 0,0.24837 -0.0414,0.51053 -0.12418,0.7865 -0.0552,0.24837 -0.19319,0.44155 -0.41396,0.57954 -0.38635,0.22077 -0.73131,0.20697 -1.03487,-0.0414 -0.27597,-0.16559 -0.42776,-0.44155 -0.45535,-0.8279 -0.0276,-0.38635 -0.0276,-0.73132 0,-1.03489 0.0276,-0.66231 0.35876,-0.99347 0.99348,-0.99347 0.41395,0 0.68992,0.17938 0.82791,0.53813 0.13798,0.33116 0.20697,0.66232 0.20697,0.99349 z m -2.98044,1.15906 0,-1.82138 c -0.33116,0.24837 -0.55193,0.37255 -0.66232,0.37255 -0.0828,0 -0.15179,-0.0414 -0.20698,-0.12419 -0.0552,-0.0828 -0.0414,-0.16557 0.0414,-0.24836 0.0828,-0.0552 0.17938,-0.0966 0.28977,-0.12419 0.13798,-0.0552 0.24837,-0.12419 0.33116,-0.20698 0.0828,-0.0828 0.15179,-0.16557 0.20698,-0.24836 0.0552,-0.0828 0.12419,-0.16559 0.20698,-0.24838 l 0,0 c 0.0276,-0.0276 0.069,-0.0414 0.12417,-0.0414 0.16559,0 0.24838,0.11038 0.24838,0.33115 l 0,2.27673 c 0,0.27597 -0.0966,0.41395 -0.28977,0.41395 -0.19317,0 -0.28976,-0.11038 -0.28976,-0.33115 z"
       sodipodi:nodetypes="ccscccsccssccccccsssccccsccccscccccssccscssscscsscccccscsccscccscccsssscc" />
    <path
       inkscape:connector-curvature="0"
       id="path3446"
       style="font-style:normal;font-variant:normal;font-weight:normal;font-stretch:normal;font-size:25.39999962px;line-height:125%;font-family:Scramble;-inkscape-font-specification:Scramble;letter-spacing:0.79304445px;word-spacing:0px;fill:#00ff00;fill-opacity:1;stroke:#00ff00;stroke-width:0.1;stroke-linecap:butt;stroke-linejoin:miter;stroke-opacity:1"
       d="m 146.70248,388.572 0,3.51858 c 0,0.49674 -0.0966,0.8417 -0.28977,1.03488 -0.22077,0.22077 -0.51054,0.34495 -0.8693,0.37255 -0.33116,0 -0.57953,-0.12418 -0.74511,-0.37255 -0.19318,-0.19318 -0.28977,-0.53814 -0.28977,-1.03488 l 0,-8.4032 c 0,-0.49674 0.0966,-0.8417 0.28977,-1.03487 0.22077,-0.22078 0.56573,-0.33117 1.03488,-0.33117 l 3.64276,0 c 0.33117,0 0.68993,0.0276 1.07628,0.0828 0.41395,0.0276 0.8003,0.11039 1.15905,0.24837 1.13147,0.49674 1.69721,1.39363 1.69721,2.69068 0,0.77271 -0.22077,1.42123 -0.66232,1.94557 -0.49675,0.49674 -1.20046,0.8417 -2.11115,1.03487 0.38635,0.24837 0.75891,0.55194 1.11766,0.91069 0.68991,0.80031 1.22805,1.65581 1.61441,2.5665 0.0828,0.22077 0.15178,0.42774 0.20697,0.62092 0.0552,0.19318 0.0276,0.38636 -0.0828,0.57953 -0.16558,0.24837 -0.41395,0.40016 -0.74511,0.45535 -0.33116,0.0552 -0.60713,1e-5 -0.8279,-0.16558 -0.22078,-0.13799 -0.41396,-0.31736 -0.57953,-0.53813 -0.13799,-0.24837 -0.26217,-0.48295 -0.37256,-0.70372 l -0.86929,-1.49022 c -0.33117,-0.52434 -0.62093,-0.93829 -0.8693,-1.24185 -0.27597,-0.30357 -0.52434,-0.49675 -0.74511,-0.57953 -0.33116,-0.11039 -0.66232,-0.16559 -0.99349,-0.16559 l 0,0 -0.7865,0 z m 2.06975,-4.59485 -2.06975,0 0,3.02183 1.98696,0 c 0.33116,0 0.71751,-0.0276 1.15906,-0.0828 0.44155,-0.0552 0.7865,-0.23458 1.03487,-0.53813 0.16559,-0.19317 0.24838,-0.45534 0.24838,-0.78651 0.0276,-0.35876 -0.0414,-0.66232 -0.20698,-0.91069 -0.24837,-0.33116 -0.57953,-0.52434 -0.99348,-0.57953 -0.41395,-0.0828 -0.80031,-0.12418 -1.15906,-0.12418 z m 6.87158,11.83899 0,-1.82138 c -0.33116,0.24837 -0.55194,0.37255 -0.66233,0.37255 -0.11039,0 -0.19317,-0.0414 -0.24836,-0.12419 -0.0276,-0.0828 0,-0.16558 0.0828,-0.24836 0.0828,-0.0552 0.17938,-0.0966 0.28977,-0.12419 0.13799,-0.0552 0.24837,-0.12419 0.33116,-0.20698 0.11039,-0.11039 0.24837,-0.27597 0.41396,-0.49674 l 0,0 c 0.0276,-0.0276 0.069,-0.0414 0.12418,-0.0414 0.16558,0 0.24837,0.11039 0.24837,0.33116 l 0,2.27673 c 0,0.27597 -0.0966,0.41395 -0.28976,0.41395 -0.19318,0 -0.28977,-0.11039 -0.28977,-0.33116 z"
       sodipodi:nodetypes="cscccsscssccsccccccccccccccccccccssccccccccscccsccsssscc" />
    <path
       inkscape:connector-curvature="0"
       id="path3448"
       style="font-style:normal;font-variant:normal;font-weight:normal;font-stretch:normal;font-size:25.39999962px;line-height:125%;font-family:Scramble;-inkscape-font-specification:Scramble;letter-spacing:0.79304445px;word-spacing:0px;fill:#00ff00;fill-opacity:1;stroke:#00ff00;stroke-width:0.1;stroke-linecap:butt;stroke-linejoin:miter;stroke-opacity:1"
       d="m 176.96168,389.97943 c 0,1.24185 -0.46914,2.13875 -1.40743,2.69068 -0.91069,0.52433 -1.89038,0.7865 -2.93906,0.7865 -0.8003,0 -1.54541,-0.12418 -2.23532,-0.37255 -0.68993,-0.27597 -1.24186,-0.74511 -1.65581,-1.40743 -0.19317,-0.27597 -0.34495,-0.62093 -0.45534,-1.03488 -0.11039,-0.44155 -0.0276,-0.8003 0.24836,-1.07627 0.33117,-0.33116 0.66233,-0.40015 0.99349,-0.20697 0.35875,0.19317 0.60712,0.45534 0.74511,0.7865 0.41395,1.13147 1.17285,1.6972 2.27672,1.6972 0.49675,0 0.99349,-0.12419 1.49023,-0.37256 0.49674,-0.24837 0.74511,-0.66232 0.74511,-1.24185 0,-0.35876 -0.12418,-0.64852 -0.37255,-0.86929 -0.22078,-0.24837 -0.49675,-0.42775 -0.82791,-0.53814 -0.57953,-0.16558 -1.15906,-0.31736 -1.73859,-0.45535 -0.57953,-0.13799 -1.13146,-0.33116 -1.6558,-0.57953 -0.57953,-0.27596 -0.99348,-0.60712 -1.24185,-0.99347 -0.33116,-0.44155 -0.49674,-0.96589 -0.49674,-1.57302 0.0276,-0.63473 0.19318,-1.17286 0.49674,-1.61441 0.38635,-0.55193 0.92449,-0.93829 1.6144,-1.15906 0.68992,-0.22077 1.36604,-0.33116 2.02836,-0.33116 0.74511,0 1.57302,0.22077 2.48371,0.66232 0.93828,0.41395 1.40742,1.09007 1.40742,2.02836 0,0.27597 -0.0966,0.52434 -0.28976,0.74511 -0.19318,0.19318 -0.41395,0.28977 -0.66232,0.28977 -0.44155,0 -0.78651,-0.27597 -1.03488,-0.82791 -0.44155,-0.88309 -1.13146,-1.32464 -2.06975,-1.32464 -0.38635,0 -0.8003,0.11039 -1.24185,0.33116 -0.44155,0.19318 -0.66233,0.51054 -0.66233,0.95209 0,0.38635 0.13799,0.67612 0.41396,0.8693 0.30356,0.19317 0.60712,0.33115 0.91069,0.41394 0.41395,0.13799 0.85549,0.26217 1.32464,0.37256 0.49674,0.11039 0.96588,0.23458 1.40743,0.37255 0.71752,0.24838 1.29705,0.62094 1.7386,1.11768 0.44155,0.46914 0.66232,1.09006 0.66232,1.86277 z m 2.40091,5.83671 0,-1.82138 c -0.33116,0.24837 -0.55193,0.37255 -0.66232,0.37255 -0.11039,0 -0.19318,-0.0414 -0.24837,-0.12419 -0.0276,-0.0828 0,-0.16558 0.0828,-0.24836 0.0828,-0.0552 0.17938,-0.0966 0.28977,-0.12419 0.13799,-0.0552 0.24837,-0.12419 0.33116,-0.20698 0.0828,-0.0828 0.15178,-0.16558 0.20697,-0.24836 0.0552,-0.0828 0.12419,-0.16559 0.20698,-0.24838 l 0,0 c 0.0276,-0.0276 0.069,-0.0414 0.12419,-0.0414 0.16557,0 0.24836,0.11039 0.24836,0.33116 l 0,2.27673 c 0,0.27597 -0.0966,0.41395 -0.28976,0.41395 -0.19318,0 -0.28977,-0.11039 -0.28977,-0.33116 z"
       sodipodi:nodetypes="ccscccsccsssccsccccsscscscscscccccccccscccccccsssscc" />
    <path
       inkscape:connector-curvature="0"
       id="path3450"
       style="font-style:normal;font-variant:normal;font-weight:normal;font-stretch:normal;font-size:25.39999962px;line-height:125%;font-family:Scramble;-inkscape-font-specification:Scramble;letter-spacing:0.79304445px;word-spacing:0px;fill:#00ff00;fill-opacity:1;stroke:#00ff00;stroke-width:0.1;stroke-linecap:butt;stroke-linejoin:miter;stroke-opacity:1"
       d="m 197.36885,384.14273 0,7.94785 c 0,0.35876 -0.0828,0.67612 -0.24837,0.95209 -0.16558,0.27596 -0.45535,0.41394 -0.8693,0.41394 -0.41395,0 -0.70371,-0.12418 -0.86929,-0.37255 -0.16558,-0.27597 -0.24837,-0.60713 -0.24837,-0.99348 l 0,-7.94785 -2.40091,0 c -0.30357,0 -0.56574,-0.069 -0.78651,-0.20698 -0.22078,-0.13798 -0.33117,-0.37255 -0.33117,-0.70371 0,-0.33116 0.11039,-0.56573 0.33117,-0.70372 0.22077,-0.13799 0.48294,-0.20698 0.78651,-0.20698 l 7.03715,0 c 0.30357,0 0.56574,0.069 0.78651,0.20698 0.24837,0.13799 0.37255,0.37256 0.37255,0.70372 0,0.33116 -0.12418,0.56573 -0.37255,0.70371 -0.22077,0.13799 -0.48294,0.20698 -0.78651,0.20698 l 0,0 z m 5.71252,11.67341 0,-1.82138 c -0.33116,0.24837 -0.55193,0.37255 -0.66232,0.37255 -0.11039,0 -0.19318,-0.0414 -0.24838,-0.12419 -0.0276,-0.0828 0,-0.16558 0.0828,-0.24836 0.0828,-0.0552 0.17938,-0.0966 0.28977,-0.12419 0.11039,-0.0552 0.22077,-0.12419 0.33115,-0.20698 0.0828,-0.0828 0.15179,-0.16558 0.20698,-0.24836 0.0552,-0.0828 0.12419,-0.16559 0.20698,-0.24838 l 0,0 c 0.0276,-0.0276 0.069,-0.0414 0.12419,-0.0414 0.16557,0 0.24836,0.11039 0.24836,0.33116 l 0,2.27673 c 0,0.27597 -0.0966,0.41395 -0.28976,0.41395 -0.19318,0 -0.28977,-0.11039 -0.28977,-0.33116 z"
       sodipodi:nodetypes="cssscscscscsscsccccccscccccccsssscc" />
    <path
       inkscape:connector-curvature="0"
       id="path3452"
       style="font-style:normal;font-variant:normal;font-weight:normal;font-stretch:normal;font-size:25.39999962px;line-height:125%;font-family:Scramble;-inkscape-font-specification:Scramble;letter-spacing:0.79304445px;word-spacing:0px;fill:#00ff00;fill-opacity:1;stroke:#00ff00;stroke-width:0.1;stroke-linecap:butt;stroke-linejoin:miter;stroke-opacity:1"
       d="m 49.343639,415.23042 0,-5.25718 c 0,-0.33116 0.069,-0.63472 0.20698,-0.91068 0.16557,-0.30357 0.45534,-0.45535 0.86929,-0.45535 0.41395,0 0.70371,0.15178 0.8693,0.45535 0.16557,0.27596 0.24836,0.57952 0.24836,0.91068 l 0,5.38136 c 0,0.91069 0.16558,1.61441 0.49675,2.11115 0.35875,0.46915 0.99348,0.70372 1.90417,0.70372 0.91069,0 1.53162,-0.24837 1.86278,-0.74511 0.35875,-0.49675 0.53813,-1.17287 0.53813,-2.02836 l 0,-5.42276 c 0,-0.33116 0.069,-0.63472 0.20698,-0.91068 0.16558,-0.30357 0.45535,-0.45535 0.8693,-0.45535 0.41395,0 0.70371,0.15178 0.86929,0.45535 0.16558,0.27596 0.24837,0.57952 0.24837,0.91068 l 0,5.25718 c 0,1.46263 -0.34496,2.62169 -1.03488,3.47718 -0.66232,0.8279 -1.79378,1.24185 -3.39439,1.24185 -1.65581,0 -2.87006,-0.37255 -3.64277,-1.11766 -0.74511,-0.74511 -1.11766,-1.94556 -1.11766,-3.60137 z m 11.42504,7.07856 0,-1.82138 c -0.33117,0.24837 -0.55194,0.37255 -0.66232,0.37255 -0.11039,0 -0.19319,-0.0414 -0.24838,-0.12419 -0.0276,-0.0828 0,-0.16558 0.0828,-0.24836 0.0828,-0.0552 0.17937,-0.0966 0.28976,-0.12419 0.13799,-0.0552 0.24837,-0.12419 0.33116,-0.20698 0.11039,-0.11039 0.24838,-0.27597 0.41395,-0.49674 l 0,0 c 0.0276,-0.0276 0.069,-0.0414 0.12419,-0.0414 0.16558,0 0.24837,0.11038 0.24837,0.33115 l 0,2.27673 c 0,0.27597 -0.0966,0.41395 -0.28977,0.41395 -0.19317,0 -0.28976,-0.11038 -0.28976,-0.33115 z"
       sodipodi:nodetypes="sscscsscscsscscsscscsccsccccccsssscc" />
    <path
       inkscape:connector-curvature="0"
       id="path3454"
       style="font-style:normal;font-variant:normal;font-weight:normal;font-stretch:normal;font-size:25.39999962px;line-height:125%;font-family:Scramble;-inkscape-font-specification:Scramble;letter-spacing:0.79304445px;word-spacing:0px;fill:#00ff00;fill-opacity:1;stroke:#00ff00;stroke-width:0.1;stroke-linecap:butt;stroke-linejoin:miter;stroke-opacity:1"
       d="m 75.214959,410.09743 2.4837,7.32693 2.48371,-7.40972 c 0.13798,-0.41395 0.41395,-0.8417 0.8279,-1.28325 0.44155,-0.46914 0.88309,-0.33115 1.32464,0.41396 0.13799,0.24837 0.16559,0.51054 0.0828,0.78651 -0.0828,0.27596 -0.16557,0.53812 -0.24836,0.78649 l -2.64928,7.16136 c -0.0828,0.24837 -0.17938,0.49673 -0.28977,0.7451 -0.0828,0.24837 -0.19318,0.48295 -0.33116,0.70372 -0.27597,0.41395 -0.70372,0.62092 -1.28325,0.62092 -0.55193,0 -0.96589,-0.20697 -1.24186,-0.62092 -0.22077,-0.33116 -0.42774,-0.8141 -0.62092,-1.44882 l -2.60789,-7.07856 c -0.11038,-0.30357 -0.20697,-0.60713 -0.28976,-0.91069 -0.0828,-0.33117 0.0138,-0.64853 0.28976,-0.95209 0.52434,-0.52434 0.95209,-0.56574 1.28325,-0.12419 0.35876,0.44155 0.62093,0.8693 0.7865,1.28325 z m 9.56226,12.25294 0,-0.37256 -0.99348,0 c -0.16558,0 -0.28976,-0.0414 -0.37255,-0.12418 -0.0552,-0.11039 -0.0414,-0.23457 0.0414,-0.37256 0.16558,-0.24837 0.34496,-0.51053 0.53814,-0.7865 l 0.66232,-0.8279 c 0.0828,-0.16558 0.19318,-0.24837 0.33116,-0.24837 0.19318,0 0.28977,0.11038 0.28977,0.33115 l 0,1.57302 c 0.30356,0 0.45534,0.069 0.45534,0.20698 0,0.16557 -0.15178,0.24836 -0.45534,0.24836 l 0,0.41396 c 0,0.16557 -0.0828,0.24836 -0.24838,0.24836 -0.16557,0 -0.24836,-0.0966 -0.24836,-0.28976 z m -0.86929,-0.8279 0.86929,0 0,-1.20046 z"
       sodipodi:nodetypes="cccccsccccsccccccccccsccccsscscsscccccc" />
    <path
       inkscape:connector-curvature="0"
       id="path3456"
       style="font-style:normal;font-variant:normal;font-weight:normal;font-stretch:normal;font-size:25.39999962px;line-height:125%;font-family:Scramble;-inkscape-font-specification:Scramble;letter-spacing:0.79304445px;word-spacing:0px;fill:#00ff00;fill-opacity:1;stroke:#00ff00;stroke-width:0.1;stroke-linecap:butt;stroke-linejoin:miter;stroke-opacity:1"
       d="m 103.15604,418.04528 -1.77999,-6.58181 -1.779981,6.58181 c -0.13799,0.41395 -0.30357,0.8417 -0.49674,1.28325 -0.16558,0.41395 -0.52434,0.62092 -1.07628,0.62092 -0.24837,0 -0.48294,-0.0552 -0.70371,-0.16557 -0.27597,-0.13799 -0.46914,-0.38636 -0.57953,-0.74511 -0.11039,-0.38635 -0.20698,-0.73131 -0.28976,-1.03488 l -1.82139,-7.40971 c -0.0828,-0.24837 -0.15178,-0.52434 -0.20697,-0.82791 -0.0276,-0.33116 0.0828,-0.62093 0.33115,-0.8693 0.55194,-0.52433 0.97969,-0.55193 1.28325,-0.0828 0.33116,0.46915 0.55193,0.91069 0.66232,1.32464 l 1.40743,6.41624 1.61442,-6.00228 c 0.0828,-0.27597 0.16557,-0.56574 0.24836,-0.8693 0.110391,-0.33116 0.289761,-0.59333 0.538131,-0.78651 0.19318,-0.16558 0.46915,-0.24837 0.82791,-0.24837 0.38635,0 0.68992,0.0828 0.91069,0.24837 0.24837,0.22078 0.41395,0.48295 0.49674,0.78651 0.0828,0.30356 0.16558,0.59333 0.24837,0.8693 l 1.6558,6.00228 1.40744,-6.41624 c 0.0828,-0.33116 0.17938,-0.66232 0.28977,-0.99348 0.13797,-0.35875 0.44153,-0.53813 0.91068,-0.53813 0.57953,0 0.8831,0.24837 0.9107,0.7451 0.0552,0.46915 0.0414,0.8831 -0.0414,1.24186 l -1.82138,7.40971 c -0.0828,0.27597 -0.17938,0.57954 -0.28977,0.9107 -0.0828,0.33116 -0.23457,0.59333 -0.45534,0.78651 -0.19318,0.16557 -0.46915,0.24836 -0.82791,0.24836 -0.35875,0 -0.63472,-0.0828 -0.8279,-0.24836 -0.24837,-0.16559 -0.41395,-0.40016 -0.49674,-0.70372 -0.0828,-0.33116 -0.16558,-0.64852 -0.24837,-0.95209 l 0,0 z m 5.33996,4.30509 0,-0.37256 -0.99347,0 c -0.16559,0 -0.28978,-0.0414 -0.37257,-0.12418 -0.0552,-0.11039 -0.0414,-0.23457 0.0414,-0.37256 0.16559,-0.24837 0.34497,-0.51053 0.53814,-0.7865 l 0.66233,-0.8279 c 0.0828,-0.16558 0.19316,-0.24837 0.33115,-0.24837 0.19318,0 0.28977,0.11038 0.28977,0.33115 l 0,1.57302 c 0.30356,0 0.45534,0.069 0.45534,0.20698 0,0.16557 -0.15178,0.24836 -0.45534,0.24836 l 0,0.41396 c 0,0.16557 -0.0828,0.24836 -0.24837,0.24836 -0.16559,0 -0.24838,-0.0966 -0.24838,-0.28976 z m -0.86929,-0.8279 0.86929,0 0,-1.20046 z"
       sodipodi:nodetypes="ccccsccccccccccccscsccccscccccscccccscsccccsscscssscccc" />
    <path
       inkscape:connector-curvature="0"
       id="path3458"
       style="font-style:normal;font-variant:normal;font-weight:normal;font-stretch:normal;font-size:25.39999962px;line-height:125%;font-family:Scramble;-inkscape-font-specification:Scramble;letter-spacing:0.79304445px;word-spacing:0px;fill:#00ff00;fill-opacity:1;stroke:#00ff00;stroke-width:0.1;stroke-linecap:butt;stroke-linejoin:miter;stroke-opacity:1"
       d="m 121.28649,417.63133 2.44231,-3.55997 -2.06975,-3.18742 c -0.13799,-0.19317 -0.27597,-0.41395 -0.41396,-0.66232 -0.11038,-0.27597 -0.16557,-0.53814 -0.16557,-0.78651 0,-0.38635 0.22077,-0.63472 0.66232,-0.74511 0.44155,-0.11039 0.7865,-0.0414 1.03487,0.20697 0.0552,0.0828 0.13799,0.22078 0.24838,0.41395 0.13797,0.16559 0.28975,0.35877 0.45534,0.57954 l 1.65581,2.69068 c 0.33115,-0.52434 0.67611,-1.06248 1.03487,-1.61441 0.35875,-0.55193 0.71751,-1.09007 1.07627,-1.61441 0.13798,-0.30357 0.34495,-0.52434 0.62092,-0.66232 0.24837,-0.0828 0.52434,-0.0552 0.82791,0.0828 0.33115,0.13799 0.49673,0.37256 0.49673,0.70372 0,0.30357 -0.17938,0.75891 -0.53813,1.36604 l -2.19393,3.22881 2.35951,3.55998 c 0.13799,0.24837 0.28977,0.55193 0.45535,0.91069 0.16558,0.33116 0.16558,0.64852 0,0.95208 -0.13798,0.22078 -0.35876,0.37256 -0.66233,0.45535 -0.27596,0.0552 -0.52433,0.0138 -0.74511,-0.12418 -0.19317,-0.11039 -0.31736,-0.22078 -0.37255,-0.33117 -0.41395,-0.57953 -0.8279,-1.18666 -1.24185,-1.82138 l -1.15906,-1.98696 -1.24185,1.90417 c -0.38636,0.60713 -0.77272,1.20046 -1.15907,1.77999 -0.30356,0.38635 -0.64852,0.57953 -1.03487,0.57953 -0.63473,0 -0.95209,-0.31736 -0.95209,-0.95208 0,-0.33116 0.19318,-0.78651 0.57953,-1.36604 z m 9.31389,2.73208 c 0,-0.49674 0.31736,-0.74511 0.95209,-0.74511 0.63472,0 0.95208,0.24837 0.95208,0.74511 0,0.30356 -0.13798,0.49674 -0.41395,0.57953 0.33116,0.16558 0.49674,0.42775 0.49674,0.78651 0,0.35875 -0.15178,0.60712 -0.45534,0.74511 -0.24837,0.11038 -0.53813,0.15177 -0.8693,0.12418 -0.30356,-0.0552 -0.51054,-0.20698 -0.62093,-0.45535 -0.13798,-0.19317 -0.17937,-0.41395 -0.12418,-0.66232 0.0828,-0.24837 0.24837,-0.42774 0.49674,-0.53813 -0.27597,-0.13799 -0.41395,-0.33116 -0.41395,-0.57953 z m 1.44883,1.32464 c 0,-0.35875 -0.16558,-0.53813 -0.49674,-0.53813 -0.33116,0 -0.49674,0.17938 -0.49674,0.53813 0,0.35876 0.16558,0.53814 0.49674,0.53814 0.33116,0 0.49674,-0.17938 0.49674,-0.53814 z m -0.49674,-1.7386 c -0.27597,0 -0.41395,0.15179 -0.41395,0.45536 0,0.24837 0.13798,0.37255 0.41395,0.37255 0.27596,0 0.41394,-0.13798 0.41394,-0.41395 0,-0.27597 -0.13798,-0.41396 -0.41394,-0.41396 z"
       sodipodi:nodetypes="ccccssccccscccsccccccccccccssccssscscccccsssssscssscc" />
    <path
       inkscape:connector-curvature="0"
       id="path3460"
       style="font-style:normal;font-variant:normal;font-weight:normal;font-stretch:normal;font-size:25.39999962px;line-height:125%;font-family:Scramble;-inkscape-font-specification:Scramble;letter-spacing:0.79304445px;word-spacing:0px;fill:#00ff00;fill-opacity:1;stroke:#00ff00;stroke-width:0.1;stroke-linecap:butt;stroke-linejoin:miter;stroke-opacity:1"
       d="m 147.69595,418.58342 0,-3.47718 -2.69068,-4.13951 c -0.19317,-0.24837 -0.38635,-0.57953 -0.57953,-0.99349 -0.19317,-0.41395 -0.12418,-0.7727 0.20698,-1.07627 0.49674,-0.44155 0.92449,-0.46915 1.28325,-0.0828 0.35875,0.38635 0.64852,0.74511 0.8693,1.07628 l 2.02835,3.353 1.15907,-1.90418 c 0.41395,-0.63472 0.8279,-1.28324 1.24185,-1.94557 0.24837,-0.41395 0.64852,-0.66232 1.20045,-0.74511 0.57953,-0.0828 0.8693,0.20698 0.8693,0.8693 0,0.24837 -0.0828,0.51054 -0.24837,0.7865 l -0.41395,0.62093 -2.73208,4.1809 0,3.47718 c 0,0.35877 -0.0966,0.67613 -0.28976,0.95209 -0.16558,0.27597 -0.44155,0.41395 -0.8279,0.41395 -0.41395,0 -0.70372,-0.12418 -0.8693,-0.37255 -0.13799,-0.27597 -0.20698,-0.60713 -0.20698,-0.99349 z m 8.23762,3.76695 0,-0.37256 -0.99348,0 c -0.16558,0 -0.28976,-0.0414 -0.37255,-0.12418 -0.0552,-0.11039 -0.0414,-0.23457 0.0414,-0.37256 0.16558,-0.24837 0.34496,-0.51053 0.53814,-0.7865 l 0.66232,-0.8279 c 0.0828,-0.16558 0.19318,-0.24837 0.33116,-0.24837 0.19317,0 0.28976,0.11038 0.28976,0.33115 l 0,1.57302 c 0.30357,0 0.45535,0.069 0.45535,0.20698 0,0.16557 -0.15178,0.24836 -0.45535,0.24836 l 0,0.41396 c 0,0.16557 -0.0828,0.24836 -0.24837,0.24836 -0.16557,0 -0.24836,-0.0966 -0.24836,-0.28976 z m -0.86929,-0.8279 0.86929,0 0,-1.20046 z"
       sodipodi:nodetypes="cccscccccccscccscscccccsccccsscscsscccccc" />
    <path
       inkscape:connector-curvature="0"
       id="path3462"
       style="font-style:normal;font-variant:normal;font-weight:normal;font-stretch:normal;font-size:25.39999962px;line-height:125%;font-family:Scramble;-inkscape-font-specification:Scramble;letter-spacing:0.79304445px;word-spacing:0px;fill:#00ff00;fill-opacity:1;stroke:#00ff00;stroke-width:0.1;stroke-linecap:butt;stroke-linejoin:miter;stroke-opacity:1"
       d="m 177.78958,422.30898 0,-1.82138 c -0.38635,0.24837 -0.62093,0.37255 -0.70372,0.37255 -0.0828,0 -0.15178,-0.0414 -0.20697,-0.12419 -0.0552,-0.0828 -0.0414,-0.16558 0.0414,-0.24836 0.0828,-0.0552 0.17937,-0.0966 0.28976,-0.12419 0.13799,-0.0552 0.24837,-0.12419 0.33116,-0.20698 0.11039,-0.11039 0.24837,-0.27597 0.41395,-0.49674 l 0.0414,0 c 0.0276,-0.0276 0.0552,-0.0414 0.0828,-0.0414 0.16559,0 0.24838,0.11038 0.24838,0.33115 l 0,2.27673 c 0,0.27597 -0.0966,0.41395 -0.28977,0.41395 -0.16559,0 -0.24838,-0.11038 -0.24838,-0.33115 z m 3.51858,-1.15906 c 0,0.24837 -0.0414,0.51053 -0.12419,0.7865 -0.0828,0.27597 -0.22077,0.46914 -0.41395,0.57953 -0.38635,0.22077 -0.73131,0.20697 -1.03488,-0.0414 -0.22077,-0.13799 -0.35875,-0.40016 -0.41394,-0.78651 -0.0552,-0.41395 -0.069,-0.77271 -0.0414,-1.07628 0.0828,-0.66231 0.41395,-0.99347 0.99348,-0.99347 0.41395,0 0.70372,0.19318 0.8693,0.57953 0.11039,0.27596 0.16558,0.59332 0.16558,0.95209 z m -0.53814,-0.0414 c 0,-0.16558 -0.0276,-0.38635 -0.0828,-0.66232 -0.0276,-0.27597 -0.16558,-0.41396 -0.41395,-0.41396 -0.24837,0 -0.38636,0.13799 -0.41395,0.41396 -0.0276,0.27597 -0.0414,0.49674 -0.0414,0.66232 0,0.16558 0.0138,0.40015 0.0414,0.70372 0.0276,0.27596 0.16558,0.41394 0.41395,0.41394 0.24837,0 0.38635,-0.13798 0.41395,-0.41394 0.0552,-0.30357 0.0828,-0.53814 0.0828,-0.70372 z m -6.6646,-10.63853 -4.80183,0 c -0.27597,0 -0.52434,-0.0552 -0.74511,-0.16558 -0.19317,-0.11039 -0.28976,-0.33117 -0.28976,-0.66233 0,-0.27596 0.0966,-0.48293 0.28976,-0.62092 0.22077,-0.13799 0.46914,-0.20698 0.74511,-0.20698 l 6.20926,0 c 0.57953,0 0.95209,0.23457 1.11767,0.70372 0.19318,0.44155 0.16558,0.86929 -0.0828,1.28324 -0.0828,0.11039 -0.20697,0.26218 -0.37255,0.45536 -0.13799,0.16557 -0.28977,0.35875 -0.45534,0.57953 l -5.25718,6.25065 5.79531,0 c 0.24837,0 0.48294,0.069 0.70372,0.20697 0.22077,0.11039 0.33115,0.31737 0.33115,0.62093 0,0.33116 -0.11038,0.56573 -0.33115,0.70372 -0.22078,0.11039 -0.45535,0.16558 -0.70372,0.16558 l -7.11996,0 c -0.38635,0 -0.73131,-0.0828 -1.03487,-0.24838 -0.27597,-0.19317 -0.41395,-0.51054 -0.41395,-0.95209 0,-0.19317 0.069,-0.41395 0.20697,-0.66232 0.0828,-0.11038 0.17938,-0.22076 0.28977,-0.33115 0.11039,-0.11039 0.20697,-0.23458 0.28976,-0.37255 l 0,0 z"
       sodipodi:nodetypes="ccscccsccssssccscscccscssscscscscscscscsscccccscscsscsccccc" />
    <path
       style="color:#000000;clip-rule:nonzero;display:inline;overflow:visible;visibility:visible;opacity:1;isolation:auto;mix-blend-mode:normal;color-interpolation:sRGB;color-interpolation-filters:linearRGB;solid-color:#000000;solid-opacity:1;fill:none;fill-opacity:1;fill-rule:nonzero;stroke:#000000;stroke-width:0.5;stroke-linecap:butt;stroke-linejoin:miter;stroke-miterlimit:4;stroke-dasharray:none;stroke-dashoffset:0;stroke-opacity:1;color-rendering:auto;image-rendering:auto;shape-rendering:auto;text-rendering:auto;enable-background:accumulate"
       d="m 46.726257,325.35751 15.000002,0 c 1.108,0 2,0.892 2,2 l 0,15.00001 c 0,1.108 -0.892,2 -2,2 l -15.000002,0 c -1.108,0 -2,-0.892 -2,-2 l 0,-15.00001 c 0,-1.108 0.892,-2 2,-2 z"
       id="rect3490-2" />
    <path
       style="color:#000000;clip-rule:nonzero;display:inline;overflow:visible;visibility:visible;opacity:1;isolation:auto;mix-blend-mode:normal;color-interpolation:sRGB;color-interpolation-filters:linearRGB;solid-color:#000000;solid-opacity:1;fill:none;fill-opacity:1;fill-rule:nonzero;stroke:#000000;stroke-width:0.5;stroke-linecap:butt;stroke-linejoin:miter;stroke-miterlimit:4;stroke-dasharray:none;stroke-dashoffset:0;stroke-opacity:1;color-rendering:auto;image-rendering:auto;shape-rendering:auto;text-rendering:auto;enable-background:accumulate"
       d="m 70.388519,325.35751 15.000002,0 c 1.108,0 2,0.892 2,2 l 0,15.00001 c 0,1.108 -0.892,2 -2,2 l -15.000002,0 c -1.108,0 -2,-0.892 -2,-2 l 0,-15.00001 c 0,-1.108 0.892,-2 2,-2 z"
       id="rect4309" />
    <path
       style="color:#000000;clip-rule:nonzero;display:inline;overflow:visible;visibility:visible;opacity:1;isolation:auto;mix-blend-mode:normal;color-interpolation:sRGB;color-interpolation-filters:linearRGB;solid-color:#000000;solid-opacity:1;fill:none;fill-opacity:1;fill-rule:nonzero;stroke:#000000;stroke-width:0.5;stroke-linecap:butt;stroke-linejoin:miter;stroke-miterlimit:4;stroke-dasharray:none;stroke-dashoffset:0;stroke-opacity:1;color-rendering:auto;image-rendering:auto;shape-rendering:auto;text-rendering:auto;enable-background:accumulate"
       d="m 94.370483,325.35751 15.000007,0 c 1.108,0 2,0.892 2,2 l 0,15.00001 c 0,1.108 -0.892,2 -2,2 l -15.000007,0 c -1.108,0 -2,-0.892 -2,-2 l 0,-15.00001 c 0,-1.108 0.892,-2 2,-2 z"
       id="rect4311" />
    <path
       style="color:#000000;clip-rule:nonzero;display:inline;overflow:visible;visibility:visible;opacity:1;isolation:auto;mix-blend-mode:normal;color-interpolation:sRGB;color-interpolation-filters:linearRGB;solid-color:#000000;solid-opacity:1;fill:none;fill-opacity:1;fill-rule:nonzero;stroke:#000000;stroke-width:0.5;stroke-linecap:butt;stroke-linejoin:miter;stroke-miterlimit:4;stroke-dasharray:none;stroke-dashoffset:0;stroke-opacity:1;color-rendering:auto;image-rendering:auto;shape-rendering:auto;text-rendering:auto;enable-background:accumulate"
       d="m 117.71304,325.35751 15.00001,0 c 1.108,0 2,0.892 2,2 l 0,15.00001 c 0,1.108 -0.892,2 -2,2 l -15.00001,0 c -1.108,0 -2,-0.892 -2,-2 l 0,-15.00001 c 0,-1.108 0.892,-2 2,-2 z"
       id="rect4313" />
    <path
       style="color:#000000;clip-rule:nonzero;display:inline;overflow:visible;visibility:visible;opacity:1;isolation:auto;mix-blend-mode:normal;color-interpolation:sRGB;color-interpolation-filters:linearRGB;solid-color:#000000;solid-opacity:1;fill:none;fill-opacity:1;fill-rule:nonzero;stroke:#000000;stroke-width:0.5;stroke-linecap:butt;stroke-linejoin:miter;stroke-miterlimit:4;stroke-dasharray:none;stroke-dashoffset:0;stroke-opacity:1;color-rendering:auto;image-rendering:auto;shape-rendering:auto;text-rendering:auto;enable-background:accumulate"
       d="m 141.63736,325.35751 15,0 c 1.108,0 2,0.892 2,2 l 0,15.00001 c 0,1.108 -0.892,2 -2,2 l -15,0 c -1.108,0 -2,-0.892 -2,-2 l 0,-15.00001 c 0,-1.108 0.892,-2 2,-2 z"
       id="rect4315" />
    <path
       style="color:#000000;clip-rule:nonzero;display:inline;overflow:visible;visibility:visible;opacity:1;isolation:auto;mix-blend-mode:normal;color-interpolation:sRGB;color-interpolation-filters:linearRGB;solid-color:#000000;solid-opacity:1;fill:none;fill-opacity:1;fill-rule:nonzero;stroke:#000000;stroke-width:0.5;stroke-linecap:butt;stroke-linejoin:miter;stroke-miterlimit:4;stroke-dasharray:none;stroke-dashoffset:0;stroke-opacity:1;color-rendering:auto;image-rendering:auto;shape-rendering:auto;text-rendering:auto;enable-background:accumulate"
       d="m 165.31693,325.35751 15,0 c 1.108,0 2,0.892 2,2 l 0,15.00001 c 0,1.108 -0.892,2 -2,2 l -15,0 c -1.108,0 -2,-0.892 -2,-2 l 0,-15.00001 c 0,-1.108 0.892,-2 2,-2 z"
       id="rect4317" />
    <path
       style="color:#000000;clip-rule:nonzero;display:inline;overflow:visible;visibility:visible;opacity:1;isolation:auto;mix-blend-mode:normal;color-interpolation:sRGB;color-interpolation-filters:linearRGB;solid-color:#000000;solid-opacity:1;fill:none;fill-opacity:1;fill-rule:nonzero;stroke:#000000;stroke-width:0.5;stroke-linecap:butt;stroke-linejoin:miter;stroke-miterlimit:4;stroke-dasharray:none;stroke-dashoffset:0;stroke-opacity:1;color-rendering:auto;image-rendering:auto;shape-rendering:auto;text-rendering:auto;enable-background:accumulate"
       d="m 46.726257,404.94522 15.000002,0 c 1.108,0 2,0.892 2,2 l 0,15 c 0,1.108 -0.892,2 -2,2 l -15.000002,0 c -1.108,0 -2,-0.892 -2,-2 l 0,-15 c 0,-1.108 0.892,-2 2,-2 z"
       id="rect4319" />
    <path
       style="color:#000000;clip-rule:nonzero;display:inline;overflow:visible;visibility:visible;opacity:1;isolation:auto;mix-blend-mode:normal;color-interpolation:sRGB;color-interpolation-filters:linearRGB;solid-color:#000000;solid-opacity:1;fill:none;fill-opacity:1;fill-rule:nonzero;stroke:#000000;stroke-width:0.5;stroke-linecap:butt;stroke-linejoin:miter;stroke-miterlimit:4;stroke-dasharray:none;stroke-dashoffset:0;stroke-opacity:1;color-rendering:auto;image-rendering:auto;shape-rendering:auto;text-rendering:auto;enable-background:accumulate"
       d="m 70.388519,404.94522 15.000002,0 c 1.108,0 2,0.892 2,2 l 0,15 c 0,1.108 -0.892,2 -2,2 l -15.000002,0 c -1.108,0 -2,-0.892 -2,-2 l 0,-15 c 0,-1.108 0.892,-2 2,-2 z"
       id="rect4321" />
    <path
       style="color:#000000;clip-rule:nonzero;display:inline;overflow:visible;visibility:visible;opacity:1;isolation:auto;mix-blend-mode:normal;color-interpolation:sRGB;color-interpolation-filters:linearRGB;solid-color:#000000;solid-opacity:1;fill:none;fill-opacity:1;fill-rule:nonzero;stroke:#000000;stroke-width:0.5;stroke-linecap:butt;stroke-linejoin:miter;stroke-miterlimit:4;stroke-dasharray:none;stroke-dashoffset:0;stroke-opacity:1;color-rendering:auto;image-rendering:auto;shape-rendering:auto;text-rendering:auto;enable-background:accumulate"
       d="m 94.370483,404.94522 15.000007,0 c 1.108,0 2,0.892 2,2 l 0,15 c 0,1.108 -0.892,2 -2,2 l -15.000007,0 c -1.108,0 -2,-0.892 -2,-2 l 0,-15 c 0,-1.108 0.892,-2 2,-2 z"
       id="rect4323" />
    <path
       style="color:#000000;clip-rule:nonzero;display:inline;overflow:visible;visibility:visible;opacity:1;isolation:auto;mix-blend-mode:normal;color-interpolation:sRGB;color-interpolation-filters:linearRGB;solid-color:#000000;solid-opacity:1;fill:none;fill-opacity:1;fill-rule:nonzero;stroke:#000000;stroke-width:0.5;stroke-linecap:butt;stroke-linejoin:miter;stroke-miterlimit:4;stroke-dasharray:none;stroke-dashoffset:0;stroke-opacity:1;color-rendering:auto;image-rendering:auto;shape-rendering:auto;text-rendering:auto;enable-background:accumulate"
       d="m 117.71304,404.94522 15.00001,0 c 1.108,0 2,0.892 2,2 l 0,15 c 0,1.108 -0.892,2 -2,2 l -15.00001,0 c -1.108,0 -2,-0.892 -2,-2 l 0,-15 c 0,-1.108 0.892,-2 2,-2 z"
       id="rect4325" />
    <path
       style="color:#000000;clip-rule:nonzero;display:inline;overflow:visible;visibility:visible;opacity:1;isolation:auto;mix-blend-mode:normal;color-interpolation:sRGB;color-interpolation-filters:linearRGB;solid-color:#000000;solid-opacity:1;fill:none;fill-opacity:1;fill-rule:nonzero;stroke:#000000;stroke-width:0.5;stroke-linecap:butt;stroke-linejoin:miter;stroke-miterlimit:4;stroke-dasharray:none;stroke-dashoffset:0;stroke-opacity:1;color-rendering:auto;image-rendering:auto;shape-rendering:auto;text-rendering:auto;enable-background:accumulate"
       d="m 141.63736,404.94522 15,0 c 1.108,0 2,0.892 2,2 l 0,15 c 0,1.108 -0.892,2 -2,2 l -15,0 c -1.108,0 -2,-0.892 -2,-2 l 0,-15 c 0,-1.108 0.892,-2 2,-2 z"
       id="rect4327" />
    <path
       style="color:#000000;clip-rule:nonzero;display:inline;overflow:visible;visibility:visible;opacity:1;isolation:auto;mix-blend-mode:normal;color-interpolation:sRGB;color-interpolation-filters:linearRGB;solid-color:#000000;solid-opacity:1;fill:none;fill-opacity:1;fill-rule:nonzero;stroke:#000000;stroke-width:0.5;stroke-linecap:butt;stroke-linejoin:miter;stroke-miterlimit:4;stroke-dasharray:none;stroke-dashoffset:0;stroke-opacity:1;color-rendering:auto;image-rendering:auto;shape-rendering:auto;text-rendering:auto;enable-background:accumulate"
       d="m 165.31693,404.94522 15,0 c 1.108,0 2,0.892 2,2 l 0,15 c 0,1.108 -0.892,2 -2,2 l -15,0 c -1.108,0 -2,-0.892 -2,-2 l 0,-15 c 0,-1.108 0.892,-2 2,-2 z"
       id="rect4329" />
    <path
       style="color:#000000;clip-rule:nonzero;display:inline;overflow:visible;visibility:visible;opacity:1;isolation:auto;mix-blend-mode:normal;color-interpolation:sRGB;color-interpolation-filters:linearRGB;solid-color:#000000;solid-opacity:1;fill:none;fill-opacity:1;fill-rule:nonzero;stroke:#000000;stroke-width:0.5;stroke-linecap:butt;stroke-linejoin:miter;stroke-miterlimit:4;stroke-dasharray:none;stroke-dashoffset:0;stroke-opacity:1;color-rendering:auto;image-rendering:auto;shape-rendering:auto;text-rendering:auto;enable-background:accumulate"
       d="m 46.726257,351.88678 15.000002,0 c 1.108,0 2,0.892 2,2 l 0,15 c 0,1.108 -0.892,2 -2,2 l -15.000002,0 c -1.108,0 -2,-0.892 -2,-2 l 0,-15 c 0,-1.108 0.892,-2 2,-2 z"
       id="rect4331" />
    <path
       style="color:#000000;clip-rule:nonzero;display:inline;overflow:visible;visibility:visible;opacity:1;isolation:auto;mix-blend-mode:normal;color-interpolation:sRGB;color-interpolation-filters:linearRGB;solid-color:#000000;solid-opacity:1;fill:none;fill-opacity:1;fill-rule:nonzero;stroke:#000000;stroke-width:0.5;stroke-linecap:butt;stroke-linejoin:miter;stroke-miterlimit:4;stroke-dasharray:none;stroke-dashoffset:0;stroke-opacity:1;color-rendering:auto;image-rendering:auto;shape-rendering:auto;text-rendering:auto;enable-background:accumulate"
       d="m 70.388519,351.88678 15.000002,0 c 1.108,0 2,0.892 2,2 l 0,15 c 0,1.108 -0.892,2 -2,2 l -15.000002,0 c -1.108,0 -2,-0.892 -2,-2 l 0,-15 c 0,-1.108 0.892,-2 2,-2 z"
       id="rect4333" />
    <path
       style="color:#000000;clip-rule:nonzero;display:inline;overflow:visible;visibility:visible;opacity:1;isolation:auto;mix-blend-mode:normal;color-interpolation:sRGB;color-interpolation-filters:linearRGB;solid-color:#000000;solid-opacity:1;fill:none;fill-opacity:1;fill-rule:nonzero;stroke:#000000;stroke-width:0.5;stroke-linecap:butt;stroke-linejoin:miter;stroke-miterlimit:4;stroke-dasharray:none;stroke-dashoffset:0;stroke-opacity:1;color-rendering:auto;image-rendering:auto;shape-rendering:auto;text-rendering:auto;enable-background:accumulate"
       d="m 94.370483,351.88678 15.000007,0 c 1.108,0 2,0.892 2,2 l 0,15 c 0,1.108 -0.892,2 -2,2 l -15.000007,0 c -1.108,0 -2,-0.892 -2,-2 l 0,-15 c 0,-1.108 0.892,-2 2,-2 z"
       id="rect4335" />
    <path
       style="color:#000000;clip-rule:nonzero;display:inline;overflow:visible;visibility:visible;opacity:1;isolation:auto;mix-blend-mode:normal;color-interpolation:sRGB;color-interpolation-filters:linearRGB;solid-color:#000000;solid-opacity:1;fill:none;fill-opacity:1;fill-rule:nonzero;stroke:#000000;stroke-width:0.5;stroke-linecap:butt;stroke-linejoin:miter;stroke-miterlimit:4;stroke-dasharray:none;stroke-dashoffset:0;stroke-opacity:1;color-rendering:auto;image-rendering:auto;shape-rendering:auto;text-rendering:auto;enable-background:accumulate"
       d="m 117.71304,351.88678 15.00001,0 c 1.108,0 2,0.892 2,2 l 0,15 c 0,1.108 -0.892,2 -2,2 l -15.00001,0 c -1.108,0 -2,-0.892 -2,-2 l 0,-15 c 0,-1.108 0.892,-2 2,-2 z"
       id="rect4337" />
    <path
       style="color:#000000;clip-rule:nonzero;display:inline;overflow:visible;visibility:visible;opacity:1;isolation:auto;mix-blend-mode:normal;color-interpolation:sRGB;color-interpolation-filters:linearRGB;solid-color:#000000;solid-opacity:1;fill:none;fill-opacity:1;fill-rule:nonzero;stroke:#000000;stroke-width:0.5;stroke-linecap:butt;stroke-linejoin:miter;stroke-miterlimit:4;stroke-dasharray:none;stroke-dashoffset:0;stroke-opacity:1;color-rendering:auto;image-rendering:auto;shape-rendering:auto;text-rendering:auto;enable-background:accumulate"
       d="m 141.63736,351.88678 15,0 c 1.108,0 2,0.892 2,2 l 0,15 c 0,1.108 -0.892,2 -2,2 l -15,0 c -1.108,0 -2,-0.892 -2,-2 l 0,-15 c 0,-1.108 0.892,-2 2,-2 z"
       id="rect4339" />
    <path
       style="color:#000000;clip-rule:nonzero;display:inline;overflow:visible;visibility:visible;opacity:1;isolation:auto;mix-blend-mode:normal;color-interpolation:sRGB;color-interpolation-filters:linearRGB;solid-color:#000000;solid-opacity:1;fill:none;fill-opacity:1;fill-rule:nonzero;stroke:#000000;stroke-width:0.5;stroke-linecap:butt;stroke-linejoin:miter;stroke-miterlimit:4;stroke-dasharray:none;stroke-dashoffset:0;stroke-opacity:1;color-rendering:auto;image-rendering:auto;shape-rendering:auto;text-rendering:auto;enable-background:accumulate"
       d="m 165.31693,351.88678 15,0 c 1.108,0 2,0.892 2,2 l 0,15 c 0,1.108 -0.892,2 -2,2 l -15,0 c -1.108,0 -2,-0.892 -2,-2 l 0,-15 c 0,-1.108 0.892,-2 2,-2 z"
       id="rect4341" />
    <path
       style="color:#000000;clip-rule:nonzero;display:inline;overflow:visible;visibility:visible;opacity:1;isolation:auto;mix-blend-mode:normal;color-interpolation:sRGB;color-interpolation-filters:linearRGB;solid-color:#000000;solid-opacity:1;fill:none;fill-opacity:1;fill-rule:nonzero;stroke:#000000;stroke-width:0.5;stroke-linecap:butt;stroke-linejoin:miter;stroke-miterlimit:4;stroke-dasharray:none;stroke-dashoffset:0;stroke-opacity:1;color-rendering:auto;image-rendering:auto;shape-rendering:auto;text-rendering:auto;enable-background:accumulate"
       d="m 189.02396,351.88678 15,0 c 1.108,0 2,0.892 2,2 l 0,15 c 0,1.108 -0.892,2 -2,2 l -15,0 c -1.108,0 -2,-0.892 -2,-2 l 0,-15 c 0,-1.108 0.892,-2 2,-2 z"
       id="rect4343" />
    <path
       style="color:#000000;clip-rule:nonzero;display:inline;overflow:visible;visibility:visible;opacity:1;isolation:auto;mix-blend-mode:normal;color-interpolation:sRGB;color-interpolation-filters:linearRGB;solid-color:#000000;solid-opacity:1;fill:none;fill-opacity:1;fill-rule:nonzero;stroke:#000000;stroke-width:0.5;stroke-linecap:butt;stroke-linejoin:miter;stroke-miterlimit:4;stroke-dasharray:none;stroke-dashoffset:0;stroke-opacity:1;color-rendering:auto;image-rendering:auto;shape-rendering:auto;text-rendering:auto;enable-background:accumulate"
       d="m 46.726257,378.41608 15.000002,0 c 1.108,0 2,0.892 2,2 l 0,15 c 0,1.108 -0.892,2 -2,2 l -15.000002,0 c -1.108,0 -2,-0.892 -2,-2 l 0,-15 c 0,-1.108 0.892,-2 2,-2 z"
       id="rect4345" />
    <path
       style="color:#000000;clip-rule:nonzero;display:inline;overflow:visible;visibility:visible;opacity:1;isolation:auto;mix-blend-mode:normal;color-interpolation:sRGB;color-interpolation-filters:linearRGB;solid-color:#000000;solid-opacity:1;fill:none;fill-opacity:1;fill-rule:nonzero;stroke:#000000;stroke-width:0.5;stroke-linecap:butt;stroke-linejoin:miter;stroke-miterlimit:4;stroke-dasharray:none;stroke-dashoffset:0;stroke-opacity:1;color-rendering:auto;image-rendering:auto;shape-rendering:auto;text-rendering:auto;enable-background:accumulate"
       d="m 70.388519,378.41608 15.000002,0 c 1.108,0 2,0.892 2,2 l 0,15 c 0,1.108 -0.892,2 -2,2 l -15.000002,0 c -1.108,0 -2,-0.892 -2,-2 l 0,-15 c 0,-1.108 0.892,-2 2,-2 z"
       id="rect4347" />
    <path
       style="color:#000000;clip-rule:nonzero;display:inline;overflow:visible;visibility:visible;opacity:1;isolation:auto;mix-blend-mode:normal;color-interpolation:sRGB;color-interpolation-filters:linearRGB;solid-color:#000000;solid-opacity:1;fill:none;fill-opacity:1;fill-rule:nonzero;stroke:#000000;stroke-width:0.5;stroke-linecap:butt;stroke-linejoin:miter;stroke-miterlimit:4;stroke-dasharray:none;stroke-dashoffset:0;stroke-opacity:1;color-rendering:auto;image-rendering:auto;shape-rendering:auto;text-rendering:auto;enable-background:accumulate"
       d="m 94.370483,378.41608 15.000007,0 c 1.108,0 2,0.892 2,2 l 0,15 c 0,1.108 -0.892,2 -2,2 l -15.000007,0 c -1.108,0 -2,-0.892 -2,-2 l 0,-15 c 0,-1.108 0.892,-2 2,-2 z"
       id="rect4349" />
    <path
       style="color:#000000;clip-rule:nonzero;display:inline;overflow:visible;visibility:visible;opacity:1;isolation:auto;mix-blend-mode:normal;color-interpolation:sRGB;color-interpolation-filters:linearRGB;solid-color:#000000;solid-opacity:1;fill:none;fill-opacity:1;fill-rule:nonzero;stroke:#000000;stroke-width:0.5;stroke-linecap:butt;stroke-linejoin:miter;stroke-miterlimit:4;stroke-dasharray:none;stroke-dashoffset:0;stroke-opacity:1;color-rendering:auto;image-rendering:auto;shape-rendering:auto;text-rendering:auto;enable-background:accumulate"
       d="m 117.71304,378.41608 15.00001,0 c 1.108,0 2,0.892 2,2 l 0,15 c 0,1.108 -0.892,2 -2,2 l -15.00001,0 c -1.108,0 -2,-0.892 -2,-2 l 0,-15 c 0,-1.108 0.892,-2 2,-2 z"
       id="rect4351" />
    <path
       style="color:#000000;clip-rule:nonzero;display:inline;overflow:visible;visibility:visible;opacity:1;isolation:auto;mix-blend-mode:normal;color-interpolation:sRGB;color-interpolation-filters:linearRGB;solid-color:#000000;solid-opacity:1;fill:none;fill-opacity:1;fill-rule:nonzero;stroke:#000000;stroke-width:0.5;stroke-linecap:butt;stroke-linejoin:miter;stroke-miterlimit:4;stroke-dasharray:none;stroke-dashoffset:0;stroke-opacity:1;color-rendering:auto;image-rendering:auto;shape-rendering:auto;text-rendering:auto;enable-background:accumulate"
       d="m 141.63736,378.41608 15,0 c 1.108,0 2,0.892 2,2 l 0,15 c 0,1.108 -0.892,2 -2,2 l -15,0 c -1.108,0 -2,-0.892 -2,-2 l 0,-15 c 0,-1.108 0.892,-2 2,-2 z"
       id="rect4353" />
    <path
       style="color:#000000;clip-rule:nonzero;display:inline;overflow:visible;visibility:visible;opacity:1;isolation:auto;mix-blend-mode:normal;color-interpolation:sRGB;color-interpolation-filters:linearRGB;solid-color:#000000;solid-opacity:1;fill:none;fill-opacity:1;fill-rule:nonzero;stroke:#000000;stroke-width:0.5;stroke-linecap:butt;stroke-linejoin:miter;stroke-miterlimit:4;stroke-dasharray:none;stroke-dashoffset:0;stroke-opacity:1;color-rendering:auto;image-rendering:auto;shape-rendering:auto;text-rendering:auto;enable-background:accumulate"
       d="m 165.31693,378.41608 15,0 c 1.108,0 2,0.892 2,2 l 0,15 c 0,1.108 -0.892,2 -2,2 l -15,0 c -1.108,0 -2,-0.892 -2,-2 l 0,-15 c 0,-1.108 0.892,-2 2,-2 z"
       id="rect4355" />
    <path
       style="color:#000000;clip-rule:nonzero;display:inline;overflow:visible;visibility:visible;opacity:1;isolation:auto;mix-blend-mode:normal;color-interpolation:sRGB;color-interpolation-filters:linearRGB;solid-color:#000000;solid-opacity:1;fill:none;fill-opacity:1;fill-rule:nonzero;stroke:#000000;stroke-width:0.5;stroke-linecap:butt;stroke-linejoin:miter;stroke-miterlimit:4;stroke-dasharray:none;stroke-dashoffset:0;stroke-opacity:1;color-rendering:auto;image-rendering:auto;shape-rendering:auto;text-rendering:auto;enable-background:accumulate"
       d="m 189.02396,378.41608 15,0 c 1.108,0 2,0.892 2,2 l 0,15 c 0,1.108 -0.892,2 -2,2 l -15,0 c -1.108,0 -2,-0.892 -2,-2 l 0,-15 c 0,-1.108 0.892,-2 2,-2 z"
       id="rect4357" />
    <path
       style="color:#000000;clip-rule:nonzero;display:inline;overflow:visible;visibility:visible;opacity:1;isolation:auto;mix-blend-mode:normal;color-interpolation:sRGB;color-interpolation-filters:linearRGB;solid-color:#000000;solid-opacity:1;fill:none;fill-opacity:1;fill-rule:nonzero;stroke:#000000;stroke-width:0.5;stroke-linecap:butt;stroke-linejoin:miter;stroke-miterlimit:4;stroke-dasharray:none;stroke-dashoffset:0;stroke-opacity:1;color-rendering:auto;image-rendering:auto;shape-rendering:auto;text-rendering:auto;enable-background:accumulate"
       d="m 189.02396,325.35794 15,0 c 1.108,0 2,0.892 2,2 l 0,15 c 0,1.108 -0.892,2 -2,2 l -15,0 c -1.108,0 -2,-0.892 -2,-2 l 0,-15 c 0,-1.108 0.892,-2 2,-2 z"
       id="rect4439" />
    <path
       style="color:#000000;clip-rule:nonzero;display:inline;overflow:visible;visibility:visible;opacity:1;isolation:auto;mix-blend-mode:normal;color-interpolation:sRGB;color-interpolation-filters:linearRGB;solid-color:#000000;solid-opacity:1;fill:none;fill-opacity:1;fill-rule:nonzero;stroke:#000000;stroke-width:0.5;stroke-linecap:butt;stroke-linejoin:miter;stroke-miterlimit:4;stroke-dasharray:none;stroke-dashoffset:0;stroke-opacity:1;color-rendering:auto;image-rendering:auto;shape-rendering:auto;text-rendering:auto;enable-background:accumulate"
       d="m 189.02396,404.98489 15,0 c 1.108,0 2,0.892 2,2 l 0,15.00001 c 0,1.108 -0.892,2 -2,2 l -15,0 c -1.108,0 -2,-0.892 -2,-2 l 0,-15.00001 c 0,-1.108 0.892,-2 2,-2 z"
       id="rect4441" />
  </g>
</svg>
