<?xml version="1.0" encoding="UTF-8" standalone="no"?>
<!-- Generator: Adobe Illustrator 14.0.0, SVG Export Plug-In . SVG Version: 6.00 Build 43363)  -->

<svg
   xmlns:dc="http://purl.org/dc/elements/1.1/"
   xmlns:cc="http://creativecommons.org/ns#"
   xmlns:rdf="http://www.w3.org/1999/02/22-rdf-syntax-ns#"
   xmlns:svg="http://www.w3.org/2000/svg"
   xmlns="http://www.w3.org/2000/svg"
   xmlns:sodipodi="http://sodipodi.sourceforge.net/DTD/sodipodi-0.dtd"
   xmlns:inkscape="http://www.inkscape.org/namespaces/inkscape"
   version="1.0"
   x="0px"
   y="0px"
   width="595.28px"
   height="841.89px"
   viewBox="0 0 595.28 841.89"
   enable-background="new 0 0 595.28 841.89"
   xml:space="preserve"
   id="svg2"
   inkscape:version="0.48.1 "
   sodipodi:docname="changing_picture_card_template.svg"><metadata
   id="metadata112"><rdf:RDF><cc:Work
       rdf:about=""><dc:format>image/svg+xml</dc:format><dc:type
         rdf:resource="http://purl.org/dc/dcmitype/StillImage" /></cc:Work></rdf:RDF></metadata><defs
   id="defs110">
	
	
	
	
	

	
	
	
	
	
	
	
	
	
	
	
	
	

	
	
	
</defs><sodipodi:namedview
   pagecolor="#ffffff"
   bordercolor="#666666"
   borderopacity="1"
   objecttolerance="10"
   gridtolerance="10"
   guidetolerance="10"
   inkscape:pageopacity="0"
   inkscape:pageshadow="2"
   inkscape:window-width="640"
   inkscape:window-height="480"
   id="namedview108"
   showgrid="false"
   inkscape:zoom="0.34565085"
   inkscape:cx="297.64001"
   inkscape:cy="420.94501"
   inkscape:window-x="0"
   inkscape:window-y="0"
   inkscape:window-maximized="0"
   inkscape:current-layer="svg2" />
<g
   id="Layer_1">
	<g
   id="Layer_5">
	</g>
</g>
<rect
   style="fill:none;stroke:#231f20"
   id="rect7"
   height="251.353"
   width="296"
   y="145.81"
   x="29.886999" /><line
   style="fill:none;stroke:#009245;stroke-dasharray:12"
   id="line9"
   y2="146.63699"
   x2="306.871"
   y1="395.508"
   x1="306.871" /><line
   style="fill:none;stroke:#009245;stroke-dasharray:12"
   id="line11"
   y2="147.464"
   x2="49.457001"
   y1="397.98801"
   x1="49.457001" />
<g
   id="Layer_2">
</g>
<path
   style="font-size:medium;font-style:normal;font-variant:normal;font-weight:normal;font-stretch:normal;text-indent:0;text-align:start;text-decoration:none;line-height:normal;letter-spacing:normal;word-spacing:normal;text-transform:none;direction:ltr;block-progression:tb;writing-mode:lr-tb;text-anchor:start;baseline-shift:baseline;color:#000000;fill:#a5a7aa;fill-opacity:1;stroke:none;stroke-width:1;marker:none;visibility:visible;display:inline;overflow:visible;enable-background:accumulate;font-family:Sans;-inkscape-font-specification:Sans"
   d="m 430.125,157.15625 0,0.5 0,139.5 -94.3125,0 -0.5,0 0,0.5 0,255.75 0,0.5 0.5,0 238.125,0 0.5,0 0,-0.5 0,-255.75 0,-0.5 -0.5,0 -94.3125,0 0,-139.5 0,-0.5 -0.5,0 -48.5,0 -0.5,0 z m 1,1 47.5,0 0,139.5 0,0.5 0.5,0 94.3125,0 0,254.75 -237.125,0 0,-254.75 94.3125,0 0.5,0 0,-0.5 0,-139.5 z"
   id="polygon15"
   inkscape:connector-curvature="0" /><polyline
   style="fill:none;stroke:#231f20"
   id="polyline17"
   points="362.175,425.66 382.845,460.111 530.432,494.425 548.208,527.91  " /><polyline
   style="fill:none;stroke:#231f20"
   id="polyline19"
   points="362.175,390.521 382.845,424.972 530.432,459.285 548.208,492.771  " /><polyline
   style="fill:none;stroke:#231f20"
   id="polyline21"
   points="362.175,355.381 382.845,389.832 530.432,424.146 548.208,457.631  " /><polyline
   style="fill:none;stroke:#231f20"
   id="polyline23"
   points="362.175,320.241 382.845,354.692 530.432,389.005 548.208,422.491  " />
<rect
   style="fill:none;stroke:#a5a7aa"
   id="rect26"
   height="374.82501"
   width="295.45001"
   y="429.297"
   x="30.164" /><line
   style="fill:none;stroke:#231f20"
   id="line28"
   y2="563.84698"
   x2="78.119003"
   y1="705.57898"
   x1="78.119003" /><polyline
   style="fill:none;stroke:#231f20"
   id="polyline30"
   points="78.277,705.027 104.735,686.837 254.665,686.837 277.816,668.647  " /><polyline
   style="fill:none;stroke:#231f20"
   id="polyline32"
   points="78.277,669.807 104.735,651.616 254.665,651.616 277.816,633.427  " /><polyline
   style="fill:none;stroke:#231f20"
   id="polyline34"
   points="78.277,634.588 104.735,616.397 254.665,616.397 277.816,598.208  " /><polyline
   style="fill:none;stroke:#231f20"
   id="polyline36"
   points="78.277,599.369 104.735,581.179 254.665,581.179 277.816,562.989  " /><polyline
   style="fill:none;stroke:#231f20"
   id="polyline38"
   points="78.277,564.15 104.735,545.96 254.665,545.96 277.816,527.771  " /><rect
   style="fill:none;stroke:#a5a7aa"
   id="rect40"
   height="4.961"
   width="61.185001"
   y="455.327"
   x="145.94701" /><path
   style="fill:none;stroke:#231f20"
   inkscape:connector-curvature="0"
   id="path42"
   d="M 342.527,814.541 H 563.562 V 580.828 H 342.527 V 814.541 z M 516.824,626.818 V 768.55 H 389.266 V 626.818 h 127.558 z" /><rect
   style="opacity:0.3;fill:#f8eb31;stroke:#231f20"
   id="rect44"
   height="141.439"
   width="147.312"
   y="545.39697"
   x="104.735" /><rect
   style="opacity:0.3;fill:#f8eb31;stroke:#231f20"
   id="rect46"
   height="141.439"
   width="147.312"
   y="389.397"
   x="384.73499" /><g
   id="g48">
		<path
   inkscape:connector-curvature="0"
   id="path50"
   d="m 40.394,62.747 c -1.487,0 -2.913,-0.293 -4.277,-0.879 -1.364,-0.586 -2.573,-1.431 -3.627,-2.533 -1.042,-1.103 -1.874,-2.448 -2.494,-4.037 -0.62,-1.589 -0.931,-3.38 -0.931,-5.374 0,-1.994 0.304,-3.803 0.913,-5.427 0.609,-1.624 1.452,-3.022 2.529,-4.195 1.065,-1.161 2.324,-2.058 3.776,-2.691 1.452,-0.633 3.003,-0.95 4.654,-0.95 1.229,0 2.341,0.152 3.336,0.457 0.995,0.305 1.943,0.732 2.845,1.283 l 0.72,-1.195 h 1.406 l 0.158,8.895 H 47.961 C 47.773,45.234 47.493,44.293 47.118,43.28 46.743,42.266 46.305,41.408 45.801,40.705 45.239,39.908 44.572,39.284 43.8,38.833 c -0.772,-0.451 -1.656,-0.677 -2.651,-0.677 -1.135,0 -2.192,0.252 -3.169,0.756 -0.977,0.504 -1.823,1.249 -2.537,2.234 -0.679,0.951 -1.212,2.159 -1.598,3.625 -0.386,1.466 -0.579,3.102 -0.579,4.908 0,1.595 0.202,3.058 0.605,4.389 0.404,1.332 0.98,2.501 1.73,3.51 0.749,0.997 1.636,1.777 2.66,2.34 1.024,0.563 2.168,0.844 3.433,0.844 0.948,0 1.82,-0.149 2.616,-0.448 0.796,-0.299 1.486,-0.694 2.072,-1.187 0.585,-0.516 1.1,-1.102 1.545,-1.758 0.445,-0.656 0.808,-1.371 1.089,-2.145 l 1.318,0.633 c -1.007,2.473 -2.342,4.239 -4.004,5.3 -1.663,1.06 -3.642,1.59 -5.936,1.59 z" />
		<path
   inkscape:connector-curvature="0"
   id="path52"
   d="m 70.936,62.149 h -8.525 v -1.16 c 0.27,-0.023 0.568,-0.047 0.896,-0.07 0.328,-0.023 0.598,-0.07 0.809,-0.141 0.328,-0.105 0.571,-0.29 0.729,-0.554 0.158,-0.264 0.237,-0.606 0.237,-1.028 v -8.912 c 0,-1.23 -0.291,-2.18 -0.872,-2.848 -0.582,-0.668 -1.29,-1.002 -2.124,-1.002 -0.611,0 -1.177,0.097 -1.7,0.29 -0.523,0.193 -0.99,0.431 -1.401,0.712 -0.399,0.293 -0.705,0.586 -0.917,0.879 -0.212,0.293 -0.375,0.539 -0.493,0.738 v 9.967 c 0,0.398 0.079,0.727 0.237,0.984 0.158,0.257 0.401,0.457 0.729,0.598 0.258,0.117 0.524,0.205 0.8,0.264 0.276,0.059 0.577,0.1 0.905,0.123 v 1.16 h -8.49 v -1.16 c 0.268,-0.023 0.547,-0.05 0.838,-0.079 0.291,-0.029 0.535,-0.073 0.733,-0.132 0.326,-0.105 0.57,-0.29 0.733,-0.554 0.163,-0.264 0.245,-0.607 0.245,-1.029 V 39.001 c 0,-0.399 -0.091,-0.797 -0.272,-1.196 -0.182,-0.398 -0.419,-0.698 -0.712,-0.897 -0.211,-0.152 -0.583,-0.261 -1.116,-0.325 -0.533,-0.065 -0.964,-0.109 -1.292,-0.132 v -1.125 l 6.416,-0.387 0.246,0.264 v 12.094 h 0.07 c 0.387,-0.387 0.739,-0.729 1.056,-1.028 0.317,-0.299 0.734,-0.612 1.25,-0.94 0.446,-0.281 0.971,-0.516 1.576,-0.703 0.605,-0.187 1.282,-0.281 2.034,-0.281 1.549,0 2.741,0.489 3.574,1.468 0.833,0.979 1.25,2.388 1.25,4.228 v 9.018 c 0,0.41 0.074,0.741 0.221,0.993 0.147,0.252 0.393,0.448 0.735,0.589 0.271,0.105 0.516,0.185 0.734,0.237 0.218,0.053 0.504,0.091 0.858,0.114 v 1.157 z" />
		<path
   inkscape:connector-curvature="0"
   id="path54"
   d="m 89.446,61.833 c -0.551,0.199 -1.034,0.36 -1.45,0.483 -0.416,0.123 -0.888,0.185 -1.415,0.185 -0.914,0 -1.644,-0.214 -2.188,-0.642 -0.544,-0.428 -0.894,-1.052 -1.046,-1.872 h -0.105 c -0.762,0.844 -1.579,1.488 -2.452,1.934 -0.873,0.446 -1.925,0.668 -3.155,0.668 -1.301,0 -2.37,-0.398 -3.208,-1.195 -0.838,-0.797 -1.257,-1.84 -1.257,-3.129 0,-0.668 0.094,-1.266 0.281,-1.793 0.187,-0.527 0.469,-1.002 0.844,-1.424 0.293,-0.352 0.68,-0.665 1.16,-0.94 0.48,-0.275 0.932,-0.495 1.354,-0.659 0.527,-0.199 1.597,-0.568 3.208,-1.107 1.611,-0.539 2.698,-0.961 3.261,-1.266 v -1.74 c 0,-0.152 -0.032,-0.445 -0.097,-0.879 -0.065,-0.434 -0.202,-0.844 -0.413,-1.23 -0.234,-0.434 -0.565,-0.812 -0.993,-1.134 -0.428,-0.322 -1.034,-0.483 -1.819,-0.483 -0.539,0 -1.04,0.091 -1.503,0.272 -0.463,0.181 -0.788,0.372 -0.976,0.571 0,0.234 0.056,0.58 0.167,1.037 0.111,0.457 0.167,0.879 0.167,1.266 0,0.41 -0.185,0.785 -0.554,1.125 -0.369,0.34 -0.882,0.51 -1.538,0.51 -0.586,0 -1.017,-0.208 -1.292,-0.624 -0.275,-0.416 -0.413,-0.882 -0.413,-1.397 0,-0.539 0.19,-1.055 0.571,-1.547 0.381,-0.492 0.876,-0.932 1.485,-1.318 0.527,-0.328 1.166,-0.606 1.916,-0.835 0.75,-0.229 1.482,-0.343 2.197,-0.343 0.984,0 1.843,0.067 2.575,0.202 0.732,0.135 1.397,0.425 1.995,0.87 0.598,0.434 1.052,1.022 1.362,1.767 0.31,0.745 0.466,1.702 0.466,2.874 0,1.676 -0.018,3.161 -0.053,4.456 -0.035,1.295 -0.053,2.71 -0.053,4.245 0,0.457 0.079,0.82 0.237,1.09 0.158,0.27 0.401,0.498 0.729,0.686 0.176,0.105 0.454,0.164 0.835,0.176 0.381,0.012 0.771,0.018 1.169,0.018 v 1.122 z m -6.135,-9.281 c -0.996,0.293 -1.869,0.582 -2.619,0.863 -0.75,0.281 -1.447,0.634 -2.092,1.057 -0.586,0.399 -1.049,0.873 -1.389,1.418 -0.34,0.545 -0.51,1.195 -0.51,1.947 0,0.975 0.255,1.691 0.765,2.149 0.51,0.458 1.157,0.687 1.942,0.687 0.832,0 1.564,-0.203 2.197,-0.608 0.633,-0.405 1.166,-0.883 1.6,-1.436 l 0.106,-6.077 z" />
		<path
   inkscape:connector-curvature="0"
   id="path56"
   d="m 110.311,62.149 h -8.473 v -1.16 c 0.27,-0.023 0.565,-0.047 0.888,-0.07 0.323,-0.023 0.589,-0.07 0.8,-0.141 0.328,-0.105 0.571,-0.29 0.729,-0.554 0.158,-0.264 0.237,-0.606 0.237,-1.028 v -8.912 c 0,-1.23 -0.291,-2.18 -0.872,-2.848 -0.582,-0.668 -1.29,-1.002 -2.124,-1.002 -0.623,0 -1.192,0.097 -1.709,0.29 -0.517,0.193 -0.975,0.431 -1.374,0.712 -0.388,0.27 -0.696,0.56 -0.925,0.87 -0.229,0.31 -0.396,0.56 -0.502,0.747 v 9.967 c 0,0.398 0.082,0.727 0.246,0.984 0.164,0.257 0.41,0.457 0.738,0.598 0.246,0.117 0.513,0.205 0.8,0.264 0.287,0.059 0.583,0.1 0.888,0.123 v 1.16 h -8.49 v -1.16 c 0.27,-0.023 0.548,-0.047 0.835,-0.07 0.287,-0.023 0.536,-0.07 0.747,-0.14 0.328,-0.105 0.571,-0.29 0.729,-0.553 0.158,-0.263 0.237,-0.606 0.237,-1.027 V 48.506 c 0,-0.398 -0.085,-0.764 -0.255,-1.097 -0.17,-0.333 -0.407,-0.605 -0.712,-0.816 -0.223,-0.141 -0.486,-0.243 -0.791,-0.307 -0.305,-0.064 -0.633,-0.108 -0.984,-0.132 v -1.16 l 5.766,-0.387 0.246,0.246 v 2.443 h 0.088 c 0.281,-0.281 0.633,-0.618 1.055,-1.011 0.422,-0.393 0.82,-0.712 1.195,-0.958 0.434,-0.281 0.949,-0.516 1.547,-0.703 0.598,-0.187 1.271,-0.281 2.021,-0.281 1.664,0 2.897,0.519 3.7,1.556 0.803,1.037 1.204,2.417 1.204,4.14 v 9.018 c 0,0.41 0.07,0.741 0.211,0.993 0.141,0.252 0.381,0.448 0.721,0.589 0.281,0.117 0.524,0.199 0.729,0.246 0.205,0.047 0.489,0.082 0.853,0.105 v 1.159 z" />
		<path
   inkscape:connector-curvature="0"
   id="path58"
   d="m 127.292,60.356 c 0.469,0.445 0.838,0.949 1.107,1.512 0.269,0.563 0.404,1.26 0.404,2.092 0,0.832 -0.182,1.614 -0.545,2.347 -0.363,0.733 -0.914,1.368 -1.652,1.907 -0.785,0.551 -1.723,0.979 -2.813,1.283 -1.09,0.304 -2.438,0.457 -4.043,0.457 -2.625,0 -4.588,-0.384 -5.889,-1.151 -1.301,-0.767 -1.951,-1.89 -1.951,-3.366 0,-1.195 0.469,-2.139 1.406,-2.83 0.937,-0.691 2.133,-1.066 3.586,-1.125 v -0.246 c -0.352,-0.105 -0.715,-0.237 -1.09,-0.396 -0.375,-0.159 -0.697,-0.343 -0.967,-0.554 -0.305,-0.246 -0.551,-0.536 -0.738,-0.87 -0.187,-0.334 -0.281,-0.747 -0.281,-1.239 0,-0.621 0.22,-1.192 0.659,-1.714 0.439,-0.522 1.104,-0.97 1.995,-1.345 v -0.264 c -1.125,-0.527 -1.998,-1.204 -2.619,-2.03 -0.621,-0.826 -0.932,-1.784 -0.932,-2.874 0,-1.641 0.612,-2.988 1.837,-4.043 1.225,-1.055 2.792,-1.582 4.702,-1.582 0.527,0 1.052,0.053 1.573,0.158 0.521,0.105 1.052,0.24 1.591,0.404 h 6.047 v 1.688 h -4.078 v 0.105 c 0.434,0.504 0.756,1.061 0.967,1.67 0.211,0.609 0.316,1.207 0.316,1.793 0,1.523 -0.618,2.813 -1.854,3.867 -1.236,1.054 -2.675,1.582 -4.315,1.582 h -2.127 c -0.27,0.094 -0.551,0.264 -0.844,0.51 -0.293,0.246 -0.439,0.58 -0.439,1.002 0,0.434 0.123,0.765 0.369,0.993 0.246,0.228 0.545,0.384 0.896,0.466 0.34,0.094 0.735,0.152 1.187,0.176 0.452,0.024 0.917,0.041 1.397,0.053 0.516,0.012 1.222,0.047 2.118,0.105 0.896,0.058 1.532,0.094 1.907,0.105 0.539,0.023 1.081,0.152 1.626,0.387 0.545,0.235 1.041,0.557 1.487,0.967 z m -1.372,4.254 c 0,-0.656 -0.152,-1.195 -0.457,-1.617 -0.305,-0.422 -0.768,-0.709 -1.389,-0.861 -0.328,-0.047 -1.002,-0.1 -2.021,-0.158 -1.019,-0.058 -2.203,-0.088 -3.551,-0.088 -1.266,0.246 -2.165,0.659 -2.698,1.239 -0.533,0.58 -0.8,1.327 -0.8,2.241 0,0.41 0.088,0.803 0.264,1.178 0.176,0.375 0.48,0.721 0.914,1.037 0.41,0.305 0.961,0.554 1.652,0.747 0.691,0.193 1.535,0.29 2.531,0.29 1.723,0 3.079,-0.331 4.069,-0.993 0.99,-0.662 1.486,-1.667 1.486,-3.015 z m -3.375,-14.537 c 0,-1.371 -0.278,-2.464 -0.835,-3.278 -0.557,-0.814 -1.339,-1.222 -2.347,-1.222 -0.551,0 -1.022,0.114 -1.415,0.343 -0.393,0.229 -0.712,0.554 -0.958,0.976 -0.234,0.387 -0.401,0.853 -0.501,1.397 -0.1,0.544 -0.149,1.104 -0.149,1.679 0,1.301 0.284,2.361 0.853,3.182 0.569,0.821 1.304,1.23 2.206,1.23 1.008,0 1.784,-0.407 2.329,-1.222 0.545,-0.815 0.817,-1.843 0.817,-3.085 z" />
		<path
   inkscape:connector-curvature="0"
   id="path60"
   d="m 139.174,62.149 h -8.367 v -1.16 c 0.27,-0.023 0.548,-0.047 0.835,-0.07 0.287,-0.023 0.536,-0.07 0.747,-0.14 0.328,-0.105 0.571,-0.29 0.729,-0.553 0.158,-0.263 0.237,-0.606 0.237,-1.027 V 48.506 c 0,-0.375 -0.085,-0.717 -0.255,-1.027 -0.17,-0.31 -0.407,-0.571 -0.712,-0.781 -0.223,-0.141 -0.545,-0.26 -0.967,-0.36 -0.422,-0.1 -0.809,-0.161 -1.16,-0.185 v -1.16 l 6.117,-0.387 0.246,0.246 v 14.133 c 0,0.41 0.079,0.75 0.236,1.02 0.157,0.27 0.404,0.469 0.742,0.598 0.256,0.105 0.506,0.19 0.75,0.255 0.245,0.064 0.518,0.108 0.821,0.132 v 1.159 z m -2.197,-24.38 c 0,0.668 -0.22,1.251 -0.659,1.749 -0.439,0.498 -0.981,0.747 -1.626,0.747 -0.598,0 -1.116,-0.237 -1.556,-0.712 -0.44,-0.475 -0.659,-1.017 -0.659,-1.626 0,-0.645 0.22,-1.207 0.659,-1.688 0.439,-0.481 0.958,-0.721 1.556,-0.721 0.668,0 1.216,0.226 1.644,0.677 0.428,0.451 0.641,0.976 0.641,1.574 z" />
		<path
   inkscape:connector-curvature="0"
   id="path62"
   d="m 160.461,62.149 h -8.473 v -1.16 c 0.27,-0.023 0.565,-0.047 0.888,-0.07 0.323,-0.023 0.589,-0.07 0.8,-0.141 0.328,-0.105 0.571,-0.29 0.729,-0.554 0.158,-0.264 0.237,-0.606 0.237,-1.028 v -8.912 c 0,-1.23 -0.291,-2.18 -0.872,-2.848 -0.582,-0.668 -1.29,-1.002 -2.124,-1.002 -0.623,0 -1.192,0.097 -1.709,0.29 -0.517,0.193 -0.975,0.431 -1.374,0.712 -0.388,0.27 -0.696,0.56 -0.925,0.87 -0.229,0.31 -0.396,0.56 -0.502,0.747 v 9.967 c 0,0.398 0.082,0.727 0.246,0.984 0.164,0.257 0.41,0.457 0.738,0.598 0.246,0.117 0.513,0.205 0.8,0.264 0.287,0.059 0.583,0.1 0.888,0.123 v 1.16 h -8.49 v -1.16 c 0.27,-0.023 0.548,-0.047 0.835,-0.07 0.287,-0.023 0.536,-0.07 0.747,-0.14 0.328,-0.105 0.571,-0.29 0.729,-0.553 0.158,-0.263 0.237,-0.606 0.237,-1.027 V 48.506 c 0,-0.398 -0.085,-0.764 -0.255,-1.097 -0.17,-0.333 -0.407,-0.605 -0.712,-0.816 -0.223,-0.141 -0.486,-0.243 -0.791,-0.307 -0.305,-0.064 -0.633,-0.108 -0.984,-0.132 v -1.16 l 5.766,-0.387 0.246,0.246 v 2.443 h 0.088 c 0.281,-0.281 0.633,-0.618 1.055,-1.011 0.422,-0.393 0.82,-0.712 1.195,-0.958 0.434,-0.281 0.949,-0.516 1.547,-0.703 0.598,-0.187 1.271,-0.281 2.021,-0.281 1.664,0 2.897,0.519 3.7,1.556 0.803,1.037 1.204,2.417 1.204,4.14 v 9.018 c 0,0.41 0.07,0.741 0.211,0.993 0.141,0.252 0.381,0.448 0.721,0.589 0.281,0.117 0.524,0.199 0.729,0.246 0.205,0.047 0.489,0.082 0.853,0.105 v 1.159 z" />
		<path
   inkscape:connector-curvature="0"
   id="path64"
   d="m 177.442,60.356 c 0.469,0.445 0.838,0.949 1.107,1.512 0.269,0.563 0.404,1.26 0.404,2.092 0,0.832 -0.182,1.614 -0.545,2.347 -0.363,0.733 -0.914,1.368 -1.652,1.907 -0.785,0.551 -1.723,0.979 -2.813,1.283 -1.09,0.304 -2.438,0.457 -4.043,0.457 -2.625,0 -4.588,-0.384 -5.889,-1.151 -1.301,-0.767 -1.951,-1.89 -1.951,-3.366 0,-1.195 0.469,-2.139 1.406,-2.83 0.937,-0.691 2.133,-1.066 3.586,-1.125 v -0.246 c -0.352,-0.105 -0.715,-0.237 -1.09,-0.396 -0.375,-0.159 -0.697,-0.343 -0.967,-0.554 -0.305,-0.246 -0.551,-0.536 -0.738,-0.87 -0.187,-0.334 -0.281,-0.747 -0.281,-1.239 0,-0.621 0.22,-1.192 0.659,-1.714 0.439,-0.522 1.104,-0.97 1.995,-1.345 v -0.264 c -1.125,-0.527 -1.998,-1.204 -2.619,-2.03 -0.621,-0.826 -0.932,-1.784 -0.932,-2.874 0,-1.641 0.612,-2.988 1.837,-4.043 1.225,-1.055 2.792,-1.582 4.702,-1.582 0.527,0 1.052,0.053 1.573,0.158 0.521,0.105 1.052,0.24 1.591,0.404 h 6.047 v 1.688 h -4.078 v 0.105 c 0.434,0.504 0.756,1.061 0.967,1.67 0.211,0.609 0.316,1.207 0.316,1.793 0,1.523 -0.618,2.813 -1.854,3.867 -1.236,1.054 -2.675,1.582 -4.315,1.582 h -2.127 c -0.27,0.094 -0.551,0.264 -0.844,0.51 -0.293,0.246 -0.439,0.58 -0.439,1.002 0,0.434 0.123,0.765 0.369,0.993 0.246,0.228 0.545,0.384 0.896,0.466 0.34,0.094 0.735,0.152 1.187,0.176 0.452,0.024 0.917,0.041 1.397,0.053 0.516,0.012 1.222,0.047 2.118,0.105 0.896,0.058 1.532,0.094 1.907,0.105 0.539,0.023 1.081,0.152 1.626,0.387 0.545,0.235 1.042,0.557 1.487,0.967 z m -1.371,4.254 c 0,-0.656 -0.152,-1.195 -0.457,-1.617 -0.305,-0.422 -0.768,-0.709 -1.389,-0.861 -0.328,-0.047 -1.002,-0.1 -2.021,-0.158 -1.019,-0.058 -2.203,-0.088 -3.551,-0.088 -1.266,0.246 -2.165,0.659 -2.698,1.239 -0.533,0.58 -0.8,1.327 -0.8,2.241 0,0.41 0.088,0.803 0.264,1.178 0.176,0.375 0.48,0.721 0.914,1.037 0.41,0.305 0.961,0.554 1.652,0.747 0.691,0.193 1.535,0.29 2.531,0.29 1.723,0 3.079,-0.331 4.069,-0.993 0.99,-0.662 1.486,-1.667 1.486,-3.015 z m -3.375,-14.537 c 0,-1.371 -0.278,-2.464 -0.835,-3.278 -0.557,-0.814 -1.339,-1.222 -2.347,-1.222 -0.551,0 -1.022,0.114 -1.415,0.343 -0.393,0.229 -0.712,0.554 -0.958,0.976 -0.234,0.387 -0.401,0.853 -0.501,1.397 -0.1,0.544 -0.149,1.104 -0.149,1.679 0,1.301 0.284,2.361 0.853,3.182 0.569,0.821 1.304,1.23 2.206,1.23 1.008,0 1.784,-0.407 2.329,-1.222 0.545,-0.815 0.817,-1.843 0.817,-3.085 z" />
		<path
   inkscape:connector-curvature="0"
   id="path66"
   d="m 209.153,43.358 c 0,1.301 -0.255,2.452 -0.765,3.454 -0.51,1.002 -1.216,1.831 -2.118,2.487 -0.891,0.656 -1.869,1.137 -2.936,1.441 -1.067,0.304 -2.197,0.457 -3.393,0.457 h -2.795 v 7.559 c 0,0.41 0.067,0.771 0.202,1.081 0.135,0.31 0.413,0.548 0.835,0.712 0.211,0.082 0.583,0.158 1.116,0.229 0.533,0.071 1.022,0.111 1.468,0.123 v 1.248 h -10.705 v -1.248 c 0.281,-0.023 0.688,-0.064 1.222,-0.123 0.534,-0.059 0.905,-0.135 1.116,-0.229 0.352,-0.152 0.606,-0.375 0.765,-0.668 0.159,-0.293 0.237,-0.668 0.237,-1.125 v -18 c 0,-0.41 -0.059,-0.779 -0.176,-1.107 -0.117,-0.328 -0.393,-0.574 -0.826,-0.738 -0.445,-0.152 -0.888,-0.261 -1.327,-0.325 -0.439,-0.064 -0.817,-0.108 -1.134,-0.132 v -1.248 h 11.391 c 2.32,0 4.204,0.56 5.651,1.679 1.447,1.119 2.172,2.61 2.172,4.473 z m -5.344,4.254 c 0.398,-0.563 0.662,-1.146 0.791,-1.749 0.129,-0.603 0.193,-1.146 0.193,-1.626 0,-0.668 -0.079,-1.348 -0.237,-2.039 -0.158,-0.691 -0.431,-1.295 -0.817,-1.811 -0.41,-0.551 -0.949,-0.979 -1.617,-1.283 -0.668,-0.304 -1.5,-0.457 -2.496,-0.457 h -2.479 v 11.021 h 1.793 c 1.266,0 2.294,-0.196 3.085,-0.589 0.791,-0.393 1.386,-0.881 1.784,-1.467 z" />
		<path
   inkscape:connector-curvature="0"
   id="path68"
   d="m 219.963,62.149 h -8.367 v -1.16 c 0.27,-0.023 0.548,-0.047 0.835,-0.07 0.287,-0.023 0.536,-0.07 0.747,-0.14 0.328,-0.105 0.571,-0.29 0.729,-0.553 0.158,-0.263 0.237,-0.606 0.237,-1.027 V 48.506 c 0,-0.375 -0.085,-0.717 -0.255,-1.027 -0.17,-0.31 -0.407,-0.571 -0.712,-0.781 -0.223,-0.141 -0.545,-0.26 -0.967,-0.36 -0.422,-0.1 -0.809,-0.161 -1.16,-0.185 v -1.16 l 6.117,-0.387 0.246,0.246 v 14.133 c 0,0.41 0.079,0.75 0.236,1.02 0.157,0.27 0.404,0.469 0.742,0.598 0.256,0.105 0.506,0.19 0.75,0.255 0.245,0.064 0.518,0.108 0.821,0.132 v 1.159 z m -2.197,-24.38 c 0,0.668 -0.22,1.251 -0.659,1.749 -0.439,0.498 -0.981,0.747 -1.626,0.747 -0.598,0 -1.116,-0.237 -1.556,-0.712 -0.44,-0.475 -0.659,-1.017 -0.659,-1.626 0,-0.645 0.22,-1.207 0.659,-1.688 0.439,-0.481 0.958,-0.721 1.556,-0.721 0.668,0 1.216,0.226 1.644,0.677 0.428,0.451 0.641,0.976 0.641,1.574 z" />
		<path
   inkscape:connector-curvature="0"
   id="path70"
   d="m 230.124,62.606 c -2.508,0 -4.471,-0.832 -5.889,-2.496 -1.418,-1.664 -2.127,-3.896 -2.127,-6.697 0,-1.219 0.19,-2.358 0.571,-3.419 0.381,-1.061 0.935,-2.024 1.661,-2.892 0.691,-0.832 1.559,-1.503 2.602,-2.013 1.043,-0.51 2.18,-0.765 3.41,-0.765 1.699,0 3.082,0.407 4.148,1.222 1.066,0.815 1.6,1.925 1.6,3.331 0,0.586 -0.141,1.104 -0.422,1.556 -0.281,0.452 -0.744,0.677 -1.389,0.677 -0.691,0 -1.228,-0.175 -1.608,-0.526 -0.381,-0.35 -0.571,-0.741 -0.571,-1.174 0,-0.525 0.07,-1.066 0.211,-1.621 0.141,-0.555 0.223,-0.961 0.246,-1.218 -0.21,-0.362 -0.523,-0.604 -0.938,-0.727 -0.415,-0.123 -0.862,-0.184 -1.341,-0.184 -0.561,0 -1.096,0.12 -1.604,0.36 -0.509,0.24 -1.002,0.683 -1.481,1.327 -0.433,0.586 -0.783,1.377 -1.052,2.373 -0.269,0.996 -0.403,2.186 -0.403,3.568 0,2.18 0.482,3.958 1.448,5.335 0.965,1.377 2.231,2.065 3.799,2.065 1.135,0 2.086,-0.277 2.852,-0.831 0.767,-0.554 1.477,-1.384 2.132,-2.492 l 1.124,0.738 c -0.773,1.383 -1.793,2.479 -3.059,3.287 -1.266,0.808 -2.573,1.216 -3.92,1.216 z" />
		<path
   inkscape:connector-curvature="0"
   id="path72"
   d="m 249.161,61.394 c -0.762,0.316 -1.482,0.583 -2.162,0.8 -0.68,0.217 -1.512,0.325 -2.496,0.325 -1.453,0 -2.476,-0.366 -3.067,-1.099 -0.591,-0.733 -0.888,-1.767 -0.888,-3.103 V 46.575 h -3.129 v -1.688 h 3.199 v -5.396 h 3.199 v 5.396 h 4.975 v 1.688 h -4.939 v 9.686 c 0,0.727 0.026,1.333 0.079,1.819 0.053,0.486 0.179,0.911 0.378,1.274 0.188,0.34 0.469,0.598 0.844,0.773 0.375,0.175 0.879,0.264 1.512,0.264 0.293,0 0.724,-0.026 1.292,-0.079 0.568,-0.053 0.97,-0.12 1.204,-0.202 v 1.284 z" />
		<path
   inkscape:connector-curvature="0"
   id="path74"
   d="m 269.463,61.833 -5.659,0.387 -0.265,-0.246 v -2.197 h -0.105 c -0.281,0.293 -0.597,0.606 -0.948,0.94 -0.351,0.334 -0.754,0.636 -1.21,0.905 -0.527,0.316 -1.036,0.557 -1.527,0.721 -0.491,0.164 -1.187,0.246 -2.088,0.246 -1.533,0 -2.7,-0.5 -3.501,-1.501 -0.802,-1 -1.202,-2.455 -1.202,-4.363 v -8.288 c 0,-0.421 -0.08,-0.775 -0.239,-1.062 -0.16,-0.287 -0.393,-0.536 -0.699,-0.747 -0.212,-0.141 -0.478,-0.243 -0.796,-0.307 -0.319,-0.064 -0.655,-0.108 -1.008,-0.132 v -1.16 l 5.783,-0.422 0.264,0.246 v 12.041 c 0,1.254 0.281,2.197 0.844,2.83 0.563,0.633 1.236,0.949 2.021,0.949 0.645,0 1.219,-0.1 1.723,-0.298 0.504,-0.198 0.926,-0.433 1.266,-0.703 0.316,-0.246 0.595,-0.506 0.835,-0.781 0.24,-0.275 0.425,-0.529 0.554,-0.764 v -9.814 c 0,-0.386 -0.082,-0.729 -0.246,-1.027 -0.164,-0.298 -0.393,-0.553 -0.686,-0.764 -0.211,-0.141 -0.524,-0.225 -0.94,-0.254 -0.416,-0.029 -0.882,-0.056 -1.397,-0.079 v -1.16 l 6.31,-0.422 0.265,0.246 v 13.749 c 0,0.398 0.082,0.738 0.246,1.019 0.164,0.281 0.393,0.521 0.686,0.72 0.211,0.129 0.463,0.214 0.756,0.255 0.293,0.041 0.615,0.067 0.967,0.079 v 1.158 z" />
		<path
   inkscape:connector-curvature="0"
   id="path76"
   d="m 284.862,47.05 c 0,0.598 -0.146,1.128 -0.439,1.591 -0.293,0.463 -0.744,0.694 -1.354,0.694 -0.656,0 -1.157,-0.17 -1.503,-0.51 -0.346,-0.34 -0.519,-0.715 -0.519,-1.125 0,-0.258 0.021,-0.492 0.062,-0.703 0.041,-0.211 0.079,-0.422 0.114,-0.633 -0.551,0 -1.195,0.223 -1.934,0.668 -0.739,0.445 -1.365,1.078 -1.881,1.898 v 10.09 c 0,0.41 0.079,0.744 0.237,1.002 0.158,0.258 0.407,0.451 0.747,0.58 0.293,0.117 0.671,0.205 1.134,0.264 0.463,0.059 0.864,0.1 1.204,0.123 v 1.16 h -9.141 v -1.16 c 0.27,-0.023 0.548,-0.047 0.835,-0.07 0.287,-0.023 0.536,-0.07 0.747,-0.14 0.328,-0.105 0.571,-0.29 0.729,-0.553 0.158,-0.263 0.237,-0.606 0.237,-1.027 V 48.506 c 0,-0.363 -0.085,-0.72 -0.255,-1.071 -0.17,-0.351 -0.407,-0.632 -0.712,-0.843 -0.223,-0.141 -0.486,-0.243 -0.791,-0.307 -0.305,-0.064 -0.633,-0.108 -0.984,-0.132 v -1.16 l 5.766,-0.387 0.246,0.246 v 2.443 h 0.088 c 0.727,-0.949 1.535,-1.67 2.426,-2.162 0.891,-0.492 1.705,-0.738 2.443,-0.738 0.738,0 1.339,0.24 1.802,0.721 0.463,0.481 0.696,1.125 0.696,1.934 z" />
		<path
   inkscape:connector-curvature="0"
   id="path78"
   d="m 301.736,58.071 c -0.727,1.383 -1.699,2.484 -2.918,3.305 -1.218,0.82 -2.619,1.23 -4.201,1.23 -1.395,0 -2.616,-0.246 -3.665,-0.738 -1.049,-0.492 -1.913,-1.16 -2.593,-2.004 -0.68,-0.844 -1.187,-1.828 -1.521,-2.953 -0.334,-1.125 -0.501,-2.314 -0.501,-3.568 0,-1.125 0.179,-2.229 0.536,-3.313 0.357,-1.084 0.882,-2.06 1.573,-2.927 0.668,-0.832 1.497,-1.503 2.487,-2.013 0.99,-0.51 2.101,-0.765 3.331,-0.765 1.266,0 2.35,0.199 3.252,0.598 0.902,0.399 1.634,0.943 2.197,1.635 0.539,0.656 0.941,1.43 1.205,2.32 0.264,0.89 0.395,1.857 0.395,2.9 v 1.16 h -11.478 c 0,1.139 0.108,2.173 0.325,3.101 0.217,0.928 0.56,1.744 1.028,2.449 0.457,0.681 1.055,1.219 1.793,1.612 0.738,0.394 1.617,0.59 2.637,0.59 1.043,0 1.942,-0.245 2.698,-0.733 0.756,-0.489 1.485,-1.369 2.188,-2.642 l 1.232,0.756 z m -3.884,-6.609 c 0,-0.654 -0.056,-1.355 -0.167,-2.103 -0.111,-0.748 -0.29,-1.373 -0.536,-1.875 -0.27,-0.538 -0.639,-0.976 -1.107,-1.314 -0.468,-0.338 -1.072,-0.508 -1.811,-0.508 -1.23,0 -2.253,0.511 -3.067,1.533 -0.814,1.022 -1.257,2.445 -1.327,4.268 h 8.015 z" />
		<path
   inkscape:connector-curvature="0"
   id="path80"
   d="m 333.166,43.974 h -1.213 c -0.105,-0.422 -0.297,-0.923 -0.572,-1.503 -0.275,-0.58 -0.584,-1.128 -0.924,-1.644 -0.354,-0.539 -0.738,-1.011 -1.154,-1.415 -0.418,-0.404 -0.82,-0.636 -1.207,-0.694 -0.365,-0.047 -0.822,-0.082 -1.375,-0.105 -0.551,-0.023 -1.063,-0.035 -1.533,-0.035 h -1.021 v 19.951 c 0,0.387 0.082,0.741 0.246,1.063 0.164,0.322 0.451,0.571 0.861,0.747 0.211,0.082 0.654,0.193 1.328,0.334 0.674,0.141 1.197,0.217 1.572,0.229 v 1.248 h -11.777 v -1.248 c 0.328,-0.023 0.83,-0.07 1.504,-0.141 0.674,-0.071 1.139,-0.158 1.396,-0.264 0.387,-0.152 0.672,-0.372 0.854,-0.659 0.182,-0.287 0.271,-0.671 0.271,-1.151 v -20.11 h -1.02 c -0.363,0 -0.814,0.009 -1.354,0.026 -0.54,0.017 -1.055,0.056 -1.547,0.114 -0.387,0.047 -0.787,0.278 -1.203,0.694 -0.416,0.416 -0.801,0.888 -1.152,1.415 -0.351,0.527 -0.662,1.087 -0.932,1.679 -0.27,0.592 -0.457,1.081 -0.563,1.468 h -1.23 v -6.768 h 21.744 v 6.769 z" />
		<path
   inkscape:connector-curvature="0"
   id="path82"
   d="m 350.094,58.071 c -0.727,1.383 -1.699,2.484 -2.918,3.305 -1.219,0.821 -2.619,1.23 -4.201,1.23 -1.395,0 -2.615,-0.246 -3.664,-0.738 -1.049,-0.492 -1.914,-1.16 -2.594,-2.004 -0.68,-0.844 -1.186,-1.828 -1.52,-2.953 -0.334,-1.125 -0.502,-2.314 -0.502,-3.568 0,-1.125 0.18,-2.229 0.537,-3.313 0.357,-1.084 0.881,-2.06 1.572,-2.927 0.668,-0.832 1.498,-1.503 2.488,-2.013 0.99,-0.51 2.1,-0.765 3.33,-0.765 1.266,0 2.35,0.199 3.252,0.598 0.902,0.399 1.635,0.943 2.197,1.635 0.539,0.656 0.941,1.43 1.205,2.32 0.264,0.89 0.395,1.857 0.395,2.9 v 1.16 h -11.479 c 0,1.139 0.109,2.173 0.326,3.101 0.217,0.928 0.559,1.744 1.027,2.449 0.457,0.681 1.055,1.219 1.793,1.612 0.738,0.394 1.617,0.59 2.637,0.59 1.043,0 1.943,-0.245 2.699,-0.733 0.756,-0.488 1.484,-1.369 2.188,-2.642 l 1.232,0.756 z m -3.885,-6.609 c 0,-0.654 -0.055,-1.355 -0.166,-2.103 -0.111,-0.748 -0.291,-1.373 -0.537,-1.875 -0.27,-0.538 -0.639,-0.976 -1.107,-1.314 -0.468,-0.338 -1.072,-0.508 -1.811,-0.508 -1.23,0 -2.252,0.511 -3.066,1.533 -0.814,1.022 -1.258,2.445 -1.328,4.268 h 8.015 z" />
		<path
   inkscape:connector-curvature="0"
   id="path84"
   d="m 381.752,62.149 h -8.438 v -1.16 c 0.27,-0.023 0.543,-0.047 0.818,-0.07 0.275,-0.023 0.518,-0.07 0.729,-0.141 0.328,-0.105 0.572,-0.29 0.73,-0.554 0.158,-0.264 0.236,-0.606 0.236,-1.028 v -8.947 c 0,-1.219 -0.277,-2.159 -0.834,-2.821 -0.557,-0.662 -1.252,-0.993 -2.084,-0.993 -0.574,0 -1.113,0.088 -1.617,0.264 -0.504,0.176 -0.967,0.422 -1.389,0.738 -0.34,0.258 -0.623,0.536 -0.852,0.835 -0.229,0.299 -0.402,0.548 -0.52,0.747 v 10.002 c 0,0.41 0.07,0.747 0.211,1.011 0.141,0.264 0.381,0.466 0.721,0.606 0.27,0.105 0.514,0.185 0.73,0.237 0.216,0.052 0.5,0.091 0.852,0.114 v 1.16 h -8.262 v -1.16 c 0.27,-0.023 0.531,-0.047 0.783,-0.07 0.252,-0.023 0.482,-0.07 0.693,-0.141 0.328,-0.105 0.572,-0.29 0.73,-0.554 0.158,-0.264 0.236,-0.606 0.236,-1.028 v -8.947 c 0,-1.219 -0.279,-2.159 -0.836,-2.821 -0.559,-0.662 -1.254,-0.993 -2.088,-0.993 -0.576,0 -1.117,0.091 -1.621,0.272 -0.506,0.182 -0.971,0.431 -1.393,0.747 -0.34,0.258 -0.629,0.548 -0.863,0.87 -0.234,0.322 -0.412,0.565 -0.529,0.729 v 9.932 c 0,0.398 0.082,0.732 0.246,1.002 0.164,0.27 0.41,0.475 0.738,0.615 0.246,0.117 0.498,0.205 0.756,0.264 0.258,0.059 0.545,0.1 0.861,0.123 v 1.16 h -8.42 v -1.16 c 0.27,-0.023 0.549,-0.047 0.836,-0.07 0.287,-0.023 0.535,-0.07 0.746,-0.14 0.328,-0.105 0.572,-0.29 0.73,-0.553 0.158,-0.263 0.236,-0.606 0.236,-1.027 V 48.436 c 0,-0.374 -0.084,-0.71 -0.254,-1.009 -0.17,-0.298 -0.408,-0.553 -0.713,-0.764 -0.223,-0.141 -0.498,-0.254 -0.826,-0.342 -0.328,-0.088 -0.668,-0.144 -1.02,-0.167 v -1.16 l 5.801,-0.387 0.246,0.246 v 2.479 h 0.123 c 0.293,-0.293 0.65,-0.639 1.072,-1.037 0.422,-0.398 0.814,-0.721 1.178,-0.967 0.41,-0.281 0.924,-0.516 1.539,-0.703 0.615,-0.187 1.279,-0.281 1.994,-0.281 1.125,0 2.092,0.302 2.9,0.905 0.808,0.603 1.389,1.333 1.74,2.188 0.422,-0.41 0.793,-0.771 1.115,-1.081 0.32,-0.311 0.746,-0.642 1.271,-0.993 0.445,-0.305 0.969,-0.551 1.57,-0.738 0.604,-0.188 1.273,-0.281 2.01,-0.281 1.463,0 2.621,0.48 3.475,1.441 0.855,0.961 1.281,2.438 1.281,4.43 v 8.807 c 0,0.41 0.07,0.747 0.211,1.011 0.141,0.264 0.381,0.466 0.721,0.606 0.27,0.105 0.537,0.185 0.801,0.237 0.264,0.052 0.559,0.091 0.887,0.114 v 1.159 z" />
		<path
   inkscape:connector-curvature="0"
   id="path86"
   d="m 399.646,46.874 c 0.691,0.82 1.229,1.772 1.609,2.856 0.38,1.084 0.57,2.323 0.57,3.718 0,1.371 -0.229,2.622 -0.686,3.753 -0.457,1.131 -1.061,2.095 -1.811,2.892 -0.785,0.809 -1.658,1.43 -2.619,1.863 -0.961,0.433 -1.98,0.65 -3.059,0.65 -1.043,0 -1.898,-0.117 -2.566,-0.352 -0.668,-0.235 -1.213,-0.51 -1.635,-0.826 h -0.141 v 5.215 c 0,0.423 0.082,0.775 0.246,1.058 0.164,0.282 0.416,0.487 0.756,0.617 0.281,0.105 0.684,0.208 1.205,0.308 0.521,0.1 0.951,0.156 1.291,0.167 v 1.16 h -9.686 v -1.16 c 0.363,-0.023 0.715,-0.053 1.055,-0.088 0.34,-0.035 0.645,-0.094 0.914,-0.176 0.352,-0.117 0.598,-0.322 0.738,-0.615 0.14,-0.293 0.211,-0.639 0.211,-1.037 V 48.438 c 0,-0.352 -0.088,-0.691 -0.264,-1.02 -0.176,-0.329 -0.404,-0.592 -0.686,-0.791 -0.211,-0.141 -0.504,-0.249 -0.879,-0.325 -0.375,-0.076 -0.738,-0.126 -1.09,-0.149 v -1.16 l 5.906,-0.387 0.246,0.211 v 1.951 l 0.141,0.035 c 0.609,-0.703 1.365,-1.289 2.268,-1.758 0.903,-0.469 1.799,-0.703 2.689,-0.703 1.078,0 2.066,0.229 2.963,0.686 0.897,0.457 1.67,1.073 2.314,1.846 z m -2.865,12.463 c 0.469,-0.727 0.814,-1.57 1.037,-2.531 0.223,-0.961 0.334,-2.033 0.334,-3.217 0,-0.867 -0.094,-1.752 -0.281,-2.654 -0.187,-0.902 -0.48,-1.688 -0.879,-2.355 -0.398,-0.68 -0.92,-1.23 -1.564,-1.652 -0.644,-0.422 -1.418,-0.633 -2.32,-0.633 -0.867,0 -1.605,0.19 -2.215,0.571 -0.61,0.381 -1.137,0.835 -1.582,1.362 v 10.248 c 0.105,0.316 0.279,0.645 0.52,0.984 0.241,0.339 0.506,0.633 0.799,0.879 0.363,0.293 0.756,0.53 1.178,0.712 0.422,0.182 0.938,0.272 1.547,0.272 0.656,0 1.289,-0.173 1.898,-0.519 0.609,-0.346 1.118,-0.834 1.528,-1.467 z" />
		<path
   inkscape:connector-curvature="0"
   id="path88"
   d="m 412.496,62.149 h -8.455 v -1.16 c 0.27,-0.023 0.557,-0.05 0.861,-0.079 0.304,-0.029 0.557,-0.073 0.756,-0.132 0.328,-0.105 0.574,-0.29 0.738,-0.554 0.164,-0.264 0.246,-0.607 0.246,-1.029 V 39.106 c 0,-0.422 -0.09,-0.818 -0.271,-1.188 -0.182,-0.369 -0.42,-0.66 -0.713,-0.871 -0.211,-0.141 -0.598,-0.27 -1.16,-0.387 -0.563,-0.118 -1.014,-0.188 -1.354,-0.211 v -1.125 l 6.521,-0.387 0.246,0.264 v 23.783 c 0,0.41 0.076,0.747 0.229,1.011 0.153,0.264 0.398,0.466 0.738,0.606 0.258,0.117 0.514,0.205 0.766,0.264 0.252,0.059 0.535,0.1 0.852,0.123 v 1.161 z" />
		<path
   inkscape:connector-curvature="0"
   id="path90"
   d="m 431.094,61.833 c -0.551,0.199 -1.033,0.36 -1.449,0.483 -0.416,0.123 -0.889,0.185 -1.416,0.185 -0.914,0 -1.643,-0.214 -2.188,-0.642 -0.545,-0.428 -0.895,-1.052 -1.047,-1.872 h -0.105 c -0.762,0.844 -1.578,1.488 -2.451,1.934 -0.873,0.446 -1.926,0.668 -3.156,0.668 -1.301,0 -2.369,-0.398 -3.207,-1.195 -0.838,-0.797 -1.258,-1.84 -1.258,-3.129 0,-0.668 0.094,-1.266 0.281,-1.793 0.187,-0.527 0.469,-1.002 0.844,-1.424 0.293,-0.352 0.68,-0.665 1.16,-0.94 0.48,-0.275 0.932,-0.495 1.354,-0.659 0.527,-0.199 1.598,-0.568 3.209,-1.107 1.611,-0.539 2.697,-0.961 3.26,-1.266 v -1.74 c 0,-0.152 -0.031,-0.445 -0.096,-0.879 -0.065,-0.434 -0.203,-0.844 -0.414,-1.23 -0.234,-0.434 -0.564,-0.812 -0.992,-1.134 -0.428,-0.322 -1.035,-0.483 -1.82,-0.483 -0.539,0 -1.039,0.091 -1.502,0.272 -0.463,0.181 -0.789,0.372 -0.977,0.571 0,0.234 0.057,0.58 0.168,1.037 0.111,0.457 0.166,0.879 0.166,1.266 0,0.41 -0.184,0.785 -0.553,1.125 -0.369,0.34 -0.883,0.51 -1.539,0.51 -0.586,0 -1.016,-0.208 -1.291,-0.624 -0.275,-0.416 -0.414,-0.882 -0.414,-1.397 0,-0.539 0.191,-1.055 0.572,-1.547 0.381,-0.492 0.875,-0.932 1.484,-1.318 0.527,-0.328 1.166,-0.606 1.916,-0.835 0.75,-0.229 1.482,-0.343 2.197,-0.343 0.984,0 1.844,0.067 2.576,0.202 0.732,0.135 1.396,0.425 1.994,0.87 0.598,0.434 1.053,1.022 1.363,1.767 0.31,0.745 0.465,1.702 0.465,2.874 0,1.676 -0.018,3.161 -0.053,4.456 -0.035,1.295 -0.053,2.71 -0.053,4.245 0,0.457 0.08,0.82 0.238,1.09 0.158,0.27 0.4,0.498 0.729,0.686 0.176,0.105 0.455,0.164 0.836,0.176 0.381,0.012 0.77,0.018 1.168,0.018 v 1.122 z m -6.135,-9.281 c -0.996,0.293 -1.869,0.582 -2.619,0.863 -0.75,0.281 -1.447,0.634 -2.092,1.057 -0.586,0.399 -1.049,0.873 -1.389,1.418 -0.34,0.545 -0.51,1.195 -0.51,1.947 0,0.975 0.256,1.691 0.766,2.149 0.51,0.458 1.156,0.687 1.941,0.687 0.832,0 1.564,-0.203 2.197,-0.608 0.633,-0.405 1.166,-0.883 1.6,-1.436 l 0.106,-6.077 z" />
		<path
   inkscape:connector-curvature="0"
   id="path92"
   d="m 443.521,61.394 c -0.762,0.316 -1.482,0.583 -2.162,0.8 -0.68,0.217 -1.512,0.325 -2.496,0.325 -1.453,0 -2.475,-0.366 -3.066,-1.099 -0.591,-0.733 -0.889,-1.767 -0.889,-3.103 V 46.575 h -3.129 v -1.688 h 3.199 v -5.396 h 3.199 v 5.396 h 4.975 v 1.688 h -4.939 v 9.686 c 0,0.727 0.027,1.333 0.08,1.819 0.053,0.486 0.178,0.911 0.377,1.274 0.188,0.34 0.469,0.598 0.844,0.773 0.375,0.175 0.879,0.264 1.512,0.264 0.293,0 0.725,-0.026 1.293,-0.079 0.568,-0.053 0.969,-0.12 1.203,-0.202 v 1.284 z" />
		<path
   inkscape:connector-curvature="0"
   id="path94"
   d="m 460.643,58.071 c -0.727,1.383 -1.699,2.484 -2.918,3.305 -1.219,0.821 -2.619,1.23 -4.201,1.23 -1.395,0 -2.615,-0.246 -3.664,-0.738 -1.049,-0.492 -1.914,-1.16 -2.594,-2.004 -0.68,-0.844 -1.186,-1.828 -1.52,-2.953 -0.334,-1.125 -0.502,-2.314 -0.502,-3.568 0,-1.125 0.18,-2.229 0.537,-3.313 0.357,-1.084 0.881,-2.06 1.572,-2.927 0.668,-0.832 1.498,-1.503 2.488,-2.013 0.99,-0.51 2.1,-0.765 3.33,-0.765 1.266,0 2.35,0.199 3.252,0.598 0.902,0.399 1.635,0.943 2.197,1.635 0.539,0.656 0.941,1.43 1.205,2.32 0.264,0.89 0.395,1.857 0.395,2.9 v 1.16 h -11.479 c 0,1.139 0.109,2.173 0.326,3.101 0.217,0.928 0.559,1.744 1.027,2.449 0.457,0.681 1.055,1.219 1.793,1.612 0.738,0.394 1.617,0.59 2.637,0.59 1.043,0 1.943,-0.245 2.699,-0.733 0.756,-0.488 1.484,-1.369 2.188,-2.642 l 1.232,0.756 z m -3.885,-6.609 c 0,-0.654 -0.055,-1.355 -0.166,-2.103 -0.111,-0.748 -0.291,-1.373 -0.537,-1.875 -0.27,-0.538 -0.639,-0.976 -1.107,-1.314 -0.468,-0.338 -1.072,-0.508 -1.811,-0.508 -1.23,0 -2.252,0.511 -3.066,1.533 -0.814,1.022 -1.258,2.445 -1.328,4.268 h 8.015 z" />
	</g><g
   id="g96">
		<rect
   style="fill:none"
   id="rect98"
   height="25.848"
   width="442.02499"
   y="82.380997"
   x="30.683001" />
		<text
   id="text100"
   transform="translate(30.6831,91.6929)"><tspan
     style="font-size:11px;font-family:Georgia"
     id="tspan102"
     font-size="11"
     y="0"
     x="0">Please visit www.cardmakingparadise.com to see how to put this template together, and for</tspan><tspan
     style="font-size:11px;font-family:Georgia"
     id="tspan104"
     font-size="11"
     y="13.2"
     x="0">our Design Team examples to inspire you.</tspan><tspan
     style="font-size:11px;font-family:Georgia"
     id="tspan106"
     font-size="11"
     y="39.599998"
     x="0">Your picture needs to be 5 cm x 5 cm</tspan></text>

	</g>
</svg>