<?xml version="1.0" encoding="UTF-8" standalone="no"?>
<svg
   xmlns:ooo="http://xml.openoffice.org/svg/export"
   xmlns:dc="http://purl.org/dc/elements/1.1/"
   xmlns:cc="http://creativecommons.org/ns#"
   xmlns:rdf="http://www.w3.org/1999/02/22-rdf-syntax-ns#"
   xmlns:svg="http://www.w3.org/2000/svg"
   xmlns="http://www.w3.org/2000/svg"
   xmlns:sodipodi="http://sodipodi.sourceforge.net/DTD/sodipodi-0.dtd"
   xmlns:inkscape="http://www.inkscape.org/namespaces/inkscape"
   version="1.2"
   width="1488.189"
   height="1052.3622"
   viewBox="0 0 42000.001 29700"
   preserveAspectRatio="xMidYMid"
   clip-path="url(#presentation_clip_path)"
   xml:space="preserve"
   id="svg3023"
   inkscape:version="0.48.4 r9939"
   sodipodi:docname="full-tailskid-workspace.svg"
   style="fill-rule:evenodd;stroke-width:28.22200012;stroke-linejoin:round"><sodipodi:namedview
   pagecolor="#ffffff"
   bordercolor="#666666"
   borderopacity="1"
   objecttolerance="10"
   gridtolerance="10"
   guidetolerance="10"
   inkscape:pageopacity="0"
   inkscape:pageshadow="2"
   inkscape:window-width="1920"
   inkscape:window-height="1018"
   id="namedview3111"
   showgrid="false"
   inkscape:zoom="0.70710678"
   inkscape:cx="1161.4712"
   inkscape:cy="828.35192"
   inkscape:window-x="-8"
   inkscape:window-y="-8"
   inkscape:window-maximized="1"
   inkscape:current-layer="svg3023"
   inkscape:snap-bbox="true"
   inkscape:bbox-paths="true"
   inkscape:bbox-nodes="true"
   inkscape:snap-bbox-edge-midpoints="true"
   inkscape:snap-bbox-midpoints="true"
   inkscape:snap-object-midpoints="true"
   units="mm"
   inkscape:document-units="mm"
   borderlayer="true"
   inkscape:showpageshadow="false" /><metadata
   id="metadata3113"><rdf:RDF><cc:Work
       rdf:about=""><dc:format>image/svg+xml</dc:format><dc:type
         rdf:resource="http://purl.org/dc/dcmitype/StillImage" /><dc:title /></cc:Work></rdf:RDF></metadata><defs
   id="defs3025"
   class="ClipPathGroup"><clipPath
     clipPathUnits="userSpaceOnUse"
     id="presentation_clip_path"><rect
       id="rect3028"
       height="21000"
       width="29700"
       y="0"
       x="0" /></clipPath><marker
     inkscape:stockid="Arrow1Lstart"
     style="overflow:visible"
     refY="0"
     refX="0"
     orient="auto"
     id="Arrow1Lstart"><path
       id="path3552"
       style="fill-rule:evenodd;stroke:#000000;stroke-width:1pt;marker-start:none"
       transform="matrix(0.8,0,0,0.8,10,0)"
       d="M 0,0 5,-5 -12.5,0 5,5 0,0 z"
       inkscape:connector-curvature="0" /></marker><marker
     inkscape:stockid="Arrow1Lend"
     style="overflow:visible"
     refY="0"
     refX="0"
     orient="auto"
     id="Arrow1Lend"><path
       id="path3555"
       style="fill-rule:evenodd;stroke:#000000;stroke-width:1pt;marker-start:none"
       transform="matrix(-0.8,0,0,-0.8,-10,0)"
       d="M 0,0 5,-5 -12.5,0 5,5 0,0 z"
       inkscape:connector-curvature="0" /></marker><marker
     id="marker4257"
     orient="auto"
     refX="0.0"
     refY="0.0"
     style="overflow:visible"
     inkscape:stockid="Arrow1Lstart"><path
       d="M 0.0,0.0 L 5.0,-5.0 L -12.5,0.0 L 5.0,5.0 L 0.0,0.0 z "
       transform="scale(0.8) translate(12.5,0)"
       style="fill-rule:evenodd;stroke:#000000;stroke-width:1.0pt;marker-start:none"
       id="path4259" /></marker><marker
     id="marker4261"
     orient="auto"
     refX="0.0"
     refY="0.0"
     style="overflow:visible"
     inkscape:stockid="Arrow1Lend"><path
       d="M 0.0,0.0 L 5.0,-5.0 L -12.5,0.0 L 5.0,5.0 L 0.0,0.0 z "
       transform="scale(0.8) rotate(180) translate(12.5,0)"
       style="fill-rule:evenodd;stroke:#000000;stroke-width:1.0pt;marker-start:none"
       id="path4263" /></marker><marker
     inkscape:stockid="Arrow1Lstart"
     style="overflow:visible"
     refY="0.0"
     refX="0.0"
     orient="auto"
     id="marker4465"><path
       id="path4467"
       style="fill-rule:evenodd;stroke:#000000;stroke-width:1.0pt;marker-start:none"
       transform="scale(0.8) translate(12.5,0)"
       d="M 0.0,0.0 L 5.0,-5.0 L -12.5,0.0 L 5.0,5.0 L 0.0,0.0 z " /></marker><marker
     inkscape:stockid="Arrow1Lend"
     style="overflow:visible"
     refY="0.0"
     refX="0.0"
     orient="auto"
     id="marker4469"><path
       id="path4471"
       style="fill-rule:evenodd;stroke:#000000;stroke-width:1.0pt;marker-start:none"
       transform="scale(0.8) rotate(180) translate(12.5,0)"
       d="M 0.0,0.0 L 5.0,-5.0 L -12.5,0.0 L 5.0,5.0 L 0.0,0.0 z " /></marker></defs><defs
   id="defs3030"
   class="TextShapeIndex"><g
     id="g3032"
     ooo:id-list="id3 id4 id5 id6 id7 id8"
     ooo:slide="id1" /></defs><defs
   id="defs3034"
   class="EmbeddedBulletChars"><g
     transform="scale(4.8828125e-4,-4.8828125e-4)"
     id="bullet-char-template(57356)"><path
       id="path3037"
       d="M 580,1141 1163,571 580,0 -4,571 580,1141 z"
       inkscape:connector-curvature="0" /></g><g
     transform="scale(4.8828125e-4,-4.8828125e-4)"
     id="bullet-char-template(57354)"><path
       id="path3040"
       d="M 8,1128 1137,1128 1137,0 8,0 8,1128 z"
       inkscape:connector-curvature="0" /></g><g
     transform="scale(4.8828125e-4,-4.8828125e-4)"
     id="bullet-char-template(10146)"><path
       id="path3043"
       d="M 174,0 602,739 174,1481 1456,739 174,0 z M 1358,739 309,1346 659,739 1358,739 z"
       inkscape:connector-curvature="0" /></g><g
     transform="scale(4.8828125e-4,-4.8828125e-4)"
     id="bullet-char-template(10132)"><path
       id="path3046"
       d="M 2015,739 1276,0 717,0 1260,543 174,543 174,936 1260,936 717,1481 1274,1481 2015,739 z"
       inkscape:connector-curvature="0" /></g><g
     transform="scale(4.8828125e-4,-4.8828125e-4)"
     id="bullet-char-template(10007)"><path
       id="path3049"
       d="M 0,-2 C -7,14 -16,27 -25,37 L 356,567 C 262,823 215,952 215,954 215,979 228,992 255,992 264,992 276,990 289,987 310,991 331,999 354,1012 L 381,999 492,748 772,1049 836,1024 860,1049 C 881,1039 901,1025 922,1006 886,937 835,863 770,784 769,783 710,716 594,584 L 774,223 C 774,196 753,168 711,139 L 727,119 C 717,90 699,76 672,76 641,76 570,178 457,381 L 164,-76 C 142,-110 111,-127 72,-127 30,-127 9,-110 8,-76 1,-67 -2,-52 -2,-32 -2,-23 -1,-13 0,-2 z"
       inkscape:connector-curvature="0" /></g><g
     transform="scale(4.8828125e-4,-4.8828125e-4)"
     id="bullet-char-template(10004)"><path
       id="path3052"
       d="M 285,-33 C 182,-33 111,30 74,156 52,228 41,333 41,471 41,549 55,616 82,672 116,743 169,778 240,778 293,778 328,747 346,684 L 369,508 C 377,444 397,411 428,410 L 1163,1116 C 1174,1127 1196,1133 1229,1133 1271,1133 1292,1118 1292,1087 L 1292,965 C 1292,929 1282,901 1262,881 L 442,47 C 390,-6 338,-33 285,-33 z"
       inkscape:connector-curvature="0" /></g><g
     transform="scale(4.8828125e-4,-4.8828125e-4)"
     id="bullet-char-template(9679)"><path
       id="path3055"
       d="M 813,0 C 632,0 489,54 383,161 276,268 223,411 223,592 223,773 276,916 383,1023 489,1130 632,1184 813,1184 992,1184 1136,1130 1245,1023 1353,916 1407,772 1407,592 1407,412 1353,268 1245,161 1136,54 992,0 813,0 z"
       inkscape:connector-curvature="0" /></g><g
     transform="scale(4.8828125e-4,-4.8828125e-4)"
     id="bullet-char-template(8226)"><path
       id="path3058"
       d="M 346,457 C 273,457 209,483 155,535 101,586 74,649 74,723 74,796 101,859 155,911 209,963 273,989 346,989 419,989 480,963 531,910 582,859 608,796 608,723 608,648 583,586 532,535 482,483 420,457 346,457 z"
       inkscape:connector-curvature="0" /></g><g
     transform="scale(4.8828125e-4,-4.8828125e-4)"
     id="bullet-char-template(8211)"><path
       id="path3061"
       d="M -4,459 1135,459 1135,606 -4,606 -4,459 z"
       inkscape:connector-curvature="0" /></g></defs><defs
   id="defs3063"
   class="TextEmbeddedBitmaps" /><rect
   y="2384.4224"
   x="17849.463"
   height="994.34265"
   width="6010.6113"
   id="rect3723"
   style="opacity:0.5;color:#000000;fill:#ffff00;stroke:#000000;stroke-width:20.46640015px;stroke-linecap:butt;stroke-linejoin:miter;stroke-miterlimit:4;stroke-opacity:1;stroke-dasharray:none;stroke-dashoffset:0;marker:none;visibility:visible;display:inline;overflow:visible;enable-background:accumulate" /><g
   id="g3065"
   transform="translate(0,8700.0003)"><g
     class="Master_Slide"
     id="id2"><g
       class="Background"
       id="bg-id2" /><g
       class="BackgroundObjects"
       id="bo-id2" /></g></g><g
   transform="translate(-6162.5661,-1733.389)"
   id="g3077"
   class="Group"><g
     id="g3079"
     class="com.sun.star.drawing.ClosedBezierShape"><g
       id="id3"><path
         style="fill:none;stroke:#e30079;stroke-width:20;stroke-linejoin:miter"
         inkscape:connector-curvature="0"
         id="path3082"
         d="M 17258,3224 C 18534,3224 19348,3058 19434,3863 19491,4391 18433,5700 16768,6371 15903,6719 12174,6699 11120,6538 9800,6337 6187,3396 8963,3224 L 17258,3224 z" /></g></g><g
     id="g3084"
     class="com.sun.star.drawing.ClosedBezierShape"><g
       id="id4"><path
         style="fill:none;stroke:#e30079;stroke-width:20;stroke-linejoin:miter"
         inkscape:connector-curvature="0"
         id="path3087"
         d="M 10951,4467 10951,4467 C 10952,4467 10952,4467 10953,4467 10974,4467 10991,4472 11010,4484 11028,4495 11041,4509 11052,4529 11062,4549 11067,4568 11067,4591 L 11067,4591 11067,4591 C 11067,4614 11062,4633 11052,4653 11041,4673 11028,4687 11010,4698 10991,4710 10974,4715 10953,4715 10931,4715 10914,4710 10895,4698 10877,4687 10864,4673 10853,4653 10843,4633 10838,4614 10838,4591 10838,4568 10843,4549 10853,4529 10864,4509 10877,4495 10895,4484 10913,4472 10931,4467 10951,4467 z" /></g></g><g
     id="g3089"
     class="com.sun.star.drawing.ClosedBezierShape"><g
       id="id5"><path
         style="fill:none;stroke:#e30079;stroke-width:20;stroke-linejoin:miter"
         inkscape:connector-curvature="0"
         id="path3092"
         d="M 16473,4477 16473,4477 C 16474,4477 16474,4477 16475,4477 16496,4477 16513,4482 16532,4494 16550,4505 16563,4519 16574,4539 16584,4559 16589,4578 16589,4601 L 16589,4601 16589,4601 C 16589,4624 16584,4643 16574,4663 16563,4683 16550,4697 16532,4708 16513,4720 16496,4725 16475,4725 16453,4725 16436,4720 16417,4708 16399,4697 16386,4683 16375,4663 16365,4643 16360,4624 16360,4601 16360,4578 16365,4559 16375,4539 16386,4519 16399,4505 16417,4494 16435,4482 16453,4477 16473,4477 z" /></g></g></g><g
   transform="translate(-6354.9578,-3910.8154)"
   id="g3094"
   class="Group"><g
     id="g3096"
     class="com.sun.star.drawing.ClosedBezierShape"><g
       id="id6"><path
         style="fill:none;stroke:#e30079;stroke-width:20;stroke-linejoin:miter"
         inkscape:connector-curvature="0"
         id="path3099"
         d="M 18404,9387 C 20128,9388 21088,9248 21091,10129 21103,14076 9949,14549 7340,11662 6930,11208 6564,10765 6699,10035 6779,9611 6991,9439 7427,9388 7895,9334 8589,9378 9541,9372 12331,9353 15725,9385 18404,9387 z" /></g></g><g
     id="g3101"
     class="com.sun.star.drawing.ClosedBezierShape"><g
       id="id7"><path
         style="fill:none;stroke:#e30079;stroke-width:20;stroke-linejoin:miter"
         inkscape:connector-curvature="0"
         id="path3104"
         d="M 9882,10658 9881,10658 C 9907,10658 9928,10664 9950,10678 9972,10691 9988,10708 10001,10732 10013,10755 10019,10778 10019,10805 L 10019,10805 10019,10805 C 10019,10833 10013,10856 10001,10879 9988,10903 9972,10920 9950,10933 9928,10947 9907,10953 9882,10953 9856,10953 9835,10947 9813,10933 9791,10920 9775,10903 9762,10879 9750,10856 9744,10833 9744,10805 9744,10778 9750,10755 9762,10732 9775,10708 9791,10691 9813,10678 9835,10664 9856,10658 9881,10658 L 9882,10658 z" /></g></g><g
     id="g3106"
     class="com.sun.star.drawing.ClosedBezierShape"><g
       id="id8"><path
         style="fill:none;stroke:#e30079;stroke-width:20;stroke-linejoin:miter"
         inkscape:connector-curvature="0"
         id="path3109"
         d="M 17858,10658 17857,10658 C 17883,10658 17904,10664 17926,10678 17948,10691 17964,10708 17977,10732 17989,10755 17995,10778 17995,10805 L 17995,10805 17995,10805 C 17995,10833 17989,10856 17977,10879 17964,10903 17948,10920 17926,10933 17904,10947 17883,10953 17858,10953 17832,10953 17811,10947 17789,10933 17767,10920 17751,10903 17738,10879 17726,10856 17720,10833 17720,10805 17720,10778 17726,10755 17738,10732 17751,10708 17767,10691 17789,10678 17811,10664 17832,10658 17857,10658 L 17858,10658 z" /></g></g></g><g
   style="stroke:#000000;stroke-width:14.11111156"
   transform="translate(-5812.2736,8812.8655)"
   id="g3053"
   class="com.sun.star.drawing.ClosedBezierShape"><g
     style="stroke:#000000;stroke-width:14.11111156"
     id="g3055"><path
       style="fill:#0000ff;stroke:#000000;stroke-width:14.11111156;stroke-linejoin:miter"
       inkscape:connector-curvature="0"
       id="path3057"
       d="M 17258,3224 C 18534,3224 19348,3058 19434,3863 19491,4391 18433,5700 16768,6371 15903,6719 12174,6699 11120,6538 9800,6337 6187,3396 8963,3224 L 17258,3224 z" /><path
       d="M 10118.708,3224 C 8842.7078,3224 8028.7078,3058 7942.7078,3863 7885.7078,4391 8943.7078,5700 10608.708,6371 11473.708,6719 15202.708,6699 16256.708,6538 17576.708,6337 21189.708,3396 18413.708,3224 L 10118.708,3224 z"
       id="path4445"
       inkscape:connector-curvature="0"
       style="opacity:0.67000002000000003;fill:#ff0000;stroke:#000000;stroke-width:14.11111156;stroke-linejoin:miter" /></g></g><g
   style="stroke:#000000;stroke-width:14.11111156"
   transform="translate(-5812.2736,8812.8655)"
   id="g3059"
   class="com.sun.star.drawing.ClosedBezierShape"><g
     style="stroke:#000000;stroke-width:14.11111156"
     id="g3061"><path
       style="fill:none;stroke:#000000;stroke-width:14.11111156;stroke-linejoin:miter"
       inkscape:connector-curvature="0"
       id="path3063"
       d="M 10951,4467 10951,4467 C 10952,4467 10952,4467 10953,4467 10974,4467 10991,4472 11010,4484 11028,4495 11041,4509 11052,4529 11062,4549 11067,4568 11067,4591 L 11067,4591 11067,4591 C 11067,4614 11062,4633 11052,4653 11041,4673 11028,4687 11010,4698 10991,4710 10974,4715 10953,4715 10931,4715 10914,4710 10895,4698 10877,4687 10864,4673 10853,4653 10843,4633 10838,4614 10838,4591 10838,4568 10843,4549 10853,4529 10864,4509 10877,4495 10895,4484 10913,4472 10931,4467 10951,4467 z" /></g></g><g
   style="stroke:#000000;stroke-width:14.11111156"
   transform="translate(-5812.2736,8812.8655)"
   id="g3066"
   class="com.sun.star.drawing.ClosedBezierShape"><g
     style="stroke:#000000;stroke-width:14.11111156"
     id="g3068"><path
       style="fill:none;stroke:#000000;stroke-width:14.11111156;stroke-linejoin:miter"
       inkscape:connector-curvature="0"
       id="path3070"
       d="M 16473,4477 16473,4477 C 16474,4477 16474,4477 16475,4477 16496,4477 16513,4482 16532,4494 16550,4505 16563,4519 16574,4539 16584,4559 16589,4578 16589,4601 L 16589,4601 16589,4601 C 16589,4624 16584,4643 16574,4663 16563,4683 16550,4697 16532,4708 16513,4720 16496,4725 16475,4725 16453,4725 16436,4720 16417,4708 16399,4697 16386,4683 16375,4663 16365,4643 16360,4624 16360,4601 16360,4578 16365,4559 16375,4539 16386,4519 16399,4505 16417,4494 16435,4482 16453,4477 16473,4477 z" /></g></g><text
   sodipodi:linespacing="125%"
   id="text3072"
   y="921.95514"
   x="3681.3911"
   style="font-size:338.66668701px;font-style:normal;font-variant:normal;font-weight:bold;font-stretch:normal;text-align:start;line-height:125%;letter-spacing:0px;word-spacing:0px;writing-mode:lr-tb;text-anchor:start;fill:#000000;fill-opacity:1;stroke:none;font-family:Arial;-inkscape-font-specification:Arial Bold"
   xml:space="preserve"><tspan
     id="tspan3076"
     y="921.95514"
     x="3681.3911"
     sodipodi:role="line">Christian's originals from CDR file - correct size</tspan></text>



<path
   transform="matrix(22.476199,0,0,22.475948,3322.0803,-2339.85)"
   d="M 655.24352,210.19237 A 8.8983688,8.8983688 0 1 1 637.44678,210.19237 8.8983688,8.8983688 0 1 1 655.24352,210.19237 z"
   sodipodi:ry="8.8983688"
   sodipodi:rx="8.8983688"
   sodipodi:cy="210.19237"
   sodipodi:cx="646.34515"
   id="path3091"
   style="color:#000000;fill:none;stroke:#000000;stroke-width:0.87165356;stroke-miterlimit:4;stroke-opacity:1;stroke-dasharray:none;marker:none;visibility:visible;display:inline;overflow:visible;enable-background:accumulate"
   sodipodi:type="arc" /><path
   sodipodi:type="arc"
   style="color:#000000;fill:none;stroke:#000000;stroke-width:0.87165356;stroke-miterlimit:4;stroke-opacity:1;stroke-dasharray:none;marker:none;visibility:visible;display:inline;overflow:visible;enable-background:accumulate"
   id="path3093"
   sodipodi:cx="646.34515"
   sodipodi:cy="210.19237"
   sodipodi:rx="8.8983688"
   sodipodi:ry="8.8983688"
   d="M 655.24352,210.19237 A 8.8983688,8.8983688 0 1 1 637.44678,210.19237 8.8983688,8.8983688 0 1 1 655.24352,210.19237 z"
   transform="matrix(22.476199,0,0,22.475948,9324.8723,-2339.85)" /><text
   xml:space="preserve"
   style="font-size:338.66668701px;font-style:normal;font-variant:normal;font-weight:bold;font-stretch:normal;text-align:start;line-height:125%;letter-spacing:0px;word-spacing:0px;writing-mode:lr-tb;text-anchor:start;fill:#000000;fill-opacity:1;stroke:none;font-family:Arial;-inkscape-font-specification:Arial Bold"
   x="16950.014"
   y="1028.5366"
   id="text3725"
   sodipodi:linespacing="125%"><tspan
     sodipodi:role="line"
     id="tspan3727"
     x="16950.014"
     y="1028.5366">Standard hole pattern: 60mm spaced 4mm holes</tspan></text>


<text
   xml:space="preserve"
   style="font-size:338.66668701px;font-style:normal;font-variant:normal;font-weight:bold;font-stretch:normal;text-align:start;line-height:125%;letter-spacing:0px;word-spacing:0px;writing-mode:lr-tb;text-anchor:start;fill:#000000;fill-opacity:1;stroke:none;font-family:Arial;-inkscape-font-specification:Arial Bold"
   x="31771.072"
   y="797.01923"
   id="text3729"
   sodipodi:linespacing="125%"><tspan
     sodipodi:role="line"
     id="tspan3731"
     x="31771.072"
     y="797.01923">Erskids Moonshine shape</tspan></text>


<path
   id="path4332"
   d="M 17849.463,1884.4227 H 23860.074"
   inkscape:connector-curvature="0"
   style="fill:none;stroke:#000000;stroke-width:14.11111164;marker-start:url(#Arrow1Lstart);marker-end:url(#Arrow1Lend)" /><path
   id="path4334"
   d="M 17849.463,1384.4227 V 3378.7654"
   inkscape:connector-curvature="0"
   style="fill:none;stroke:#000000;stroke-width:14.11111164" /><path
   id="path4336"
   d="M 23860.074,1384.4227 V 3378.7654"
   inkscape:connector-curvature="0"
   style="fill:none;stroke:#000000;stroke-width:14.11111164" /><text
   sodipodi:linespacing="125%"
   id="text4437"
   y="7645.9536"
   x="6716.9067"
   style="font-size:338.66668701px;font-style:normal;font-variant:normal;font-weight:bold;font-stretch:normal;text-align:start;line-height:125%;letter-spacing:0px;word-spacing:0px;writing-mode:lr-tb;text-anchor:start;fill:#000000;fill-opacity:1;stroke:none;font-family:Arial;-inkscape-font-specification:Arial Bold"
   xml:space="preserve"><tspan
     y="7645.9536"
     x="6716.9067"
     id="tspan4439"
     sodipodi:role="line">144 x 41.5</tspan></text>

<text
   sodipodi:linespacing="125%"
   id="text4441"
   y="3192.1226"
   x="6716.9067"
   style="font-size:338.66668701px;font-style:normal;font-variant:normal;font-weight:bold;font-stretch:normal;text-align:start;line-height:125%;letter-spacing:0px;word-spacing:0px;writing-mode:lr-tb;text-anchor:start;fill:#000000;fill-opacity:1;stroke:none;font-family:Arial;-inkscape-font-specification:Arial Bold"
   xml:space="preserve"><tspan
     y="3192.1226"
     x="6716.9067"
     id="tspan4443"
     sodipodi:role="line">115 x 34.5</tspan></text>

<text
   transform="matrix(28.222223,0,0,28.222223,0,-1.5670882e-4)"
   sodipodi:linespacing="125%"
   id="text4447"
   y="406.42151"
   x="207.89825"
   style="font-size:12px;font-style:normal;font-variant:normal;font-weight:bold;font-stretch:normal;text-align:start;line-height:125%;letter-spacing:0px;word-spacing:0px;writing-mode:lr-tb;text-anchor:start;fill:#000000;fill-opacity:1;stroke:none;font-family:Arial;-inkscape-font-specification:Arial Bold"
   xml:space="preserve"><tspan
     y="406.42151"
     x="207.89825"
     id="tspan4449"
     sodipodi:role="line">Not quite symmetrical</tspan></text>

<path
   style="fill:none;stroke:#000000;stroke-width:14.11111156;marker-start:url(#Arrow1Lstart);marker-end:url(#Arrow1Lend)"
   inkscape:connector-curvature="0"
   d="M 27117.618,877.52174 H 40616.851"
   id="path4549" /><path
   style="fill:none;stroke:#000000;stroke-width:14.11111156"
   inkscape:connector-curvature="0"
   d="M 27117.618,377.52174 V 5477.1234"
   id="path4551" /><path
   style="fill:none;stroke:#000000;stroke-width:14.11111156"
   inkscape:connector-curvature="0"
   d="M 40616.851,377.52174 V 5477.1234"
   id="path4553" /><path
   style="fill:none;stroke:#000000;stroke-width:14.11111156;marker-start:url(#Arrow1Lstart);marker-end:url(#Arrow1Lend)"
   inkscape:connector-curvature="0"
   d="M 26617.618,1377.5217 V 5477.1234"
   id="path4555" /><path
   style="fill:none;stroke:#000000;stroke-width:14.11111156"
   inkscape:connector-curvature="0"
   d="M 26117.618,1377.5217 H 40616.851"
   id="path4557" /><path
   style="fill:none;stroke:#000000;stroke-width:14.11111156"
   inkscape:connector-curvature="0"
   d="M 26117.618,5477.1234 H 40616.851"
   id="path4559" /><path
   id="path4389"
   d="M 39692.036,1377.675 C 39655.282,1378.146 39617.44,1379.716 39579.147,1382.083 L 33948.814,1382.083 27975.404,1382.083 C 27714.683,1368.181 27471.042,1453.13 27310.418,1607.861 27308.074,1609.834 27305.672,1612.041 27303.362,1614.036 27183.693,1717.417 27110.583,1855.83 27118.154,2032.961 27112.375,2185.68 27159.165,2358.428 27276.022,2544.489 27710.846,3236.797 28320.891,4011.474 29064.606,4509.461 29735.195,4958.48 30556.222,5189.219 31356.779,5352.6 32239.658,5505.429 33089.348,5477.484 33867.675,5470.778 34731.2,5451.282 35645.9,5495.433 36378.571,5352.6 37179.128,5189.219 37999.273,4958.48 38669.863,4509.461 39413.577,4011.474 40023.622,3236.797 40458.446,2544.489 40575.303,2358.428 40622.093,2185.68 40616.314,2032.961 40623.886,1855.83 40550.777,1717.417 40431.106,1614.036 40428.88,1611.832 40426.309,1610.04 40424.05,1607.861 40172.814,1423.579 39949.314,1374.373 39692.036,1377.675 z M 30866.418,2978.406 C 30976.878,2978.406 31066.619,3068.152 31066.619,3178.606 31066.619,3289.059 30976.878,3377.925 30866.418,3377.925 30755.958,3377.925 30667.099,3289.059 30667.099,3178.606 30667.099,3068.152 30755.958,2978.406 30866.418,2978.406 z M 36868.05,2978.406 C 36978.51,2978.406 37068.251,3068.152 37068.251,3178.606 37068.251,3289.059 36978.51,3377.925 36868.05,3377.925 36757.59,3377.925 36667.848,3289.059 36667.848,3178.606 36667.848,3068.152 36757.59,2978.406 36868.05,2978.406 z"
   style="color:#000000;fill:#000000;fill-opacity:0.56084655;stroke:#000000;stroke-width:14.11111164;stroke-linecap:butt;stroke-linejoin:round;stroke-miterlimit:4;stroke-opacity:1;stroke-dashoffset:0;marker:none;visibility:visible;display:inline;overflow:visible;enable-background:accumulate"
   inkscape:connector-curvature="0" /><text
   xml:space="preserve"
   style="font-size:338.66668701px;font-style:normal;font-variant:normal;font-weight:bold;font-stretch:normal;text-align:start;line-height:125%;letter-spacing:0px;word-spacing:0px;writing-mode:lr-tb;text-anchor:start;fill:#000000;fill-opacity:1;stroke:none;font-family:Arial;-inkscape-font-specification:Arial Bold"
   x="33221.98"
   y="3423.1885"
   id="text4667"
   sodipodi:linespacing="125%"><tspan
     sodipodi:role="line"
     x="33221.98"
     y="3423.1885"
     id="tspan4671">135 x 41</tspan></text>
</svg>