<?xml version="1.0" encoding="UTF-8" standalone="no"?>
<svg
   xmlns:ooo="http://xml.openoffice.org/svg/export"
   xmlns:dc="http://purl.org/dc/elements/1.1/"
   xmlns:cc="http://creativecommons.org/ns#"
   xmlns:rdf="http://www.w3.org/1999/02/22-rdf-syntax-ns#"
   xmlns:svg="http://www.w3.org/2000/svg"
   xmlns="http://www.w3.org/2000/svg"
   xmlns:sodipodi="http://sodipodi.sourceforge.net/DTD/sodipodi-0.dtd"
   xmlns:inkscape="http://www.inkscape.org/namespaces/inkscape"
   version="1.2"
   width="1488.189"
   height="1052.3622"
   viewBox="0 0 42000.001 29700"
   preserveAspectRatio="xMidYMid"
   clip-path="url(#presentation_clip_path)"
   xml:space="preserve"
   id="svg3023"
   inkscape:version="0.48.4 r9939"
   sodipodi:docname="full-tailskid-workspace.svg.2016_10_30_11_36_24.0.svg"><sodipodi:namedview
   pagecolor="#ffffff"
   bordercolor="#666666"
   borderopacity="1"
   objecttolerance="10"
   gridtolerance="10"
   guidetolerance="10"
   inkscape:pageopacity="0"
   inkscape:pageshadow="2"
   inkscape:window-width="1920"
   inkscape:window-height="1018"
   id="namedview3111"
   showgrid="true"
   inkscape:zoom="0.40917969"
   inkscape:cx="1191.7863"
   inkscape:cy="22.127061"
   inkscape:window-x="-8"
   inkscape:window-y="-8"
   inkscape:window-maximized="1"
   inkscape:current-layer="svg3023"
   inkscape:snap-bbox="true"
   inkscape:bbox-paths="true"
   inkscape:bbox-nodes="true"
   inkscape:snap-bbox-edge-midpoints="true"
   inkscape:snap-bbox-midpoints="true"
   inkscape:snap-object-midpoints="true"
   units="mm"
   inkscape:document-units="mm"
   borderlayer="true"
   inkscape:showpageshadow="false"
   inkscape:snap-grids="false"><inkscape:grid
     snapvisiblegridlinesonly="true"
     enabled="true"
     visible="true"
     empspacing="5"
     units="mm"
     id="grid4936"
     type="xygrid" /></sodipodi:namedview><metadata
   id="metadata3113"><rdf:RDF><cc:Work
       rdf:about=""><dc:format>image/svg+xml</dc:format><dc:type
         rdf:resource="http://purl.org/dc/dcmitype/StillImage" /><dc:title /></cc:Work></rdf:RDF></metadata><defs
   id="defs3025"
   class="ClipPathGroup"><clipPath
     clipPathUnits="userSpaceOnUse"
     id="presentation_clip_path"><rect
       id="rect3028"
       height="21000"
       width="29700"
       y="0"
       x="0" /></clipPath><marker
     inkscape:stockid="Arrow1Lstart"
     style="overflow:visible"
     refY="0"
     refX="0"
     orient="auto"
     id="Arrow1Lstart"><path
       id="path3552"
       style="fill-rule:evenodd;stroke:#000000;stroke-width:1pt;marker-start:none"
       transform="matrix(0.8,0,0,0.8,10,0)"
       d="M 0,0 5,-5 -12.5,0 5,5 0,0 z"
       inkscape:connector-curvature="0" /></marker><marker
     inkscape:stockid="Arrow1Lend"
     style="overflow:visible"
     refY="0"
     refX="0"
     orient="auto"
     id="Arrow1Lend"><path
       id="path3555"
       style="fill-rule:evenodd;stroke:#000000;stroke-width:1pt;marker-start:none"
       transform="matrix(-0.8,0,0,-0.8,-10,0)"
       d="M 0,0 5,-5 -12.5,0 5,5 0,0 z"
       inkscape:connector-curvature="0" /></marker><marker
     id="marker4257"
     orient="auto"
     refX="0.0"
     refY="0.0"
     style="overflow:visible"
     inkscape:stockid="Arrow1Lstart"><path
       d="M 0.0,0.0 L 5.0,-5.0 L -12.5,0.0 L 5.0,5.0 L 0.0,0.0 z "
       transform="scale(0.8) translate(12.5,0)"
       style="fill-rule:evenodd;stroke:#000000;stroke-width:1.0pt;marker-start:none"
       id="path4259" /></marker><marker
     id="marker4261"
     orient="auto"
     refX="0.0"
     refY="0.0"
     style="overflow:visible"
     inkscape:stockid="Arrow1Lend"><path
       d="M 0.0,0.0 L 5.0,-5.0 L -12.5,0.0 L 5.0,5.0 L 0.0,0.0 z "
       transform="scale(0.8) rotate(180) translate(12.5,0)"
       style="fill-rule:evenodd;stroke:#000000;stroke-width:1.0pt;marker-start:none"
       id="path4263" /></marker><marker
     inkscape:stockid="Arrow1Lstart"
     style="overflow:visible"
     refY="0.0"
     refX="0.0"
     orient="auto"
     id="marker4465"><path
       id="path4467"
       style="fill-rule:evenodd;stroke:#000000;stroke-width:1.0pt;marker-start:none"
       transform="scale(0.8) translate(12.5,0)"
       d="M 0.0,0.0 L 5.0,-5.0 L -12.5,0.0 L 5.0,5.0 L 0.0,0.0 z " /></marker><marker
     inkscape:stockid="Arrow1Lend"
     style="overflow:visible"
     refY="0.0"
     refX="0.0"
     orient="auto"
     id="marker4469"><path
       id="path4471"
       style="fill-rule:evenodd;stroke:#000000;stroke-width:1.0pt;marker-start:none"
       transform="scale(0.8) rotate(180) translate(12.5,0)"
       d="M 0.0,0.0 L 5.0,-5.0 L -12.5,0.0 L 5.0,5.0 L 0.0,0.0 z " /></marker><marker
     id="marker4702"
     orient="auto"
     refX="0.0"
     refY="0.0"
     style="overflow:visible"
     inkscape:stockid="Arrow1Lstart"><path
       d="M 0.0,0.0 L 5.0,-5.0 L -12.5,0.0 L 5.0,5.0 L 0.0,0.0 z "
       transform="scale(0.8) translate(12.5,0)"
       style="fill-rule:evenodd;stroke:#000000;stroke-width:1.0pt;marker-start:none"
       id="path4704" /></marker><marker
     id="marker4706"
     orient="auto"
     refX="0.0"
     refY="0.0"
     style="overflow:visible"
     inkscape:stockid="Arrow1Lend"><path
       d="M 0.0,0.0 L 5.0,-5.0 L -12.5,0.0 L 5.0,5.0 L 0.0,0.0 z "
       transform="scale(0.8) rotate(180) translate(12.5,0)"
       style="fill-rule:evenodd;stroke:#000000;stroke-width:1.0pt;marker-start:none"
       id="path4708" /></marker></defs><defs
   id="defs3030"
   class="TextShapeIndex"><g
     id="g3032"
     ooo:id-list="id3 id4 id5 id6 id7 id8"
     ooo:slide="id1" /></defs><defs
   id="defs3034"
   class="EmbeddedBulletChars"><g
     transform="scale(4.8828125e-4,-4.8828125e-4)"
     id="bullet-char-template(57356)"><path
       id="path3037"
       d="M 580,1141 1163,571 580,0 -4,571 580,1141 z"
       inkscape:connector-curvature="0" /></g><g
     transform="scale(4.8828125e-4,-4.8828125e-4)"
     id="bullet-char-template(57354)"><path
       id="path3040"
       d="M 8,1128 1137,1128 1137,0 8,0 8,1128 z"
       inkscape:connector-curvature="0" /></g><g
     transform="scale(4.8828125e-4,-4.8828125e-4)"
     id="bullet-char-template(10146)"><path
       id="path3043"
       d="M 174,0 602,739 174,1481 1456,739 174,0 z M 1358,739 309,1346 659,739 1358,739 z"
       inkscape:connector-curvature="0" /></g><g
     transform="scale(4.8828125e-4,-4.8828125e-4)"
     id="bullet-char-template(10132)"><path
       id="path3046"
       d="M 2015,739 1276,0 717,0 1260,543 174,543 174,936 1260,936 717,1481 1274,1481 2015,739 z"
       inkscape:connector-curvature="0" /></g><g
     transform="scale(4.8828125e-4,-4.8828125e-4)"
     id="bullet-char-template(10007)"><path
       id="path3049"
       d="M 0,-2 C -7,14 -16,27 -25,37 L 356,567 C 262,823 215,952 215,954 215,979 228,992 255,992 264,992 276,990 289,987 310,991 331,999 354,1012 L 381,999 492,748 772,1049 836,1024 860,1049 C 881,1039 901,1025 922,1006 886,937 835,863 770,784 769,783 710,716 594,584 L 774,223 C 774,196 753,168 711,139 L 727,119 C 717,90 699,76 672,76 641,76 570,178 457,381 L 164,-76 C 142,-110 111,-127 72,-127 30,-127 9,-110 8,-76 1,-67 -2,-52 -2,-32 -2,-23 -1,-13 0,-2 z"
       inkscape:connector-curvature="0" /></g><g
     transform="scale(4.8828125e-4,-4.8828125e-4)"
     id="bullet-char-template(10004)"><path
       id="path3052"
       d="M 285,-33 C 182,-33 111,30 74,156 52,228 41,333 41,471 41,549 55,616 82,672 116,743 169,778 240,778 293,778 328,747 346,684 L 369,508 C 377,444 397,411 428,410 L 1163,1116 C 1174,1127 1196,1133 1229,1133 1271,1133 1292,1118 1292,1087 L 1292,965 C 1292,929 1282,901 1262,881 L 442,47 C 390,-6 338,-33 285,-33 z"
       inkscape:connector-curvature="0" /></g><g
     transform="scale(4.8828125e-4,-4.8828125e-4)"
     id="bullet-char-template(9679)"><path
       id="path3055"
       d="M 813,0 C 632,0 489,54 383,161 276,268 223,411 223,592 223,773 276,916 383,1023 489,1130 632,1184 813,1184 992,1184 1136,1130 1245,1023 1353,916 1407,772 1407,592 1407,412 1353,268 1245,161 1136,54 992,0 813,0 z"
       inkscape:connector-curvature="0" /></g><g
     transform="scale(4.8828125e-4,-4.8828125e-4)"
     id="bullet-char-template(8226)"><path
       id="path3058"
       d="M 346,457 C 273,457 209,483 155,535 101,586 74,649 74,723 74,796 101,859 155,911 209,963 273,989 346,989 419,989 480,963 531,910 582,859 608,796 608,723 608,648 583,586 532,535 482,483 420,457 346,457 z"
       inkscape:connector-curvature="0" /></g><g
     transform="scale(4.8828125e-4,-4.8828125e-4)"
     id="bullet-char-template(8211)"><path
       id="path3061"
       d="M -4,459 1135,459 1135,606 -4,606 -4,459 z"
       inkscape:connector-curvature="0" /></g></defs><defs
   id="defs3063"
   class="TextEmbeddedBitmaps" /><path
   style="opacity:0.3;color:#000000;fill:#ff0000;stroke:#ff0000;stroke-width:10.00000095;stroke-linecap:butt;stroke-linejoin:round;stroke-miterlimit:4;stroke-opacity:1;stroke-dashoffset:0;marker:none;visibility:visible;display:inline;overflow:visible;enable-background:accumulate"
   d="M 32932.381,28382.963 C 32757.492,28382.963 32583.766,28380.079 32412.033,28375.026 32389.023,28374.349 32366.191,28373.109 32343.242,28372.38 32309.097,28371.295 32274.94,28370.12 32240.936,28368.852 32187.94,28366.877 32134.828,28365.102 32082.186,28362.678 32078.65,28362.515 32075.138,28361.961 32071.603,28361.796 28802.533,28209.999 26232.108,27218.459 26145.818,26035.227 26137.171,25985.969 26132.589,25936.755 26132.589,25887.06 26132.589,25712.4 26117.881,25509.552 26121.123,25305.858 26120.525,24740.928 26246.002,24174.323 27103.609,24174.323 L 27241.193,24174.323 32742.762,24174.323 33133.464,24174.323 38635.033,24174.323 38772.616,24174.323 C 39647.68,24174.323 39760.705,24764.157 39755.103,25340.254 39755.104,25340.55 39755.101,25340.842 39755.103,25341.136 39755.1,25341.429 39755.106,25341.724 39755.103,25342.018 39756.262,25533.404 39743.637,25722.793 39743.637,25887.06 39743.637,25935.87 39738.752,25984.192 39730.408,26032.581 39730.267,26033.436 39730.549,26034.375 39730.408,26035.227 39644.118,27218.459 37073.686,28209.849 33804.624,28361.796 33748.165,28364.421 33691.267,28366.657 33634.408,28368.852 33598.65,28370.232 33562.727,28371.25 33526.811,28372.38 33505.62,28373.046 33484.555,28374.425 33463.311,28375.026 33459.791,28375.124 33456.25,28374.93 33452.728,28375.026 33399.278,28376.499 33345.104,28378.415 33291.332,28379.435 33287.531,28379.509 33283.669,28379.365 33279.867,28379.435 33225.78,28380.429 33171.985,28381.552 33117.589,28382.081 33114.076,28382.115 33110.52,28382.05 33107.006,28382.081 33049.042,28382.613 32990.677,28382.963 32932.381,28382.963 z M 29938.179,26183.394 C 30048.635,26183.394 30138.38,26093.648 30138.38,25983.192 30138.38,25872.736 30048.635,25783.873 29938.179,25783.873 29827.723,25783.873 29737.978,25872.736 29737.978,25983.192 29737.978,26093.648 29827.723,26183.394 29938.179,26183.394 z M 35938.047,26183.394 C 36048.503,26183.394 36138.248,26093.648 36138.248,25983.192 36138.248,25872.736 36048.503,25783.873 35938.047,25783.873 35827.591,25783.873 35737.846,25872.736 35737.846,25983.192 35737.846,26093.648 35827.591,26183.394 35938.047,26183.394 z"
   id="path3300"
   inkscape:connector-curvature="0" /><rect
   y="2384.4224"
   x="17849.463"
   height="994.34265"
   width="6010.6113"
   id="rect3723"
   style="opacity:0.5;color:#000000;fill:#ffff00;stroke:#000000;stroke-width:20.46640015px;stroke-linecap:butt;stroke-linejoin:miter;stroke-miterlimit:4;stroke-opacity:1;stroke-dasharray:none;stroke-dashoffset:0;marker:none;visibility:visible;display:inline;overflow:visible;enable-background:accumulate" /><g
   id="g3065"
   transform="translate(0,8700.0003)"><g
     class="Master_Slide"
     id="id2"><g
       class="Background"
       id="bg-id2" /><g
       class="BackgroundObjects"
       id="bo-id2" /></g></g><g
   transform="translate(-6162.5661,-1733.389)"
   id="g3077"
   class="Group"><g
     id="g3079"
     class="com.sun.star.drawing.ClosedBezierShape"><g
       id="id3"><path
         style="fill:none;stroke:#e30079;stroke-width:20;stroke-linejoin:miter"
         inkscape:connector-curvature="0"
         id="path3082"
         d="M 17258,3224 C 18534,3224 19348,3058 19434,3863 19491,4391 18433,5700 16768,6371 15903,6719 12174,6699 11120,6538 9800,6337 6187,3396 8963,3224 L 17258,3224 z" /></g></g><g
     id="g3084"
     class="com.sun.star.drawing.ClosedBezierShape"><g
       id="id4"><path
         style="fill:none;stroke:#e30079;stroke-width:20;stroke-linejoin:miter"
         inkscape:connector-curvature="0"
         id="path3087"
         d="M 10951,4467 10951,4467 C 10952,4467 10952,4467 10953,4467 10974,4467 10991,4472 11010,4484 11028,4495 11041,4509 11052,4529 11062,4549 11067,4568 11067,4591 L 11067,4591 11067,4591 C 11067,4614 11062,4633 11052,4653 11041,4673 11028,4687 11010,4698 10991,4710 10974,4715 10953,4715 10931,4715 10914,4710 10895,4698 10877,4687 10864,4673 10853,4653 10843,4633 10838,4614 10838,4591 10838,4568 10843,4549 10853,4529 10864,4509 10877,4495 10895,4484 10913,4472 10931,4467 10951,4467 z" /></g></g><g
     id="g3089"
     class="com.sun.star.drawing.ClosedBezierShape"><g
       id="id5"><path
         style="fill:none;stroke:#e30079;stroke-width:20;stroke-linejoin:miter"
         inkscape:connector-curvature="0"
         id="path3092"
         d="M 16473,4477 16473,4477 C 16474,4477 16474,4477 16475,4477 16496,4477 16513,4482 16532,4494 16550,4505 16563,4519 16574,4539 16584,4559 16589,4578 16589,4601 L 16589,4601 16589,4601 C 16589,4624 16584,4643 16574,4663 16563,4683 16550,4697 16532,4708 16513,4720 16496,4725 16475,4725 16453,4725 16436,4720 16417,4708 16399,4697 16386,4683 16375,4663 16365,4643 16360,4624 16360,4601 16360,4578 16365,4559 16375,4539 16386,4519 16399,4505 16417,4494 16435,4482 16453,4477 16473,4477 z" /></g></g></g><g
   transform="translate(-6354.9578,-3910.8154)"
   id="g3094"
   class="Group"><g
     id="g3096"
     class="com.sun.star.drawing.ClosedBezierShape"><g
       id="id6"><path
         style="fill:none;stroke:#e30079;stroke-width:20;stroke-linejoin:miter"
         inkscape:connector-curvature="0"
         id="path3099"
         d="M 18404,9387 C 20128,9388 21088,9248 21091,10129 21103,14076 9949,14549 7340,11662 6930,11208 6564,10765 6699,10035 6779,9611 6991,9439 7427,9388 7895,9334 8589,9378 9541,9372 12331,9353 15725,9385 18404,9387 z" /></g></g><g
     id="g3101"
     class="com.sun.star.drawing.ClosedBezierShape"><g
       id="id7"><path
         style="fill:none;stroke:#e30079;stroke-width:20;stroke-linejoin:miter"
         inkscape:connector-curvature="0"
         id="path3104"
         d="M 9882,10658 9881,10658 C 9907,10658 9928,10664 9950,10678 9972,10691 9988,10708 10001,10732 10013,10755 10019,10778 10019,10805 L 10019,10805 10019,10805 C 10019,10833 10013,10856 10001,10879 9988,10903 9972,10920 9950,10933 9928,10947 9907,10953 9882,10953 9856,10953 9835,10947 9813,10933 9791,10920 9775,10903 9762,10879 9750,10856 9744,10833 9744,10805 9744,10778 9750,10755 9762,10732 9775,10708 9791,10691 9813,10678 9835,10664 9856,10658 9881,10658 L 9882,10658 z" /></g></g><g
     id="g3106"
     class="com.sun.star.drawing.ClosedBezierShape"><g
       id="id8"><path
         style="fill:none;stroke:#e30079;stroke-width:20;stroke-linejoin:miter"
         inkscape:connector-curvature="0"
         id="path3109"
         d="M 17858,10658 17857,10658 C 17883,10658 17904,10664 17926,10678 17948,10691 17964,10708 17977,10732 17989,10755 17995,10778 17995,10805 L 17995,10805 17995,10805 C 17995,10833 17989,10856 17977,10879 17964,10903 17948,10920 17926,10933 17904,10947 17883,10953 17858,10953 17832,10953 17811,10947 17789,10933 17767,10920 17751,10903 17738,10879 17726,10856 17720,10833 17720,10805 17720,10778 17726,10755 17738,10732 17751,10708 17767,10691 17789,10678 17811,10664 17832,10658 17857,10658 L 17858,10658 z" /></g></g></g><g
   style="stroke:#000000;stroke-width:14.11111156"
   transform="translate(-5812.2736,8812.8655)"
   id="g3053"
   class="com.sun.star.drawing.ClosedBezierShape"><g
     style="stroke:#000000;stroke-width:14.11111156"
     id="g3055"><path
       style="fill:#0000ff;stroke:#000000;stroke-width:14.11111156;stroke-linejoin:miter"
       inkscape:connector-curvature="0"
       id="path3057"
       d="M 17258,3224 C 18534,3224 19348,3058 19434,3863 19491,4391 18433,5700 16768,6371 15903,6719 12174,6699 11120,6538 9800,6337 6187,3396 8963,3224 L 17258,3224 z" /><path
       d="M 10118.708,3224 C 8842.7078,3224 8028.7078,3058 7942.7078,3863 7885.7078,4391 8943.7078,5700 10608.708,6371 11473.708,6719 15202.708,6699 16256.708,6538 17576.708,6337 21189.708,3396 18413.708,3224 L 10118.708,3224 z"
       id="path4445"
       inkscape:connector-curvature="0"
       style="opacity:0.67000002000000003;fill:#ff0000;stroke:#000000;stroke-width:14.11111156;stroke-linejoin:miter" /></g></g><g
   style="stroke:#000000;stroke-width:14.11111156"
   transform="translate(-5812.2736,8812.8655)"
   id="g3059"
   class="com.sun.star.drawing.ClosedBezierShape"><g
     style="stroke:#000000;stroke-width:14.11111156"
     id="g3061"><path
       style="fill:none;stroke:#000000;stroke-width:14.11111156;stroke-linejoin:miter"
       inkscape:connector-curvature="0"
       id="path3063"
       d="M 10951,4467 10951,4467 C 10952,4467 10952,4467 10953,4467 10974,4467 10991,4472 11010,4484 11028,4495 11041,4509 11052,4529 11062,4549 11067,4568 11067,4591 L 11067,4591 11067,4591 C 11067,4614 11062,4633 11052,4653 11041,4673 11028,4687 11010,4698 10991,4710 10974,4715 10953,4715 10931,4715 10914,4710 10895,4698 10877,4687 10864,4673 10853,4653 10843,4633 10838,4614 10838,4591 10838,4568 10843,4549 10853,4529 10864,4509 10877,4495 10895,4484 10913,4472 10931,4467 10951,4467 z" /></g></g><g
   style="stroke:#000000;stroke-width:14.11111156"
   transform="translate(-5812.2736,8812.8655)"
   id="g3066"
   class="com.sun.star.drawing.ClosedBezierShape"><g
     style="stroke:#000000;stroke-width:14.11111156"
     id="g3068"><path
       style="fill:none;stroke:#000000;stroke-width:14.11111156;stroke-linejoin:miter"
       inkscape:connector-curvature="0"
       id="path3070"
       d="M 16473,4477 16473,4477 C 16474,4477 16474,4477 16475,4477 16496,4477 16513,4482 16532,4494 16550,4505 16563,4519 16574,4539 16584,4559 16589,4578 16589,4601 L 16589,4601 16589,4601 C 16589,4624 16584,4643 16574,4663 16563,4683 16550,4697 16532,4708 16513,4720 16496,4725 16475,4725 16453,4725 16436,4720 16417,4708 16399,4697 16386,4683 16375,4663 16365,4643 16360,4624 16360,4601 16360,4578 16365,4559 16375,4539 16386,4519 16399,4505 16417,4494 16435,4482 16453,4477 16473,4477 z" /></g></g><text
   sodipodi:linespacing="125%"
   id="text3072"
   y="921.95514"
   x="3681.3911"
   style="font-size:338.66668701px;font-style:normal;font-variant:normal;font-weight:bold;font-stretch:normal;text-align:start;line-height:125%;letter-spacing:0px;word-spacing:0px;writing-mode:lr-tb;text-anchor:start;fill:#000000;fill-opacity:1;stroke:none;font-family:Arial;-inkscape-font-specification:Arial Bold"
   xml:space="preserve"><tspan
     id="tspan3076"
     y="921.95514"
     x="3681.3911"
     sodipodi:role="line">Christian's originals from CDR file - correct size</tspan></text>






<path
   transform="matrix(22.476199,0,0,22.475948,3322.0803,-2339.85)"
   d="M 655.24352,210.19237 A 8.8983688,8.8983688 0 1 1 637.44678,210.19237 8.8983688,8.8983688 0 1 1 655.24352,210.19237 z"
   sodipodi:ry="8.8983688"
   sodipodi:rx="8.8983688"
   sodipodi:cy="210.19237"
   sodipodi:cx="646.34515"
   id="path3091"
   style="color:#000000;fill:none;stroke:#000000;stroke-width:0.87165356;stroke-miterlimit:4;stroke-opacity:1;stroke-dasharray:none;marker:none;visibility:visible;display:inline;overflow:visible;enable-background:accumulate"
   sodipodi:type="arc" /><path
   sodipodi:type="arc"
   style="color:#000000;fill:none;stroke:#000000;stroke-width:0.87165356;stroke-miterlimit:4;stroke-opacity:1;stroke-dasharray:none;marker:none;visibility:visible;display:inline;overflow:visible;enable-background:accumulate"
   id="path3093"
   sodipodi:cx="646.34515"
   sodipodi:cy="210.19237"
   sodipodi:rx="8.8983688"
   sodipodi:ry="8.8983688"
   d="M 655.24352,210.19237 A 8.8983688,8.8983688 0 1 1 637.44678,210.19237 8.8983688,8.8983688 0 1 1 655.24352,210.19237 z"
   transform="matrix(22.476199,0,0,22.475948,9324.8723,-2339.85)" /><text
   xml:space="preserve"
   style="font-size:338.66668701px;font-style:normal;font-variant:normal;font-weight:bold;font-stretch:normal;text-align:start;line-height:125%;letter-spacing:0px;word-spacing:0px;writing-mode:lr-tb;text-anchor:start;fill:#000000;fill-opacity:1;stroke:none;font-family:Arial;-inkscape-font-specification:Arial Bold"
   x="16950.014"
   y="1028.5366"
   id="text3725"
   sodipodi:linespacing="125%"><tspan
     sodipodi:role="line"
     id="tspan3727"
     x="16950.014"
     y="1028.5366">Standard hole pattern: 60mm spaced 4mm holes</tspan></text>





<text
   xml:space="preserve"
   style="font-size:338.66668701px;font-style:normal;font-variant:normal;font-weight:bold;font-stretch:normal;text-align:start;line-height:125%;letter-spacing:0px;word-spacing:0px;writing-mode:lr-tb;text-anchor:start;fill:#000000;fill-opacity:1;stroke:none;font-family:Arial;-inkscape-font-specification:Arial Bold"
   x="31771.072"
   y="797.01923"
   id="text3729"
   sodipodi:linespacing="125%"><tspan
     sodipodi:role="line"
     id="tspan3731"
     x="31771.072"
     y="797.01923">Erskids Moonshine shape</tspan></text>





<path
   id="path4332"
   d="M 17849.463,1884.4227 H 23860.074"
   inkscape:connector-curvature="0"
   style="fill:none;stroke:#000000;stroke-width:14.11111164;marker-start:url(#Arrow1Lstart);marker-end:url(#Arrow1Lend)" /><path
   id="path4334"
   d="M 17849.463,1384.4227 V 3378.7654"
   inkscape:connector-curvature="0"
   style="fill:none;stroke:#000000;stroke-width:14.11111164" /><path
   id="path4336"
   d="M 23860.074,1384.4227 V 3378.7654"
   inkscape:connector-curvature="0"
   style="fill:none;stroke:#000000;stroke-width:14.11111164" /><text
   sodipodi:linespacing="125%"
   id="text4437"
   y="7645.9536"
   x="6716.9067"
   style="font-size:338.66668701px;font-style:normal;font-variant:normal;font-weight:bold;font-stretch:normal;text-align:start;line-height:125%;letter-spacing:0px;word-spacing:0px;writing-mode:lr-tb;text-anchor:start;fill:#000000;fill-opacity:1;stroke:none;font-family:Arial;-inkscape-font-specification:Arial Bold"
   xml:space="preserve"><tspan
     y="7645.9536"
     x="6716.9067"
     id="tspan4439"
     sodipodi:role="line">144 x 41.5</tspan></text>




<text
   sodipodi:linespacing="125%"
   id="text4441"
   y="3192.1226"
   x="6716.9067"
   style="font-size:338.66668701px;font-style:normal;font-variant:normal;font-weight:bold;font-stretch:normal;text-align:start;line-height:125%;letter-spacing:0px;word-spacing:0px;writing-mode:lr-tb;text-anchor:start;fill:#000000;fill-opacity:1;stroke:none;font-family:Arial;-inkscape-font-specification:Arial Bold"
   xml:space="preserve"><tspan
     y="3192.1226"
     x="6716.9067"
     id="tspan4443"
     sodipodi:role="line">115 x 34.5</tspan></text>




<text
   transform="matrix(28.222223,0,0,28.222223,0,-1.5670882e-4)"
   sodipodi:linespacing="125%"
   id="text4447"
   y="406.42151"
   x="207.89825"
   style="font-size:12px;font-style:normal;font-variant:normal;font-weight:bold;font-stretch:normal;text-align:start;line-height:125%;letter-spacing:0px;word-spacing:0px;writing-mode:lr-tb;text-anchor:start;fill:#000000;fill-opacity:1;stroke:none;font-family:Arial;-inkscape-font-specification:Arial Bold"
   xml:space="preserve"><tspan
     y="406.42151"
     x="207.89825"
     id="tspan4449"
     sodipodi:role="line">Not quite symmetrical</tspan></text>




<path
   style="fill:none;stroke:#000000;stroke-width:14.11111156;marker-start:url(#Arrow1Lstart);marker-end:url(#Arrow1Lend)"
   inkscape:connector-curvature="0"
   d="M 27117.618,877.52174 H 40616.851"
   id="path4549" /><path
   style="fill:none;stroke:#000000;stroke-width:14.11111156"
   inkscape:connector-curvature="0"
   d="M 27117.618,377.52174 V 5477.1234"
   id="path4551" /><path
   style="fill:none;stroke:#000000;stroke-width:14.11111156"
   inkscape:connector-curvature="0"
   d="M 40616.851,377.52174 V 5477.1234"
   id="path4553" /><path
   style="fill:none;stroke:#000000;stroke-width:14.11111156;marker-start:url(#Arrow1Lstart);marker-end:url(#Arrow1Lend)"
   inkscape:connector-curvature="0"
   d="M 26617.618,1377.5217 V 5477.1234"
   id="path4555" /><path
   style="fill:none;stroke:#000000;stroke-width:14.11111156"
   inkscape:connector-curvature="0"
   d="M 26117.618,1377.5217 H 40616.851"
   id="path4557" /><path
   style="fill:none;stroke:#000000;stroke-width:14.11111156"
   inkscape:connector-curvature="0"
   d="M 26117.618,5477.1234 H 40616.851"
   id="path4559" /><path
   id="path4389"
   d="M 39692.036,1377.675 C 39655.282,1378.146 39617.44,1379.716 39579.147,1382.083 L 33948.814,1382.083 27975.404,1382.083 C 27714.683,1368.181 27471.042,1453.13 27310.418,1607.861 27308.074,1609.834 27305.672,1612.041 27303.362,1614.036 27183.693,1717.417 27110.583,1855.83 27118.154,2032.961 27112.375,2185.68 27159.165,2358.428 27276.022,2544.489 27710.846,3236.797 28320.891,4011.474 29064.606,4509.461 29735.195,4958.48 30556.222,5189.219 31356.779,5352.6 32239.658,5505.429 33089.348,5477.484 33867.675,5470.778 34731.2,5451.282 35645.9,5495.433 36378.571,5352.6 37179.128,5189.219 37999.273,4958.48 38669.863,4509.461 39413.577,4011.474 40023.622,3236.797 40458.446,2544.489 40575.303,2358.428 40622.093,2185.68 40616.314,2032.961 40623.886,1855.83 40550.777,1717.417 40431.106,1614.036 40428.88,1611.832 40426.309,1610.04 40424.05,1607.861 40172.814,1423.579 39949.314,1374.373 39692.036,1377.675 z M 30866.418,2978.406 C 30976.878,2978.406 31066.619,3068.152 31066.619,3178.606 31066.619,3289.059 30976.878,3377.925 30866.418,3377.925 30755.958,3377.925 30667.099,3289.059 30667.099,3178.606 30667.099,3068.152 30755.958,2978.406 30866.418,2978.406 z M 36868.05,2978.406 C 36978.51,2978.406 37068.251,3068.152 37068.251,3178.606 37068.251,3289.059 36978.51,3377.925 36868.05,3377.925 36757.59,3377.925 36667.848,3289.059 36667.848,3178.606 36667.848,3068.152 36757.59,2978.406 36868.05,2978.406 z"
   style="color:#000000;fill:#000000;fill-opacity:0.56084655;stroke:#000000;stroke-width:14.11111164;stroke-linecap:butt;stroke-linejoin:round;stroke-miterlimit:4;stroke-opacity:1;stroke-dashoffset:0;marker:none;visibility:visible;display:inline;overflow:visible;enable-background:accumulate"
   inkscape:connector-curvature="0" /><text
   xml:space="preserve"
   style="font-size:338.66668701px;font-style:normal;font-variant:normal;font-weight:bold;font-stretch:normal;text-align:start;line-height:125%;letter-spacing:0px;word-spacing:0px;writing-mode:lr-tb;text-anchor:start;fill:#000000;fill-opacity:1;stroke:none;font-family:Arial;-inkscape-font-specification:Arial Bold"
   x="33221.98"
   y="3423.1885"
   id="text4667"
   sodipodi:linespacing="125%"><tspan
     sodipodi:role="line"
     x="33221.98"
     y="3423.1885"
     id="tspan4671">135 x 41</tspan></text>



<path
   id="path4796"
   d="M 26987.29,6805.908 H 40621.928"
   inkscape:connector-curvature="0"
   style="fill:none;stroke:#000000;stroke-width:14.11111156;marker-start:url(#Arrow1Lstart);marker-end:url(#Arrow1Lend)" /><path
   id="path4798"
   d="M 26987.29,6305.908 V 11514.548"
   inkscape:connector-curvature="0"
   style="fill:none;stroke:#000000;stroke-width:14.11111156" /><path
   id="path4800"
   d="M 40621.928,6305.908 V 11514.548"
   inkscape:connector-curvature="0"
   style="fill:none;stroke:#000000;stroke-width:14.11111156" /><path
   id="path4802"
   d="M 26487.29,7305.908 V 11514.548"
   inkscape:connector-curvature="0"
   style="fill:none;stroke:#000000;stroke-width:14.11111156;marker-start:url(#Arrow1Lstart);marker-end:url(#Arrow1Lend)" /><path
   id="path4804"
   d="M 25987.29,7305.908 H 40621.928"
   inkscape:connector-curvature="0"
   style="fill:none;stroke:#000000;stroke-width:14.11111156" /><path
   id="path4806"
   d="M 25987.29,11514.548 H 40621.928"
   inkscape:connector-curvature="0"
   style="fill:none;stroke:#000000;stroke-width:14.11111156" /><path
   inkscape:connector-curvature="0"
   id="path3001"
   d="M 33799.015,11514.548 C 33624.126,11514.548 33450.4,11511.664 33278.667,11506.611 33255.657,11505.934 33232.825,11504.694 33209.876,11503.965 33175.731,11502.88 33141.574,11501.705 33107.57,11500.437 33054.574,11498.462 33001.462,11496.687 32948.82,11494.263 32945.284,11494.1 32941.772,11493.546 32938.237,11493.381 29669.167,11341.584 27098.742,10350.044 27012.452,9166.8112 27003.805,9117.5532 26999.223,9068.3392 26999.223,9018.6442 26999.223,8843.9842 26984.515,8641.1362 26987.757,8437.443 26987.159,7872.513 27112.636,7305.908 27970.243,7305.908 L 28107.827,7305.908 33609.396,7305.908 34000.098,7305.908 39501.667,7305.908 39639.25,7305.908 C 40514.314,7305.908 40627.339,7895.742 40621.737,8471.839 40621.738,8472.135 40621.735,8472.427 40621.737,8472.721 40621.734,8473.014 40621.74,8473.309 40621.737,8473.603 40622.896,8664.9882 40610.271,8854.3772 40610.271,9018.6442 40610.271,9067.4542 40605.386,9115.7762 40597.042,9164.1652 40596.901,9165.0202 40597.183,9165.9592 40597.042,9166.8112 40510.752,10350.044 37940.32,11341.434 34671.258,11493.381 34614.799,11496.006 34557.901,11498.242 34501.042,11500.437 34465.284,11501.817 34429.361,11502.835 34393.445,11503.965 34372.254,11504.631 34351.189,11506.01 34329.945,11506.611 34326.425,11506.709 34322.884,11506.515 34319.362,11506.611 34265.912,11508.084 34211.738,11510 34157.966,11511.02 34154.165,11511.094 34150.303,11510.95 34146.501,11511.02 34092.414,11512.014 34038.619,11513.137 33984.223,11513.666 33980.71,11513.7 33977.154,11513.635 33973.64,11513.666 33915.676,11514.198 33857.311,11514.548 33799.015,11514.548 z M 30804.813,9314.9782 C 30915.269,9314.9782 31005.014,9225.2322 31005.014,9114.7762 31005.014,9004.3202 30915.269,8915.4572 30804.813,8915.4572 30694.357,8915.4572 30604.612,9004.3202 30604.612,9114.7762 30604.612,9225.2322 30694.357,9314.9782 30804.813,9314.9782 z M 36804.681,9314.9782 C 36915.137,9314.9782 37004.882,9225.2322 37004.882,9114.7762 37004.882,9004.3202 36915.137,8915.4572 36804.681,8915.4572 36694.225,8915.4572 36604.48,9004.3202 36604.48,9114.7762 36604.48,9225.2322 36694.225,9314.9782 36804.681,9314.9782 z"
   style="color:#000000;fill:#ff0000;stroke:#ff0000;stroke-width:10.00000095;stroke-linecap:butt;stroke-linejoin:round;stroke-miterlimit:4;stroke-opacity:1;stroke-dashoffset:0;marker:none;visibility:visible;display:inline;overflow:visible;enable-background:accumulate" /><text
   sodipodi:linespacing="125%"
   id="text4928"
   y="9406.0938"
   x="33159.355"
   style="font-size:338.66668701px;font-style:normal;font-variant:normal;font-weight:bold;font-stretch:normal;text-align:start;line-height:125%;letter-spacing:0px;word-spacing:0px;writing-mode:lr-tb;text-anchor:start;fill:#000000;fill-opacity:1;stroke:none;font-family:Arial;-inkscape-font-specification:Arial Bold"
   xml:space="preserve"><tspan
     id="tspan4930"
     y="9406.0938"
     x="33159.355"
     sodipodi:role="line">136 x 42</tspan></text>


<text
   sodipodi:linespacing="125%"
   id="text4932"
   y="6739.1006"
   x="32028.262"
   style="font-size:338.66668701px;font-style:normal;font-variant:normal;font-weight:bold;font-stretch:normal;text-align:start;line-height:125%;letter-spacing:0px;word-spacing:0px;writing-mode:lr-tb;text-anchor:start;fill:#000000;fill-opacity:1;stroke:none;font-family:Arial;-inkscape-font-specification:Arial Bold"
   xml:space="preserve"><tspan
     y="6739.1006"
     x="32028.262"
     id="tspan4934"
     sodipodi:role="line">Erskids Square shape</tspan></text>


<path
   style="fill:#0000ff;stroke:#000000;stroke-width:14.11111164;stroke-linejoin:miter"
   d="M 7701.8532,20097.143 7701.8532,16665.497 C 3079.5822,16665.497 4558.8532,16655.168 3079.5822,16665.497 2569.304,16669.364 2212.7427,16719.121 2049.4711,16999.754 2049.3436,16999.973 2049.5983,17000.417 2049.4711,17000.636 2049.2243,17000.956 2048.8349,17001.199 2048.5891,17001.518 1976.0847,17095.858 1948.1837,17206.797 1955.985,17328.72 1924.1841,17846.345 2895.426,19056.275 4433.367,19739.074 4697.8419,19868.789 4940.2714,19957.457 5133.6309,19986.9 5611.688,20059.924 6640.0211,20103.314 7701.8532,20097.143 z"
   id="path3134"
   inkscape:connector-curvature="0"
   sodipodi:nodetypes="cccccccccc" /><path
   sodipodi:nodetypes="cccccccccc"
   inkscape:connector-curvature="0"
   id="path3165"
   d="M 7701.8532,20097.143 7701.8532,16665.497 C 12324.123,16665.497 10844.853,16655.168 12324.123,16665.497 12834.402,16669.364 13190.963,16719.121 13354.235,16999.754 13354.362,16999.973 13354.107,17000.417 13354.235,17000.636 13354.481,17000.956 13354.871,17001.199 13355.117,17001.518 13427.621,17095.858 13455.522,17206.797 13447.721,17328.72 13479.522,17846.345 12508.28,19056.275 10970.339,19739.074 10705.864,19868.789 10463.434,19957.457 10270.075,19986.9 9792.0184,20059.924 8763.6853,20103.314 7701.8532,20097.143 z"
   style="fill:#0000ff;stroke:#000000;stroke-width:14.11111164;stroke-linejoin:miter" /><text
   sodipodi:linespacing="125%"
   id="text4447-1"
   y="16363.854"
   x="3780.4797"
   style="font-size:338.66668701px;font-style:normal;font-variant:normal;font-weight:bold;font-stretch:normal;text-align:start;line-height:125%;letter-spacing:0px;word-spacing:0px;writing-mode:lr-tb;text-anchor:start;fill:#000000;fill-opacity:1;stroke:none;font-family:Arial;-inkscape-font-specification:Arial Bold"
   xml:space="preserve"><tspan
     y="16363.854"
     x="3780.4797"
     id="tspan4449-7"
     sodipodi:role="line">Symmetry corrected and &quot;standard&quot; hole pattern</tspan></text>
<g
   id="g3192"
   transform="translate(-13149.005,10997.117)"><path
     transform="matrix(22.476199,0,0,22.475948,3322.0803,2457.9258)"
     d="M 655.24352,210.19237 C 655.24352,215.1068 651.25959,219.09074 646.34515,219.09074 641.43072,219.09074 637.44678,215.1068 637.44678,210.19237 637.44678,205.27793 641.43072,201.294 646.34515,201.294 651.25959,201.294 655.24352,205.27793 655.24352,210.19237 z"
     sodipodi:ry="8.8983688"
     sodipodi:rx="8.8983688"
     sodipodi:cy="210.19237"
     sodipodi:cx="646.34515"
     id="path3188"
     style="color:#000000;fill:none;stroke:#000000;stroke-width:0.87165356;stroke-miterlimit:4;stroke-opacity:1;stroke-dasharray:none;marker:none;visibility:visible;display:inline;overflow:visible;enable-background:accumulate"
     sodipodi:type="arc" /><path
     sodipodi:type="arc"
     style="color:#000000;fill:none;stroke:#000000;stroke-width:0.87165356;stroke-miterlimit:4;stroke-opacity:1;stroke-dasharray:none;marker:none;visibility:visible;display:inline;overflow:visible;enable-background:accumulate"
     id="path3190"
     sodipodi:cx="646.34515"
     sodipodi:cy="210.19237"
     sodipodi:rx="8.8983688"
     sodipodi:ry="8.8983688"
     d="M 655.24352,210.19237 C 655.24352,215.1068 651.25959,219.09074 646.34515,219.09074 641.43072,219.09074 637.44678,215.1068 637.44678,210.19237 637.44678,205.27793 641.43072,201.294 646.34515,201.294 651.25959,201.294 655.24352,205.27793 655.24352,210.19237 z"
     transform="matrix(22.476199,0,0,22.475948,9324.8723,2457.9258)" /></g><path
   inkscape:connector-curvature="0"
   style="color:#000000;fill:#000000;fill-opacity:0.56084655;stroke:#000000;stroke-width:14.11111164;stroke-linecap:butt;stroke-linejoin:round;stroke-miterlimit:4;stroke-opacity:1;stroke-dashoffset:0;marker:none;visibility:visible;display:inline;overflow:visible;enable-background:accumulate"
   d="M 38957.861,19100.361 C 38921.107,19100.832 38883.265,19102.402 38844.972,19104.769 L 33214.639,19104.769 27241.229,19104.769 C 26980.508,19090.867 26736.867,19175.816 26576.243,19330.547 26573.899,19332.52 26571.497,19334.727 26569.187,19336.722 26449.518,19440.103 26376.408,19578.516 26383.979,19755.647 26378.2,19908.366 26424.99,20081.114 26541.847,20267.175 26976.671,20959.483 27586.716,21734.16 28330.431,22232.147 29001.02,22681.166 29822.047,22911.905 30622.604,23075.286 31505.483,23228.115 32355.173,23200.17 33133.5,23193.464 33997.025,23173.968 34911.725,23218.119 35644.396,23075.286 36444.953,22911.905 37265.098,22681.166 37935.688,22232.147 38679.402,21734.16 39289.447,20959.483 39724.271,20267.175 39841.128,20081.114 39887.918,19908.366 39882.139,19755.647 39889.711,19578.516 39816.602,19440.103 39696.931,19336.722 39694.705,19334.518 39692.134,19332.726 39689.875,19330.547 39438.639,19146.265 39215.139,19097.059 38957.861,19100.361 z M 30132.243,20701.092 C 30242.703,20701.092 30332.444,20790.838 30332.444,20901.292 30332.444,21011.745 30242.703,21100.611 30132.243,21100.611 30021.783,21100.611 29932.924,21011.745 29932.924,20901.292 29932.924,20790.838 30021.783,20701.092 30132.243,20701.092 z M 36133.875,20701.092 C 36244.335,20701.092 36334.076,20790.838 36334.076,20901.292 36334.076,21011.745 36244.335,21100.611 36133.875,21100.611 36023.415,21100.611 35933.673,21011.745 35933.673,20901.292 35933.673,20790.838 36023.415,20701.092 36133.875,20701.092 z"
   id="path4675" /><path
   style="fill:none;stroke:#000000;stroke-width:14.11111164;stroke-linejoin:miter"
   d="M 3775.6043,21458.597 C 3634.0405,21459.081 3449.5679,21460.424 3079.7501,21463.007 2569.4719,21466.874 2212.9105,21516.631 2049.6389,21797.264 2049.5114,21797.483 2049.7661,21797.927 2049.6389,21798.146 2049.3921,21798.466 2049.0028,21798.709 2048.757,21799.028 1976.2526,21893.368 1948.3515,22004.306 1956.1528,22126.229 1924.3519,22643.854 2895.5939,23853.784 4433.5348,24536.583 4698.0098,24666.298 4940.4393,24754.966 5133.7988,24784.41 5611.8558,24857.433 6640.189,24900.824 7702.021,24894.653 8763.8531,24900.824 9792.1868,24857.433 10270.243,24784.41 10463.602,24754.966 10706.032,24666.298 10970.507,24536.583 12508.448,23853.784 13479.69,22643.854 13447.889,22126.229 13455.69,22004.306 13427.789,21893.368 13355.285,21799.028 13355.039,21798.709 13354.649,21798.466 13354.403,21798.146 13354.275,21797.927 13354.53,21797.483 13354.403,21797.264 13191.131,21516.631 12834.571,21466.874 12324.292,21463.007 10845.022,21452.678 12324.291,21463.007 7702.021,21463.007 4235.3178,21463.007 4200.2957,21457.144 3775.6043,21458.597 z"
   id="path3216"
   inkscape:connector-curvature="0" /><g
   transform="translate(-13148.838,15794.897)"
   id="g3220"><path
     sodipodi:type="arc"
     style="color:#000000;fill:none;stroke:#000000;stroke-width:0.87165356;stroke-miterlimit:4;stroke-opacity:1;stroke-dasharray:none;marker:none;visibility:visible;display:inline;overflow:visible;enable-background:accumulate"
     id="path3222"
     sodipodi:cx="646.34515"
     sodipodi:cy="210.19237"
     sodipodi:rx="8.8983688"
     sodipodi:ry="8.8983688"
     d="M 655.24352,210.19237 C 655.24352,215.1068 651.25959,219.09074 646.34515,219.09074 641.43072,219.09074 637.44678,215.1068 637.44678,210.19237 637.44678,205.27793 641.43072,201.294 646.34515,201.294 651.25959,201.294 655.24352,205.27793 655.24352,210.19237 z"
     transform="matrix(22.476199,0,0,22.475948,3322.0803,2457.9258)" /><path
     transform="matrix(22.476199,0,0,22.475948,9324.8723,2457.9258)"
     d="M 655.24352,210.19237 C 655.24352,215.1068 651.25959,219.09074 646.34515,219.09074 641.43072,219.09074 637.44678,215.1068 637.44678,210.19237 637.44678,205.27793 641.43072,201.294 646.34515,201.294 651.25959,201.294 655.24352,205.27793 655.24352,210.19237 z"
     sodipodi:ry="8.8983688"
     sodipodi:rx="8.8983688"
     sodipodi:cy="210.19237"
     sodipodi:cx="646.34515"
     id="path3224"
     style="color:#000000;fill:none;stroke:#000000;stroke-width:0.87165356;stroke-miterlimit:4;stroke-opacity:1;stroke-dasharray:none;marker:none;visibility:visible;display:inline;overflow:visible;enable-background:accumulate"
     sodipodi:type="arc" /></g><text
   xml:space="preserve"
   style="font-size:338.66668701px;font-style:normal;font-variant:normal;font-weight:bold;font-stretch:normal;text-align:start;line-height:125%;letter-spacing:0px;word-spacing:0px;writing-mode:lr-tb;text-anchor:start;fill:#000000;fill-opacity:1;stroke:none;font-family:Arial;-inkscape-font-specification:Arial Bold"
   x="6100.2993"
   y="21171.84"
   id="text3227"
   sodipodi:linespacing="125%"><tspan
     sodipodi:role="line"
     id="tspan3229"
     x="6100.2993"
     y="21171.84">Finished Small Skid</tspan></text>
<path
   style="fill:none;stroke:#e30079;stroke-width:20;stroke-linejoin:miter"
   d="M 16992.428,12228.605 C 16751.678,12229.097 16544.393,12229.963 16368.893,12250.213 16133.791,12277.713 15963.401,12340.829 15844.136,12459.233 15691.642,12571.356 15613.042,12740.302 15612.185,12991.928 15615.473,13062.999 15612.203,13130.422 15612.185,13196.539 15612.533,13649.053 15821.786,13985.004 16087.553,14302.497 16150.007,14379.668 16222.677,14459.475 16281.581,14524.747 17403.728,15766.464 20106.757,16385.562 22822.081,16375.067 L 22822.081,12228.605 C 18939.848,12230.37 18938.341,12227.53 16992.428,12228.605 z"
   id="path3237"
   inkscape:connector-curvature="0"
   sodipodi:nodetypes="cccccccccc" /><path
   sodipodi:nodetypes="cccccccccc"
   inkscape:connector-curvature="0"
   id="path3272"
   d="M 28651.734,12228.605 C 28892.484,12229.098 29099.769,12229.963 29275.269,12250.213 29510.371,12277.714 29680.761,12340.829 29800.026,12459.234 29952.52,12571.356 30031.12,12740.303 30031.977,12991.928 30028.689,13062.999 30031.959,13130.422 30031.977,13196.539 30031.629,13649.053 29822.376,13985.005 29556.609,14302.498 29494.155,14379.669 29421.485,14459.476 29362.581,14524.748 28240.434,15766.464 25537.405,16385.563 22822.081,16375.067 L 22822.081,12228.605 C 26704.314,12230.37 26705.821,12227.53 28651.734,12228.605 z"
   style="fill:none;stroke:#e30079;stroke-width:20;stroke-linejoin:miter" /><g
   transform="translate(1971.2188,6795.98)"
   id="g3274"><path
     sodipodi:type="arc"
     style="color:#000000;fill:none;stroke:#000000;stroke-width:0.87165356;stroke-miterlimit:4;stroke-opacity:1;stroke-dasharray:none;marker:none;visibility:visible;display:inline;overflow:visible;enable-background:accumulate"
     id="path3276"
     sodipodi:cx="646.34515"
     sodipodi:cy="210.19237"
     sodipodi:rx="8.8983688"
     sodipodi:ry="8.8983688"
     d="M 655.24352,210.19237 C 655.24352,215.1068 651.25959,219.09074 646.34515,219.09074 641.43072,219.09074 637.44678,215.1068 637.44678,210.19237 637.44678,205.27793 641.43072,201.294 646.34515,201.294 651.25959,201.294 655.24352,205.27793 655.24352,210.19237 z"
     transform="matrix(22.476199,0,0,22.475948,3322.0803,2457.9258)" /><path
     transform="matrix(22.476199,0,0,22.475948,9324.8723,2457.9258)"
     d="M 655.24352,210.19237 C 655.24352,215.1068 651.25959,219.09074 646.34515,219.09074 641.43072,219.09074 637.44678,215.1068 637.44678,210.19237 637.44678,205.27793 641.43072,201.294 646.34515,201.294 651.25959,201.294 655.24352,205.27793 655.24352,210.19237 z"
     sodipodi:ry="8.8983688"
     sodipodi:rx="8.8983688"
     sodipodi:cy="210.19237"
     sodipodi:cx="646.34515"
     id="path3278"
     style="color:#000000;fill:none;stroke:#000000;stroke-width:0.87165356;stroke-miterlimit:4;stroke-opacity:1;stroke-dasharray:none;marker:none;visibility:visible;display:inline;overflow:visible;enable-background:accumulate"
     sodipodi:type="arc" /></g><path
   style="fill:none;stroke:#e30079;stroke-width:20;stroke-linejoin:miter"
   d="M 16992.428,12228.2 C 16751.678,12228.692 16544.393,12229.998 16368.893,12250.248 16133.791,12277.749 15963.402,12340.865 15844.136,12459.269 15691.642,12571.392 15613.042,12740.338 15612.185,12991.964 15615.473,13063.034 15612.203,13130.458 15612.185,13196.575 15612.533,13649.089 15821.786,13985.04 16087.553,14302.533 16150.007,14379.704 16222.677,14459.511 16281.581,14524.783 17403.728,15766.5 20106.757,16385.597 22822.081,16375.102 25537.405,16385.599 28240.433,15766.499 29362.58,14524.783 29421.485,14459.511 29494.155,14379.704 29556.608,14302.533 29822.376,13985.04 30031.63,13649.089 30031.977,13196.575 30031.96,13130.458 30028.689,13063.034 30031.977,12991.964 30031.119,12740.338 29952.52,12571.391 29800.024,12459.269 29680.76,12340.864 29510.371,12277.749 29275.269,12250.248 29099.769,12229.998 28892.485,12228.693 28651.735,12228.2 26705.821,12227.125 26704.314,12229.965 22822.081,12228.2 18939.848,12229.965 18938.341,12227.125 16992.428,12228.2 z"
   id="path3302"
   inkscape:connector-curvature="0" /><g
   id="g3307"
   transform="translate(-12932.435,19864.029)"><path
     transform="matrix(22.476199,0,0,22.475948,3322.0803,2457.9258)"
     d="M 655.24352,210.19237 C 655.24352,215.1068 651.25959,219.09074 646.34515,219.09074 641.43072,219.09074 637.44678,215.1068 637.44678,210.19237 637.44678,205.27793 641.43072,201.294 646.34515,201.294 651.25959,201.294 655.24352,205.27793 655.24352,210.19237 z"
     sodipodi:ry="8.8983688"
     sodipodi:rx="8.8983688"
     sodipodi:cy="210.19237"
     sodipodi:cx="646.34515"
     id="path3309"
     style="color:#000000;fill:none;stroke:#000000;stroke-width:0.87165356;stroke-miterlimit:4;stroke-opacity:1;stroke-dasharray:none;marker:none;visibility:visible;display:inline;overflow:visible;enable-background:accumulate"
     sodipodi:type="arc" /><path
     sodipodi:type="arc"
     style="color:#000000;fill:none;stroke:#000000;stroke-width:0.87165356;stroke-miterlimit:4;stroke-opacity:1;stroke-dasharray:none;marker:none;visibility:visible;display:inline;overflow:visible;enable-background:accumulate"
     id="path3311"
     sodipodi:cx="646.34515"
     sodipodi:cy="210.19237"
     sodipodi:rx="8.8983688"
     sodipodi:ry="8.8983688"
     d="M 655.24352,210.19237 C 655.24352,215.1068 651.25959,219.09074 646.34515,219.09074 641.43072,219.09074 637.44678,215.1068 637.44678,210.19237 637.44678,205.27793 641.43072,201.294 646.34515,201.294 651.25959,201.294 655.24352,205.27793 655.24352,210.19237 z"
     transform="matrix(22.476199,0,0,22.475948,9324.8723,2457.9258)" /></g><path
   inkscape:connector-curvature="0"
   id="path3313"
   d="M 2088.7704,25296.243 C 1848.0204,25296.735 1640.7354,25298.041 1465.2354,25318.291 1230.1334,25345.792 1059.7444,25408.908 940.47842,25527.312 787.98442,25639.435 709.38442,25808.381 708.52742,26060.007 711.81542,26131.077 708.54542,26198.501 708.52742,26264.618 708.87542,26717.132 918.12842,27053.083 1183.8954,27370.576 1246.3494,27447.747 1319.0194,27527.554 1377.9234,27592.826 2500.0704,28834.543 5203.0994,29453.64 7918.4234,29443.145 10633.747,29453.642 13336.775,28834.542 14458.922,27592.826 14517.827,27527.554 14590.497,27447.747 14652.95,27370.576 14918.718,27053.083 15127.972,26717.132 15128.319,26264.618 15128.302,26198.501 15125.031,26131.077 15128.319,26060.007 15127.461,25808.381 15048.862,25639.434 14896.366,25527.312 14777.102,25408.907 14606.713,25345.792 14371.611,25318.291 14196.111,25298.041 13988.827,25296.736 13748.077,25296.243 11802.163,25295.168 11800.656,25298.008 7918.4234,25296.243 4036.1904,25298.008 4034.6834,25295.168 2088.7704,25296.243 z"
   style="fill:none;stroke:#e30079;stroke-width:20;stroke-linejoin:miter" /></svg>