<?xml version="1.0" encoding="UTF-8" standalone="no"?>
<svg
   xmlns:ooo="http://xml.openoffice.org/svg/export"
   xmlns:dc="http://purl.org/dc/elements/1.1/"
   xmlns:cc="http://creativecommons.org/ns#"
   xmlns:rdf="http://www.w3.org/1999/02/22-rdf-syntax-ns#"
   xmlns:svg="http://www.w3.org/2000/svg"
   xmlns="http://www.w3.org/2000/svg"
   xmlns:sodipodi="http://sodipodi.sourceforge.net/DTD/sodipodi-0.dtd"
   xmlns:inkscape="http://www.inkscape.org/namespaces/inkscape"
   version="1.2"
   width="297mm"
   height="210mm"
   viewBox="0 0 29700 21000"
   preserveAspectRatio="xMidYMid"
   fill-rule="evenodd"
   clip-path="url(#presentation_clip_path)"
   stroke-width="28.222"
   stroke-linejoin="round"
   xml:space="preserve"
   id="svg3023"
   inkscape:version="0.48.4 r9939"
   sodipodi:docname="tailbone_vektor.svg"><metadata
     id="metadata3113"><rdf:RDF><cc:Work
         rdf:about=""><dc:format>image/svg+xml</dc:format><dc:type
           rdf:resource="http://purl.org/dc/dcmitype/StillImage" /></cc:Work></rdf:RDF></metadata><sodipodi:namedview
     pagecolor="#ffffff"
     bordercolor="#666666"
     borderopacity="1"
     objecttolerance="10"
     gridtolerance="10"
     guidetolerance="10"
     inkscape:pageopacity="0"
     inkscape:pageshadow="2"
     inkscape:window-width="1366"
     inkscape:window-height="721"
     id="namedview3111"
     showgrid="false"
     inkscape:zoom="0.75528043"
     inkscape:cx="526.18109"
     inkscape:cy="372.04724"
     inkscape:window-x="-2"
     inkscape:window-y="-3"
     inkscape:window-maximized="1"
     inkscape:current-layer="svg3023" /><defs
     class="ClipPathGroup"
     id="defs3025"><clipPath
       id="presentation_clip_path"
       clipPathUnits="userSpaceOnUse"><rect
         x="0"
         y="0"
         width="29700"
         height="21000"
         id="rect3028" /></clipPath></defs><defs
     class="TextShapeIndex"
     id="defs3030"><g
       ooo:slide="id1"
       ooo:id-list="id3 id4 id5 id6 id7 id8"
       id="g3032" /></defs><defs
     class="EmbeddedBulletChars"
     id="defs3034"><g
       id="bullet-char-template(57356)"
       transform="scale(0.00048828125,-0.00048828125)"><path
         d="M 580,1141 L 1163,571 580,0 -4,571 580,1141 Z"
         id="path3037" /></g><g
       id="bullet-char-template(57354)"
       transform="scale(0.00048828125,-0.00048828125)"><path
         d="M 8,1128 L 1137,1128 1137,0 8,0 8,1128 Z"
         id="path3040" /></g><g
       id="bullet-char-template(10146)"
       transform="scale(0.00048828125,-0.00048828125)"><path
         d="M 174,0 L 602,739 174,1481 1456,739 174,0 Z M 1358,739 L 309,1346 659,739 1358,739 Z"
         id="path3043" /></g><g
       id="bullet-char-template(10132)"
       transform="scale(0.00048828125,-0.00048828125)"><path
         d="M 2015,739 L 1276,0 717,0 1260,543 174,543 174,936 1260,936 717,1481 1274,1481 2015,739 Z"
         id="path3046" /></g><g
       id="bullet-char-template(10007)"
       transform="scale(0.00048828125,-0.00048828125)"><path
         d="M 0,-2 C -7,14 -16,27 -25,37 L 356,567 C 262,823 215,952 215,954 215,979 228,992 255,992 264,992 276,990 289,987 310,991 331,999 354,1012 L 381,999 492,748 772,1049 836,1024 860,1049 C 881,1039 901,1025 922,1006 886,937 835,863 770,784 769,783 710,716 594,584 L 774,223 C 774,196 753,168 711,139 L 727,119 C 717,90 699,76 672,76 641,76 570,178 457,381 L 164,-76 C 142,-110 111,-127 72,-127 30,-127 9,-110 8,-76 1,-67 -2,-52 -2,-32 -2,-23 -1,-13 0,-2 Z"
         id="path3049" /></g><g
       id="bullet-char-template(10004)"
       transform="scale(0.00048828125,-0.00048828125)"><path
         d="M 285,-33 C 182,-33 111,30 74,156 52,228 41,333 41,471 41,549 55,616 82,672 116,743 169,778 240,778 293,778 328,747 346,684 L 369,508 C 377,444 397,411 428,410 L 1163,1116 C 1174,1127 1196,1133 1229,1133 1271,1133 1292,1118 1292,1087 L 1292,965 C 1292,929 1282,901 1262,881 L 442,47 C 390,-6 338,-33 285,-33 Z"
         id="path3052" /></g><g
       id="bullet-char-template(9679)"
       transform="scale(0.00048828125,-0.00048828125)"><path
         d="M 813,0 C 632,0 489,54 383,161 276,268 223,411 223,592 223,773 276,916 383,1023 489,1130 632,1184 813,1184 992,1184 1136,1130 1245,1023 1353,916 1407,772 1407,592 1407,412 1353,268 1245,161 1136,54 992,0 813,0 Z"
         id="path3055" /></g><g
       id="bullet-char-template(8226)"
       transform="scale(0.00048828125,-0.00048828125)"><path
         d="M 346,457 C 273,457 209,483 155,535 101,586 74,649 74,723 74,796 101,859 155,911 209,963 273,989 346,989 419,989 480,963 531,910 582,859 608,796 608,723 608,648 583,586 532,535 482,483 420,457 346,457 Z"
         id="path3058" /></g><g
       id="bullet-char-template(8211)"
       transform="scale(0.00048828125,-0.00048828125)"><path
         d="M -4,459 L 1135,459 1135,606 -4,606 -4,459 Z"
         id="path3061" /></g></defs><defs
     class="TextEmbeddedBitmaps"
     id="defs3063" /><g
     id="g3065"><g
       id="id2"
       class="Master_Slide"><g
         id="bg-id2"
         class="Background" /><g
         id="bo-id2"
         class="BackgroundObjects" /></g></g><g
     class="Group"
     id="g3077"
     transform="translate(-6128.114,-1905.694)"><g
       class="com.sun.star.drawing.ClosedBezierShape"
       id="g3079"><g
         id="id3"><path
           d="m 17258,3224 c 1276,0 2090,-166 2176,639 57,528 -1001,1837 -2666,2508 -865,348 -4594,328 -5648,167 C 9800,6337 6187,3396 8963,3224 l 8295,0 z"
           id="path3082"
           inkscape:connector-curvature="0"
           style="fill:none;stroke:#e30079;stroke-width:20;stroke-linejoin:miter" /></g></g><g
       class="com.sun.star.drawing.ClosedBezierShape"
       id="g3084"><g
         id="id4"><path
           d="m 10951,4467 0,0 c 1,0 1,0 2,0 21,0 38,5 57,17 18,11 31,25 42,45 10,20 15,39 15,62 l 0,0 0,0 c 0,23 -5,42 -15,62 -11,20 -24,34 -42,45 -19,12 -36,17 -57,17 -22,0 -39,-5 -58,-17 -18,-11 -31,-25 -42,-45 -10,-20 -15,-39 -15,-62 0,-23 5,-42 15,-62 11,-20 24,-34 42,-45 18,-12 36,-17 56,-17 z"
           id="path3087"
           inkscape:connector-curvature="0"
           style="fill:none;stroke:#e30079;stroke-width:20;stroke-linejoin:miter" /></g></g><g
       class="com.sun.star.drawing.ClosedBezierShape"
       id="g3089"><g
         id="id5"><path
           d="m 16473,4477 0,0 c 1,0 1,0 2,0 21,0 38,5 57,17 18,11 31,25 42,45 10,20 15,39 15,62 l 0,0 0,0 c 0,23 -5,42 -15,62 -11,20 -24,34 -42,45 -19,12 -36,17 -57,17 -22,0 -39,-5 -58,-17 -18,-11 -31,-25 -42,-45 -10,-20 -15,-39 -15,-62 0,-23 5,-42 15,-62 11,-20 24,-34 42,-45 18,-12 36,-17 56,-17 z"
           id="path3092"
           inkscape:connector-curvature="0"
           style="fill:none;stroke:#e30079;stroke-width:20;stroke-linejoin:miter" /></g></g></g><g
     class="Group"
     id="g3094"
     transform="translate(-5754.4485,-3101.4236)"><g
       class="com.sun.star.drawing.ClosedBezierShape"
       id="g3096"><g
         id="id6"><path
           d="m 18404,9387 c 1724,1 2684,-139 2687,742 12,3947 -11142,4420 -13751,1533 -410,-454 -776,-897 -641,-1627 80,-424 292,-596 728,-647 468,-54 1162,-10 2114,-16 2790,-19 6184,13 8863,15 z"
           id="path3099"
           inkscape:connector-curvature="0"
           style="fill:none;stroke:#e30079;stroke-width:20;stroke-linejoin:miter" /></g></g><g
       class="com.sun.star.drawing.ClosedBezierShape"
       id="g3101"><g
         id="id7"><path
           d="m 9882,10658 -1,0 c 26,0 47,6 69,20 22,13 38,30 51,54 12,23 18,46 18,73 l 0,0 0,0 c 0,28 -6,51 -18,74 -13,24 -29,41 -51,54 -22,14 -43,20 -68,20 -26,0 -47,-6 -69,-20 -22,-13 -38,-30 -51,-54 -12,-23 -18,-46 -18,-74 0,-27 6,-50 18,-73 13,-24 29,-41 51,-54 22,-14 43,-20 68,-20 l 1,0 z"
           id="path3104"
           inkscape:connector-curvature="0"
           style="fill:none;stroke:#e30079;stroke-width:20;stroke-linejoin:miter" /></g></g><g
       class="com.sun.star.drawing.ClosedBezierShape"
       id="g3106"><g
         id="id8"><path
           d="m 17858,10658 -1,0 c 26,0 47,6 69,20 22,13 38,30 51,54 12,23 18,46 18,73 l 0,0 0,0 c 0,28 -6,51 -18,74 -13,24 -29,41 -51,54 -22,14 -43,20 -68,20 -26,0 -47,-6 -69,-20 -22,-13 -38,-30 -51,-54 -12,-23 -18,-46 -18,-74 0,-27 6,-50 18,-73 13,-24 29,-41 51,-54 22,-14 43,-20 68,-20 l 1,0 z"
           id="path3109"
           inkscape:connector-curvature="0"
           style="fill:none;stroke:#e30079;stroke-width:20;stroke-linejoin:miter" /></g></g></g></svg>