<?xml version="1.0" encoding="UTF-8" standalone="no"?>
<!-- Created with Inkscape (http://www.inkscape.org/) -->

<svg
   xmlns:dc="http://purl.org/dc/elements/1.1/"
   xmlns:cc="http://creativecommons.org/ns#"
   xmlns:rdf="http://www.w3.org/1999/02/22-rdf-syntax-ns#"
   xmlns:svg="http://www.w3.org/2000/svg"
   xmlns="http://www.w3.org/2000/svg"
   xmlns:sodipodi="http://sodipodi.sourceforge.net/DTD/sodipodi-0.dtd"
   xmlns:inkscape="http://www.inkscape.org/namespaces/inkscape"
   width="4212.9922"
   height="2979.9211"
   id="svg2"
   version="1.1"
   inkscape:version="0.92.1 r15371"
   sodipodi:docname="madrid-stranger-things-single.svg">
  <title
     id="title2987">Laser A0 Template</title>
  <defs
     id="defs4" />
  <sodipodi:namedview
     id="base"
     pagecolor="#ffffff"
     bordercolor="#666666"
     borderopacity="1.0"
     inkscape:pageopacity="0.0"
     inkscape:pageshadow="2"
     inkscape:zoom="0.35"
     inkscape:cx="803.2438"
     inkscape:cy="2361.318"
     inkscape:document-units="mm"
     inkscape:current-layer="layer1"
     showgrid="true"
     units="mm"
     width="1200mm"
     inkscape:window-width="1920"
     inkscape:window-height="1018"
     inkscape:window-x="-8"
     inkscape:window-y="-8"
     inkscape:window-maximized="1">
    <inkscape:grid
       type="xygrid"
       id="grid2985"
       empspacing="5"
       visible="true"
       enabled="true"
       snapvisiblegridlinesonly="true"
       units="mm"
       spacingx="1mm"
       spacingy="1mm" />
  </sodipodi:namedview>
  <metadata
     id="metadata7">
    <rdf:RDF>
      <cc:Work
         rdf:about="">
        <dc:format>image/svg+xml</dc:format>
        <dc:type
           rdf:resource="http://purl.org/dc/dcmitype/StillImage" />
        <dc:title>Laser A0 Template</dc:title>
      </cc:Work>
    </rdf:RDF>
  </metadata>
  <g
     inkscape:label="Layer 1"
     inkscape:groupmode="layer"
     id="layer1"
     transform="translate(0,1927.5603)">
    <path
       style="opacity:0.45;fill:#0000ff;fill-opacity:1;stroke:#000000;stroke-width:0.53333336;stroke-opacity:1"
       d="m 668.76034,-1724.3108 c -0.5236,0 -1.0438,0.044 -1.5334,0.1333 -11.2823,1.2671 -20.8958,11.2129 -24.8666,20.2334 -0.1783,0.4048 -0.3785,0.7998 -0.5334,1.2 -0.1556,0.4019 -0.3021,0.8046 -0.4334,1.2 -0.1188,0.3578 -0.2348,0.7154 -0.3333,1.0666 -0.011,0.033 -0.024,0.067 -0.033,0.1003 -0.1056,0.3837 -0.1862,0.7588 -0.2667,1.1332 -0.019,0.09 -0.049,0.178 -0.066,0.2667 -0.058,0.2852 -0.092,0.5883 -0.1333,0.8668 -0.027,0.1795 -0.046,0.3566 -0.066,0.5333 -0.021,0.1794 -0.053,0.3566 -0.066,0.5333 0,0.044 0,0.09 0,0.1334 -0.022,0.3172 -0.035,0.6274 -0.033,0.9333 10e-4,0.3283 0,0.6541 0.033,0.9666 0.9447,10.3147 0.058,38.9637 23.2667,65 43.0549,48.2996 48.3513,48.3721 105.7,66.4 88.95888,27.9651 196.71798,26.1034 261.16656,25.4 2.0652,0.1372 4.2415,0.209 6.5334,0.2 13.2456,-0.051 15.9009,-0.053 17.8666,-0.066 1.9658,0.013 4.621,0.015 17.8667,0.066 2.2918,0.011 4.4682,-0.063 6.5333,-0.2 64.4487,0.7034 172.2077,2.5651 261.1668,-25.4 57.3487,-18.0279 62.6451,-18.1004 105.7,-66.4 23.2092,-26.0363 22.3219,-54.6853 23.2667,-65 0.029,-0.3115 0.032,-0.6403 0.033,-0.9666 0,-0.519 -0.036,-1.0467 -0.1003,-1.6 -0.063,-0.5394 -0.1434,-1.1019 -0.2666,-1.6668 -0.08,-0.3741 -0.161,-0.7494 -0.2667,-1.1332 -0.011,-0.033 -0.024,-0.066 -0.033,-0.1003 -0.1013,-0.3532 -0.2114,-0.7069 -0.3333,-1.0666 -0.1314,-0.3954 -0.2778,-0.7981 -0.4334,-1.2 -0.1549,-0.4002 -0.3551,-0.7952 -0.5334,-1.2 -3.9708,-9.0205 -13.5843,-18.9664 -24.8666,-20.2334 -0.4896,-0.09 -1.0098,-0.133 -1.5334,-0.1333 h -1.6 -769.19996 -1.6 z m 90.2999,68.2333 c 4.1769,0 7.5667,3.39 7.5667,7.5668 0,4.1764 -3.3898,7.5666 -7.5667,7.5666 -4.1768,0 -7.5666,-3.39 -7.5666,-7.5666 0,-4.1769 3.3898,-7.5668 7.5666,-7.5668 z m 591.80006,0 c 4.1769,0 7.5667,3.39 7.5667,7.5668 0,4.1766 -3.3898,7.5666 -7.5667,7.5666 -4.1769,0 -7.5667,-3.39 -7.5667,-7.5666 0,-4.1768 3.3898,-7.5668 7.5667,-7.5668 z m -295.9,17.4 c 4.1768,0 7.5666,3.39 7.5666,7.5667 0,4.1768 -3.3898,7.5667 -7.5666,7.5667 -4.1769,0 -7.5668,-3.39 -7.5668,-7.5667 0,-4.1766 3.3899,-7.5667 7.5668,-7.5667 z m -1.9668,100.3334 c 1.2849,0 2.7115,-0.011 3.9334,0 11.3939,0.086 16.2803,0.1649 17.5333,0.2 -1.9192,0.029 -9.2818,0.036 -15.2,0.033 0.072,-0.011 -4.4621,-3e-4 -8.6,0 -6.4317,0.011 -14.5342,0 -15.5333,-0.033 0.9332,-0.035 5.9201,-0.1085 17.8666,-0.2 z"
       id="path3959-3"
       inkscape:connector-curvature="0" />
    <rect
       style="opacity:1;vector-effect:none;fill:none;fill-opacity:1;fill-rule:evenodd;stroke:#000000;stroke-width:0.5;stroke-linecap:butt;stroke-linejoin:miter;stroke-miterlimit:4;stroke-dasharray:none;stroke-dashoffset:0;stroke-opacity:1"
       id="rect4485"
       width="900.4762"
       height="226.77165"
       x="604.72443"
       y="-1744.4895" />
  </g>
</svg>
