  0
SECTION
  2
HEADER
  9
$ACADVER
  1
AC1014
  9
$HANDSEED
  5
FFFF
  9
$MEASUREMENT
 70
     1
  0
ENDSEC
  0
SECTION
  2
TABLES
  0
TABLE
  2
VPORT
  5
8
330
0
100
AcDbSymbolTable
 70
     4
  0
VPORT
  5
2E
330
8
100
AcDbSymbolTableRecord
100
AcDbViewportTableRecord
  2
*ACTIVE
 70
     0
 10
0.0
 20
0.0
 11
1.0
 21
1.0
 12
210.0
 22
148.5
 13
0.0
 23
0.0
 14
10.0
 24
10.0
 15
10.0
 25
10.0
 16
0.0
 26
0.0
 36
1.0
 17
0.0
 27
0.0
 37
0.0
 40
341.0
 41
1.24
 42
50.0
 43
0.0
 44
0.0
 50
0.0
 51
0.0
 71
     0
 72
   100
 73
     1
 74
     3
 75
     0
 76
     0
 77
     0
 78
     0
  0
ENDTAB
  0
TABLE
  2
LTYPE
  5
5
330
0
100
AcDbSymbolTable
 70
     1
  0
LTYPE
  5
14
330
5
100
AcDbSymbolTableRecord
100
AcDbLinetypeTableRecord
  2
BYBLOCK
 70
     0
  3

 72
    65
 73
     0
 40
0.0
  0
LTYPE
  5
15
330
5
100
AcDbSymbolTableRecord
100
AcDbLinetypeTableRecord
  2
BYLAYER
 70
     0
  3

 72
    65
 73
     0
 40
0.0
  0
LTYPE
  5
16
330
5
100
AcDbSymbolTableRecord
100
AcDbLinetypeTableRecord
  2
CONTINUOUS
 70
     0
  3
Solid line
 72
    65
 73
     0
 40
0.0
  0
ENDTAB
  0
TABLE
  2
LAYER
  5
2
100
AcDbSymbolTable
 70
2
  0
LAYER
  5
50
100
AcDbSymbolTableRecord
100
AcDbLayerTableRecord
  2
0
 70
0
  6
CONTINUOUS
  0
LAYER
  5
51
100
AcDbSymbolTableRecord
100
AcDbLayerTableRecord
  2
Layer_1
 70
0
  6
CONTINUOUS
  0
ENDTAB
  0
TABLE
  2
STYLE
  5
3
330
0
100
AcDbSymbolTable
 70
     1
  0
STYLE
  5
11
330
3
100
AcDbSymbolTableRecord
100
AcDbTextStyleTableRecord
  2
STANDARD
 70
     0
 40
0.0
 41
1.0
 50
0.0
 71
     0
 42
2.5
  3
txt
  4

  0
ENDTAB
  0
TABLE
  2
VIEW
  5
6
330
0
100
AcDbSymbolTable
 70
     0
  0
ENDTAB
  0
TABLE
  2
UCS
  5
7
330
0
100
AcDbSymbolTable
 70
     0
  0
ENDTAB
  0
TABLE
  2
APPID
  5
9
330
0
100
AcDbSymbolTable
 70
     2
  0
APPID
  5
12
330
9
100
AcDbSymbolTableRecord
100
AcDbRegAppTableRecord
  2
ACAD
 70
     0
  0
ENDTAB
  0
TABLE
  2
DIMSTYLE
  5
A
330
0
100
AcDbSymbolTable
 70
     1
  0
DIMSTYLE
105
27
330
A
100
AcDbSymbolTableRecord
100
AcDbDimStyleTableRecord
  2
ISO-25
 70
     0
  3

  4

  5

  6

  7

 40
1.0
 41
2.5
 42
0.625
 43
3.75
 44
1.25
 45
0.0
 46
0.0
 47
0.0
 48
0.0
140
2.5
141
2.5
142
0.0
143
0.03937007874016
144
1.0
145
0.0
146
1.0
147
0.625
 71
     0
 72
     0
 73
     0
 74
     0
 75
     0
 76
     0
 77
     1
 78
     8
170
     0
171
     3
172
     1
173
     0
174
     0
175
     0
176
     0
177
     0
178
     0
270
     2
271
     2
272
     2
273
     2
274
     3
340
11
275
     0
280
     0
281
     0
282
     0
283
     0
284
     8
285
     0
286
     0
287
     3
288
     0
  0
ENDTAB
  0
TABLE
  2
BLOCK_RECORD
  5
1
330
0
100
AcDbSymbolTable
 70
     1
  0
BLOCK_RECORD
  5
1F
330
1
100
AcDbSymbolTableRecord
100
AcDbBlockTableRecord
  2
*MODEL_SPACE
  0
BLOCK_RECORD
  5
1B
330
1
100
AcDbSymbolTableRecord
100
AcDbBlockTableRecord
  2
*PAPER_SPACE
  0
ENDTAB
  0
ENDSEC
  0
SECTION
  2
BLOCKS
  0
BLOCK
  5
20
330
1F
100
AcDbEntity
  8
0
100
AcDbBlockBegin
  2
*MODEL_SPACE
 70
     0
 10
0.0
 20
0.0
 30
0.0
  3
*MODEL_SPACE
  1

  0
ENDBLK
  5
21
330
1F
100
AcDbEntity
  8
0
100
AcDbBlockEnd
  0
BLOCK
  5
1C
330
1B
100
AcDbEntity
 67
     1
  8
0
100
AcDbBlockBegin
  2
*PAPER_SPACE
  1

  0
ENDBLK
  5
1D
330
1B
100
AcDbEntity
 67
     1
  8
0
100
AcDbBlockEnd
  0
ENDSEC
  0
SECTION
  2
ENTITIES
  0
SPLINE
  5
100
100
AcDbEntity
  8
Layer_1
 62
7
100
AcDbSpline
 70
8
 71
3
 72
8
 73
4
 74
0
 40
0
 40
0
 40
0
 40
0
 40
1
 40
1
 40
1
 40
1
 10
176.942840
 20
734.661028
 30
0.0
 10
176.804304
 20
734.661028
 30
0.0
 10
176.666668
 20
734.649386
 30
0.0
 10
176.537128
 20
734.625759
 30
0.0
  0
SPLINE
  5
101
100
AcDbEntity
  8
Layer_1
 62
7
100
AcDbSpline
 70
8
 71
3
 72
8
 73
4
 74
0
 40
0
 40
0
 40
0
 40
0
 40
1
 40
1
 40
1
 40
1
 10
176.537128
 20
734.625759
 30
0.0
 10
173.552019
 20
734.290505
 30
0.0
 10
171.008447
 20
731.659012
 30
0.0
 10
169.957840
 20
729.272338
 30
0.0
  0
SPLINE
  5
102
100
AcDbEntity
  8
Layer_1
 62
7
100
AcDbSpline
 70
8
 71
3
 72
8
 73
4
 74
0
 40
0
 40
0
 40
0
 40
0
 40
1
 40
1
 40
1
 40
1
 10
169.957840
 20
729.272338
 30
0.0
 10
169.910665
 20
729.165235
 30
0.0
 10
169.857695
 20
729.060724
 30
0.0
 10
169.816711
 20
728.954838
 30
0.0
  0
SPLINE
  5
103
100
AcDbEntity
  8
Layer_1
 62
7
100
AcDbSpline
 70
8
 71
3
 72
8
 73
4
 74
0
 40
0
 40
0
 40
0
 40
0
 40
1
 40
1
 40
1
 40
1
 10
169.816711
 20
728.954838
 30
0.0
 10
169.775542
 20
728.848502
 30
0.0
 10
169.736781
 20
728.741954
 30
0.0
 10
169.702041
 20
728.637338
 30
0.0
  0
SPLINE
  5
104
100
AcDbEntity
  8
Layer_1
 62
7
100
AcDbSpline
 70
8
 71
3
 72
8
 73
4
 74
0
 40
0
 40
0
 40
0
 40
0
 40
1
 40
1
 40
1
 40
1
 10
169.702041
 20
728.637338
 30
0.0
 10
169.670608
 20
728.542670
 30
0.0
 10
169.639917
 20
728.448055
 30
0.0
 10
169.613855
 20
728.355134
 30
0.0
  0
SPLINE
  5
105
100
AcDbEntity
  8
Layer_1
 62
7
100
AcDbSpline
 70
8
 71
3
 72
8
 73
4
 74
0
 40
0
 40
0
 40
0
 40
0
 40
1
 40
1
 40
1
 40
1
 10
169.613855
 20
728.355134
 30
0.0
 10
169.610945
 20
728.346402
 30
0.0
 10
169.607505
 20
728.337406
 30
0.0
 10
169.605124
 20
728.328596
 30
0.0
  0
SPLINE
  5
106
100
AcDbEntity
  8
Layer_1
 62
7
100
AcDbSpline
 70
8
 71
3
 72
8
 73
4
 74
0
 40
0
 40
0
 40
0
 40
0
 40
1
 40
1
 40
1
 40
1
 10
169.605124
 20
728.328596
 30
0.0
 10
169.577184
 20
728.227075
 30
0.0
 10
169.555858
 20
728.127830
 30
0.0
 10
169.534560
 20
728.028770
 30
0.0
  0
SPLINE
  5
107
100
AcDbEntity
  8
Layer_1
 62
7
100
AcDbSpline
 70
8
 71
3
 72
8
 73
4
 74
0
 40
0
 40
0
 40
0
 40
0
 40
1
 40
1
 40
1
 40
1
 10
169.534560
 20
728.028770
 30
0.0
 10
169.529532
 20
728.004957
 30
0.0
 10
169.521595
 20
727.981674
 30
0.0
 10
169.517097
 20
727.958206
 30
0.0
  0
SPLINE
  5
108
100
AcDbEntity
  8
Layer_1
 62
7
100
AcDbSpline
 70
8
 71
3
 72
8
 73
4
 74
0
 40
0
 40
0
 40
0
 40
0
 40
1
 40
1
 40
1
 40
1
 10
169.517097
 20
727.958206
 30
0.0
 10
169.501751
 20
727.882746
 30
0.0
 10
169.492755
 20
727.802551
 30
0.0
 10
169.481828
 20
727.728865
 30
0.0
  0
SPLINE
  5
109
100
AcDbEntity
  8
Layer_1
 62
7
100
AcDbSpline
 70
8
 71
3
 72
8
 73
4
 74
0
 40
0
 40
0
 40
0
 40
0
 40
1
 40
1
 40
1
 40
1
 10
169.481828
 20
727.728865
 30
0.0
 10
169.474684
 20
727.681372
 30
0.0
 10
169.469657
 20
727.634514
 30
0.0
 10
169.464366
 20
727.587762
 30
0.0
  0
SPLINE
  5
10a
100
AcDbEntity
  8
Layer_1
 62
7
100
AcDbSpline
 70
8
 71
3
 72
8
 73
4
 74
0
 40
0
 40
0
 40
0
 40
0
 40
1
 40
1
 40
1
 40
1
 10
169.464366
 20
727.587762
 30
0.0
 10
169.458809
 20
727.540296
 30
0.0
 10
169.450343
 20
727.493412
 30
0.0
 10
169.446903
 20
727.446660
 30
0.0
  0
SPLINE
  5
10b
100
AcDbEntity
  8
Layer_1
 62
7
100
AcDbSpline
 70
8
 71
3
 72
8
 73
4
 74
0
 40
0
 40
0
 40
0
 40
0
 40
1
 40
1
 40
1
 40
1
 10
169.446903
 20
727.446660
 30
0.0
 10
169.446903
 20
727.435019
 30
0.0
 10
169.446903
 20
727.422848
 30
0.0
 10
169.446903
 20
727.411365
 30
0.0
  0
SPLINE
  5
10c
100
AcDbEntity
  8
Layer_1
 62
7
100
AcDbSpline
 70
8
 71
3
 72
8
 73
4
 74
0
 40
0
 40
0
 40
0
 40
0
 40
1
 40
1
 40
1
 40
1
 10
169.446903
 20
727.411365
 30
0.0
 10
169.441082
 20
727.327439
 30
0.0
 10
169.437643
 20
727.245365
 30
0.0
 10
169.438172
 20
727.164429
 30
0.0
  0
SPLINE
  5
10d
100
AcDbEntity
  8
Layer_1
 62
7
100
AcDbSpline
 70
8
 71
3
 72
8
 73
4
 74
0
 40
0
 40
0
 40
0
 40
0
 40
1
 40
1
 40
1
 40
1
 10
169.438172
 20
727.164429
 30
0.0
 10
169.438436
 20
727.077566
 30
0.0
 10
169.438172
 20
726.991365
 30
0.0
 10
169.446903
 20
726.908683
 30
0.0
  0
SPLINE
  5
10e
100
AcDbEntity
  8
Layer_1
 62
7
100
AcDbSpline
 70
8
 71
3
 72
8
 73
4
 74
0
 40
0
 40
0
 40
0
 40
0
 40
1
 40
1
 40
1
 40
1
 10
169.446903
 20
726.908683
 30
0.0
 10
169.696855
 20
724.179585
 30
0.0
 10
169.462249
 20
716.599537
 30
0.0
 10
175.602884
 20
709.710766
 30
0.0
  0
SPLINE
  5
10f
100
AcDbEntity
  8
Layer_1
 62
7
100
AcDbSpline
 70
8
 71
3
 72
8
 73
4
 74
0
 40
0
 40
0
 40
0
 40
0
 40
1
 40
1
 40
1
 40
1
 10
175.602884
 20
709.710766
 30
0.0
 10
186.994493
 20
696.931497
 30
0.0
 10
188.395832
 20
696.912315
 30
0.0
 10
203.569342
 20
692.142433
 30
0.0
  0
SPLINE
  5
110
100
AcDbEntity
  8
Layer_1
 62
7
100
AcDbSpline
 70
8
 71
3
 72
8
 73
4
 74
0
 40
0
 40
0
 40
0
 40
0
 40
1
 40
1
 40
1
 40
1
 10
203.569342
 20
692.142433
 30
0.0
 10
227.106379
 20
684.743334
 30
0.0
 10
255.617641
 20
685.235908
 30
0.0
 10
272.669661
 20
685.422016
 30
0.0
  0
SPLINE
  5
111
100
AcDbEntity
  8
Layer_1
 62
7
100
AcDbSpline
 70
8
 71
3
 72
8
 73
4
 74
0
 40
0
 40
0
 40
0
 40
0
 40
1
 40
1
 40
1
 40
1
 10
272.669661
 20
685.422016
 30
0.0
 10
273.216079
 20
685.385715
 30
0.0
 10
273.791892
 20
685.366718
 30
0.0
 10
274.398290
 20
685.369100
 30
0.0
  0
SPLINE
  5
112
100
AcDbEntity
  8
Layer_1
 62
7
100
AcDbSpline
 70
8
 71
3
 72
8
 73
4
 74
0
 40
0
 40
0
 40
0
 40
0
 40
1
 40
1
 40
1
 40
1
 10
274.398290
 20
685.369100
 30
0.0
 10
277.902855
 20
685.382593
 30
0.0
 10
278.605403
 20
685.383122
 30
0.0
 10
279.125495
 20
685.386562
 30
0.0
  0
SPLINE
  5
113
100
AcDbEntity
  8
Layer_1
 62
7
100
AcDbSpline
 70
8
 71
3
 72
8
 73
4
 74
0
 40
0
 40
0
 40
0
 40
0
 40
1
 40
1
 40
1
 40
1
 10
279.125495
 20
685.386562
 30
0.0
 10
279.645613
 20
685.383122
 30
0.0
 10
280.348134
 20
685.382593
 30
0.0
 10
283.852726
 20
685.369100
 30
0.0
  0
SPLINE
  5
114
100
AcDbEntity
  8
Layer_1
 62
7
100
AcDbSpline
 70
8
 71
3
 72
8
 73
4
 74
0
 40
0
 40
0
 40
0
 40
0
 40
1
 40
1
 40
1
 40
1
 10
283.852726
 20
685.369100
 30
0.0
 10
284.459098
 20
685.366189
 30
0.0
 10
285.034937
 20
685.385768
 30
0.0
 10
285.581328
 20
685.422016
 30
0.0
  0
SPLINE
  5
115
100
AcDbEntity
  8
Layer_1
 62
7
100
AcDbSpline
 70
8
 71
3
 72
8
 73
4
 74
0
 40
0
 40
0
 40
0
 40
0
 40
1
 40
1
 40
1
 40
1
 10
285.581328
 20
685.422016
 30
0.0
 10
302.633380
 20
685.235908
 30
0.0
 10
331.144615
 20
684.743334
 30
0.0
 10
354.681711
 20
692.142433
 30
0.0
  0
SPLINE
  5
116
100
AcDbEntity
  8
Layer_1
 62
7
100
AcDbSpline
 70
8
 71
3
 72
8
 73
4
 74
0
 40
0
 40
0
 40
0
 40
0
 40
1
 40
1
 40
1
 40
1
 10
354.681711
 20
692.142433
 30
0.0
 10
369.855221
 20
696.912315
 30
0.0
 10
371.256560
 20
696.931497
 30
0.0
 10
382.648169
 20
709.710766
 30
0.0
  0
SPLINE
  5
117
100
AcDbEntity
  8
Layer_1
 62
7
100
AcDbSpline
 70
8
 71
3
 72
8
 73
4
 74
0
 40
0
 40
0
 40
0
 40
0
 40
1
 40
1
 40
1
 40
1
 10
382.648169
 20
709.710766
 30
0.0
 10
388.788936
 20
716.599537
 30
0.0
 10
388.554172
 20
724.179585
 30
0.0
 10
388.804150
 20
726.908683
 30
0.0
  0
SPLINE
  5
118
100
AcDbEntity
  8
Layer_1
 62
7
100
AcDbSpline
 70
8
 71
3
 72
8
 73
4
 74
0
 40
0
 40
0
 40
0
 40
0
 40
1
 40
1
 40
1
 40
1
 10
388.804150
 20
726.908683
 30
0.0
 10
388.811823
 20
726.991101
 30
0.0
 10
388.812617
 20
727.078096
 30
0.0
 10
388.812881
 20
727.164429
 30
0.0
  0
SPLINE
  5
119
100
AcDbEntity
  8
Layer_1
 62
7
100
AcDbSpline
 70
8
 71
3
 72
8
 73
4
 74
0
 40
0
 40
0
 40
0
 40
0
 40
1
 40
1
 40
1
 40
1
 10
388.812881
 20
727.164429
 30
0.0
 10
388.812881
 20
727.301748
 30
0.0
 10
388.803356
 20
727.441369
 30
0.0
 10
388.786344
 20
727.587762
 30
0.0
  0
SPLINE
  5
11a
100
AcDbEntity
  8
Layer_1
 62
7
100
AcDbSpline
 70
8
 71
3
 72
8
 73
4
 74
0
 40
0
 40
0
 40
0
 40
0
 40
1
 40
1
 40
1
 40
1
 10
388.786344
 20
727.587762
 30
0.0
 10
388.769675
 20
727.730479
 30
0.0
 10
388.748402
 20
727.879307
 30
0.0
 10
388.715806
 20
728.028770
 30
0.0
  0
SPLINE
  5
11b
100
AcDbEntity
  8
Layer_1
 62
7
100
AcDbSpline
 70
8
 71
3
 72
8
 73
4
 74
0
 40
0
 40
0
 40
0
 40
0
 40
1
 40
1
 40
1
 40
1
 10
388.715806
 20
728.028770
 30
0.0
 10
388.694639
 20
728.127751
 30
0.0
 10
388.673208
 20
728.227049
 30
0.0
 10
388.645241
 20
728.328596
 30
0.0
  0
SPLINE
  5
11c
100
AcDbEntity
  8
Layer_1
 62
7
100
AcDbSpline
 70
8
 71
3
 72
8
 73
4
 74
0
 40
0
 40
0
 40
0
 40
0
 40
1
 40
1
 40
1
 40
1
 10
388.645241
 20
728.328596
 30
0.0
 10
388.642331
 20
728.337327
 30
0.0
 10
388.638891
 20
728.346058
 30
0.0
 10
388.636510
 20
728.355134
 30
0.0
  0
SPLINE
  5
11d
100
AcDbEntity
  8
Layer_1
 62
7
100
AcDbSpline
 70
8
 71
3
 72
8
 73
4
 74
0
 40
0
 40
0
 40
0
 40
0
 40
1
 40
1
 40
1
 40
1
 10
388.636510
 20
728.355134
 30
0.0
 10
388.609708
 20
728.448584
 30
0.0
 10
388.580577
 20
728.542167
 30
0.0
 10
388.548324
 20
728.637338
 30
0.0
  0
SPLINE
  5
11e
100
AcDbEntity
  8
Layer_1
 62
7
100
AcDbSpline
 70
8
 71
3
 72
8
 73
4
 74
0
 40
0
 40
0
 40
0
 40
0
 40
1
 40
1
 40
1
 40
1
 10
388.548324
 20
728.637338
 30
0.0
 10
388.513558
 20
728.741954
 30
0.0
 10
388.474823
 20
728.848502
 30
0.0
 10
388.433654
 20
728.954838
 30
0.0
  0
SPLINE
  5
11f
100
AcDbEntity
  8
Layer_1
 62
7
100
AcDbSpline
 70
8
 71
3
 72
8
 73
4
 74
0
 40
0
 40
0
 40
0
 40
0
 40
1
 40
1
 40
1
 40
1
 10
388.433654
 20
728.954838
 30
0.0
 10
388.392670
 20
729.060724
 30
0.0
 10
388.339700
 20
729.165235
 30
0.0
 10
388.292525
 20
729.272338
 30
0.0
  0
SPLINE
  5
120
100
AcDbEntity
  8
Layer_1
 62
7
100
AcDbSpline
 70
8
 71
3
 72
8
 73
4
 74
0
 40
0
 40
0
 40
0
 40
0
 40
1
 40
1
 40
1
 40
1
 10
388.292525
 20
729.272338
 30
0.0
 10
387.241918
 20
731.659012
 30
0.0
 10
384.698346
 20
734.290531
 30
0.0
 10
381.713237
 20
734.625759
 30
0.0
  0
SPLINE
  5
121
100
AcDbEntity
  8
Layer_1
 62
7
100
AcDbSpline
 70
8
 71
3
 72
8
 73
4
 74
0
 40
0
 40
0
 40
0
 40
0
 40
1
 40
1
 40
1
 40
1
 10
381.713237
 20
734.625759
 30
0.0
 10
381.583697
 20
734.649571
 30
0.0
 10
381.446061
 20
734.660948
 30
0.0
 10
381.307525
 20
734.661028
 30
0.0
  0
LINE
  5
122
100
AcDbEntity
  8
Layer_1
 62
7
100
AcDbLine
 10
381.307525
 20
734.661028
 30
0.0
 11
380.884192
 21
734.661028
 31
0.0
  0
LINE
  5
123
100
AcDbEntity
  8
Layer_1
 62
7
100
AcDbLine
 10
380.884192
 20
734.661028
 30
0.0
 11
177.366702
 21
734.661028
 31
0.0
  0
LINE
  5
124
100
AcDbEntity
  8
Layer_1
 62
7
100
AcDbLine
 10
177.366702
 20
734.661028
 30
0.0
 11
176.943369
 21
734.661028
 31
0.0
  0
LINE
  5
125
100
AcDbEntity
  8
Layer_1
 62
7
100
AcDbLine
 10
176.943369
 20
734.661028
 30
0.0
 11
176.942840
 21
734.661028
 31
0.0
  0
SPLINE
  5
126
100
AcDbEntity
  8
Layer_1
 62
7
100
AcDbSpline
 70
8
 71
3
 72
8
 73
4
 74
0
 40
0
 40
0
 40
0
 40
0
 40
1
 40
1
 40
1
 40
1
 10
200.834688
 20
716.607634
 30
0.0
 10
201.939827
 20
716.607634
 30
0.0
 10
202.836711
 20
715.710696
 30
0.0
 10
202.836711
 20
714.605584
 30
0.0
  0
SPLINE
  5
127
100
AcDbEntity
  8
Layer_1
 62
7
100
AcDbSpline
 70
8
 71
3
 72
8
 73
4
 74
0
 40
0
 40
0
 40
0
 40
0
 40
1
 40
1
 40
1
 40
1
 10
202.836711
 20
714.605584
 30
0.0
 10
202.836711
 20
713.500579
 30
0.0
 10
201.939827
 20
712.603588
 30
0.0
 10
200.834688
 20
712.603588
 30
0.0
  0
SPLINE
  5
128
100
AcDbEntity
  8
Layer_1
 62
7
100
AcDbSpline
 70
8
 71
3
 72
8
 73
4
 74
0
 40
0
 40
0
 40
0
 40
0
 40
1
 40
1
 40
1
 40
1
 10
200.834688
 20
712.603588
 30
0.0
 10
199.729577
 20
712.603588
 30
0.0
 10
198.832692
 20
713.500526
 30
0.0
 10
198.832692
 20
714.605584
 30
0.0
  0
SPLINE
  5
129
100
AcDbEntity
  8
Layer_1
 62
7
100
AcDbSpline
 70
8
 71
3
 72
8
 73
4
 74
0
 40
0
 40
0
 40
0
 40
0
 40
1
 40
1
 40
1
 40
1
 10
198.832692
 20
714.605584
 30
0.0
 10
198.832692
 20
715.710722
 30
0.0
 10
199.729577
 20
716.607634
 30
0.0
 10
200.834688
 20
716.607634
 30
0.0
  0
LINE
  5
12a
100
AcDbEntity
  8
Layer_1
 62
7
100
AcDbLine
 10
200.834688
 20
716.607634
 30
0.0
 11
200.834688
 21
716.607634
 31
0.0
  0
SPLINE
  5
12b
100
AcDbEntity
  8
Layer_1
 62
7
100
AcDbSpline
 70
8
 71
3
 72
8
 73
4
 74
0
 40
0
 40
0
 40
0
 40
0
 40
1
 40
1
 40
1
 40
1
 10
357.415121
 20
716.607634
 30
0.0
 10
358.520259
 20
716.607634
 30
0.0
 10
359.417144
 20
715.710696
 30
0.0
 10
359.417144
 20
714.605584
 30
0.0
  0
SPLINE
  5
12c
100
AcDbEntity
  8
Layer_1
 62
7
100
AcDbSpline
 70
8
 71
3
 72
8
 73
4
 74
0
 40
0
 40
0
 40
0
 40
0
 40
1
 40
1
 40
1
 40
1
 10
359.417144
 20
714.605584
 30
0.0
 10
359.417144
 20
713.500526
 30
0.0
 10
358.520259
 20
712.603588
 30
0.0
 10
357.415121
 20
712.603588
 30
0.0
  0
SPLINE
  5
12d
100
AcDbEntity
  8
Layer_1
 62
7
100
AcDbSpline
 70
8
 71
3
 72
8
 73
4
 74
0
 40
0
 40
0
 40
0
 40
0
 40
1
 40
1
 40
1
 40
1
 10
357.415121
 20
712.603588
 30
0.0
 10
356.309983
 20
712.603588
 30
0.0
 10
355.413098
 20
713.500526
 30
0.0
 10
355.413098
 20
714.605584
 30
0.0
  0
SPLINE
  5
12e
100
AcDbEntity
  8
Layer_1
 62
7
100
AcDbSpline
 70
8
 71
3
 72
8
 73
4
 74
0
 40
0
 40
0
 40
0
 40
0
 40
1
 40
1
 40
1
 40
1
 10
355.413098
 20
714.605584
 30
0.0
 10
355.413098
 20
715.710696
 30
0.0
 10
356.309983
 20
716.607634
 30
0.0
 10
357.415121
 20
716.607634
 30
0.0
  0
LINE
  5
12f
100
AcDbEntity
  8
Layer_1
 62
7
100
AcDbLine
 10
357.415121
 20
716.607634
 30
0.0
 11
357.415121
 21
716.607634
 31
0.0
  0
SPLINE
  5
130
100
AcDbEntity
  8
Layer_1
 62
7
100
AcDbSpline
 70
8
 71
3
 72
8
 73
4
 74
0
 40
0
 40
0
 40
0
 40
0
 40
1
 40
1
 40
1
 40
1
 10
279.124913
 20
712.003884
 30
0.0
 10
280.230024
 20
712.003884
 30
0.0
 10
281.126909
 20
711.106946
 30
0.0
 10
281.126909
 20
710.001861
 30
0.0
  0
SPLINE
  5
131
100
AcDbEntity
  8
Layer_1
 62
7
100
AcDbSpline
 70
8
 71
3
 72
8
 73
4
 74
0
 40
0
 40
0
 40
0
 40
0
 40
1
 40
1
 40
1
 40
1
 10
281.126909
 20
710.001861
 30
0.0
 10
281.126909
 20
708.896749
 30
0.0
 10
280.230024
 20
707.999838
 30
0.0
 10
279.124913
 20
707.999838
 30
0.0
  0
SPLINE
  5
132
100
AcDbEntity
  8
Layer_1
 62
7
100
AcDbSpline
 70
8
 71
3
 72
8
 73
4
 74
0
 40
0
 40
0
 40
0
 40
0
 40
1
 40
1
 40
1
 40
1
 10
279.124913
 20
707.999838
 30
0.0
 10
278.019775
 20
707.999838
 30
0.0
 10
277.122864
 20
708.896776
 30
0.0
 10
277.122864
 20
710.001861
 30
0.0
  0
SPLINE
  5
133
100
AcDbEntity
  8
Layer_1
 62
7
100
AcDbSpline
 70
8
 71
3
 72
8
 73
4
 74
0
 40
0
 40
0
 40
0
 40
0
 40
1
 40
1
 40
1
 40
1
 10
277.122864
 20
710.001861
 30
0.0
 10
277.122864
 20
711.106920
 30
0.0
 10
278.019775
 20
712.003884
 30
0.0
 10
279.124913
 20
712.003884
 30
0.0
  0
LINE
  5
134
100
AcDbEntity
  8
Layer_1
 62
7
100
AcDbLine
 10
279.124913
 20
712.003884
 30
0.0
 11
279.124913
 21
712.003884
 31
0.0
  0
SPLINE
  5
135
100
AcDbEntity
  8
Layer_1
 62
7
100
AcDbSpline
 70
8
 71
3
 72
8
 73
4
 74
0
 40
0
 40
0
 40
0
 40
0
 40
1
 40
1
 40
1
 40
1
 10
278.604530
 20
685.457338
 30
0.0
 10
278.944493
 20
685.457338
 30
0.0
 10
279.321948
 20
685.460249
 30
0.0
 10
279.645242
 20
685.457338
 30
0.0
  0
SPLINE
  5
136
100
AcDbEntity
  8
Layer_1
 62
7
100
AcDbSpline
 70
8
 71
3
 72
8
 73
4
 74
0
 40
0
 40
0
 40
0
 40
0
 40
1
 40
1
 40
1
 40
1
 10
279.645242
 20
685.457338
 30
0.0
 10
282.659878
 20
685.434584
 30
0.0
 10
283.952738
 20
685.413708
 30
0.0
 10
284.284261
 20
685.404421
 30
0.0
  0
SPLINE
  5
137
100
AcDbEntity
  8
Layer_1
 62
7
100
AcDbSpline
 70
8
 71
3
 72
8
 73
4
 74
0
 40
0
 40
0
 40
0
 40
0
 40
1
 40
1
 40
1
 40
1
 10
284.284261
 20
685.404421
 30
0.0
 10
283.776473
 20
685.396749
 30
0.0
 10
281.828452
 20
685.394896
 30
0.0
 10
280.262595
 20
685.395690
 30
0.0
  0
SPLINE
  5
138
100
AcDbEntity
  8
Layer_1
 62
7
100
AcDbSpline
 70
8
 71
3
 72
8
 73
4
 74
0
 40
0
 40
0
 40
0
 40
0
 40
1
 40
1
 40
1
 40
1
 10
280.262595
 20
685.395690
 30
0.0
 10
280.281645
 20
685.398601
 30
0.0
 10
279.081997
 20
685.395770
 30
0.0
 10
277.987178
 20
685.395690
 30
0.0
  0
SPLINE
  5
139
100
AcDbEntity
  8
Layer_1
 62
7
100
AcDbSpline
 70
8
 71
3
 72
8
 73
4
 74
0
 40
0
 40
0
 40
0
 40
0
 40
1
 40
1
 40
1
 40
1
 10
277.987178
 20
685.395690
 30
0.0
 10
276.285457
 20
685.392780
 30
0.0
 10
274.141671
 20
685.395690
 30
0.0
 10
273.877326
 20
685.404421
 30
0.0
  0
SPLINE
  5
13a
100
AcDbEntity
  8
Layer_1
 62
7
100
AcDbSpline
 70
8
 71
3
 72
8
 73
4
 74
0
 40
0
 40
0
 40
0
 40
0
 40
1
 40
1
 40
1
 40
1
 10
273.877326
 20
685.404421
 30
0.0
 10
274.124235
 20
685.413682
 30
0.0
 10
275.443685
 20
685.433129
 30
0.0
 10
278.604530
 20
685.457338
 30
0.0
  0
LINE
  5
13b
100
AcDbEntity
  8
Layer_1
 62
7
100
AcDbLine
 10
278.604530
 20
685.457338
 30
0.0
 11
278.604530
 21
685.457338
 31
0.0
  0
LINE
  5
13c
100
AcDbEntity
  8
Layer_1
 62
7
100
AcDbLine
 10
160.000005
 20
739.999975
 30
0.0
 11
398.251000
 21
739.999975
 31
0.0
  0
LINE
  5
13d
100
AcDbEntity
  8
Layer_1
 62
7
100
AcDbLine
 10
398.251000
 20
739.999975
 30
0.0
 11
398.251000
 21
679.999976
 31
0.0
  0
LINE
  5
13e
100
AcDbEntity
  8
Layer_1
 62
7
100
AcDbLine
 10
398.251000
 20
679.999976
 30
0.0
 11
160.000005
 21
679.999976
 31
0.0
  0
LINE
  5
13f
100
AcDbEntity
  8
Layer_1
 62
7
100
AcDbLine
 10
160.000005
 20
679.999976
 30
0.0
 11
160.000005
 21
739.999975
 31
0.0
  0
ENDSEC
  0
SECTION
  2
OBJECTS
  0
DICTIONARY
  5
C
330
0
100
AcDbDictionary
  3
ACAD_GROUP
350
D
  3
ACAD_MLINESTYLE
350
17
  0
DICTIONARY
  5
D
330
C
100
AcDbDictionary
  0
DICTIONARY
  5
1A
330
C
100
AcDbDictionary
  0
DICTIONARY
  5
17
330
C
100
AcDbDictionary
  3
STANDARD
350
18
  0
DICTIONARY
  5
19
330
C
100
AcDbDictionary
  0
ENDSEC
  0
EOF
