  0
SECTION
  2
HEADER
  9
$ACADVER
  1
AC1014
  9
$HANDSEED
  5
FFFF
  9
$MEASUREMENT
 70
     1
  0
ENDSEC
  0
SECTION
  2
TABLES
  0
TABLE
  2
VPORT
  5
8
330
0
100
AcDbSymbolTable
 70
     4
  0
VPORT
  5
2E
330
8
100
AcDbSymbolTableRecord
100
AcDbViewportTableRecord
  2
*ACTIVE
 70
     0
 10
0.0
 20
0.0
 11
1.0
 21
1.0
 12
210.0
 22
148.5
 13
0.0
 23
0.0
 14
10.0
 24
10.0
 15
10.0
 25
10.0
 16
0.0
 26
0.0
 36
1.0
 17
0.0
 27
0.0
 37
0.0
 40
341.0
 41
1.24
 42
50.0
 43
0.0
 44
0.0
 50
0.0
 51
0.0
 71
     0
 72
   100
 73
     1
 74
     3
 75
     0
 76
     0
 77
     0
 78
     0
  0
ENDTAB
  0
TABLE
  2
LTYPE
  5
5
330
0
100
AcDbSymbolTable
 70
     1
  0
LTYPE
  5
14
330
5
100
AcDbSymbolTableRecord
100
AcDbLinetypeTableRecord
  2
BYBLOCK
 70
     0
  3

 72
    65
 73
     0
 40
0.0
  0
LTYPE
  5
15
330
5
100
AcDbSymbolTableRecord
100
AcDbLinetypeTableRecord
  2
BYLAYER
 70
     0
  3

 72
    65
 73
     0
 40
0.0
  0
LTYPE
  5
16
330
5
100
AcDbSymbolTableRecord
100
AcDbLinetypeTableRecord
  2
CONTINUOUS
 70
     0
  3
Solid line
 72
    65
 73
     0
 40
0.0
  0
ENDTAB
  0
TABLE
  2
LAYER
  5
2
100
AcDbSymbolTable
 70
2
  0
LAYER
  5
50
100
AcDbSymbolTableRecord
100
AcDbLayerTableRecord
  2
0
 70
0
  6
CONTINUOUS
  0
LAYER
  5
51
100
AcDbSymbolTableRecord
100
AcDbLayerTableRecord
  2
Layer_1
 70
0
  6
CONTINUOUS
  0
ENDTAB
  0
TABLE
  2
STYLE
  5
3
330
0
100
AcDbSymbolTable
 70
     1
  0
STYLE
  5
11
330
3
100
AcDbSymbolTableRecord
100
AcDbTextStyleTableRecord
  2
STANDARD
 70
     0
 40
0.0
 41
1.0
 50
0.0
 71
     0
 42
2.5
  3
txt
  4

  0
ENDTAB
  0
TABLE
  2
VIEW
  5
6
330
0
100
AcDbSymbolTable
 70
     0
  0
ENDTAB
  0
TABLE
  2
UCS
  5
7
330
0
100
AcDbSymbolTable
 70
     0
  0
ENDTAB
  0
TABLE
  2
APPID
  5
9
330
0
100
AcDbSymbolTable
 70
     2
  0
APPID
  5
12
330
9
100
AcDbSymbolTableRecord
100
AcDbRegAppTableRecord
  2
ACAD
 70
     0
  0
ENDTAB
  0
TABLE
  2
DIMSTYLE
  5
A
330
0
100
AcDbSymbolTable
 70
     1
  0
DIMSTYLE
105
27
330
A
100
AcDbSymbolTableRecord
100
AcDbDimStyleTableRecord
  2
ISO-25
 70
     0
  3

  4

  5

  6

  7

 40
1.0
 41
2.5
 42
0.625
 43
3.75
 44
1.25
 45
0.0
 46
0.0
 47
0.0
 48
0.0
140
2.5
141
2.5
142
0.0
143
0.03937007874016
144
1.0
145
0.0
146
1.0
147
0.625
 71
     0
 72
     0
 73
     0
 74
     0
 75
     0
 76
     0
 77
     1
 78
     8
170
     0
171
     3
172
     1
173
     0
174
     0
175
     0
176
     0
177
     0
178
     0
270
     2
271
     2
272
     2
273
     2
274
     3
340
11
275
     0
280
     0
281
     0
282
     0
283
     0
284
     8
285
     0
286
     0
287
     3
288
     0
  0
ENDTAB
  0
TABLE
  2
BLOCK_RECORD
  5
1
330
0
100
AcDbSymbolTable
 70
     1
  0
BLOCK_RECORD
  5
1F
330
1
100
AcDbSymbolTableRecord
100
AcDbBlockTableRecord
  2
*MODEL_SPACE
  0
BLOCK_RECORD
  5
1B
330
1
100
AcDbSymbolTableRecord
100
AcDbBlockTableRecord
  2
*PAPER_SPACE
  0
ENDTAB
  0
ENDSEC
  0
SECTION
  2
BLOCKS
  0
BLOCK
  5
20
330
1F
100
AcDbEntity
  8
0
100
AcDbBlockBegin
  2
*MODEL_SPACE
 70
     0
 10
0.0
 20
0.0
 30
0.0
  3
*MODEL_SPACE
  1

  0
ENDBLK
  5
21
330
1F
100
AcDbEntity
  8
0
100
AcDbBlockEnd
  0
BLOCK
  5
1C
330
1B
100
AcDbEntity
 67
     1
  8
0
100
AcDbBlockBegin
  2
*PAPER_SPACE
  1

  0
ENDBLK
  5
1D
330
1B
100
AcDbEntity
 67
     1
  8
0
100
AcDbBlockEnd
  0
ENDSEC
  0
SECTION
  2
ENTITIES
  0
LWPOLYLINE
  5
100
100
AcDbEntity
  8
Layer_1
 62
7
100
AcDbPolyline
 90
2
 70
0
 10
82.999995
 20
139.999999
 30
0.0
 10
202.999998
 20
139.999999
 30
0.0
  0
SPLINE
  5
101
100
AcDbEntity
  8
Layer_1
 62
7
100
AcDbSpline
 70
0
 71
3
 72
10
 73
6
 74
4
 40
0.000000
 40
0.000000
 40
0.000000
 40
0.000000
 40
4.187967
 40
8.242465
 40
12.430432
 40
12.430432
 40
12.430432
 40
12.430432
 10
202.999998
 20
139.999999
 30
0.0
 10
204.404017
 20
139.781687
 30
0.0
 10
207.167311
 20
139.352018
 30
0.0
 10
210.352018
 20
136.167312
 30
0.0
 10
210.781686
 20
133.404018
 30
0.0
 10
210.999999
 20
131.999998
 30
0.0
 11
202.999998
 21
139.999999
 31
0.0
 11
207.043850
 21
138.910814
 31
0.0
 11
209.910813
 21
136.043851
 31
0.0
 11
210.999999
 21
131.999998
 31
0.0
  0
LWPOLYLINE
  5
102
100
AcDbEntity
  8
Layer_1
 62
7
100
AcDbPolyline
 90
2
 70
0
 10
210.999999
 20
131.999998
 30
0.0
 10
210.999999
 20
106.000000
 30
0.0
  0
SPLINE
  5
103
100
AcDbEntity
  8
Layer_1
 62
7
100
AcDbSpline
 70
0
 71
3
 72
10
 73
6
 74
4
 40
0.000000
 40
0.000000
 40
0.000000
 40
0.000000
 40
4.187967
 40
8.242465
 40
12.430432
 40
12.430432
 40
12.430432
 40
12.430432
 10
210.999999
 20
106.000000
 30
0.0
 10
210.781686
 20
104.595980
 30
0.0
 10
210.352018
 20
101.832686
 30
0.0
 10
207.167311
 20
98.647980
 30
0.0
 10
204.404017
 20
98.218312
 30
0.0
 10
202.999998
 20
97.999999
 30
0.0
 11
210.999999
 21
106.000000
 31
0.0
 11
209.910813
 21
101.956147
 31
0.0
 11
207.043850
 21
99.089184
 31
0.0
 11
202.999998
 21
97.999999
 31
0.0
  0
LWPOLYLINE
  5
104
100
AcDbEntity
  8
Layer_1
 62
7
100
AcDbPolyline
 90
2
 70
0
 10
202.999998
 20
97.999999
 30
0.0
 10
82.999995
 20
97.999999
 30
0.0
  0
SPLINE
  5
105
100
AcDbEntity
  8
Layer_1
 62
7
100
AcDbSpline
 70
0
 71
3
 72
10
 73
6
 74
4
 40
0.000000
 40
0.000000
 40
0.000000
 40
0.000000
 40
4.187965
 40
8.242463
 40
12.430430
 40
12.430430
 40
12.430430
 40
12.430430
 10
82.999995
 20
97.999999
 30
0.0
 10
81.595976
 20
98.218312
 30
0.0
 10
78.832683
 20
98.647980
 30
0.0
 10
75.647978
 20
101.832686
 30
0.0
 10
75.218310
 20
104.595980
 30
0.0
 10
74.999997
 20
106.000000
 30
0.0
 11
82.999995
 21
97.999999
 31
0.0
 11
78.956144
 21
99.089184
 31
0.0
 11
76.089182
 21
101.956147
 31
0.0
 11
74.999997
 21
106.000000
 31
0.0
  0
LWPOLYLINE
  5
106
100
AcDbEntity
  8
Layer_1
 62
7
100
AcDbPolyline
 90
2
 70
0
 10
74.999997
 20
106.000000
 30
0.0
 10
74.999997
 20
131.999998
 30
0.0
  0
SPLINE
  5
107
100
AcDbEntity
  8
Layer_1
 62
7
100
AcDbSpline
 70
0
 71
3
 72
10
 73
6
 74
4
 40
0.000000
 40
0.000000
 40
0.000000
 40
0.000000
 40
4.187967
 40
8.242465
 40
12.430430
 40
12.430430
 40
12.430430
 40
12.430430
 10
74.999997
 20
131.999998
 30
0.0
 10
75.218310
 20
133.404018
 30
0.0
 10
75.647978
 20
136.167312
 30
0.0
 10
78.832683
 20
139.352018
 30
0.0
 10
81.595976
 20
139.781686
 30
0.0
 10
82.999995
 20
139.999999
 30
0.0
 11
74.999997
 21
131.999998
 31
0.0
 11
76.089182
 21
136.043851
 31
0.0
 11
78.956144
 21
138.910814
 31
0.0
 11
82.999995
 21
139.999999
 31
0.0
  0
LWPOLYLINE
  5
108
100
AcDbEntity
  8
Layer_1
 62
7
100
AcDbPolyline
 90
2
 70
0
 10
82.999995
 20
139.999999
 30
0.0
 10
82.999995
 20
139.999999
 30
0.0
  0
SPLINE
  5
109
100
AcDbEntity
  8
Layer_1
 62
1
100
AcDbSpline
 70
0
 71
3
 72
10
 73
6
 74
4
 40
0.000000
 40
0.000000
 40
0.000000
 40
0.000000
 40
7.361341
 40
14.565006
 40
23.779298
 40
23.779298
 40
23.779298
 40
23.779298
 10
211.000000
 20
115.129088
 30
0.0
 10
211.152554
 20
112.726464
 30
0.0
 10
211.454393
 20
107.972679
 30
0.0
 10
209.336142
 20
99.231663
 30
0.0
 10
203.302608
 20
98.442757
 30
0.0
 10
199.916391
 20
97.999998
 30
0.0
 11
211.000000
 21
115.129088
 31
0.0
 11
211.049136
 21
107.767911
 31
0.0
 11
208.635248
 21
100.980722
 31
0.0
 11
199.916391
 21
97.999998
 31
0.0
  0
LWPOLYLINE
  5
10a
100
AcDbEntity
  8
Layer_1
 62
1
100
AcDbPolyline
 90
3
 70
0
 10
199.916391
 20
97.999998
 30
0.0
 10
140.993801
 20
97.999998
 30
0.0
 10
84.599955
 20
97.999998
 30
0.0
  0
SPLINE
  5
10b
100
AcDbEntity
  8
Layer_1
 62
1
100
AcDbSpline
 70
0
 71
3
 72
16
 73
12
 74
10
 40
0.000000
 40
0.000000
 40
0.000000
 40
0.000000
 40
8.525853
 40
15.982904
 40
23.572965
 40
38.845586
 40
64.789066
 40
99.161828
 40
133.557158
 40
159.643865
 40
175.095767
 40
175.095767
 40
175.095767
 40
175.095767
 10
84.599955
 20
97.999998
 30
0.0
 10
81.466879
 20
98.604194
 30
0.0
 10
75.593490
 20
99.736844
 30
0.0
 10
74.702159
 20
108.632324
 30
0.0
 10
74.180678
 20
118.686413
 30
0.0
 10
86.651368
 20
132.181079
 30
0.0
 10
111.492391
 20
137.776989
 30
0.0
 10
143.178640
 20
141.461500
 30
0.0
 10
173.968204
 20
137.556200
 30
0.0
 10
200.737701
 20
131.794169
 30
0.0
 10
208.217571
 20
119.647510
 30
0.0
 10
211.000000
 20
115.129088
 30
0.0
 11
84.599955
 21
97.999998
 31
0.0
 11
76.700055
 21
101.206515
 31
0.0
 11
74.783362
 21
108.413032
 31
0.0
 11
74.999994
 21
116.000001
 31
0.0
 11
84.338606
 21
128.084839
 31
0.0
 11
108.788329
 21
136.760966
 31
0.0
 11
142.999997
 21
140.084895
 31
0.0
 11
177.211665
 21
136.535174
 31
0.0
 11
201.661388
 21
127.439718
 31
0.0
 11
211.000000
 21
115.129088
 31
0.0
  0
LWPOLYLINE
  5
10c
100
AcDbEntity
  8
Layer_1
 62
1
100
AcDbPolyline
 90
2
 70
0
 10
211.000000
 20
115.129088
 30
0.0
 10
211.000000
 20
115.129088
 30
0.0
  0
SPLINE
  5
10d
100
AcDbEntity
  8
Layer_1
 62
1
100
AcDbSpline
 70
0
 71
3
 72
19
 73
15
 74
13
 40
0.000000
 40
0.000000
 40
0.000000
 40
0.000000
 40
12.016932
 40
35.100085
 40
68.535580
 40
103.267313
 40
128.750518
 40
141.722865
 40
158.459178
 40
185.706473
 40
220.300286
 40
254.637725
 40
281.453814
 40
298.046859
 40
298.046859
 40
298.046859
 40
298.046859
 10
200.000001
 20
59.999999
 30
0.0
 10
197.356345
 20
56.745215
 30
0.0
 10
189.634528
 20
47.238365
 30
0.0
 10
164.064451
 20
50.850615
 30
0.0
 10
134.927593
 20
49.536166
 30
0.0
 10
103.074327
 20
50.729209
 30
0.0
 10
79.427629
 20
47.369876
 30
0.0
 10
59.868691
 20
60.430344
 30
0.0
 10
77.868032
 20
78.537120
 30
0.0
 10
100.137270
 20
87.391550
 30
0.0
 10
133.267958
 20
93.029882
 30
0.0
 10
164.285283
 20
87.599317
 30
0.0
 10
190.401094
 20
78.116842
 30
0.0
 10
197.345512
 20
65.010043
 30
0.0
 10
200.000001
 20
59.999999
 30
0.0
 11
200.000001
 21
59.999999
 31
0.0
 11
191.439167
 21
51.566803
 31
0.0
 11
168.433890
 21
49.672290
 31
0.0
 11
135.000001
 21
49.999999
 31
0.0
 11
100.269814
 21
49.672290
 31
0.0
 11
74.857129
 21
51.566803
 31
0.0
 11
65.000000
 21
59.999999
 31
0.0
 11
74.338612
 21
73.888645
 31
0.0
 11
98.788335
 21
85.914706
 31
0.0
 11
133.000002
 21
91.042445
 31
0.0
 11
166.952410
 21
85.914706
 31
0.0
 11
190.920650
 21
73.888645
 31
0.0
 11
200.000001
 21
59.999999
 31
0.0
  0
SPLINE
  5
10e
100
AcDbEntity
  8
Layer_1
 62
1
100
AcDbSpline
 70
0
 71
3
 72
25
 73
21
 74
19
 40
0.000000
 40
0.000000
 40
0.000000
 40
0.000000
 40
1.744728
 40
3.480043
 40
5.204244
 40
5.434010
 40
5.663300
 40
5.892672
 40
6.234281
 40
6.575622
 40
6.916337
 40
7.446822
 40
7.976798
 40
8.505042
 40
8.540442
 40
8.575860
 40
8.611249
 40
38.590369
 40
61.217426
 40
75.070974
 40
75.070974
 40
75.070974
 40
75.070974
 10
142.716250
 20
197.220623
 30
0.0
 10
142.134669
 20
197.218869
 30
0.0
 10
140.974644
 20
197.215370
 30
0.0
 10
139.240121
 20
197.185821
 30
0.0
 10
138.010625
 20
197.158632
 30
0.0
 10
137.283303
 20
197.133400
 30
0.0
 10
137.054057
 20
197.123079
 30
0.0
 10
136.787480
 20
197.113213
 30
0.0
 10
136.483516
 20
197.103871
 30
0.0
 10
136.142500
 20
197.092003
 30
0.0
 10
135.738595
 20
197.077118
 30
0.0
 10
135.271822
 20
197.060586
 30
0.0
 10
134.742714
 20
197.039037
 30
0.0
 10
134.378233
 20
197.028933
 30
0.0
 10
134.178974
 20
197.015407
 30
0.0
 10
134.143797
 20
197.011324
 30
0.0
 10
124.148074
 20
196.341658
 30
0.0
 10
107.237042
 20
193.928820
 30
0.0
 10
84.069047
 20
188.315264
 30
0.0
 10
77.387826
 20
177.753937
 30
0.0
 10
74.850625
 20
173.743262
 30
0.0
 11
142.716250
 21
197.220623
 31
0.0
 11
140.971547
 21
197.211273
 31
0.0
 11
139.236442
 21
197.184285
 31
0.0
 11
137.512778
 21
197.141248
 31
0.0
 11
137.283161
 21
197.133000
 31
0.0
 11
137.054072
 21
197.123386
 31
0.0
 11
136.824861
 21
197.114789
 31
0.0
 11
136.483435
 21
197.103637
 31
0.0
 11
136.142295
 21
197.091879
 31
0.0
 11
135.801806
 21
197.079512
 31
0.0
 11
135.271675
 21
197.060112
 31
0.0
 11
134.742075
 21
197.040161
 31
0.0
 11
134.214306
 21
197.017775
 31
0.0
 11
134.179005
 21
197.015126
 31
0.0
 11
134.143762
 21
197.011609
 31
0.0
 11
134.108472
 21
197.008956
 31
0.0
 11
104.407885
 21
192.931859
 31
0.0
 11
83.332683
 21
184.696593
 31
0.0
 11
74.850625
 21
173.743262
 31
0.0
  0
SPLINE
  5
10f
100
AcDbEntity
  8
Layer_1
 62
1
100
AcDbSpline
 70
0
 71
3
 72
13
 73
9
 74
7
 40
0.000000
 40
0.000000
 40
0.000000
 40
0.000000
 40
0.497969
 40
0.993469
 40
1.489236
 40
3.320044
 40
5.278631
 40
7.302675
 40
7.302675
 40
7.302675
 40
7.302675
 10
74.850625
 20
173.743262
 30
0.0
 10
74.824539
 20
173.579309
 30
0.0
 10
74.772496
 20
173.252216
 30
0.0
 10
74.727467
 20
172.757298
 30
0.0
 10
74.709820
 20
171.816543
 30
0.0
 10
74.689729
 20
170.388405
 30
0.0
 10
74.603813
 20
168.452043
 30
0.0
 10
74.603725
 20
167.124342
 30
0.0
 10
74.603681
 20
166.449581
 30
0.0
 11
74.850625
 21
173.743262
 31
0.0
 11
74.777895
 21
173.250633
 31
0.0
 11
74.733415
 21
172.757133
 31
0.0
 11
74.718333
 21
172.261595
 31
0.0
 11
74.681403
 21
170.431160
 31
0.0
 11
74.618994
 21
168.473568
 31
0.0
 11
74.603681
 21
166.449581
 31
0.0
  0
LWPOLYLINE
  5
110
100
AcDbEntity
  8
Layer_1
 62
1
100
AcDbPolyline
 90
2
 70
0
 10
200.000001
 20
59.999999
 30
0.0
 10
200.000001
 20
59.999999
 30
0.0
  0
SPLINE
  5
111
100
AcDbEntity
  8
Layer_1
 62
1
100
AcDbSpline
 70
0
 71
3
 72
10
 73
6
 74
4
 40
0.000000
 40
0.000000
 40
0.000000
 40
0.000000
 40
5.481747
 40
10.537971
 40
17.115759
 40
17.115759
 40
17.115759
 40
17.115759
 10
74.603681
 20
166.449581
 30
0.0
 10
74.639226
 20
164.615116
 30
0.0
 10
74.707558
 20
161.088588
 30
0.0
 10
78.012331
 20
155.714861
 30
0.0
 10
82.111117
 20
155.343946
 30
0.0
 10
84.428542
 20
155.134234
 30
0.0
 11
74.603681
 21
166.449581
 31
0.0
 11
75.242414
 21
161.005174
 31
0.0
 11
78.068439
 21
156.812443
 31
0.0
 11
84.428542
 21
155.134234
 31
0.0
  0
SPLINE
  5
112
100
AcDbEntity
  8
Layer_1
 62
1
100
AcDbSpline
 70
0
 71
3
 72
25
 73
21
 74
19
 40
0.000000
 40
0.000000
 40
0.000000
 40
0.000000
 40
6.680095
 40
11.838604
 40
17.451627
 40
17.454578
 40
17.457514
 40
17.460446
 40
17.463385
 40
17.466327
 40
17.469266
 40
19.368060
 40
21.202906
 40
22.921055
 40
23.407985
 40
23.894742
 40
24.383854
 40
24.392626
 40
24.401593
 40
24.410346
 40
24.410346
 40
24.410346
 40
24.410346
 10
201.118611
 20
155.134234
 30
0.0
 10
203.479149
 20
155.355956
 30
0.0
 10
207.662544
 20
155.748896
 30
0.0
 10
210.899584
 20
161.316393
 30
0.0
 10
210.937638
 20
164.923517
 30
0.0
 10
210.943481
 20
166.796485
 30
0.0
 10
210.943462
 20
166.799425
 30
0.0
 10
210.943478
 20
166.802361
 30
0.0
 10
210.943459
 20
166.805299
 30
0.0
 10
210.943487
 20
166.808238
 30
0.0
 10
210.940314
 20
167.443129
 30
0.0
 10
210.930320
 20
168.688788
 30
0.0
 10
210.852246
 20
170.504590
 30
0.0
 10
210.839360
 20
171.851393
 30
0.0
 10
210.817477
 20
172.748269
 30
0.0
 10
210.779087
 20
173.235309
 30
0.0
 10
210.707670
 20
173.556670
 30
0.0
 10
210.695905
 20
173.725640
 30
0.0
 10
210.697152
 20
173.734438
 30
0.0
 10
210.696734
 20
173.740344
 30
0.0
 10
210.696528
 20
173.743262
 30
0.0
 11
201.118611
 21
155.134234
 31
0.0
 11
207.567420
 21
156.876801
 31
0.0
 11
210.365774
 21
161.210325
 31
0.0
 11
210.943472
 21
166.793539
 31
0.0
 11
210.943477
 21
166.796491
 31
0.0
 11
210.943468
 21
166.799426
 31
0.0
 11
210.943472
 21
166.802359
 31
0.0
 11
210.943467
 21
166.805298
 31
0.0
 11
210.943480
 21
166.808239
 31
0.0
 11
210.943472
 21
166.811178
 31
0.0
 11
210.918903
 21
168.709813
 31
0.0
 11
210.861122
 21
170.543750
 31
0.0
 11
210.828819
 21
172.261595
 31
0.0
 11
210.813064
 21
172.748270
 31
0.0
 11
210.767911
 21
173.232928
 31
0.0
 11
210.696528
 21
173.716803
 31
0.0
 11
210.696214
 21
173.725569
 31
0.0
 11
210.696841
 21
173.734514
 31
0.0
 11
210.696528
 21
173.743262
 31
0.0
  0
LWPOLYLINE
  5
113
100
AcDbEntity
  8
Layer_1
 62
1
100
AcDbPolyline
 90
6
 70
0
 10
84.428542
 20
155.134234
 30
0.0
 10
85.804375
 20
155.134234
 30
0.0
 10
140.820069
 20
155.134234
 30
0.0
 10
144.727083
 20
155.134234
 30
0.0
 10
199.742778
 20
155.134234
 30
0.0
 10
201.118611
 20
155.134234
 30
0.0
  0
SPLINE
  5
114
100
AcDbEntity
  8
Layer_1
 62
1
100
AcDbSpline
 70
0
 71
3
 72
37
 73
33
 74
31
 40
0.000000
 40
0.000000
 40
0.000000
 40
0.000000
 40
13.853293
 40
36.480244
 40
66.459424
 40
67.025852
 40
67.594068
 40
68.163043
 40
68.521340
 40
68.880306
 40
69.239595
 40
69.451368
 40
69.663044
 40
69.875151
 40
69.910409
 40
69.945719
 40
69.980988
 40
70.517713
 40
71.056762
 40
71.595555
 40
71.633723
 40
71.672030
 40
71.710209
 40
72.250528
 40
72.790874
 40
73.333208
 40
73.368449
 40
73.403791
 40
73.439041
 40
74.019862
 40
74.602302
 40
75.185319
 40
75.185319
 40
75.185319
 40
75.185319
 10
210.696528
 20
173.743262
 30
0.0
 10
208.159396
 20
177.756296
 30
0.0
 10
201.478301
 20
188.323924
 30
0.0
 10
178.307407
 20
193.855147
 30
0.0
 10
161.235875
 20
196.575656
 30
0.0
 10
150.872198
 20
197.034420
 30
0.0
 10
150.304826
 20
197.057371
 30
0.0
 10
149.806714
 20
197.077182
 30
0.0
 10
149.378243
 20
197.092523
 30
0.0
 10
149.019574
 20
197.103960
 30
0.0
 10
148.709678
 20
197.112459
 30
0.0
 10
148.448970
 20
197.123013
 30
0.0
 10
148.237374
 20
197.133151
 30
0.0
 10
148.084511
 20
197.140713
 30
0.0
 10
147.990280
 20
197.141673
 30
0.0
 10
147.955005
 20
197.140837
 30
0.0
 10
147.752566
 20
197.143068
 30
0.0
 10
147.382487
 20
197.158457
 30
0.0
 10
146.844485
 20
197.172004
 30
0.0
 10
146.472641
 20
197.184039
 30
0.0
 10
146.267549
 20
197.185669
 30
0.0
 10
146.229333
 20
197.185042
 30
0.0
 10
146.023729
 20
197.186584
 30
0.0
 10
145.650894
 20
197.196491
 30
0.0
 10
145.109959
 20
197.204567
 30
0.0
 10
144.737365
 20
197.211129
 30
0.0
 10
144.533059
 20
197.211956
 30
0.0
 10
144.497781
 20
197.211672
 30
0.0
 10
144.280643
 20
197.212443
 30
0.0
 10
143.881164
 20
197.217152
 30
0.0
 10
143.299074
 20
197.219834
 30
0.0
 10
142.910589
 20
197.220360
 30
0.0
 10
142.716250
 20
197.220623
 30
0.0
 11
210.696528
 21
173.743262
 31
0.0
 11
202.214455
 21
184.696260
 31
0.0
 11
181.139238
 21
192.931193
 31
0.0
 11
151.438681
 21
197.008956
 31
0.0
 11
150.872808
 21
197.034034
 31
0.0
 11
150.305068
 21
197.057297
 31
0.0
 11
149.736528
 21
197.079512
 31
0.0
 11
149.378458
 21
197.092281
 31
0.0
 11
149.019673
 21
197.103690
 31
0.0
 11
148.660556
 21
197.114789
 31
0.0
 11
148.448953
 21
197.123276
 31
0.0
 11
148.237510
 21
197.133200
 31
0.0
 11
148.025556
 21
197.141248
 31
0.0
 11
147.990298
 21
197.141473
 31
0.0
 11
147.954991
 21
197.141041
 31
0.0
 11
147.919722
 21
197.141248
 31
0.0
 11
147.383227
 21
197.156962
 31
0.0
 11
146.844407
 21
197.172651
 31
0.0
 11
146.305764
 21
197.185345
 31
0.0
 11
146.267596
 21
197.185514
 31
0.0
 11
146.229290
 21
197.185194
 31
0.0
 11
146.191111
 21
197.185345
 31
0.0
 11
145.650887
 21
197.195443
 31
0.0
 11
145.110622
 21
197.204798
 31
0.0
 11
144.568333
 21
197.211803
 31
0.0
 11
144.533092
 21
197.211885
 31
0.0
 11
144.497751
 21
197.211741
 31
0.0
 11
144.462500
 21
197.211803
 31
0.0
 11
143.881698
 21
197.216452
 31
0.0
 11
143.299267
 21
197.219517
 31
0.0
 11
142.716250
 21
197.220623
 31
0.0
  0
LWPOLYLINE
  5
115
100
AcDbEntity
  8
Layer_1
 62
1
100
AcDbPolyline
 90
2
 70
0
 10
142.716250
 20
197.220623
 30
0.0
 10
142.716250
 20
197.220623
 30
0.0
  0
SPLINE
  5
116
100
AcDbEntity
  8
Layer_1
 62
1
100
AcDbSpline
 70
0
 71
3
 72
19
 73
15
 74
13
 40
0.000000
 40
0.000000
 40
0.000000
 40
0.000000
 40
1.046356
 40
2.062432
 40
3.108788
 40
4.152937
 40
5.166015
 40
6.211775
 40
7.257535
 40
8.270613
 40
9.314762
 40
10.361118
 40
11.377194
 40
12.423550
 40
12.423550
 40
12.423550
 40
12.423550
 10
112.774236
 20
175.224928
 30
0.0
 10
113.126985
 20
175.169765
 30
0.0
 10
113.822275
 20
175.061034
 30
0.0
 10
114.587520
 20
174.264137
 30
0.0
 10
114.871883
 20
173.225601
 30
0.0
 10
114.588060
 20
172.176516
 30
0.0
 10
113.820942
 20
171.415883
 30
0.0
 10
112.774236
 20
171.135161
 30
0.0
 10
111.727530
 20
171.415883
 30
0.0
 10
110.960412
 20
172.176516
 30
0.0
 10
110.676589
 20
173.225601
 30
0.0
 10
110.960952
 20
174.264137
 30
0.0
 10
111.726197
 20
175.061034
 30
0.0
 10
112.421487
 20
175.169765
 30
0.0
 10
112.774236
 20
175.224928
 30
0.0
 11
112.774236
 21
175.224928
 31
0.0
 11
113.784193
 21
174.951346
 31
0.0
 11
114.502667
 21
174.232871
 31
0.0
 11
114.776250
 21
173.222914
 31
0.0
 11
114.502667
 21
172.215244
 31
0.0
 11
113.784193
 21
171.501016
 31
0.0
 11
112.774236
 21
171.229720
 31
0.0
 11
111.764279
 21
171.501016
 31
0.0
 11
111.045805
 21
172.215244
 31
0.0
 11
110.772222
 21
173.222914
 31
0.0
 11
111.045805
 21
174.232871
 31
0.0
 11
111.764279
 21
174.951346
 31
0.0
 11
112.774236
 21
175.224928
 31
0.0
  0
LWPOLYLINE
  5
117
100
AcDbEntity
  8
Layer_1
 62
1
100
AcDbPolyline
 90
2
 70
0
 10
112.774236
 20
175.224928
 30
0.0
 10
112.774236
 20
175.224928
 30
0.0
  0
SPLINE
  5
118
100
AcDbEntity
  8
Layer_1
 62
1
100
AcDbSpline
 70
0
 71
3
 72
19
 73
15
 74
13
 40
0.000000
 40
0.000000
 40
0.000000
 40
0.000000
 40
1.046356
 40
2.062432
 40
3.108788
 40
4.152937
 40
5.166015
 40
6.211775
 40
7.257535
 40
8.270613
 40
9.314762
 40
10.361118
 40
11.377194
 40
12.423550
 40
12.423550
 40
12.423550
 40
12.423550
 10
172.772917
 20
175.224928
 30
0.0
 10
173.125666
 20
175.169765
 30
0.0
 10
173.820956
 20
175.061034
 30
0.0
 10
174.586201
 20
174.264137
 30
0.0
 10
174.870564
 20
173.225601
 30
0.0
 10
174.586741
 20
172.176516
 30
0.0
 10
173.819623
 20
171.415883
 30
0.0
 10
172.772917
 20
171.135161
 30
0.0
 10
171.726211
 20
171.415883
 30
0.0
 10
170.959093
 20
172.176516
 30
0.0
 10
170.675270
 20
173.225601
 30
0.0
 10
170.959632
 20
174.264137
 30
0.0
 10
171.724878
 20
175.061034
 30
0.0
 10
172.420168
 20
175.169765
 30
0.0
 10
172.772917
 20
175.224928
 30
0.0
 11
172.772917
 21
175.224928
 31
0.0
 11
173.782873
 21
174.951346
 31
0.0
 11
174.501348
 21
174.232871
 31
0.0
 11
174.774931
 21
173.222914
 31
0.0
 11
174.501348
 21
172.215244
 31
0.0
 11
173.782873
 21
171.501016
 31
0.0
 11
172.772917
 21
171.229720
 31
0.0
 11
171.762960
 21
171.501016
 31
0.0
 11
171.044485
 21
172.215244
 31
0.0
 11
170.770903
 21
173.222914
 31
0.0
 11
171.044485
 21
174.232871
 31
0.0
 11
171.762960
 21
174.951346
 31
0.0
 11
172.772917
 21
175.224928
 31
0.0
  0
LWPOLYLINE
  5
119
100
AcDbEntity
  8
Layer_1
 62
1
100
AcDbPolyline
 90
2
 70
0
 10
172.772917
 20
175.224928
 30
0.0
 10
172.772917
 20
175.224928
 30
0.0
  0
ENDSEC
  0
SECTION
  2
OBJECTS
  0
DICTIONARY
  5
C
330
0
100
AcDbDictionary
  3
ACAD_GROUP
350
D
  3
ACAD_MLINESTYLE
350
17
  0
DICTIONARY
  5
D
330
C
100
AcDbDictionary
  0
DICTIONARY
  5
1A
330
C
100
AcDbDictionary
  0
DICTIONARY
  5
17
330
C
100
AcDbDictionary
  3
STANDARD
350
18
  0
DICTIONARY
  5
19
330
C
100
AcDbDictionary
  0
ENDSEC
  0
EOF
