<?xml version="1.0" encoding="UTF-8" standalone="no"?>
<!-- Created with Inkscape (http://www.inkscape.org/) -->

<svg
   xmlns:dc="http://purl.org/dc/elements/1.1/"
   xmlns:cc="http://creativecommons.org/ns#"
   xmlns:rdf="http://www.w3.org/1999/02/22-rdf-syntax-ns#"
   xmlns:svg="http://www.w3.org/2000/svg"
   xmlns="http://www.w3.org/2000/svg"
   xmlns:sodipodi="http://sodipodi.sourceforge.net/DTD/sodipodi-0.dtd"
   xmlns:inkscape="http://www.inkscape.org/namespaces/inkscape"
   width="4212.9922"
   height="2979.9211"
   id="svg2"
   version="1.1"
   inkscape:version="0.48.4 r9939"
   sodipodi:docname="New document 1">
  <title
     id="title2987">Laser A0 Template</title>
  <defs
     id="defs4" />
  <sodipodi:namedview
     id="base"
     pagecolor="#ffffff"
     bordercolor="#666666"
     borderopacity="1.0"
     inkscape:pageopacity="0.0"
     inkscape:pageshadow="2"
     inkscape:zoom="1.1238281"
     inkscape:cx="1223.4239"
     inkscape:cy="2080.1185"
     inkscape:document-units="mm"
     inkscape:current-layer="layer1"
     showgrid="true"
     units="mm"
     width="1200mm"
     inkscape:window-width="944"
     inkscape:window-height="1002"
     inkscape:window-x="960"
     inkscape:window-y="0"
     inkscape:window-maximized="0">
    <inkscape:grid
       type="xygrid"
       id="grid2985"
       empspacing="5"
       visible="true"
       enabled="true"
       snapvisiblegridlinesonly="true"
       units="mm"
       spacingx="1mm"
       spacingy="1mm" />
  </sodipodi:namedview>
  <metadata
     id="metadata7">
    <rdf:RDF>
      <cc:Work
         rdf:about="">
        <dc:format>image/svg+xml</dc:format>
        <dc:type
           rdf:resource="http://purl.org/dc/dcmitype/StillImage" />
        <dc:title>Laser A0 Template</dc:title>
      </cc:Work>
    </rdf:RDF>
  </metadata>
  <g
     inkscape:label="Layer 1"
     inkscape:groupmode="layer"
     id="layer1"
     transform="translate(0,1927.5603)">
    <path
       style="font-size:144px;font-style:normal;font-variant:normal;font-weight:normal;font-stretch:normal;line-height:125%;letter-spacing:0px;word-spacing:0px;fill:#000000;fill-opacity:1;stroke:none;font-family:Amplify Personal Use Only;-inkscape-font-specification:Amplify Personal Use Only"
       d="M 1045 602 C 1042.1825 602.00938 1039.2946 602.42667 1036.3438 603.21875 C 1032.4091 604.27495 1028.3793 606.0962 1024.25 608.6875 C 1020.1205 611.2789 1016.0908 614.7413 1012.1562 619.0625 C 1007.8349 623.8615 1004.9995 628.23445 1003.6562 632.21875 C 1002.313 636.20315 1001.7158 639.67975 1001.8125 642.65625 C 1001.9063 646.11035 1002.7714 649.27645 1004.4062 652.15625 C 1000.4688 653.02055 996.94823 654.4844 993.875 656.5 C 991.18847 658.2285 988.75439 660.68955 986.59375 663.90625 C 984.43311 667.12315 983.3125 671.40525 983.21875 676.78125 C 983.12207 681.29295 983.76465 685.21925 985.15625 688.53125 C 986.54785 691.84325 988.48974 694.54535 990.9375 696.65625 C 993.38524 698.76705 996.32421 700.2749 999.78125 701.1875 C 1003.2383 702.1001 1006.9687 702.47165 1011 702.28125 C 1013.3027 702.08785 1015.7964 701.5518 1018.4375 700.6875 C 1021.0786 699.8233 1023.7197 698.33105 1026.4062 696.21875 C 1027.8477 695.16405 1029.2646 694.02935 1030.6562 692.78125 C 1031.1311 692.35537 1031.6043 691.9259 1032.0625 691.5 C 1032.1281 691.89812 1032.2211 692.29148 1032.3125 692.6875 C 1032.7446 694.5596 1033.5332 696.2461 1034.6875 697.6875 C 1035.6455 698.9356 1037.1392 699.96525 1039.1562 700.78125 C 1041.1734 701.59715 1043.4712 702.0142 1046.0625 702.0625 C 1048.6538 702.1109 1051.4155 701.70795 1054.3438 700.84375 C 1057.2719 699.97945 1060.123 698.42775 1062.9062 696.21875 C 1064.3476 695.16405 1065.7647 694.02935 1067.1562 692.78125 C 1067.5457 692.43197 1067.903 692.06804 1068.2812 691.71875 C 1068.3246 692.07513 1068.3726 692.42844 1068.4375 692.78125 C 1068.7729 694.60495 1069.5332 696.2461 1070.6875 697.6875 C 1071.6455 698.9356 1072.9903 699.97945 1074.7188 700.84375 C 1076.4473 701.70795 1078.3722 702.18605 1080.5312 702.28125 C 1082.6905 702.37645 1085.0492 701.9736 1087.5938 701.0625 C 1090.1381 700.1514 1092.7197 698.52445 1095.3125 696.21875 C 1095.407 696.13786 1095.4995 696.05058 1095.5938 695.96875 C 1095.6126 696.0807 1095.6337 696.20256 1095.6562 696.3125 C 1096.4722 700.2969 1099.3232 702.28125 1104.2188 702.28125 C 1105.9472 702.28125 1107.5287 702.13235 1108.9688 701.84375 C 1110.4086 701.55515 1111.7817 701.07865 1113.125 700.40625 C 1114.1554 699.89044 1115.1874 699.24164 1116.2188 698.5 C 1116.0861 698.78418 1115.9442 699.12441 1115.8125 699.40625 C 1113.7485 703.82275 1111.8818 707.7177 1110.25 711.125 C 1108.6181 714.5322 1107.5147 716.93645 1106.9375 718.28125 C 1106.0762 720.10345 1105.9995 721.6113 1106.7188 722.8125 C 1107.438 724.0137 1108.4536 724.8193 1109.75 725.25 C 1111.0464 725.6806 1112.3897 725.6806 1113.7812 725.25 C 1115.1729 724.8193 1116.2041 723.93845 1116.875 722.59375 C 1117.0684 722.20995 1117.5293 721.2099 1118.25 719.625 C 1118.9707 718.04 1119.8359 716.1153 1120.8438 713.8125 C 1121.8516 711.5098 1122.9864 708.89695 1124.2812 705.96875 C 1125.5762 703.04055 1126.9648 699.9824 1128.4062 696.8125 C 1129.3672 698.6377 1130.502 699.92 1131.8438 700.6875 C 1133.3818 701.7452 1135.3506 702.28125 1137.75 702.28125 C 1139.4785 702.47165 1141.5083 702.5327 1143.8125 702.4375 C 1146.1167 702.3423 1148.5053 701.98345 1151 701.40625 C 1153.4946 700.82915 1155.9883 699.9638 1158.4375 698.8125 C 1160.8867 697.6611 1163.1093 696.2002 1165.125 694.375 C 1165.1923 694.31017 1165.2457 694.25204 1165.3125 694.1875 C 1165.489 694.71447 1165.6963 695.26531 1165.9375 695.8125 C 1166.5146 697.0606 1167.3189 698.11865 1168.375 699.03125 C 1169.4312 699.94385 1170.6397 700.70555 1172.0312 701.28125 C 1173.4229 701.85695 1174.962 702.18605 1176.5938 702.28125 C 1178.2257 702.37645 1179.8369 702.2871 1181.4688 702 C 1184.4453 701.9034 1187.7587 701.2622 1191.4062 700.0625 C 1195.0537 698.8627 1198.5176 696.8174 1201.7812 693.9375 C 1202.6154 693.19329 1203.366 692.45278 1204.0938 691.75 C 1204.3416 692.72965 1204.6632 693.70117 1205.0938 694.65625 C 1206.0548 696.86225 1207.7099 698.59575 1210.0625 699.84375 C 1212.415 701.09185 1215.1016 701.8067 1218.125 702 C 1221.1484 702.1934 1224.313 701.81885 1227.625 700.90625 C 1230.937 699.99365 1234.0576 698.42775 1236.9375 696.21875 C 1238.3789 695.16405 1239.7959 694.02935 1241.1875 692.78125 C 1242.5791 691.53325 1243.8628 690.27925 1245.0625 689.03125 C 1246.2622 687.78315 1247.3671 686.6045 1248.375 685.5 C 1249.3828 684.3955 1250.1728 683.4268 1250.75 682.5625 C 1251.3271 681.6983 1251.4164 680.84715 1251.0312 680.03125 C 1250.6459 679.21535 1250.0346 678.60255 1249.2188 678.21875 C 1248.4028 677.83495 1247.5078 677.67045 1246.5 677.71875 C 1245.4922 677.76715 1244.6992 678.22955 1244.125 679.09375 C 1243.5478 679.95805 1242.7578 680.89845 1241.75 681.90625 C 1240.7422 682.91415 1239.6528 683.9438 1238.5 685 C 1237.3471 686.0561 1236.1684 687.07185 1234.9688 688.03125 C 1233.769 688.99075 1232.5889 689.79485 1231.4375 690.46875 C 1229.1348 691.90725 1226.9106 692.84915 1224.75 693.28125 C 1222.5893 693.71335 1220.6802 693.7886 1219 693.5 C 1217.3199 693.2114 1215.917 692.5703 1214.8125 691.5625 C 1213.708 690.5547 1213.0654 689.2851 1212.875 687.75 C 1214.0263 687.8467 1215.4306 687.8467 1217.0625 687.75 C 1218.6943 687.6533 1220.4546 687.28035 1222.375 686.65625 C 1224.2954 686.03225 1226.3252 685.10595 1228.4375 683.90625 C 1230.5498 682.70655 1232.7003 681.0498 1234.9062 678.9375 C 1236.0605 677.8828 1237.1783 676.49565 1238.2812 674.71875 C 1239.3843 672.94195 1240.1615 671.07525 1240.5938 669.15625 C 1241.0258 667.23735 1240.9507 665.416 1240.375 663.6875 C 1239.7993 661.959 1238.4559 660.6768 1236.3438 659.8125 C 1234.0409 658.9483 1231.5176 658.71005 1228.7812 659.09375 C 1226.0448 659.47765 1223.3583 660.43225 1220.7188 661.96875 C 1218.0791 663.50545 1215.5415 665.4898 1213.0938 667.9375 C 1210.646 670.3853 1208.5127 673.2081 1206.6875 676.375 C 1206.2054 677.24998 1205.7796 678.14521 1205.4062 679.0625 C 1205.3975 679.0753 1205.3837 679.08076 1205.375 679.09375 C 1204.1269 680.72565 1202.9325 682.29295 1201.7812 683.78125 C 1200.6299 685.26955 1198.959 686.83695 1196.75 688.46875 C 1195.9824 689.13965 1195.0547 689.76665 1194 690.34375 C 1194.8643 687.94435 1195.2387 685.689 1195.0938 683.625 C 1194.9488 681.561 1194.5898 679.6519 1194.0625 677.875 C 1193.5351 676.0982 1193.0273 674.45715 1192.5 672.96875 C 1191.9727 671.48055 1191.8095 670.18265 1192 669.03125 C 1192.1933 666.72855 1192.9975 664.83215 1194.4375 663.34375 C 1195.8774 661.85555 1197.2832 660.13775 1198.625 658.21875 C 1199.2988 657.25785 1199.3867 656.31885 1198.9062 655.40625 C 1198.4258 654.49375 1197.6499 653.7916 1196.5938 653.3125 C 1195.5376 652.8335 1194.373 652.6407 1193.125 652.6875 C 1191.877 652.7344 1190.8925 653.13875 1190.125 653.90625 C 1189.6445 654.38675 1188.8828 655.252 1187.875 656.5 C 1186.8671 657.7481 1185.687 659.1949 1184.3438 660.875 C 1183.0005 662.5552 1181.5678 664.34665 1180.0312 666.21875 C 1178.4947 668.09085 1177.0478 669.86535 1175.6562 671.59375 C 1174.2647 673.32235 1173.0249 674.87555 1171.9688 676.21875 C 1171.1542 677.25465 1170.6596 677.85725 1170.1875 678.4375 C 1169.9722 678.62512 1169.7688 678.83034 1169.5938 679.09375 C 1168.249 680.72565 1166.9965 682.29295 1165.8438 683.78125 C 1164.6908 685.26955 1163.0498 686.83695 1160.9375 688.46875 C 1158.6347 690.19725 1156.4842 691.542 1154.4688 692.5 C 1154.9492 691.9258 1155.4414 691.2974 1155.9688 690.625 C 1156.496 689.9526 1157.0195 689.23635 1157.5 688.46875 C 1159.3251 685.68555 1160.6967 682.85015 1161.6562 679.96875 C 1162.6156 677.08745 1163.1533 674.3413 1163.25 671.75 C 1163.3467 669.1587 1162.9735 666.85935 1162.1562 664.84375 C 1161.3388 662.82815 1160.0693 661.24515 1158.3438 660.09375 C 1156.4218 658.84575 1154.2602 658.3237 1151.8125 658.5625 C 1149.3647 658.8013 1146.8427 659.65245 1144.25 661.09375 L 1147.2812 654.1875 C 1147.7588 653.0362 1147.6255 652.0801 1146.9062 651.3125 C 1146.187 650.545 1145.231 650.00735 1144.0312 649.71875 C 1142.8316 649.43025 1141.5918 649.43025 1140.3438 649.71875 C 1139.0956 650.00735 1138.2899 650.5763 1137.9062 651.4375 C 1137.2323 652.9757 1136.0693 655.4962 1134.4375 659 C 1132.8056 662.504 1130.9702 666.51955 1128.9062 671.03125 C 1127.7786 673.49611 1126.5118 676.20422 1125.3125 678.8125 C 1125.236 678.90551 1125.1639 678.98868 1125.0938 679.09375 C 1123.8457 680.72565 1122.7407 682.0547 1121.7812 683.0625 C 1120.8218 684.0703 1119.538 685.42775 1117.9062 687.15625 C 1117.0419 688.02055 1116.0562 688.8857 1115 689.75 C 1113.9439 690.6142 1112.8999 691.3916 1111.8438 692.0625 C 1110.7876 692.7334 1109.8174 693.1973 1108.9062 693.4375 C 1107.995 693.6777 1107.2929 693.543 1106.8125 693.0625 C 1106.332 692.6788 1106.1973 691.97665 1106.4375 690.96875 C 1106.6777 689.96095 1107.126 688.7525 1107.75 687.3125 C 1108.374 685.8726 1109.1797 684.2911 1110.1875 682.5625 C 1111.1954 680.834 1112.2266 679.01275 1113.2812 677.09375 C 1114.3389 675.17485 1115.5317 672.97905 1116.875 670.53125 C 1118.2183 668.08355 1119.4424 665.9502 1120.5 664.125 C 1121.2676 662.877 1121.3568 661.7876 1120.7812 660.875 C 1120.2055 659.9624 1119.3545 659.3213 1118.25 658.9375 C 1117.1455 658.5538 1115.9384 658.5538 1114.5938 658.9375 C 1113.2489 659.3213 1112.1426 660.18655 1111.2812 661.53125 C 1110.6074 662.58885 1109.8174 663.87115 1108.9062 665.40625 C 1107.995 666.94145 1107.0093 668.584 1106 670.3125 C 1104.9908 672.041 1104.022 673.7872 1103.0625 675.5625 C 1102.5 676.60326 1101.9672 677.57402 1101.4375 678.5 C 1101.2475 678.67556 1101.0636 678.85693 1100.9062 679.09375 C 1099.5614 680.72565 1097.9047 682.62065 1095.9375 684.78125 C 1093.9702 686.94195 1091.9561 688.83685 1089.8438 690.46875 C 1087.2509 692.38765 1085.0863 693.32955 1083.4062 693.28125 C 1081.726 693.23285 1080.5034 692.60595 1079.6875 691.40625 C 1078.8716 690.20655 1078.4829 688.63925 1078.5312 686.71875 C 1078.5795 684.79835 1078.9824 682.9473 1079.75 681.125 C 1082.6299 678.8194 1085.5547 676.40235 1088.5312 673.90625 C 1091.0274 671.79395 1093.6997 669.4961 1096.5312 667 C 1099.3628 664.5039 1102.0352 662.1153 1104.5312 659.8125 C 1108.1787 656.3556 1111.1333 653.13145 1113.4375 650.15625 C 1115.7417 647.18125 1117.4736 644.47905 1118.625 642.03125 C 1119.7764 639.58355 1120.4175 637.37505 1120.5625 635.40625 C 1120.7075 633.43755 1120.4551 631.6602 1119.7812 630.125 C 1119.0136 628.2998 1118.0575 627.27155 1116.9062 627.03125 C 1115.7549 626.79105 1114.0244 627.25205 1111.7188 628.40625 C 1108.6484 629.84475 1105.3193 632.1158 1101.7188 635.1875 C 1098.1182 638.2593 1094.5053 641.8862 1090.9062 646.0625 C 1087.3071 650.2388 1083.8292 654.89555 1080.4688 660.03125 C 1077.1084 665.16695 1074.1241 670.6153 1071.5312 676.375 C 1071.1614 677.16136 1070.8253 677.95002 1070.5 678.78125 C 1070.414 678.88408 1070.3289 678.97569 1070.25 679.09375 C 1069.5791 679.95805 1068.7719 680.89845 1067.8125 681.90625 C 1066.853 682.91415 1065.809 683.9438 1064.6562 685 C 1063.5034 686.0561 1062.2793 687.07185 1061.0312 688.03125 C 1059.7831 688.99075 1058.5888 689.79485 1057.4375 690.46875 C 1054.4609 692.29095 1051.7744 693.2939 1049.375 693.4375 C 1046.9756 693.5811 1045.0649 693.07175 1043.625 691.96875 C 1042.185 690.86575 1041.334 689.3281 1041.0938 687.3125 C 1040.8535 685.2969 1041.4678 682.99905 1042.9062 680.40625 C 1044.0605 678.39065 1045.313 676.50975 1046.6562 674.78125 C 1047.9995 673.05275 1049.3428 671.5465 1050.6875 670.25 C 1052.0322 668.9537 1053.3144 667.93805 1054.5625 667.21875 C 1055.8105 666.49955 1056.9169 666.125 1057.875 666.125 C 1058.8359 666.125 1059.253 666.4385 1059.1562 667.0625 C 1059.0595 667.6865 1058.7021 668.4639 1058.0312 669.375 C 1057.3603 670.2862 1056.5234 671.2266 1055.5625 672.1875 C 1054.6016 673.1485 1053.7958 673.9541 1053.125 674.625 C 1052.454 675.2022 1052.2441 675.91705 1052.5312 676.78125 C 1052.8184 677.64555 1053.3574 678.40875 1054.125 679.03125 C 1054.8926 679.65385 1055.833 679.99705 1056.9375 680.09375 C 1058.042 680.19045 1059.1298 679.8018 1060.1875 678.9375 C 1061.3388 677.9766 1062.6226 676.61915 1064.0625 674.84375 C 1065.5025 673.06845 1066.6074 671.18605 1067.375 669.21875 C 1068.1426 667.25145 1068.3964 665.416 1068.1562 663.6875 C 1067.9161 661.959 1066.7373 660.6768 1064.625 659.8125 C 1062.3223 658.9483 1059.8301 658.71005 1057.0938 659.09375 C 1054.3574 659.47765 1051.6708 660.43225 1049.0312 661.96875 C 1046.3916 663.50545 1043.8227 665.4898 1041.375 667.9375 C 1038.9272 670.3853 1036.7939 673.2081 1034.9688 676.375 C 1034.4619 677.27706 1034.016 678.21844 1033.625 679.21875 C 1032.9425 680.07242 1031.8672 681.22484 1030.3125 682.6875 C 1028.6806 684.2227 1026.7998 685.7759 1024.6875 687.3125 C 1022.5752 688.8491 1020.3666 690.22075 1018.0625 691.46875 C 1015.7583 692.71685 1013.6377 693.4033 1011.7188 693.5 C 1009.1259 693.6904 1006.665 693.45365 1004.3125 692.78125 C 1001.9599 692.10885 999.91453 691.01815 998.1875 689.53125 C 996.46043 688.04445 995.16259 686.13385 994.25 683.78125 C 993.3374 681.42875 993.02538 678.667 993.3125 675.5 C 993.60253 672.5235 994.4663 669.94195 995.90625 667.78125 C 997.34618 665.62065 999.04689 663.9355 1001.0625 662.6875 C 1003.0781 661.4394 1005.2441 660.60255 1007.5 660.21875 C 1009.7558 659.83505 1011.831 659.8946 1013.75 660.375 C 1014.8075 660.5684 1015.6573 660.14995 1016.2812 659.09375 C 1016.9053 658.03765 1016.6826 656.81355 1015.625 655.46875 C 1014.2832 653.93365 1013.3271 651.9634 1012.75 649.5625 C 1012.1728 647.1616 1012.038 644.5958 1012.375 641.8125 C 1012.7118 639.0294 1013.6366 636.0576 1015.125 632.9375 C 1016.6132 629.8174 1018.748 626.72955 1021.5312 623.65625 C 1024.5078 620.29595 1027.4467 617.60945 1030.375 615.59375 C 1033.3031 613.57815 1036.0791 612.14565 1038.7188 611.28125 C 1041.3584 610.41715 1043.8066 610.0284 1046.0625 610.125 C 1048.3183 610.2217 1050.2744 610.7296 1051.9062 611.6875 C 1053.538 612.6485 1054.3295 614.1862 1054.2812 616.25 C 1054.2328 618.3141 1053.5918 620.62605 1052.3438 623.21875 C 1051.0956 625.81155 1049.4389 628.5733 1047.375 631.5 C 1045.311 634.4268 1043.101 637.18855 1040.75 639.78125 C 1038.3988 642.37415 1036.0854 644.71725 1033.7812 646.78125 C 1031.4769 648.84525 1029.4471 650.29205 1027.7188 651.15625 C 1026.9511 651.54005 1026.5625 652.16705 1026.5625 653.03125 C 1026.5625 653.89555 1026.8618 654.70125 1027.4375 655.46875 C 1028.0132 656.23635 1028.8188 656.86335 1029.875 657.34375 C 1030.9311 657.82425 1032.0956 657.82425 1033.3438 657.34375 C 1035.3593 656.57625 1037.7622 654.96485 1040.5938 652.46875 C 1043.4253 649.97265 1046.2762 647.00245 1049.1562 643.59375 C 1052.036 640.18515 1054.6928 636.54405 1057.0938 632.65625 C 1059.4945 628.76865 1061.2548 624.99125 1062.4062 621.34375 C 1063.5575 617.69635 1063.871 614.4283 1063.3438 611.5 C 1062.8163 608.5718 1061.0702 606.379 1058.0938 604.9375 C 1054.9267 603.4025 1051.5097 602.4606 1047.8125 602.125 C 1046.8882 602.04118 1045.9392 601.99687 1045 602 z M 1366.6875 602.3125 C 1366.1118 602.3125 1365.4912 602.3948 1364.8438 602.5625 C 1363.5487 602.898 1362.4891 603.6896 1361.625 604.9375 L 1361.3125 605.21875 C 1356.2236 604.45125 1350.747 604.43715 1344.8438 605.15625 C 1338.9405 605.87565 1333.0439 607.47275 1327.1875 609.96875 C 1321.1406 612.56165 1315.8867 615.72475 1311.375 619.46875 C 1306.8633 623.21295 1303.2505 627.1988 1300.5625 631.375 C 1297.8745 635.5514 1296.1284 639.6988 1295.3125 643.875 C 1294.4966 648.0514 1294.752 651.8301 1296.0938 655.1875 C 1297.3418 658.6445 1299.2226 661.40475 1301.7188 663.46875 C 1304.2148 665.53275 1307.0645 666.876 1310.2812 667.5 C 1313.498 668.124 1317.0356 668.03475 1320.875 667.21875 C 1324.7143 666.40285 1328.5937 664.83405 1332.5312 662.53125 C 1331.1864 665.21785 1329.9185 667.8023 1328.7188 670.25 C 1327.5191 672.6978 1326.2508 675.00975 1324.9062 677.21875 C 1322.3133 674.81935 1319.5064 672.8193 1316.5312 671.1875 C 1313.5562 669.5557 1310.2441 668.4805 1306.5938 668 C 1305.1553 667.8067 1303.3042 667.7925 1301 667.9375 C 1298.6958 668.0826 1296.4121 668.7095 1294.1562 669.8125 C 1291.9003 670.9155 1289.8706 672.58795 1288.0938 674.84375 C 1286.3169 677.09965 1285.2871 680.3096 1285 684.4375 C 1284.8096 686.9336 1285.1825 689.24565 1286.0938 691.40625 C 1287.0049 693.56695 1288.3482 695.44775 1290.125 697.03125 C 1291.9019 698.61475 1294.021 699.86865 1296.4688 700.78125 C 1298.9165 701.69385 1301.5576 702.125 1304.4375 702.125 C 1308.4687 702.125 1312.185 701.22995 1315.5938 699.40625 C 1319.0024 697.58245 1322.2138 695.04785 1325.1875 691.78125 C 1326.5322 693.79975 1328.1137 695.55865 1329.9375 697.09375 C 1331.7612 698.62895 1334.0575 699.8233 1336.8438 700.6875 C 1341.4491 702.2227 1346.0477 702.2227 1350.6562 700.6875 C 1355.2645 699.1524 1359.727 696.6148 1364 693.0625 C 1368.2729 689.5103 1372.2133 685.228 1375.8125 680.1875 C 1379.4115 675.147 1382.4413 669.87605 1384.9375 664.40625 C 1387.7206 658.25985 1389.6015 652.42585 1390.5625 646.90625 C 1391.5234 641.38675 1391.6127 636.2661 1390.8438 631.5625 C 1390.0746 626.8589 1388.432 622.7256 1385.9375 619.125 C 1383.4427 615.5245 1380.1903 612.61235 1376.1562 610.40625 C 1375.1014 609.92585 1374.0702 609.46345 1373.0625 609.03125 C 1372.0546 608.59925 1370.9668 608.1964 1369.8125 607.8125 C 1370.583 606.5646 1370.7914 605.461 1370.4062 604.5 C 1370.021 603.5391 1369.3203 602.898 1368.3125 602.5625 C 1367.8085 602.3948 1367.2632 602.3125 1366.6875 602.3125 z M 1353.1562 612.96875 C 1354.2391 612.94448 1355.2734 612.9524 1356.2812 613 C 1353.4979 617.6085 1350.8711 622.5177 1348.375 627.75 C 1345.8789 632.9825 1343.4306 638.3116 1341.0312 643.6875 C 1339.3026 646.3741 1337.1083 648.7769 1334.4688 650.9375 C 1331.8291 653.0982 1329.0532 654.8428 1326.125 656.1875 C 1323.1968 657.5323 1320.3471 658.4444 1317.5625 658.875 C 1314.7778 659.3057 1312.3452 659.09725 1310.2812 658.28125 C 1308.2173 657.46535 1306.7236 655.9434 1305.8125 653.6875 C 1304.9013 651.4316 1304.9452 648.2813 1305.9062 644.25 C 1307.2481 638.2969 1309.8764 633.2672 1313.8125 629.1875 C 1317.7485 625.108 1322.1811 621.83995 1327.125 619.34375 C 1332.0688 616.84775 1337.1737 615.11585 1342.4062 614.15625 C 1346.3305 613.43678 1349.9076 613.04156 1353.1562 612.96875 z M 1365.2188 615.15625 C 1366.1795 615.44345 1367.1341 615.77255 1368.0938 616.15625 C 1369.0531 616.54015 1369.9198 616.98835 1370.6875 617.46875 C 1376.7343 621.59675 1380.1825 627.43225 1381 634.96875 C 1381.8172 642.50545 1379.6513 651.4161 1374.5625 661.6875 C 1372.0663 666.8702 1369.3515 671.4971 1366.375 675.625 C 1363.3984 679.753 1360.3984 683.2012 1357.375 685.9375 C 1354.3515 688.6739 1351.3515 690.62835 1348.375 691.78125 C 1345.3984 692.93405 1342.621 693.0518 1340.0312 692.1875 C 1337.8222 691.5137 1336.0918 690.3819 1334.8438 688.75 C 1333.5956 687.1182 1332.4326 685.47565 1331.375 683.84375 C 1334.4482 679.14165 1337.3573 673.91755 1340.0938 668.15625 C 1342.83 662.39515 1345.5307 656.42485 1348.2188 650.28125 C 1350.9066 644.13775 1353.6386 638.0484 1356.375 632 C 1359.1113 625.9518 1362.0516 620.33895 1365.2188 615.15625 z M 1111.4375 636.90625 C 1111.6279 637.48055 1111.4648 638.3331 1110.9375 639.4375 C 1110.4102 640.542 1109.6186 641.76475 1108.5625 643.15625 C 1107.5063 644.54795 1106.2665 646.08545 1104.875 647.71875 C 1103.4833 649.35205 1102.0351 650.93365 1100.5 652.46875 C 1096.9463 656.21295 1092.7988 660.2442 1088.0938 664.5625 C 1089.6318 661.5889 1091.541 658.51375 1093.8438 655.34375 C 1095.7656 652.65725 1098.1826 649.67145 1101.0625 646.40625 C 1103.9424 643.14115 1107.4062 639.97665 1111.4375 636.90625 z M 1126.9062 641.15625 C 1126.2822 641.12 1125.6091 641.16115 1124.9375 641.28125 C 1123.5942 641.52155 1122.5489 642.2237 1121.7812 643.375 C 1121.3008 644.1455 1120.7632 644.99525 1120.1875 645.90625 C 1119.6118 646.81745 1119.1962 647.5479 1118.9062 648.125 C 1118.0419 649.4697 1117.7568 650.545 1118.0938 651.3125 C 1118.4307 652.0801 1119.0575 652.5582 1119.9688 652.75 C 1120.8799 652.942 1122.0302 652.88235 1123.375 652.59375 C 1124.7197 652.30525 1126.0019 651.79885 1127.25 651.03125 C 1127.7305 650.64745 1128.3574 650.04885 1129.125 649.28125 C 1129.8925 648.51375 1130.5195 647.7676 1131 647 C 1131.7675 645.6553 1131.8568 644.49075 1131.2812 643.53125 C 1130.7055 642.57185 1129.8403 641.8853 1128.6875 641.5 C 1128.1111 641.3074 1127.5303 641.1925 1126.9062 641.15625 z M 1229.5938 666.125 C 1231.5127 666.125 1232.2588 667.11235 1231.875 669.03125 C 1231.4912 670.95015 1230.1465 673.00975 1227.8438 675.21875 C 1225.7314 677.23435 1223.5087 678.65285 1221.1562 679.46875 C 1218.8036 680.28465 1216.5811 680.62505 1214.4688 680.53125 L 1214.5938 680.40625 C 1215.7451 678.39065 1216.9989 676.50975 1218.3438 674.78125 C 1219.6884 673.05275 1221.0318 671.5465 1222.375 670.25 C 1223.7183 668.9537 1225.0331 667.93805 1226.2812 667.21875 C 1227.5293 666.49955 1228.6327 666.125 1229.5938 666.125 z M 1151.7812 666.1875 C 1152.6009 666.16965 1153.2993 666.35845 1153.875 666.71875 C 1154.5458 667.19925 1154.9955 668.00495 1155.1875 669.15625 C 1155.3793 670.30765 1155.3184 671.6665 1155.0312 673.25 C 1154.7441 674.8335 1154.2378 676.5655 1153.4688 678.4375 C 1152.6997 680.3096 1151.6855 682.1749 1150.4375 684 C 1149.0956 685.8252 1147.6899 687.4351 1146.25 688.875 C 1144.81 690.315 1143.393 691.46535 1142 692.28125 C 1140.6069 693.09725 1139.2495 693.57525 1137.9062 693.71875 C 1136.563 693.86235 1135.3984 693.6084 1134.4375 692.9375 C 1133.6699 692.4571 1133.2529 691.63575 1133.1562 690.53125 C 1133.0596 689.42675 1133.1631 688.12895 1133.5 686.59375 C 1133.8369 685.05865 1134.4482 683.35645 1135.3125 681.53125 C 1136.1767 679.70605 1137.2207 677.8564 1138.4688 675.9375 C 1139.7169 674.1123 1141.1211 672.48535 1142.6562 671.09375 C 1144.1915 669.70215 1145.6397 668.59715 1147.0312 667.78125 C 1148.4228 666.96535 1149.7363 666.47315 1150.9375 666.28125 C 1151.2378 666.23328 1151.508 666.19345 1151.7812 666.1875 z M 1264.1875 674.3125 C 1262.9519 674.32424 1261.7764 674.4048 1260.625 674.5 C 1259.2803 674.5967 1258.0278 675.0732 1256.875 675.9375 C 1255.7222 676.8017 1254.8712 677.7564 1254.3438 678.8125 C 1253.8165 679.8687 1253.7114 680.8091 1254 681.625 C 1254.2886 682.4409 1255.2432 682.84375 1256.875 682.84375 L 1261.6875 682.84375 L 1264.2188 682.84375 L 1266.9375 682.84375 C 1267.9936 682.84375 1269.8447 682.7842 1272.4375 682.6875 C 1273.6855 682.6876 1274.8202 682.2252 1275.875 681.3125 C 1276.9296 680.4 1277.707 679.4454 1278.1875 678.4375 C 1278.6679 677.4297 1278.7574 676.53475 1278.4688 675.71875 C 1278.1801 674.90285 1277.3134 674.5 1275.875 674.5 C 1273.2822 674.5967 1270.6708 674.54985 1268.0312 674.40625 C 1266.7115 674.3345 1265.4231 674.30076 1264.1875 674.3125 z M 1182.1875 676.375 C 1182.7617 677.7198 1183.2398 679.25585 1183.625 681.03125 C 1184.0103 682.80665 1184.2188 684.55275 1184.2188 686.28125 C 1184.2188 688.00975 1183.935 689.6367 1183.4062 691.125 C 1182.8774 692.6133 1182.0575 693.7324 1180.9062 694.5 C 1179.7549 695.1709 1178.6356 695.3355 1177.5312 695 C 1176.4267 694.6646 1175.441 694.08295 1174.625 693.21875 C 1173.8091 692.35445 1173.2574 691.3389 1172.9688 690.1875 C 1172.6802 689.0362 1172.8291 688.02055 1173.4062 687.15625 C 1173.8867 686.29195 1174.813 685.0835 1176.1562 683.5 C 1177.4995 681.9165 1179.4981 679.545 1182.1875 676.375 z M 1304.125 677.125 C 1304.8242 677.09497 1305.5442 677.1228 1306.3125 677.21875 C 1309.3828 677.69915 1312.041 678.65385 1314.25 680.09375 C 1316.459 681.53365 1318.3085 683.08695 1319.8438 684.71875 C 1317.6347 687.50205 1315.3369 689.6665 1312.9375 691.25 C 1310.5381 692.8335 1308.002 693.625 1305.3125 693.625 C 1301.3779 693.625 1298.6303 692.71435 1297.0938 690.84375 C 1295.5571 688.97315 1294.9756 686.94195 1295.3125 684.78125 C 1295.6494 682.62065 1296.7827 680.72565 1298.75 679.09375 C 1300.2254 677.8699 1302.0274 677.21507 1304.125 677.125 z "
       transform="translate(0,-1927.5603)"
       id="path2989" />
  </g>
</svg>
