  0
SECTION
  2
HEADER
  9
$ACADVER
  1
AC1014
  9
$HANDSEED
  5
FFFF
  9
$MEASUREMENT
 70
     1
  0
ENDSEC
  0
SECTION
  2
TABLES
  0
TABLE
  2
VPORT
  5
8
330
0
100
AcDbSymbolTable
 70
     4
  0
VPORT
  5
2E
330
8
100
AcDbSymbolTableRecord
100
AcDbViewportTableRecord
  2
*ACTIVE
 70
     0
 10
0.0
 20
0.0
 11
1.0
 21
1.0
 12
210.0
 22
148.5
 13
0.0
 23
0.0
 14
10.0
 24
10.0
 15
10.0
 25
10.0
 16
0.0
 26
0.0
 36
1.0
 17
0.0
 27
0.0
 37
0.0
 40
341.0
 41
1.24
 42
50.0
 43
0.0
 44
0.0
 50
0.0
 51
0.0
 71
     0
 72
   100
 73
     1
 74
     3
 75
     0
 76
     0
 77
     0
 78
     0
  0
ENDTAB
  0
TABLE
  2
LTYPE
  5
5
330
0
100
AcDbSymbolTable
 70
     1
  0
LTYPE
  5
14
330
5
100
AcDbSymbolTableRecord
100
AcDbLinetypeTableRecord
  2
BYBLOCK
 70
     0
  3

 72
    65
 73
     0
 40
0.0
  0
LTYPE
  5
15
330
5
100
AcDbSymbolTableRecord
100
AcDbLinetypeTableRecord
  2
BYLAYER
 70
     0
  3

 72
    65
 73
     0
 40
0.0
  0
LTYPE
  5
16
330
5
100
AcDbSymbolTableRecord
100
AcDbLinetypeTableRecord
  2
CONTINUOUS
 70
     0
  3
Solid line
 72
    65
 73
     0
 40
0.0
  0
ENDTAB
  0
TABLE
  2
LAYER
  5
2
100
AcDbSymbolTable
 70
2
  0
LAYER
  5
50
100
AcDbSymbolTableRecord
100
AcDbLayerTableRecord
  2
0
 70
0
  6
CONTINUOUS
  0
LAYER
  5
51
100
AcDbSymbolTableRecord
100
AcDbLayerTableRecord
  2
Layer_1
 70
0
  6
CONTINUOUS
  0
ENDTAB
  0
TABLE
  2
STYLE
  5
3
330
0
100
AcDbSymbolTable
 70
     1
  0
STYLE
  5
11
330
3
100
AcDbSymbolTableRecord
100
AcDbTextStyleTableRecord
  2
STANDARD
 70
     0
 40
0.0
 41
1.0
 50
0.0
 71
     0
 42
2.5
  3
txt
  4

  0
ENDTAB
  0
TABLE
  2
VIEW
  5
6
330
0
100
AcDbSymbolTable
 70
     0
  0
ENDTAB
  0
TABLE
  2
UCS
  5
7
330
0
100
AcDbSymbolTable
 70
     0
  0
ENDTAB
  0
TABLE
  2
APPID
  5
9
330
0
100
AcDbSymbolTable
 70
     2
  0
APPID
  5
12
330
9
100
AcDbSymbolTableRecord
100
AcDbRegAppTableRecord
  2
ACAD
 70
     0
  0
ENDTAB
  0
TABLE
  2
DIMSTYLE
  5
A
330
0
100
AcDbSymbolTable
 70
     1
  0
DIMSTYLE
105
27
330
A
100
AcDbSymbolTableRecord
100
AcDbDimStyleTableRecord
  2
ISO-25
 70
     0
  3

  4

  5

  6

  7

 40
1.0
 41
2.5
 42
0.625
 43
3.75
 44
1.25
 45
0.0
 46
0.0
 47
0.0
 48
0.0
140
2.5
141
2.5
142
0.0
143
0.03937007874016
144
1.0
145
0.0
146
1.0
147
0.625
 71
     0
 72
     0
 73
     0
 74
     0
 75
     0
 76
     0
 77
     1
 78
     8
170
     0
171
     3
172
     1
173
     0
174
     0
175
     0
176
     0
177
     0
178
     0
270
     2
271
     2
272
     2
273
     2
274
     3
340
11
275
     0
280
     0
281
     0
282
     0
283
     0
284
     8
285
     0
286
     0
287
     3
288
     0
  0
ENDTAB
  0
TABLE
  2
BLOCK_RECORD
  5
1
330
0
100
AcDbSymbolTable
 70
     1
  0
BLOCK_RECORD
  5
1F
330
1
100
AcDbSymbolTableRecord
100
AcDbBlockTableRecord
  2
*MODEL_SPACE
  0
BLOCK_RECORD
  5
1B
330
1
100
AcDbSymbolTableRecord
100
AcDbBlockTableRecord
  2
*PAPER_SPACE
  0
ENDTAB
  0
ENDSEC
  0
SECTION
  2
BLOCKS
  0
BLOCK
  5
20
330
1F
100
AcDbEntity
  8
0
100
AcDbBlockBegin
  2
*MODEL_SPACE
 70
     0
 10
0.0
 20
0.0
 30
0.0
  3
*MODEL_SPACE
  1

  0
ENDBLK
  5
21
330
1F
100
AcDbEntity
  8
0
100
AcDbBlockEnd
  0
BLOCK
  5
1C
330
1B
100
AcDbEntity
 67
     1
  8
0
100
AcDbBlockBegin
  2
*PAPER_SPACE
  1

  0
ENDBLK
  5
1D
330
1B
100
AcDbEntity
 67
     1
  8
0
100
AcDbBlockEnd
  0
ENDSEC
  0
SECTION
  2
ENTITIES
  0
SPLINE
  5
100
100
AcDbEntity
  8
Layer_1
 62
7
100
AcDbSpline
 70
8
 71
3
 72
8
 73
4
 74
0
 40
0
 40
0
 40
0
 40
0
 40
1
 40
1
 40
1
 40
1
 10
294.922222
 20
671.102177
 30
0.0
 10
294.127061
 20
671.099530
 30
0.0
 10
293.312032
 20
670.981761
 30
0.0
 10
292.479250
 20
670.758219
 30
0.0
  0
SPLINE
  5
101
100
AcDbEntity
  8
Layer_1
 62
7
100
AcDbSpline
 70
8
 71
3
 72
8
 73
4
 74
0
 40
0
 40
0
 40
0
 40
0
 40
1
 40
1
 40
1
 40
1
 10
292.479250
 20
670.758219
 30
0.0
 10
291.368790
 20
670.460136
 30
0.0
 10
290.231491
 20
669.946138
 30
0.0
 10
289.066111
 20
669.214816
 30
0.0
  0
SPLINE
  5
102
100
AcDbEntity
  8
Layer_1
 62
7
100
AcDbSpline
 70
8
 71
3
 72
8
 73
4
 74
0
 40
0
 40
0
 40
0
 40
0
 40
1
 40
1
 40
1
 40
1
 10
289.066111
 20
669.214816
 30
0.0
 10
287.900674
 20
668.483465
 30
0.0
 10
286.763404
 20
667.506299
 30
0.0
 10
285.652972
 20
666.286760
 30
0.0
  0
SPLINE
  5
103
100
AcDbEntity
  8
Layer_1
 62
7
100
AcDbSpline
 70
8
 71
3
 72
8
 73
4
 74
0
 40
0
 40
0
 40
0
 40
0
 40
1
 40
1
 40
1
 40
1
 10
285.652972
 20
666.286760
 30
0.0
 10
284.433405
 20
664.932376
 30
0.0
 10
283.633192
 20
663.698232
 30
0.0
 10
283.254083
 20
662.573774
 30
0.0
  0
SPLINE
  5
104
100
AcDbEntity
  8
Layer_1
 62
7
100
AcDbSpline
 70
8
 71
3
 72
8
 73
4
 74
0
 40
0
 40
0
 40
0
 40
0
 40
1
 40
1
 40
1
 40
1
 10
283.254083
 20
662.573774
 30
0.0
 10
282.875002
 20
661.449288
 30
0.0
 10
282.706459
 20
660.468114
 30
0.0
 10
282.733750
 20
659.628080
 30
0.0
  0
SPLINE
  5
105
100
AcDbEntity
  8
Layer_1
 62
7
100
AcDbSpline
 70
8
 71
3
 72
8
 73
4
 74
0
 40
0
 40
0
 40
0
 40
0
 40
1
 40
1
 40
1
 40
1
 10
282.733750
 20
659.628080
 30
0.0
 10
282.760222
 20
658.653256
 30
0.0
 10
283.004373
 20
657.759712
 30
0.0
 10
283.465750
 20
656.946969
 30
0.0
  0
SPLINE
  5
106
100
AcDbEntity
  8
Layer_1
 62
7
100
AcDbSpline
 70
8
 71
3
 72
8
 73
4
 74
0
 40
0
 40
0
 40
0
 40
0
 40
1
 40
1
 40
1
 40
1
 10
283.465750
 20
656.946969
 30
0.0
 10
282.354528
 20
656.703044
 30
0.0
 10
281.360945
 20
656.289913
 30
0.0
 10
280.493611
 20
655.721066
 30
0.0
  0
SPLINE
  5
107
100
AcDbEntity
  8
Layer_1
 62
7
100
AcDbSpline
 70
8
 71
3
 72
8
 73
4
 74
0
 40
0
 40
0
 40
0
 40
0
 40
1
 40
1
 40
1
 40
1
 10
280.493611
 20
655.721066
 30
0.0
 10
279.735413
 20
655.233245
 30
0.0
 10
279.048461
 20
654.538682
 30
0.0
 10
278.438681
 20
653.630858
 30
0.0
  0
SPLINE
  5
108
100
AcDbEntity
  8
Layer_1
 62
7
100
AcDbSpline
 70
8
 71
3
 72
8
 73
4
 74
0
 40
0
 40
0
 40
0
 40
0
 40
1
 40
1
 40
1
 40
1
 10
278.438681
 20
653.630858
 30
0.0
 10
277.828900
 20
652.722977
 30
0.0
 10
277.512639
 20
651.514473
 30
0.0
 10
277.486181
 20
649.997247
 30
0.0
  0
SPLINE
  5
109
100
AcDbEntity
  8
Layer_1
 62
7
100
AcDbSpline
 70
8
 71
3
 72
8
 73
4
 74
0
 40
0
 40
0
 40
0
 40
0
 40
1
 40
1
 40
1
 40
1
 10
277.486181
 20
649.997247
 30
0.0
 10
277.458895
 20
648.723945
 30
0.0
 10
277.640246
 20
647.615855
 30
0.0
 10
278.032986
 20
646.681135
 30
0.0
  0
SPLINE
  5
10a
100
AcDbEntity
  8
Layer_1
 62
7
100
AcDbSpline
 70
8
 71
3
 72
8
 73
4
 74
0
 40
0
 40
0
 40
0
 40
0
 40
1
 40
1
 40
1
 40
1
 10
278.032986
 20
646.681135
 30
0.0
 10
278.425727
 20
645.746415
 30
0.0
 10
278.973771
 20
644.983823
 30
0.0
 10
279.664583
 20
644.388080
 30
0.0
  0
SPLINE
  5
10b
100
AcDbEntity
  8
Layer_1
 62
7
100
AcDbSpline
 70
8
 71
3
 72
8
 73
4
 74
0
 40
0
 40
0
 40
0
 40
0
 40
1
 40
1
 40
1
 40
1
 10
279.664583
 20
644.388080
 30
0.0
 10
280.355390
 20
643.792365
 30
0.0
 10
281.184833
 20
643.366816
 30
0.0
 10
282.160486
 20
643.109260
 30
0.0
  0
SPLINE
  5
10c
100
AcDbEntity
  8
Layer_1
 62
7
100
AcDbSpline
 70
8
 71
3
 72
8
 73
4
 74
0
 40
0
 40
0
 40
0
 40
0
 40
1
 40
1
 40
1
 40
1
 10
282.160486
 20
643.109260
 30
0.0
 10
283.136142
 20
642.851704
 30
0.0
 10
284.188944
 20
642.746845
 30
0.0
 10
285.326667
 20
642.800580
 30
0.0
  0
SPLINE
  5
10d
100
AcDbEntity
  8
Layer_1
 62
7
100
AcDbSpline
 70
8
 71
3
 72
8
 73
4
 74
0
 40
0
 40
0
 40
0
 40
0
 40
1
 40
1
 40
1
 40
1
 10
285.326667
 20
642.800580
 30
0.0
 10
285.976540
 20
642.855162
 30
0.0
 10
286.680317
 20
643.006447
 30
0.0
 10
287.425694
 20
643.250372
 30
0.0
  0
SPLINE
  5
10e
100
AcDbEntity
  8
Layer_1
 62
7
100
AcDbSpline
 70
8
 71
3
 72
8
 73
4
 74
0
 40
0
 40
0
 40
0
 40
0
 40
1
 40
1
 40
1
 40
1
 10
287.425694
 20
643.250372
 30
0.0
 10
288.171072
 20
643.494268
 30
0.0
 10
288.916449
 20
643.915414
 30
0.0
 10
289.674639
 20
644.511552
 30
0.0
  0
SPLINE
  5
10f
100
AcDbEntity
  8
Layer_1
 62
7
100
AcDbSpline
 70
8
 71
3
 72
8
 73
4
 74
0
 40
0
 40
0
 40
0
 40
0
 40
1
 40
1
 40
1
 40
1
 10
289.674639
 20
644.511552
 30
0.0
 10
290.081462
 20
644.809212
 30
0.0
 10
290.481343
 20
645.129449
 30
0.0
 10
290.874083
 20
645.481691
 30
0.0
  0
SPLINE
  5
110
100
AcDbEntity
  8
Layer_1
 62
7
100
AcDbSpline
 70
8
 71
3
 72
8
 73
4
 74
0
 40
0
 40
0
 40
0
 40
0
 40
1
 40
1
 40
1
 40
1
 10
290.874083
 20
645.481691
 30
0.0
 10
291.008110
 20
645.601884
 30
0.0
 10
291.141658
 20
645.723090
 30
0.0
 10
291.270972
 20
645.843288
 30
0.0
  0
SPLINE
  5
111
100
AcDbEntity
  8
Layer_1
 62
7
100
AcDbSpline
 70
8
 71
3
 72
8
 73
4
 74
0
 40
0
 40
0
 40
0
 40
0
 40
1
 40
1
 40
1
 40
1
 10
291.270972
 20
645.843288
 30
0.0
 10
291.289486
 20
645.730930
 30
0.0
 10
291.315733
 20
645.619915
 30
0.0
 10
291.341528
 20
645.508149
 30
0.0
  0
SPLINE
  5
112
100
AcDbEntity
  8
Layer_1
 62
7
100
AcDbSpline
 70
8
 71
3
 72
8
 73
4
 74
0
 40
0
 40
0
 40
0
 40
0
 40
1
 40
1
 40
1
 40
1
 10
291.341528
 20
645.508149
 30
0.0
 10
291.463476
 20
644.979801
 30
0.0
 10
291.686036
 20
644.503833
 30
0.0
 10
292.011806
 20
644.097038
 30
0.0
  0
SPLINE
  5
113
100
AcDbEntity
  8
Layer_1
 62
7
100
AcDbSpline
 70
8
 71
3
 72
8
 73
4
 74
0
 40
0
 40
0
 40
0
 40
0
 40
1
 40
1
 40
1
 40
1
 10
292.011806
 20
644.097038
 30
0.0
 10
292.282174
 20
643.744797
 30
0.0
 10
292.703730
 20
643.454207
 30
0.0
 10
293.272972
 20
643.223913
 30
0.0
  0
SPLINE
  5
114
100
AcDbEntity
  8
Layer_1
 62
7
100
AcDbSpline
 70
8
 71
3
 72
8
 73
4
 74
0
 40
0
 40
0
 40
0
 40
0
 40
1
 40
1
 40
1
 40
1
 10
293.272972
 20
643.223913
 30
0.0
 10
293.842271
 20
642.993648
 30
0.0
 10
294.490761
 20
642.875947
 30
0.0
 10
295.222083
 20
642.862316
 30
0.0
  0
SPLINE
  5
115
100
AcDbEntity
  8
Layer_1
 62
7
100
AcDbSpline
 70
8
 71
3
 72
8
 73
4
 74
0
 40
0
 40
0
 40
0
 40
0
 40
1
 40
1
 40
1
 40
1
 10
295.222083
 20
642.862316
 30
0.0
 10
295.953406
 20
642.848656
 30
0.0
 10
296.732819
 20
642.962378
 30
0.0
 10
297.559250
 20
643.206274
 30
0.0
  0
SPLINE
  5
116
100
AcDbEntity
  8
Layer_1
 62
7
100
AcDbSpline
 70
8
 71
3
 72
8
 73
4
 74
0
 40
0
 40
0
 40
0
 40
0
 40
1
 40
1
 40
1
 40
1
 10
297.559250
 20
643.206274
 30
0.0
 10
298.385625
 20
643.450199
 30
0.0
 10
299.190269
 20
643.888123
 30
0.0
 10
299.975750
 20
644.511552
 30
0.0
  0
SPLINE
  5
117
100
AcDbEntity
  8
Layer_1
 62
7
100
AcDbSpline
 70
8
 71
3
 72
8
 73
4
 74
0
 40
0
 40
0
 40
0
 40
0
 40
1
 40
1
 40
1
 40
1
 10
299.975750
 20
644.511552
 30
0.0
 10
300.382545
 20
644.809212
 30
0.0
 10
300.782482
 20
645.129449
 30
0.0
 10
301.175194
 20
645.481691
 30
0.0
  0
SPLINE
  5
118
100
AcDbEntity
  8
Layer_1
 62
7
100
AcDbSpline
 70
8
 71
3
 72
8
 73
4
 74
0
 40
0
 40
0
 40
0
 40
0
 40
1
 40
1
 40
1
 40
1
 10
301.175194
 20
645.481691
 30
0.0
 10
301.285120
 20
645.580266
 30
0.0
 10
301.385958
 20
645.682975
 30
0.0
 10
301.492694
 20
645.781552
 30
0.0
  0
SPLINE
  5
119
100
AcDbEntity
  8
Layer_1
 62
7
100
AcDbSpline
 70
8
 71
3
 72
8
 73
4
 74
0
 40
0
 40
0
 40
0
 40
0
 40
1
 40
1
 40
1
 40
1
 10
301.492694
 20
645.781552
 30
0.0
 10
301.504943
 20
645.680974
 30
0.0
 10
301.518489
 20
645.581262
 30
0.0
 10
301.536806
 20
645.481691
 30
0.0
  0
SPLINE
  5
11a
100
AcDbEntity
  8
Layer_1
 62
7
100
AcDbSpline
 70
8
 71
3
 72
8
 73
4
 74
0
 40
0
 40
0
 40
0
 40
0
 40
1
 40
1
 40
1
 40
1
 10
301.536806
 20
645.481691
 30
0.0
 10
301.631463
 20
644.967002
 30
0.0
 10
301.846036
 20
644.503833
 30
0.0
 10
302.171806
 20
644.097038
 30
0.0
  0
SPLINE
  5
11b
100
AcDbEntity
  8
Layer_1
 62
7
100
AcDbSpline
 70
8
 71
3
 72
8
 73
4
 74
0
 40
0
 40
0
 40
0
 40
0
 40
1
 40
1
 40
1
 40
1
 10
302.171806
 20
644.097038
 30
0.0
 10
302.442174
 20
643.744797
 30
0.0
 10
302.821707
 20
643.450199
 30
0.0
 10
303.309528
 20
643.206274
 30
0.0
  0
SPLINE
  5
11c
100
AcDbEntity
  8
Layer_1
 62
7
100
AcDbSpline
 70
8
 71
3
 72
8
 73
4
 74
0
 40
0
 40
0
 40
0
 40
0
 40
1
 40
1
 40
1
 40
1
 10
303.309528
 20
643.206274
 30
0.0
 10
303.797349
 20
642.962378
 30
0.0
 10
304.340599
 20
642.827447
 30
0.0
 10
304.949916
 20
642.800580
 30
0.0
  0
SPLINE
  5
11d
100
AcDbEntity
  8
Layer_1
 62
7
100
AcDbSpline
 70
8
 71
3
 72
8
 73
4
 74
0
 40
0
 40
0
 40
0
 40
0
 40
1
 40
1
 40
1
 40
1
 10
304.949916
 20
642.800580
 30
0.0
 10
305.559319
 20
642.773712
 30
0.0
 10
306.224996
 20
642.887406
 30
0.0
 10
306.943139
 20
643.144538
 30
0.0
  0
SPLINE
  5
11e
100
AcDbEntity
  8
Layer_1
 62
7
100
AcDbSpline
 70
8
 71
3
 72
8
 73
4
 74
0
 40
0
 40
0
 40
0
 40
0
 40
1
 40
1
 40
1
 40
1
 10
306.943139
 20
643.144538
 30
0.0
 10
307.661197
 20
643.401671
 30
0.0
 10
308.389782
 20
643.860832
 30
0.0
 10
309.121528
 20
644.511552
 30
0.0
  0
SPLINE
  5
11f
100
AcDbEntity
  8
Layer_1
 62
7
100
AcDbSpline
 70
8
 71
3
 72
8
 73
4
 74
0
 40
0
 40
0
 40
0
 40
0
 40
1
 40
1
 40
1
 40
1
 10
309.121528
 20
644.511552
 30
0.0
 10
309.148198
 20
644.534381
 30
0.0
 10
309.174303
 20
644.559013
 30
0.0
 10
309.200917
 20
644.582108
 30
0.0
  0
SPLINE
  5
120
100
AcDbEntity
  8
Layer_1
 62
7
100
AcDbSpline
 70
8
 71
3
 72
8
 73
4
 74
0
 40
0
 40
0
 40
0
 40
0
 40
1
 40
1
 40
1
 40
1
 10
309.200917
 20
644.582108
 30
0.0
 10
309.206223
 20
644.550513
 30
0.0
 10
309.212178
 20
644.516121
 30
0.0
 10
309.218528
 20
644.485094
 30
0.0
  0
SPLINE
  5
121
100
AcDbEntity
  8
Layer_1
 62
7
100
AcDbSpline
 70
8
 71
3
 72
8
 73
4
 74
0
 40
0
 40
0
 40
0
 40
0
 40
1
 40
1
 40
1
 40
1
 10
309.218528
 20
644.485094
 30
0.0
 10
309.448821
 20
643.360608
 30
0.0
 10
310.253436
 20
642.800580
 30
0.0
 10
311.635084
 20
642.800580
 30
0.0
  0
SPLINE
  5
122
100
AcDbEntity
  8
Layer_1
 62
7
100
AcDbSpline
 70
8
 71
3
 72
8
 73
4
 74
0
 40
0
 40
0
 40
0
 40
0
 40
1
 40
1
 40
1
 40
1
 10
311.635084
 20
642.800580
 30
0.0
 10
312.122876
 20
642.800580
 30
0.0
 10
312.569211
 20
642.842603
 30
0.0
 10
312.975639
 20
642.924052
 30
0.0
  0
SPLINE
  5
123
100
AcDbEntity
  8
Layer_1
 62
7
100
AcDbSpline
 70
8
 71
3
 72
8
 73
4
 74
0
 40
0
 40
0
 40
0
 40
0
 40
1
 40
1
 40
1
 40
1
 10
312.975639
 20
642.924052
 30
0.0
 10
313.381983
 20
643.005501
 30
0.0
 10
313.769502
 20
643.139980
 30
0.0
 10
314.148611
 20
643.329747
 30
0.0
  0
SPLINE
  5
124
100
AcDbEntity
  8
Layer_1
 62
7
100
AcDbSpline
 70
8
 71
3
 72
8
 73
4
 74
0
 40
0
 40
0
 40
0
 40
0
 40
1
 40
1
 40
1
 40
1
 10
314.148611
 20
643.329747
 30
0.0
 10
314.439413
 20
643.475320
 30
0.0
 10
314.730666
 20
643.658425
 30
0.0
 10
315.021750
 20
643.867733
 30
0.0
  0
SPLINE
  5
125
100
AcDbEntity
  8
Layer_1
 62
7
100
AcDbSpline
 70
8
 71
3
 72
8
 73
4
 74
0
 40
0
 40
0
 40
0
 40
0
 40
1
 40
1
 40
1
 40
1
 10
315.021750
 20
643.867733
 30
0.0
 10
314.984299
 20
643.787531
 30
0.0
 10
314.944252
 20
643.691510
 30
0.0
 10
314.907083
 20
643.611969
 30
0.0
  0
SPLINE
  5
126
100
AcDbEntity
  8
Layer_1
 62
7
100
AcDbSpline
 70
8
 71
3
 72
8
 73
4
 74
0
 40
0
 40
0
 40
0
 40
0
 40
1
 40
1
 40
1
 40
1
 10
314.907083
 20
643.611969
 30
0.0
 10
314.324577
 20
642.365534
 30
0.0
 10
313.797752
 20
641.266293
 30
0.0
 10
313.337222
 20
640.304677
 30
0.0
  0
SPLINE
  5
127
100
AcDbEntity
  8
Layer_1
 62
7
100
AcDbSpline
 70
8
 71
3
 72
8
 73
4
 74
0
 40
0
 40
0
 40
0
 40
0
 40
1
 40
1
 40
1
 40
1
 10
313.337222
 20
640.304677
 30
0.0
 10
312.876664
 20
639.343090
 30
0.0
 10
312.565260
 20
638.664557
 30
0.0
 10
312.402361
 20
638.285024
 30
0.0
  0
SPLINE
  5
128
100
AcDbEntity
  8
Layer_1
 62
7
100
AcDbSpline
 70
8
 71
3
 72
8
 73
4
 74
0
 40
0
 40
0
 40
0
 40
0
 40
1
 40
1
 40
1
 40
1
 10
312.402361
 20
638.285024
 30
0.0
 10
312.159283
 20
637.770759
 30
0.0
 10
312.137637
 20
637.345210
 30
0.0
 10
312.340639
 20
637.006205
 30
0.0
  0
SPLINE
  5
129
100
AcDbEntity
  8
Layer_1
 62
7
100
AcDbSpline
 70
8
 71
3
 72
8
 73
4
 74
0
 40
0
 40
0
 40
0
 40
0
 40
1
 40
1
 40
1
 40
1
 10
312.340639
 20
637.006205
 30
0.0
 10
312.543613
 20
636.667200
 30
0.0
 10
312.830238
 20
636.439841
 30
0.0
 10
313.196111
 20
636.318288
 30
0.0
  0
SPLINE
  5
12a
100
AcDbEntity
  8
Layer_1
 62
7
100
AcDbSpline
 70
8
 71
3
 72
8
 73
4
 74
0
 40
0
 40
0
 40
0
 40
0
 40
1
 40
1
 40
1
 40
1
 10
313.196111
 20
636.318288
 30
0.0
 10
313.561984
 20
636.196763
 30
0.0
 10
313.941093
 20
636.196763
 30
0.0
 10
314.333805
 20
636.318288
 30
0.0
  0
SPLINE
  5
12b
100
AcDbEntity
  8
Layer_1
 62
7
100
AcDbSpline
 70
8
 71
3
 72
8
 73
4
 74
0
 40
0
 40
0
 40
0
 40
0
 40
1
 40
1
 40
1
 40
1
 10
314.333805
 20
636.318288
 30
0.0
 10
314.726574
 20
636.439841
 30
0.0
 10
315.017602
 20
636.688437
 30
0.0
 10
315.206944
 20
637.067941
 30
0.0
  0
SPLINE
  5
12c
100
AcDbEntity
  8
Layer_1
 62
7
100
AcDbSpline
 70
8
 71
3
 72
8
 73
4
 74
0
 40
0
 40
0
 40
0
 40
0
 40
1
 40
1
 40
1
 40
1
 10
315.206944
 20
637.067941
 30
0.0
 10
315.261526
 20
637.176258
 30
0.0
 10
315.391602
 20
637.458494
 30
0.0
 10
315.595000
 20
637.905788
 30
0.0
  0
SPLINE
  5
12d
100
AcDbEntity
  8
Layer_1
 62
7
100
AcDbSpline
 70
8
 71
3
 72
8
 73
4
 74
0
 40
0
 40
0
 40
0
 40
0
 40
1
 40
1
 40
1
 40
1
 10
315.595000
 20
637.905788
 30
0.0
 10
315.798398
 20
638.353110
 30
0.0
 10
316.042576
 20
638.896304
 30
0.0
 10
316.327028
 20
639.546205
 30
0.0
  0
SPLINE
  5
12e
100
AcDbEntity
  8
Layer_1
 62
7
100
AcDbSpline
 70
8
 71
3
 72
8
 73
4
 74
0
 40
0
 40
0
 40
0
 40
0
 40
1
 40
1
 40
1
 40
1
 10
316.327028
 20
639.546205
 30
0.0
 10
316.611452
 20
640.196078
 30
0.0
 10
316.931717
 20
640.933482
 30
0.0
 10
317.297139
 20
641.759885
 30
0.0
  0
SPLINE
  5
12f
100
AcDbEntity
  8
Layer_1
 62
7
100
AcDbSpline
 70
8
 71
3
 72
8
 73
4
 74
0
 40
0
 40
0
 40
0
 40
0
 40
1
 40
1
 40
1
 40
1
 10
317.297139
 20
641.759885
 30
0.0
 10
317.662616
 20
642.586289
 30
0.0
 10
318.054510
 20
643.449366
 30
0.0
 10
318.461305
 20
644.343983
 30
0.0
  0
SPLINE
  5
130
100
AcDbEntity
  8
Layer_1
 62
7
100
AcDbSpline
 70
8
 71
3
 72
8
 73
4
 74
0
 40
0
 40
0
 40
0
 40
0
 40
1
 40
1
 40
1
 40
1
 10
318.461305
 20
644.343983
 30
0.0
 10
318.732521
 20
643.828871
 30
0.0
 10
319.052787
 20
643.466977
 30
0.0
 10
319.431472
 20
643.250372
 30
0.0
  0
SPLINE
  5
131
100
AcDbEntity
  8
Layer_1
 62
7
100
AcDbSpline
 70
8
 71
3
 72
8
 73
4
 74
0
 40
0
 40
0
 40
0
 40
0
 40
1
 40
1
 40
1
 40
1
 10
319.431472
 20
643.250372
 30
0.0
 10
319.865530
 20
642.951865
 30
0.0
 10
320.421169
 20
642.800580
 30
0.0
 10
321.098333
 20
642.800580
 30
0.0
  0
SPLINE
  5
132
100
AcDbEntity
  8
Layer_1
 62
7
100
AcDbSpline
 70
8
 71
3
 72
8
 73
4
 74
0
 40
0
 40
0
 40
0
 40
0
 40
1
 40
1
 40
1
 40
1
 10
321.098333
 20
642.800580
 30
0.0
 10
321.586154
 20
642.746845
 30
0.0
 10
322.159009
 20
642.729615
 30
0.0
 10
322.809306
 20
642.756483
 30
0.0
  0
SPLINE
  5
133
100
AcDbEntity
  8
Layer_1
 62
7
100
AcDbSpline
 70
8
 71
3
 72
8
 73
4
 74
0
 40
0
 40
0
 40
0
 40
0
 40
1
 40
1
 40
1
 40
1
 10
322.809306
 20
642.756483
 30
0.0
 10
323.459602
 20
642.783350
 30
0.0
 10
324.133718
 20
642.884626
 30
0.0
 10
324.837778
 20
643.047524
 30
0.0
  0
SPLINE
  5
134
100
AcDbEntity
  8
Layer_1
 62
7
100
AcDbSpline
 70
8
 71
3
 72
8
 73
4
 74
0
 40
0
 40
0
 40
0
 40
0
 40
1
 40
1
 40
1
 40
1
 10
324.837778
 20
643.047524
 30
0.0
 10
325.541809
 20
643.210395
 30
0.0
 10
326.245587
 20
643.454616
 30
0.0
 10
326.936806
 20
643.779538
 30
0.0
  0
SPLINE
  5
135
100
AcDbEntity
  8
Layer_1
 62
7
100
AcDbSpline
 70
8
 71
3
 72
8
 73
4
 74
0
 40
0
 40
0
 40
0
 40
0
 40
1
 40
1
 40
1
 40
1
 10
326.936806
 20
643.779538
 30
0.0
 10
327.628024
 20
644.104489
 30
0.0
 10
328.255291
 20
644.516787
 30
0.0
 10
328.824167
 20
645.031899
 30
0.0
  0
SPLINE
  5
136
100
AcDbEntity
  8
Layer_1
 62
7
100
AcDbSpline
 70
8
 71
3
 72
8
 73
4
 74
0
 40
0
 40
0
 40
0
 40
0
 40
1
 40
1
 40
1
 40
1
 10
328.824167
 20
645.031899
 30
0.0
 10
328.843160
 20
645.050196
 30
0.0
 10
328.858231
 20
645.066601
 30
0.0
 10
328.877083
 20
645.084816
 30
0.0
  0
SPLINE
  5
137
100
AcDbEntity
  8
Layer_1
 62
7
100
AcDbSpline
 70
8
 71
3
 72
8
 73
4
 74
0
 40
0
 40
0
 40
0
 40
0
 40
1
 40
1
 40
1
 40
1
 10
328.877083
 20
645.084816
 30
0.0
 10
328.926896
 20
644.936093
 30
0.0
 10
328.985400
 20
644.780634
 30
0.0
 10
329.053472
 20
644.626205
 30
0.0
  0
SPLINE
  5
138
100
AcDbEntity
  8
Layer_1
 62
7
100
AcDbSpline
 70
8
 71
3
 72
8
 73
4
 74
0
 40
0
 40
0
 40
0
 40
0
 40
1
 40
1
 40
1
 40
1
 10
329.053472
 20
644.626205
 30
0.0
 10
329.216343
 20
644.273963
 30
0.0
 10
329.443334
 20
643.975358
 30
0.0
 10
329.741389
 20
643.717802
 30
0.0
  0
SPLINE
  5
139
100
AcDbEntity
  8
Layer_1
 62
7
100
AcDbSpline
 70
8
 71
3
 72
8
 73
4
 74
0
 40
0
 40
0
 40
0
 40
0
 40
1
 40
1
 40
1
 40
1
 10
329.741389
 20
643.717802
 30
0.0
 10
330.039472
 20
643.460246
 30
0.0
 10
330.380538
 20
643.245277
 30
0.0
 10
330.773250
 20
643.082802
 30
0.0
  0
SPLINE
  5
13a
100
AcDbEntity
  8
Layer_1
 62
7
100
AcDbSpline
 70
8
 71
3
 72
8
 73
4
 74
0
 40
0
 40
0
 40
0
 40
0
 40
1
 40
1
 40
1
 40
1
 10
330.773250
 20
643.082802
 30
0.0
 10
331.166018
 20
642.920327
 30
0.0
 10
331.600387
 20
642.827447
 30
0.0
 10
332.060917
 20
642.800580
 30
0.0
  0
SPLINE
  5
13b
100
AcDbEntity
  8
Layer_1
 62
7
100
AcDbSpline
 70
8
 71
3
 72
8
 73
4
 74
0
 40
0
 40
0
 40
0
 40
0
 40
1
 40
1
 40
1
 40
1
 10
332.060917
 20
642.800580
 30
0.0
 10
332.521475
 20
642.773712
 30
0.0
 10
332.976192
 20
642.798929
 30
0.0
 10
333.436750
 20
642.879955
 30
0.0
  0
SPLINE
  5
13c
100
AcDbEntity
  8
Layer_1
 62
7
100
AcDbSpline
 70
8
 71
3
 72
8
 73
4
 74
0
 40
0
 40
0
 40
0
 40
0
 40
1
 40
1
 40
1
 40
1
 10
333.436750
 20
642.879955
 30
0.0
 10
334.276785
 20
642.907218
 30
0.0
 10
335.211900
 20
643.088178
 30
0.0
 10
336.241305
 20
643.426760
 30
0.0
  0
SPLINE
  5
13d
100
AcDbEntity
  8
Layer_1
 62
7
100
AcDbSpline
 70
8
 71
3
 72
8
 73
4
 74
0
 40
0
 40
0
 40
0
 40
0
 40
1
 40
1
 40
1
 40
1
 10
336.241305
 20
643.426760
 30
0.0
 10
337.270711
 20
643.765371
 30
0.0
 10
338.248300
 20
644.342600
 30
0.0
 10
339.169361
 20
645.155372
 30
0.0
  0
SPLINE
  5
13e
100
AcDbEntity
  8
Layer_1
 62
7
100
AcDbSpline
 70
8
 71
3
 72
8
 73
4
 74
0
 40
0
 40
0
 40
0
 40
0
 40
1
 40
1
 40
1
 40
1
 10
339.169361
 20
645.155372
 30
0.0
 10
339.404791
 20
645.365404
 30
0.0
 10
339.616627
 20
645.574393
 30
0.0
 10
339.822028
 20
645.772733
 30
0.0
  0
SPLINE
  5
13f
100
AcDbEntity
  8
Layer_1
 62
7
100
AcDbSpline
 70
8
 71
3
 72
8
 73
4
 74
0
 40
0
 40
0
 40
0
 40
0
 40
1
 40
1
 40
1
 40
1
 10
339.822028
 20
645.772733
 30
0.0
 10
339.891963
 20
645.496254
 30
0.0
 10
339.982725
 20
645.222069
 30
0.0
 10
340.104250
 20
644.952524
 30
0.0
  0
SPLINE
  5
140
100
AcDbEntity
  8
Layer_1
 62
7
100
AcDbSpline
 70
8
 71
3
 72
8
 73
4
 74
0
 40
0
 40
0
 40
0
 40
0
 40
1
 40
1
 40
1
 40
1
 10
340.104250
 20
644.952524
 30
0.0
 10
340.375466
 20
644.329942
 30
0.0
 10
340.842572
 20
643.840710
 30
0.0
 10
341.506528
 20
643.488497
 30
0.0
  0
SPLINE
  5
141
100
AcDbEntity
  8
Layer_1
 62
7
100
AcDbSpline
 70
8
 71
3
 72
8
 73
4
 74
0
 40
0
 40
0
 40
0
 40
0
 40
1
 40
1
 40
1
 40
1
 10
341.506528
 20
643.488497
 30
0.0
 10
342.170456
 20
643.136255
 30
0.0
 10
342.928674
 20
642.934508
 30
0.0
 10
343.781944
 20
642.879955
 30
0.0
  0
SPLINE
  5
142
100
AcDbEntity
  8
Layer_1
 62
7
100
AcDbSpline
 70
8
 71
3
 72
8
 73
4
 74
0
 40
0
 40
0
 40
0
 40
0
 40
1
 40
1
 40
1
 40
1
 10
343.781944
 20
642.879955
 30
0.0
 10
344.635215
 20
642.825373
 30
0.0
 10
345.528336
 20
642.931079
 30
0.0
 10
346.463056
 20
643.188635
 30
0.0
  0
SPLINE
  5
143
100
AcDbEntity
  8
Layer_1
 62
7
100
AcDbSpline
 70
8
 71
3
 72
8
 73
4
 74
0
 40
0
 40
0
 40
0
 40
0
 40
1
 40
1
 40
1
 40
1
 10
346.463056
 20
643.188635
 30
0.0
 10
347.397776
 20
643.446191
 30
0.0
 10
348.278478
 20
643.888123
 30
0.0
 10
349.091250
 20
644.511552
 30
0.0
  0
SPLINE
  5
144
100
AcDbEntity
  8
Layer_1
 62
7
100
AcDbSpline
 70
8
 71
3
 72
8
 73
4
 74
0
 40
0
 40
0
 40
0
 40
0
 40
1
 40
1
 40
1
 40
1
 10
349.091250
 20
644.511552
 30
0.0
 10
349.498045
 20
644.809212
 30
0.0
 10
349.897954
 20
645.129449
 30
0.0
 10
350.290694
 20
645.481691
 30
0.0
  0
SPLINE
  5
145
100
AcDbEntity
  8
Layer_1
 62
7
100
AcDbSpline
 70
8
 71
3
 72
8
 73
4
 74
0
 40
0
 40
0
 40
0
 40
0
 40
1
 40
1
 40
1
 40
1
 10
350.290694
 20
645.481691
 30
0.0
 10
350.683435
 20
645.833904
 30
0.0
 10
351.045724
 20
646.187811
 30
0.0
 10
351.384306
 20
646.540024
 30
0.0
  0
SPLINE
  5
146
100
AcDbEntity
  8
Layer_1
 62
7
100
AcDbSpline
 70
8
 71
3
 72
8
 73
4
 74
0
 40
0
 40
0
 40
0
 40
0
 40
1
 40
1
 40
1
 40
1
 10
351.384306
 20
646.540024
 30
0.0
 10
351.722888
 20
646.892266
 30
0.0
 10
352.034715
 20
647.224907
 30
0.0
 10
352.319167
 20
647.536622
 30
0.0
  0
SPLINE
  5
147
100
AcDbEntity
  8
Layer_1
 62
7
100
AcDbSpline
 70
8
 71
3
 72
8
 73
4
 74
0
 40
0
 40
0
 40
0
 40
0
 40
1
 40
1
 40
1
 40
1
 10
352.319167
 20
647.536622
 30
0.0
 10
352.603590
 20
647.848336
 30
0.0
 10
352.826546
 20
648.121725
 30
0.0
 10
352.989444
 20
648.365649
 30
0.0
  0
SPLINE
  5
148
100
AcDbEntity
  8
Layer_1
 62
7
100
AcDbSpline
 70
8
 71
3
 72
8
 73
4
 74
0
 40
0
 40
0
 40
0
 40
0
 40
1
 40
1
 40
1
 40
1
 10
352.989444
 20
648.365649
 30
0.0
 10
353.152315
 20
648.609546
 30
0.0
 10
353.177517
 20
648.849759
 30
0.0
 10
353.068805
 20
649.080024
 30
0.0
  0
SPLINE
  5
149
100
AcDbEntity
  8
Layer_1
 62
7
100
AcDbSpline
 70
8
 71
3
 72
8
 73
4
 74
0
 40
0
 40
0
 40
0
 40
0
 40
1
 40
1
 40
1
 40
1
 10
353.068805
 20
649.080024
 30
0.0
 10
352.960065
 20
649.310289
 30
0.0
 10
352.787543
 20
649.483235
 30
0.0
 10
352.557306
 20
649.591552
 30
0.0
  0
SPLINE
  5
14a
100
AcDbEntity
  8
Layer_1
 62
7
100
AcDbSpline
 70
8
 71
3
 72
8
 73
4
 74
0
 40
0
 40
0
 40
0
 40
0
 40
1
 40
1
 40
1
 40
1
 10
352.557306
 20
649.591552
 30
0.0
 10
352.327012
 20
649.699869
 30
0.0
 10
352.074424
 20
649.746295
 30
0.0
 10
351.790000
 20
649.732663
 30
0.0
  0
SPLINE
  5
14b
100
AcDbEntity
  8
Layer_1
 62
7
100
AcDbSpline
 70
8
 71
3
 72
8
 73
4
 74
0
 40
0
 40
0
 40
0
 40
0
 40
1
 40
1
 40
1
 40
1
 10
351.790000
 20
649.732663
 30
0.0
 10
351.505576
 20
649.719004
 30
0.0
 10
351.281774
 20
649.588504
 30
0.0
 10
351.119722
 20
649.344608
 30
0.0
  0
SPLINE
  5
14c
100
AcDbEntity
  8
Layer_1
 62
7
100
AcDbSpline
 70
8
 71
3
 72
8
 73
4
 74
0
 40
0
 40
0
 40
0
 40
0
 40
1
 40
1
 40
1
 40
1
 10
351.119722
 20
649.344608
 30
0.0
 10
350.956824
 20
649.100683
 30
0.0
 10
350.733868
 20
648.835281
 30
0.0
 10
350.449444
 20
648.550858
 30
0.0
  0
SPLINE
  5
14d
100
AcDbEntity
  8
Layer_1
 62
7
100
AcDbSpline
 70
8
 71
3
 72
8
 73
4
 74
0
 40
0
 40
0
 40
0
 40
0
 40
1
 40
1
 40
1
 40
1
 10
350.449444
 20
648.550858
 30
0.0
 10
350.165021
 20
648.266406
 30
0.0
 10
349.857568
 20
647.975816
 30
0.0
 10
349.532222
 20
647.677733
 30
0.0
  0
SPLINE
  5
14e
100
AcDbEntity
  8
Layer_1
 62
7
100
AcDbSpline
 70
8
 71
3
 72
8
 73
4
 74
0
 40
0
 40
0
 40
0
 40
0
 40
1
 40
1
 40
1
 40
1
 10
349.532222
 20
647.677733
 30
0.0
 10
349.206848
 20
647.379678
 30
0.0
 10
348.874193
 20
647.093011
 30
0.0
 10
348.535639
 20
646.822247
 30
0.0
  0
SPLINE
  5
14f
100
AcDbEntity
  8
Layer_1
 62
7
100
AcDbSpline
 70
8
 71
3
 72
8
 73
4
 74
0
 40
0
 40
0
 40
0
 40
0
 40
1
 40
1
 40
1
 40
1
 10
348.535639
 20
646.822247
 30
0.0
 10
348.197029
 20
646.551454
 30
0.0
 10
347.863978
 20
646.324519
 30
0.0
 10
347.539028
 20
646.134330
 30
0.0
  0
SPLINE
  5
150
100
AcDbEntity
  8
Layer_1
 62
7
100
AcDbSpline
 70
8
 71
3
 72
8
 73
4
 74
0
 40
0
 40
0
 40
0
 40
0
 40
1
 40
1
 40
1
 40
1
 10
347.539028
 20
646.134330
 30
0.0
 10
346.889155
 20
645.728353
 30
0.0
 10
346.261436
 20
645.462528
 30
0.0
 10
345.651667
 20
645.340580
 30
0.0
  0
SPLINE
  5
151
100
AcDbEntity
  8
Layer_1
 62
7
100
AcDbSpline
 70
8
 71
3
 72
8
 73
4
 74
0
 40
0
 40
0
 40
0
 40
0
 40
1
 40
1
 40
1
 40
1
 10
345.651667
 20
645.340580
 30
0.0
 10
345.041869
 20
645.218632
 30
0.0
 10
344.503079
 20
645.197394
 30
0.0
 10
344.028889
 20
645.278844
 30
0.0
  0
SPLINE
  5
152
100
AcDbEntity
  8
Layer_1
 62
7
100
AcDbSpline
 70
8
 71
3
 72
8
 73
4
 74
0
 40
0
 40
0
 40
0
 40
0
 40
1
 40
1
 40
1
 40
1
 10
344.028889
 20
645.278844
 30
0.0
 10
343.554727
 20
645.360293
 30
0.0
 10
343.158798
 20
645.541226
 30
0.0
 10
342.847083
 20
645.825649
 30
0.0
  0
SPLINE
  5
153
100
AcDbEntity
  8
Layer_1
 62
7
100
AcDbSpline
 70
8
 71
3
 72
8
 73
4
 74
0
 40
0
 40
0
 40
0
 40
0
 40
1
 40
1
 40
1
 40
1
 10
342.847083
 20
645.825649
 30
0.0
 10
342.535369
 20
646.110073
 30
0.0
 10
342.354013
 20
646.468382
 30
0.0
 10
342.300278
 20
646.901622
 30
0.0
  0
SPLINE
  5
154
100
AcDbEntity
  8
Layer_1
 62
7
100
AcDbSpline
 70
8
 71
3
 72
8
 73
4
 74
0
 40
0
 40
0
 40
0
 40
0
 40
1
 40
1
 40
1
 40
1
 10
342.300278
 20
646.901622
 30
0.0
 10
342.625200
 20
646.874331
 30
0.0
 10
343.021525
 20
646.874331
 30
0.0
 10
343.482083
 20
646.901622
 30
0.0
  0
SPLINE
  5
155
100
AcDbEntity
  8
Layer_1
 62
7
100
AcDbSpline
 70
8
 71
3
 72
8
 73
4
 74
0
 40
0
 40
0
 40
0
 40
0
 40
1
 40
1
 40
1
 40
1
 10
343.482083
 20
646.901622
 30
0.0
 10
343.942614
 20
646.928912
 30
0.0
 10
344.439409
 20
647.034167
 30
0.0
 10
344.981389
 20
647.210302
 30
0.0
  0
SPLINE
  5
156
100
AcDbEntity
  8
Layer_1
 62
7
100
AcDbSpline
 70
8
 71
3
 72
8
 73
4
 74
0
 40
0
 40
0
 40
0
 40
0
 40
1
 40
1
 40
1
 40
1
 10
344.981389
 20
647.210302
 30
0.0
 10
345.523368
 20
647.386409
 30
0.0
 10
346.096223
 20
647.647831
 30
0.0
 10
346.692361
 20
647.986413
 30
0.0
  0
SPLINE
  5
157
100
AcDbEntity
  8
Layer_1
 62
7
100
AcDbSpline
 70
8
 71
3
 72
8
 73
4
 74
0
 40
0
 40
0
 40
0
 40
0
 40
1
 40
1
 40
1
 40
1
 10
346.692361
 20
647.986413
 30
0.0
 10
347.288499
 20
648.324995
 30
0.0
 10
347.895418
 20
648.792567
 30
0.0
 10
348.517972
 20
649.388705
 30
0.0
  0
SPLINE
  5
158
100
AcDbEntity
  8
Layer_1
 62
7
100
AcDbSpline
 70
8
 71
3
 72
8
 73
4
 74
0
 40
0
 40
0
 40
0
 40
0
 40
1
 40
1
 40
1
 40
1
 10
348.517972
 20
649.388705
 30
0.0
 10
348.843741
 20
649.686365
 30
0.0
 10
349.159209
 20
650.077849
 30
0.0
 10
349.470472
 20
650.579330
 30
0.0
  0
SPLINE
  5
159
100
AcDbEntity
  8
Layer_1
 62
7
100
AcDbSpline
 70
8
 71
3
 72
8
 73
4
 74
0
 40
0
 40
0
 40
0
 40
0
 40
1
 40
1
 40
1
 40
1
 10
349.470472
 20
650.579330
 30
0.0
 10
349.781791
 20
651.080782
 30
0.0
 10
350.001134
 20
651.607607
 30
0.0
 10
350.123139
 20
652.149191
 30
0.0
  0
SPLINE
  5
15a
100
AcDbEntity
  8
Layer_1
 62
7
100
AcDbSpline
 70
8
 71
3
 72
8
 73
4
 74
0
 40
0
 40
0
 40
0
 40
0
 40
1
 40
1
 40
1
 40
1
 10
350.123139
 20
652.149191
 30
0.0
 10
350.245059
 20
652.690747
 30
0.0
 10
350.223864
 20
653.204773
 30
0.0
 10
350.061389
 20
653.692594
 30
0.0
  0
SPLINE
  5
15b
100
AcDbEntity
  8
Layer_1
 62
7
100
AcDbSpline
 70
8
 71
3
 72
8
 73
4
 74
0
 40
0
 40
0
 40
0
 40
0
 40
1
 40
1
 40
1
 40
1
 10
350.061389
 20
653.692594
 30
0.0
 10
349.898914
 20
654.180415
 30
0.0
 10
349.519776
 20
654.542280
 30
0.0
 10
348.923695
 20
654.786205
 30
0.0
  0
SPLINE
  5
15c
100
AcDbEntity
  8
Layer_1
 62
7
100
AcDbSpline
 70
8
 71
3
 72
8
 73
4
 74
0
 40
0
 40
0
 40
0
 40
0
 40
1
 40
1
 40
1
 40
1
 10
348.923695
 20
654.786205
 30
0.0
 10
348.273765
 20
655.030101
 30
0.0
 10
347.561634
 20
655.097341
 30
0.0
 10
346.789361
 20
654.989052
 30
0.0
  0
SPLINE
  5
15d
100
AcDbEntity
  8
Layer_1
 62
7
100
AcDbSpline
 70
8
 71
3
 72
8
 73
4
 74
0
 40
0
 40
0
 40
0
 40
0
 40
1
 40
1
 40
1
 40
1
 10
346.789361
 20
654.989052
 30
0.0
 10
346.017088
 20
654.880707
 30
0.0
 10
345.258898
 20
654.611298
 30
0.0
 10
344.513972
 20
654.177663
 30
0.0
  0
SPLINE
  5
15e
100
AcDbEntity
  8
Layer_1
 62
7
100
AcDbSpline
 70
8
 71
3
 72
8
 73
4
 74
0
 40
0
 40
0
 40
0
 40
0
 40
1
 40
1
 40
1
 40
1
 10
344.513972
 20
654.177663
 30
0.0
 10
343.768990
 20
653.743972
 30
0.0
 10
343.052823
 20
653.183945
 30
0.0
 10
342.362028
 20
652.493149
 30
0.0
  0
SPLINE
  5
15f
100
AcDbEntity
  8
Layer_1
 62
7
100
AcDbSpline
 70
8
 71
3
 72
8
 73
4
 74
0
 40
0
 40
0
 40
0
 40
0
 40
1
 40
1
 40
1
 40
1
 10
342.362028
 20
652.493149
 30
0.0
 10
341.671204
 20
651.802326
 30
0.0
 10
341.069140
 20
651.005669
 30
0.0
 10
340.554028
 20
650.111899
 30
0.0
  0
SPLINE
  5
160
100
AcDbEntity
  8
Layer_1
 62
7
100
AcDbSpline
 70
8
 71
3
 72
8
 73
4
 74
0
 40
0
 40
0
 40
0
 40
0
 40
1
 40
1
 40
1
 40
1
 10
340.554028
 20
650.111899
 30
0.0
 10
340.417968
 20
649.864961
 30
0.0
 10
340.297798
 20
649.612307
 30
0.0
 10
340.192416
 20
649.353427
 30
0.0
  0
SPLINE
  5
161
100
AcDbEntity
  8
Layer_1
 62
7
100
AcDbSpline
 70
8
 71
3
 72
8
 73
4
 74
0
 40
0
 40
0
 40
0
 40
0
 40
1
 40
1
 40
1
 40
1
 10
340.192416
 20
649.353427
 30
0.0
 10
340.189961
 20
649.349815
 30
0.0
 10
340.186066
 20
649.348274
 30
0.0
 10
340.183611
 20
649.344608
 30
0.0
  0
SPLINE
  5
162
100
AcDbEntity
  8
Layer_1
 62
7
100
AcDbSpline
 70
8
 71
3
 72
8
 73
4
 74
0
 40
0
 40
0
 40
0
 40
0
 40
1
 40
1
 40
1
 40
1
 10
340.183611
 20
649.344608
 30
0.0
 10
339.831370
 20
648.884049
 30
0.0
 10
339.494283
 20
648.441722
 30
0.0
 10
339.169361
 20
648.021691
 30
0.0
  0
SPLINE
  5
163
100
AcDbEntity
  8
Layer_1
 62
7
100
AcDbSpline
 70
8
 71
3
 72
8
 73
4
 74
0
 40
0
 40
0
 40
0
 40
0
 40
1
 40
1
 40
1
 40
1
 10
339.169361
 20
648.021691
 30
0.0
 10
338.844438
 20
647.601660
 30
0.0
 10
338.372873
 20
647.159305
 30
0.0
 10
337.749444
 20
646.698774
 30
0.0
  0
SPLINE
  5
164
100
AcDbEntity
  8
Layer_1
 62
7
100
AcDbSpline
 70
8
 71
3
 72
8
 73
4
 74
0
 40
0
 40
0
 40
0
 40
0
 40
1
 40
1
 40
1
 40
1
 10
337.749444
 20
646.698774
 30
0.0
 10
337.532811
 20
646.509431
 30
0.0
 10
337.270993
 20
646.332478
 30
0.0
 10
336.973333
 20
646.169608
 30
0.0
  0
SPLINE
  5
165
100
AcDbEntity
  8
Layer_1
 62
7
100
AcDbSpline
 70
8
 71
3
 72
8
 73
4
 74
0
 40
0
 40
0
 40
0
 40
0
 40
1
 40
1
 40
1
 40
1
 10
336.973333
 20
646.169608
 30
0.0
 10
337.217258
 20
646.846772
 30
0.0
 10
337.322922
 20
647.483282
 30
0.0
 10
337.282028
 20
648.065788
 30
0.0
  0
SPLINE
  5
166
100
AcDbEntity
  8
Layer_1
 62
7
100
AcDbSpline
 70
8
 71
3
 72
8
 73
4
 74
0
 40
0
 40
0
 40
0
 40
0
 40
1
 40
1
 40
1
 40
1
 10
337.282028
 20
648.065788
 30
0.0
 10
337.241106
 20
648.648295
 30
0.0
 10
337.139788
 20
649.187085
 30
0.0
 10
336.990972
 20
649.688566
 30
0.0
  0
SPLINE
  5
167
100
AcDbEntity
  8
Layer_1
 62
7
100
AcDbSpline
 70
8
 71
3
 72
8
 73
4
 74
0
 40
0
 40
0
 40
0
 40
0
 40
1
 40
1
 40
1
 40
1
 10
336.990972
 20
649.688566
 30
0.0
 10
336.842128
 20
650.190018
 30
0.0
 10
336.698816
 20
650.653159
 30
0.0
 10
336.550000
 20
651.073219
 30
0.0
  0
SPLINE
  5
168
100
AcDbEntity
  8
Layer_1
 62
7
100
AcDbSpline
 70
8
 71
3
 72
8
 73
4
 74
0
 40
0
 40
0
 40
0
 40
0
 40
1
 40
1
 40
1
 40
1
 10
336.550000
 20
651.073219
 30
0.0
 10
336.401184
 20
651.493222
 30
0.0
 10
336.355126
 20
651.859518
 30
0.0
 10
336.408889
 20
652.184469
 30
0.0
  0
SPLINE
  5
169
100
AcDbEntity
  8
Layer_1
 62
7
100
AcDbSpline
 70
8
 71
3
 72
8
 73
4
 74
0
 40
0
 40
0
 40
0
 40
0
 40
1
 40
1
 40
1
 40
1
 10
336.408889
 20
652.184469
 30
0.0
 10
336.463442
 20
652.834342
 30
0.0
 10
336.690406
 20
653.369548
 30
0.0
 10
337.096806
 20
653.789608
 30
0.0
  0
SPLINE
  5
16a
100
AcDbEntity
  8
Layer_1
 62
7
100
AcDbSpline
 70
8
 71
3
 72
8
 73
4
 74
0
 40
0
 40
0
 40
0
 40
0
 40
1
 40
1
 40
1
 40
1
 10
337.096806
 20
653.789608
 30
0.0
 10
337.503177
 20
654.209611
 30
0.0
 10
337.899925
 20
654.694412
 30
0.0
 10
338.278611
 20
655.235997
 30
0.0
  0
SPLINE
  5
16b
100
AcDbEntity
  8
Layer_1
 62
7
100
AcDbSpline
 70
8
 71
3
 72
8
 73
4
 74
0
 40
0
 40
0
 40
0
 40
0
 40
1
 40
1
 40
1
 40
1
 10
338.278611
 20
655.235997
 30
0.0
 10
338.468772
 20
655.507184
 30
0.0
 10
338.493580
 20
655.772191
 30
0.0
 10
338.357972
 20
656.029747
 30
0.0
  0
SPLINE
  5
16c
100
AcDbEntity
  8
Layer_1
 62
7
100
AcDbSpline
 70
8
 71
3
 72
8
 73
4
 74
0
 40
0
 40
0
 40
0
 40
0
 40
1
 40
1
 40
1
 40
1
 10
338.357972
 20
656.029747
 30
0.0
 10
338.222392
 20
656.287274
 30
0.0
 10
338.003416
 20
656.485437
 30
0.0
 10
337.705361
 20
656.620649
 30
0.0
  0
SPLINE
  5
16d
100
AcDbEntity
  8
Layer_1
 62
7
100
AcDbSpline
 70
8
 71
3
 72
8
 73
4
 74
0
 40
0
 40
0
 40
0
 40
0
 40
1
 40
1
 40
1
 40
1
 10
337.705361
 20
656.620649
 30
0.0
 10
337.407278
 20
656.755834
 30
0.0
 10
337.078602
 20
656.810246
 30
0.0
 10
336.726389
 20
656.797038
 30
0.0
  0
SPLINE
  5
16e
100
AcDbEntity
  8
Layer_1
 62
7
100
AcDbSpline
 70
8
 71
3
 72
8
 73
4
 74
0
 40
0
 40
0
 40
0
 40
0
 40
1
 40
1
 40
1
 40
1
 10
336.726389
 20
656.797038
 30
0.0
 10
336.374176
 20
656.783802
 30
0.0
 10
336.096328
 20
656.669685
 30
0.0
 10
335.879722
 20
656.453080
 30
0.0
  0
SPLINE
  5
16f
100
AcDbEntity
  8
Layer_1
 62
7
100
AcDbSpline
 70
8
 71
3
 72
8
 73
4
 74
0
 40
0
 40
0
 40
0
 40
0
 40
1
 40
1
 40
1
 40
1
 10
335.879722
 20
656.453080
 30
0.0
 10
335.744114
 20
656.317472
 30
0.0
 10
335.529146
 20
656.073279
 30
0.0
 10
335.244722
 20
655.721066
 30
0.0
  0
SPLINE
  5
170
100
AcDbEntity
  8
Layer_1
 62
7
100
AcDbSpline
 70
8
 71
3
 72
8
 73
4
 74
0
 40
0
 40
0
 40
0
 40
0
 40
1
 40
1
 40
1
 40
1
 10
335.244722
 20
655.721066
 30
0.0
 10
334.960270
 20
655.368824
 30
0.0
 10
334.627220
 20
654.960505
 30
0.0
 10
334.248139
 20
654.486344
 30
0.0
  0
SPLINE
  5
171
100
AcDbEntity
  8
Layer_1
 62
7
100
AcDbSpline
 70
8
 71
3
 72
8
 73
4
 74
0
 40
0
 40
0
 40
0
 40
0
 40
1
 40
1
 40
1
 40
1
 10
334.248139
 20
654.486344
 30
0.0
 10
333.869030
 20
654.012154
 30
0.0
 10
333.464690
 20
653.506567
 30
0.0
 10
333.031028
 20
652.978219
 30
0.0
  0
SPLINE
  5
172
100
AcDbEntity
  8
Layer_1
 62
7
100
AcDbSpline
 70
8
 71
3
 72
8
 73
4
 74
0
 40
0
 40
0
 40
0
 40
0
 40
1
 40
1
 40
1
 40
1
 10
333.031028
 20
652.978219
 30
0.0
 10
332.597393
 20
652.449871
 30
0.0
 10
332.189046
 20
651.949067
 30
0.0
 10
331.796305
 20
651.461274
 30
0.0
  0
SPLINE
  5
173
100
AcDbEntity
  8
Layer_1
 62
7
100
AcDbSpline
 70
8
 71
3
 72
8
 73
4
 74
0
 40
0
 40
0
 40
0
 40
0
 40
1
 40
1
 40
1
 40
1
 10
331.796305
 20
651.461274
 30
0.0
 10
331.403593
 20
650.973425
 30
0.0
 10
331.053694
 20
650.535077
 30
0.0
 10
330.755639
 20
650.155997
 30
0.0
  0
SPLINE
  5
174
100
AcDbEntity
  8
Layer_1
 62
7
100
AcDbSpline
 70
8
 71
3
 72
8
 73
4
 74
0
 40
0
 40
0
 40
0
 40
0
 40
1
 40
1
 40
1
 40
1
 10
330.755639
 20
650.155997
 30
0.0
 10
330.525741
 20
649.863643
 30
0.0
 10
330.386154
 20
649.693575
 30
0.0
 10
330.252917
 20
649.529816
 30
0.0
  0
SPLINE
  5
175
100
AcDbEntity
  8
Layer_1
 62
7
100
AcDbSpline
 70
8
 71
3
 72
8
 73
4
 74
0
 40
0
 40
0
 40
0
 40
0
 40
1
 40
1
 40
1
 40
1
 10
330.252917
 20
649.529816
 30
0.0
 10
330.192154
 20
649.476865
 30
0.0
 10
330.134750
 20
649.418948
 30
0.0
 10
330.085361
 20
649.344608
 30
0.0
  0
SPLINE
  5
176
100
AcDbEntity
  8
Layer_1
 62
7
100
AcDbSpline
 70
8
 71
3
 72
8
 73
4
 74
0
 40
0
 40
0
 40
0
 40
0
 40
1
 40
1
 40
1
 40
1
 10
330.085361
 20
649.344608
 30
0.0
 10
329.705829
 20
648.884049
 30
0.0
 10
329.352346
 20
648.441722
 30
0.0
 10
329.027028
 20
648.021691
 30
0.0
  0
SPLINE
  5
177
100
AcDbEntity
  8
Layer_1
 62
7
100
AcDbSpline
 70
8
 71
3
 72
8
 73
4
 74
0
 40
0
 40
0
 40
0
 40
0
 40
1
 40
1
 40
1
 40
1
 10
329.027028
 20
648.021691
 30
0.0
 10
328.701626
 20
647.601660
 30
0.0
 10
328.238499
 20
647.159305
 30
0.0
 10
327.642361
 20
646.698774
 30
0.0
  0
SPLINE
  5
178
100
AcDbEntity
  8
Layer_1
 62
7
100
AcDbSpline
 70
8
 71
3
 72
8
 73
4
 74
0
 40
0
 40
0
 40
0
 40
0
 40
1
 40
1
 40
1
 40
1
 10
327.642361
 20
646.698774
 30
0.0
 10
326.992460
 20
646.210953
 30
0.0
 10
326.385541
 20
645.831435
 30
0.0
 10
325.816750
 20
645.561066
 30
0.0
  0
SPLINE
  5
179
100
AcDbEntity
  8
Layer_1
 62
7
100
AcDbSpline
 70
8
 71
3
 72
8
 73
4
 74
0
 40
0
 40
0
 40
0
 40
0
 40
1
 40
1
 40
1
 40
1
 10
325.816750
 20
645.561066
 30
0.0
 10
325.952330
 20
645.723118
 30
0.0
 10
326.091240
 20
645.900466
 30
0.0
 10
326.240084
 20
646.090233
 30
0.0
  0
SPLINE
  5
17a
100
AcDbEntity
  8
Layer_1
 62
7
100
AcDbSpline
 70
8
 71
3
 72
8
 73
4
 74
0
 40
0
 40
0
 40
0
 40
0
 40
1
 40
1
 40
1
 40
1
 10
326.240084
 20
646.090233
 30
0.0
 10
326.388871
 20
646.279999
 30
0.0
 10
326.536614
 20
646.482141
 30
0.0
 10
326.672222
 20
646.698774
 30
0.0
  0
SPLINE
  5
17b
100
AcDbEntity
  8
Layer_1
 62
7
100
AcDbSpline
 70
8
 71
3
 72
8
 73
4
 74
0
 40
0
 40
0
 40
0
 40
0
 40
1
 40
1
 40
1
 40
1
 10
326.672222
 20
646.698774
 30
0.0
 10
327.187306
 20
647.484255
 30
0.0
 10
327.574402
 20
648.284468
 30
0.0
 10
327.845194
 20
649.097663
 30
0.0
  0
SPLINE
  5
17c
100
AcDbEntity
  8
Layer_1
 62
7
100
AcDbSpline
 70
8
 71
3
 72
8
 73
4
 74
0
 40
0
 40
0
 40
0
 40
0
 40
1
 40
1
 40
1
 40
1
 10
327.845194
 20
649.097663
 30
0.0
 10
328.115958
 20
649.910830
 30
0.0
 10
328.267709
 20
650.685855
 30
0.0
 10
328.295000
 20
651.417177
 30
0.0
  0
SPLINE
  5
17d
100
AcDbEntity
  8
Layer_1
 62
7
100
AcDbSpline
 70
8
 71
3
 72
8
 73
4
 74
0
 40
0
 40
0
 40
0
 40
0
 40
1
 40
1
 40
1
 40
1
 10
328.295000
 20
651.417177
 30
0.0
 10
328.322291
 20
652.148500
 30
0.0
 10
328.216966
 20
652.797427
 30
0.0
 10
327.986305
 20
653.366274
 30
0.0
  0
SPLINE
  5
17e
100
AcDbEntity
  8
Layer_1
 62
7
100
AcDbSpline
 70
8
 71
3
 72
8
 73
4
 74
0
 40
0
 40
0
 40
0
 40
0
 40
1
 40
1
 40
1
 40
1
 10
327.986305
 20
653.366274
 30
0.0
 10
327.755617
 20
653.935121
 30
0.0
 10
327.397336
 20
654.381879
 30
0.0
 10
326.910361
 20
654.706830
 30
0.0
  0
SPLINE
  5
17f
100
AcDbEntity
  8
Layer_1
 62
7
100
AcDbSpline
 70
8
 71
3
 72
8
 73
4
 74
0
 40
0
 40
0
 40
0
 40
0
 40
1
 40
1
 40
1
 40
1
 10
326.910361
 20
654.706830
 30
0.0
 10
326.367930
 20
655.059043
 30
0.0
 10
325.757879
 20
655.206377
 30
0.0
 10
325.067083
 20
655.138983
 30
0.0
  0
SPLINE
  5
180
100
AcDbEntity
  8
Layer_1
 62
7
100
AcDbSpline
 70
8
 71
3
 72
8
 73
4
 74
0
 40
0
 40
0
 40
0
 40
0
 40
1
 40
1
 40
1
 40
1
 10
325.067083
 20
655.138983
 30
0.0
 10
324.376260
 20
655.071588
 30
0.0
 10
323.664495
 20
654.831375
 30
0.0
 10
322.932778
 20
654.424608
 30
0.0
  0
LINE
  5
181
100
AcDbEntity
  8
Layer_1
 62
7
100
AcDbLine
 10
322.932778
 20
654.424608
 30
0.0
 11
323.788250
 21
656.373705
 31
0.0
  0
SPLINE
  5
182
100
AcDbEntity
  8
Layer_1
 62
7
100
AcDbSpline
 70
8
 71
3
 72
8
 73
4
 74
0
 40
0
 40
0
 40
0
 40
0
 40
1
 40
1
 40
1
 40
1
 10
323.788250
 20
656.373705
 30
0.0
 10
323.923039
 20
656.698627
 30
0.0
 10
323.885419
 20
656.968460
 30
0.0
 10
323.682416
 20
657.185094
 30
0.0
  0
SPLINE
  5
183
100
AcDbEntity
  8
Layer_1
 62
7
100
AcDbSpline
 70
8
 71
3
 72
8
 73
4
 74
0
 40
0
 40
0
 40
0
 40
0
 40
1
 40
1
 40
1
 40
1
 10
323.682416
 20
657.185094
 30
0.0
 10
323.479442
 20
657.401699
 30
0.0
 10
323.209638
 20
657.553436
 30
0.0
 10
322.871028
 20
657.634885
 30
0.0
  0
SPLINE
  5
184
100
AcDbEntity
  8
Layer_1
 62
7
100
AcDbSpline
 70
8
 71
3
 72
8
 73
4
 74
0
 40
0
 40
0
 40
0
 40
0
 40
1
 40
1
 40
1
 40
1
 10
322.871028
 20
657.634885
 30
0.0
 10
322.532474
 20
657.716307
 30
0.0
 10
322.182575
 20
657.716307
 30
0.0
 10
321.830361
 20
657.634885
 30
0.0
  0
SPLINE
  5
185
100
AcDbEntity
  8
Layer_1
 62
7
100
AcDbSpline
 70
8
 71
3
 72
8
 73
4
 74
0
 40
0
 40
0
 40
0
 40
0
 40
1
 40
1
 40
1
 40
1
 10
321.830361
 20
657.634885
 30
0.0
 10
321.478092
 20
657.553436
 30
0.0
 10
321.250705
 20
657.392866
 30
0.0
 10
321.142416
 20
657.149816
 30
0.0
  0
SPLINE
  5
186
100
AcDbEntity
  8
Layer_1
 62
7
100
AcDbSpline
 70
8
 71
3
 72
8
 73
4
 74
0
 40
0
 40
0
 40
0
 40
0
 40
1
 40
1
 40
1
 40
1
 10
321.142416
 20
657.149816
 30
0.0
 10
320.952227
 20
656.715702
 30
0.0
 10
320.624002
 20
656.004361
 30
0.0
 10
320.163472
 20
655.015510
 30
0.0
  0
SPLINE
  5
187
100
AcDbEntity
  8
Layer_1
 62
7
100
AcDbSpline
 70
8
 71
3
 72
8
 73
4
 74
0
 40
0
 40
0
 40
0
 40
0
 40
1
 40
1
 40
1
 40
1
 10
320.163472
 20
655.015510
 30
0.0
 10
319.702914
 20
654.026604
 30
0.0
 10
319.184923
 20
652.893326
 30
0.0
 10
318.602416
 20
651.620024
 30
0.0
  0
SPLINE
  5
188
100
AcDbEntity
  8
Layer_1
 62
7
100
AcDbSpline
 70
8
 71
3
 72
8
 73
4
 74
0
 40
0
 40
0
 40
0
 40
0
 40
1
 40
1
 40
1
 40
1
 10
318.602416
 20
651.620024
 30
0.0
 10
318.284183
 20
650.924386
 30
0.0
 10
317.926664
 20
650.160097
 30
0.0
 10
317.588194
 20
649.423983
 30
0.0
  0
SPLINE
  5
189
100
AcDbEntity
  8
Layer_1
 62
7
100
AcDbSpline
 70
8
 71
3
 72
8
 73
4
 74
0
 40
0
 40
0
 40
0
 40
0
 40
1
 40
1
 40
1
 40
1
 10
317.588194
 20
649.423983
 30
0.0
 10
317.566604
 20
649.397733
 30
0.0
 10
317.546256
 20
649.374261
 30
0.0
 10
317.526472
 20
649.344608
 30
0.0
  0
SPLINE
  5
18a
100
AcDbEntity
  8
Layer_1
 62
7
100
AcDbSpline
 70
8
 71
3
 72
8
 73
4
 74
0
 40
0
 40
0
 40
0
 40
0
 40
1
 40
1
 40
1
 40
1
 10
317.526472
 20
649.344608
 30
0.0
 10
317.174231
 20
648.884049
 30
0.0
 10
316.862375
 20
648.508962
 30
0.0
 10
316.591583
 20
648.224538
 30
0.0
  0
SPLINE
  5
18b
100
AcDbEntity
  8
Layer_1
 62
7
100
AcDbSpline
 70
8
 71
3
 72
8
 73
4
 74
0
 40
0
 40
0
 40
0
 40
0
 40
1
 40
1
 40
1
 40
1
 10
316.591583
 20
648.224538
 30
0.0
 10
316.320819
 20
647.940115
 30
0.0
 10
315.958502
 20
647.557012
 30
0.0
 10
315.497972
 20
647.069191
 30
0.0
  0
SPLINE
  5
18c
100
AcDbEntity
  8
Layer_1
 62
7
100
AcDbSpline
 70
8
 71
3
 72
8
 73
4
 74
0
 40
0
 40
0
 40
0
 40
0
 40
1
 40
1
 40
1
 40
1
 10
315.497972
 20
647.069191
 30
0.0
 10
315.254047
 20
646.825266
 30
0.0
 10
314.975861
 20
646.581102
 30
0.0
 10
314.677778
 20
646.337177
 30
0.0
  0
SPLINE
  5
18d
100
AcDbEntity
  8
Layer_1
 62
7
100
AcDbSpline
 70
8
 71
3
 72
8
 73
4
 74
0
 40
0
 40
0
 40
0
 40
0
 40
1
 40
1
 40
1
 40
1
 10
314.677778
 20
646.337177
 30
0.0
 10
314.379723
 20
646.093281
 30
0.0
 10
314.085083
 20
645.873881
 30
0.0
 10
313.787028
 20
645.684538
 30
0.0
  0
SPLINE
  5
18e
100
AcDbEntity
  8
Layer_1
 62
7
100
AcDbSpline
 70
8
 71
3
 72
8
 73
4
 74
0
 40
0
 40
0
 40
0
 40
0
 40
1
 40
1
 40
1
 40
1
 10
313.787028
 20
645.684538
 30
0.0
 10
313.488945
 20
645.495195
 30
0.0
 10
313.215133
 20
645.364272
 30
0.0
 10
312.957972
 20
645.296483
 30
0.0
  0
SPLINE
  5
18f
100
AcDbEntity
  8
Layer_1
 62
7
100
AcDbSpline
 70
8
 71
3
 72
8
 73
4
 74
0
 40
0
 40
0
 40
0
 40
0
 40
1
 40
1
 40
1
 40
1
 10
312.957972
 20
645.296483
 30
0.0
 10
312.700811
 20
645.228693
 30
0.0
 10
312.502663
 20
645.266708
 30
0.0
 10
312.367083
 20
645.402316
 30
0.0
  0
SPLINE
  5
190
100
AcDbEntity
  8
Layer_1
 62
7
100
AcDbSpline
 70
8
 71
3
 72
8
 73
4
 74
0
 40
0
 40
0
 40
0
 40
0
 40
1
 40
1
 40
1
 40
1
 10
312.367083
 20
645.402316
 30
0.0
 10
312.231476
 20
645.510605
 30
0.0
 10
312.193460
 20
645.708767
 30
0.0
 10
312.261250
 20
645.993219
 30
0.0
  0
SPLINE
  5
191
100
AcDbEntity
  8
Layer_1
 62
7
100
AcDbSpline
 70
8
 71
3
 72
8
 73
4
 74
0
 40
0
 40
0
 40
0
 40
0
 40
1
 40
1
 40
1
 40
1
 10
312.261250
 20
645.993219
 30
0.0
 10
312.329040
 20
646.277642
 30
0.0
 10
312.455560
 20
646.618694
 30
0.0
 10
312.631667
 20
647.025094
 30
0.0
  0
SPLINE
  5
192
100
AcDbEntity
  8
Layer_1
 62
7
100
AcDbSpline
 70
8
 71
3
 72
8
 73
4
 74
0
 40
0
 40
0
 40
0
 40
0
 40
1
 40
1
 40
1
 40
1
 10
312.631667
 20
647.025094
 30
0.0
 10
312.807773
 20
647.431466
 30
0.0
 10
313.035160
 20
647.877800
 30
0.0
 10
313.319583
 20
648.365649
 30
0.0
  0
SPLINE
  5
193
100
AcDbEntity
  8
Layer_1
 62
7
100
AcDbSpline
 70
8
 71
3
 72
8
 73
4
 74
0
 40
0
 40
0
 40
0
 40
0
 40
1
 40
1
 40
1
 40
1
 10
313.319583
 20
648.365649
 30
0.0
 10
313.604035
 20
648.853470
 30
0.0
 10
313.895063
 20
649.367468
 30
0.0
 10
314.192694
 20
649.909052
 30
0.0
  0
SPLINE
  5
194
100
AcDbEntity
  8
Layer_1
 62
7
100
AcDbSpline
 70
8
 71
3
 72
8
 73
4
 74
0
 40
0
 40
0
 40
0
 40
0
 40
1
 40
1
 40
1
 40
1
 10
314.192694
 20
649.909052
 30
0.0
 10
314.491201
 20
650.450608
 30
0.0
 10
314.827835
 20
651.070312
 30
0.0
 10
315.206944
 20
651.761135
 30
0.0
  0
SPLINE
  5
195
100
AcDbEntity
  8
Layer_1
 62
7
100
AcDbSpline
 70
8
 71
3
 72
8
 73
4
 74
0
 40
0
 40
0
 40
0
 40
0
 40
1
 40
1
 40
1
 40
1
 10
315.206944
 20
651.761135
 30
0.0
 10
315.586054
 20
652.451931
 30
0.0
 10
315.931522
 20
653.054010
 30
0.0
 10
316.230000
 20
653.569122
 30
0.0
  0
SPLINE
  5
196
100
AcDbEntity
  8
Layer_1
 62
7
100
AcDbSpline
 70
8
 71
3
 72
8
 73
4
 74
0
 40
0
 40
0
 40
0
 40
0
 40
1
 40
1
 40
1
 40
1
 10
316.230000
 20
653.569122
 30
0.0
 10
316.446634
 20
653.921335
 30
0.0
 10
316.471808
 20
654.228788
 30
0.0
 10
316.309361
 20
654.486344
 30
0.0
  0
SPLINE
  5
197
100
AcDbEntity
  8
Layer_1
 62
7
100
AcDbSpline
 70
8
 71
3
 72
8
 73
4
 74
0
 40
0
 40
0
 40
0
 40
0
 40
1
 40
1
 40
1
 40
1
 10
316.309361
 20
654.486344
 30
0.0
 10
316.146886
 20
654.743900
 30
0.0
 10
315.906714
 20
654.924832
 30
0.0
 10
315.595000
 20
655.033149
 30
0.0
  0
SPLINE
  5
198
100
AcDbEntity
  8
Layer_1
 62
7
100
AcDbSpline
 70
8
 71
3
 72
8
 73
4
 74
0
 40
0
 40
0
 40
0
 40
0
 40
1
 40
1
 40
1
 40
1
 10
315.595000
 20
655.033149
 30
0.0
 10
315.283286
 20
655.141438
 30
0.0
 10
314.942615
 20
655.141438
 30
0.0
 10
314.563139
 20
655.033149
 30
0.0
  0
SPLINE
  5
199
100
AcDbEntity
  8
Layer_1
 62
7
100
AcDbSpline
 70
8
 71
3
 72
8
 73
4
 74
0
 40
0
 40
0
 40
0
 40
0
 40
1
 40
1
 40
1
 40
1
 10
314.563139
 20
655.033149
 30
0.0
 10
314.183578
 20
654.924832
 30
0.0
 10
313.871356
 20
654.680640
 30
0.0
 10
313.628250
 20
654.301135
 30
0.0
  0
SPLINE
  5
19a
100
AcDbEntity
  8
Layer_1
 62
7
100
AcDbSpline
 70
8
 71
3
 72
8
 73
4
 74
0
 40
0
 40
0
 40
0
 40
0
 40
1
 40
1
 40
1
 40
1
 10
313.628250
 20
654.301135
 30
0.0
 10
313.438088
 20
654.002657
 30
0.0
 10
313.215133
 20
653.640764
 30
0.0
 10
312.957972
 20
653.207524
 30
0.0
  0
SPLINE
  5
19b
100
AcDbEntity
  8
Layer_1
 62
7
100
AcDbSpline
 70
8
 71
3
 72
8
 73
4
 74
0
 40
0
 40
0
 40
0
 40
0
 40
1
 40
1
 40
1
 40
1
 10
312.957972
 20
653.207524
 30
0.0
 10
312.700811
 20
652.774257
 30
0.0
 10
312.422625
 20
652.310693
 30
0.0
 10
312.137778
 20
651.822872
 30
0.0
  0
SPLINE
  5
19c
100
AcDbEntity
  8
Layer_1
 62
7
100
AcDbSpline
 70
8
 71
3
 72
8
 73
4
 74
0
 40
0
 40
0
 40
0
 40
0
 40
1
 40
1
 40
1
 40
1
 10
312.137778
 20
651.822872
 30
0.0
 10
311.852959
 20
651.335050
 30
0.0
 10
311.579542
 20
650.842234
 30
0.0
 10
311.308750
 20
650.341205
 30
0.0
  0
SPLINE
  5
19d
100
AcDbEntity
  8
Layer_1
 62
7
100
AcDbSpline
 70
8
 71
3
 72
8
 73
4
 74
0
 40
0
 40
0
 40
0
 40
0
 40
1
 40
1
 40
1
 40
1
 10
311.308750
 20
650.341205
 30
0.0
 10
311.150000
 20
650.047479
 30
0.0
 10
310.999632
 20
649.773509
 30
0.0
 10
310.850139
 20
649.512177
 30
0.0
  0
SPLINE
  5
19e
100
AcDbEntity
  8
Layer_1
 62
7
100
AcDbSpline
 70
8
 71
3
 72
8
 73
4
 74
0
 40
0
 40
0
 40
0
 40
0
 40
1
 40
1
 40
1
 40
1
 10
310.850139
 20
649.512177
 30
0.0
 10
310.796517
 20
649.462630
 30
0.0
 10
310.744616
 20
649.411444
 30
0.0
 10
310.700194
 20
649.344608
 30
0.0
  0
SPLINE
  5
19f
100
AcDbEntity
  8
Layer_1
 62
7
100
AcDbSpline
 70
8
 71
3
 72
8
 73
4
 74
0
 40
0
 40
0
 40
0
 40
0
 40
1
 40
1
 40
1
 40
1
 10
310.700194
 20
649.344608
 30
0.0
 10
310.320662
 20
648.884049
 30
0.0
 10
309.853104
 20
648.349238
 30
0.0
 10
309.297917
 20
647.739469
 30
0.0
  0
SPLINE
  5
1a0
100
AcDbEntity
  8
Layer_1
 62
7
100
AcDbSpline
 70
8
 71
3
 72
8
 73
4
 74
0
 40
0
 40
0
 40
0
 40
0
 40
1
 40
1
 40
1
 40
1
 10
309.297917
 20
647.739469
 30
0.0
 10
308.742701
 20
647.129671
 30
0.0
 10
308.174277
 20
646.594888
 30
0.0
 10
307.578139
 20
646.134330
 30
0.0
  0
SPLINE
  5
1a1
100
AcDbEntity
  8
Layer_1
 62
7
100
AcDbSpline
 70
8
 71
3
 72
8
 73
4
 74
0
 40
0
 40
0
 40
0
 40
0
 40
1
 40
1
 40
1
 40
1
 10
307.578139
 20
646.134330
 30
0.0
 10
306.846365
 20
645.592774
 30
0.0
 10
306.235467
 20
645.326949
 30
0.0
 10
305.761305
 20
645.340580
 30
0.0
  0
SPLINE
  5
1a2
100
AcDbEntity
  8
Layer_1
 62
7
100
AcDbSpline
 70
8
 71
3
 72
8
 73
4
 74
0
 40
0
 40
0
 40
0
 40
0
 40
1
 40
1
 40
1
 40
1
 10
305.761305
 20
645.340580
 30
0.0
 10
305.287116
 20
645.354239
 30
0.0
 10
304.942071
 20
645.531165
 30
0.0
 10
304.711806
 20
645.869747
 30
0.0
  0
SPLINE
  5
1a3
100
AcDbEntity
  8
Layer_1
 62
7
100
AcDbSpline
 70
8
 71
3
 72
8
 73
4
 74
0
 40
0
 40
0
 40
0
 40
0
 40
1
 40
1
 40
1
 40
1
 10
304.711806
 20
645.869747
 30
0.0
 10
304.481540
 20
646.208329
 30
0.0
 10
304.371841
 20
646.650655
 30
0.0
 10
304.385472
 20
647.192663
 30
0.0
  0
SPLINE
  5
1a4
100
AcDbEntity
  8
Layer_1
 62
7
100
AcDbSpline
 70
8
 71
3
 72
8
 73
4
 74
0
 40
0
 40
0
 40
0
 40
0
 40
1
 40
1
 40
1
 40
1
 10
304.385472
 20
647.192663
 30
0.0
 10
304.399103
 20
647.734643
 30
0.0
 10
304.512811
 20
648.257050
 30
0.0
 10
304.729444
 20
648.771344
 30
0.0
  0
SPLINE
  5
1a5
100
AcDbEntity
  8
Layer_1
 62
7
100
AcDbSpline
 70
8
 71
3
 72
8
 73
4
 74
0
 40
0
 40
0
 40
0
 40
0
 40
1
 40
1
 40
1
 40
1
 10
304.729444
 20
648.771344
 30
0.0
 10
305.542216
 20
649.422035
 30
0.0
 10
306.367660
 20
650.104181
 30
0.0
 10
307.207694
 20
650.808635
 30
0.0
  0
SPLINE
  5
1a6
100
AcDbEntity
  8
Layer_1
 62
7
100
AcDbSpline
 70
8
 71
3
 72
8
 73
4
 74
0
 40
0
 40
0
 40
0
 40
0
 40
1
 40
1
 40
1
 40
1
 10
307.207694
 20
650.808635
 30
0.0
 10
307.912177
 20
651.404773
 30
0.0
 10
308.666360
 20
652.053278
 30
0.0
 10
309.465472
 20
652.757733
 30
0.0
  0
SPLINE
  5
1a7
100
AcDbEntity
  8
Layer_1
 62
7
100
AcDbSpline
 70
8
 71
3
 72
8
 73
4
 74
0
 40
0
 40
0
 40
0
 40
0
 40
1
 40
1
 40
1
 40
1
 10
309.465472
 20
652.757733
 30
0.0
 10
310.264612
 20
653.462188
 30
0.0
 10
311.018823
 20
654.136304
 30
0.0
 10
311.723250
 20
654.786205
 30
0.0
  0
SPLINE
  5
1a8
100
AcDbEntity
  8
Layer_1
 62
7
100
AcDbSpline
 70
8
 71
3
 72
8
 73
4
 74
0
 40
0
 40
0
 40
0
 40
0
 40
1
 40
1
 40
1
 40
1
 10
311.723250
 20
654.786205
 30
0.0
 10
312.752655
 20
655.761819
 30
0.0
 10
313.586509
 20
656.671746
 30
0.0
 10
314.236806
 20
657.511413
 30
0.0
  0
SPLINE
  5
1a9
100
AcDbEntity
  8
Layer_1
 62
7
100
AcDbSpline
 70
8
 71
3
 72
8
 73
4
 74
0
 40
0
 40
0
 40
0
 40
0
 40
1
 40
1
 40
1
 40
1
 10
314.236806
 20
657.511413
 30
0.0
 10
314.887102
 20
658.351024
 30
0.0
 10
315.375883
 20
659.113645
 30
0.0
 10
315.700833
 20
659.804469
 30
0.0
  0
SPLINE
  5
1aa
100
AcDbEntity
  8
Layer_1
 62
7
100
AcDbSpline
 70
8
 71
3
 72
8
 73
4
 74
0
 40
0
 40
0
 40
0
 40
0
 40
1
 40
1
 40
1
 40
1
 10
315.700833
 20
659.804469
 30
0.0
 10
316.025784
 20
660.495264
 30
0.0
 10
316.206717
 20
661.118552
 30
0.0
 10
316.247639
 20
661.674191
 30
0.0
  0
SPLINE
  5
1ab
100
AcDbEntity
  8
Layer_1
 62
7
100
AcDbSpline
 70
8
 71
3
 72
8
 73
4
 74
0
 40
0
 40
0
 40
0
 40
0
 40
1
 40
1
 40
1
 40
1
 10
316.247639
 20
661.674191
 30
0.0
 10
316.288561
 20
662.229802
 30
0.0
 10
316.217328
 20
662.731410
 30
0.0
 10
316.027139
 20
663.164677
 30
0.0
  0
SPLINE
  5
1ac
100
AcDbEntity
  8
Layer_1
 62
7
100
AcDbSpline
 70
8
 71
3
 72
8
 73
4
 74
0
 40
0
 40
0
 40
0
 40
0
 40
1
 40
1
 40
1
 40
1
 10
316.027139
 20
663.164677
 30
0.0
 10
315.810505
 20
663.679789
 30
0.0
 10
315.540672
 20
663.969984
 30
0.0
 10
315.215750
 20
664.037802
 30
0.0
  0
SPLINE
  5
1ad
100
AcDbEntity
  8
Layer_1
 62
7
100
AcDbSpline
 70
8
 71
3
 72
8
 73
4
 74
0
 40
0
 40
0
 40
0
 40
0
 40
1
 40
1
 40
1
 40
1
 10
315.215750
 20
664.037802
 30
0.0
 10
314.890827
 20
664.105592
 30
0.0
 10
314.402442
 20
663.975487
 30
0.0
 10
313.751750
 20
663.649747
 30
0.0
  0
SPLINE
  5
1ae
100
AcDbEntity
  8
Layer_1
 62
7
100
AcDbSpline
 70
8
 71
3
 72
8
 73
4
 74
0
 40
0
 40
0
 40
0
 40
0
 40
1
 40
1
 40
1
 40
1
 10
313.751750
 20
663.649747
 30
0.0
 10
312.885215
 20
663.243770
 30
0.0
 10
311.945669
 20
662.602829
 30
0.0
 10
310.929528
 20
661.735927
 30
0.0
  0
SPLINE
  5
1af
100
AcDbEntity
  8
Layer_1
 62
7
100
AcDbSpline
 70
8
 71
3
 72
8
 73
4
 74
0
 40
0
 40
0
 40
0
 40
0
 40
1
 40
1
 40
1
 40
1
 10
310.929528
 20
661.735927
 30
0.0
 10
309.913359
 20
660.868997
 30
0.0
 10
308.893718
 20
659.845405
 30
0.0
 10
307.877972
 20
658.666760
 30
0.0
  0
SPLINE
  5
1b0
100
AcDbEntity
  8
Layer_1
 62
7
100
AcDbSpline
 70
8
 71
3
 72
8
 73
4
 74
0
 40
0
 40
0
 40
0
 40
0
 40
1
 40
1
 40
1
 40
1
 10
307.877972
 20
658.666760
 30
0.0
 10
306.862226
 20
657.488116
 30
0.0
 10
305.880685
 20
656.173877
 30
0.0
 10
304.932306
 20
654.724469
 30
0.0
  0
SPLINE
  5
1b1
100
AcDbEntity
  8
Layer_1
 62
7
100
AcDbSpline
 70
8
 71
3
 72
8
 73
4
 74
0
 40
0
 40
0
 40
0
 40
0
 40
1
 40
1
 40
1
 40
1
 10
304.932306
 20
654.724469
 30
0.0
 10
303.983926
 20
653.275060
 30
0.0
 10
303.141690
 20
651.737415
 30
0.0
 10
302.409916
 20
650.111899
 30
0.0
  0
SPLINE
  5
1b2
100
AcDbEntity
  8
Layer_1
 62
7
100
AcDbSpline
 70
8
 71
3
 72
8
 73
4
 74
0
 40
0
 40
0
 40
0
 40
0
 40
1
 40
1
 40
1
 40
1
 10
302.409916
 20
650.111899
 30
0.0
 10
302.305551
 20
649.889971
 30
0.0
 10
302.210696
 20
649.667394
 30
0.0
 10
302.118889
 20
649.432802
 30
0.0
  0
SPLINE
  5
1b3
100
AcDbEntity
  8
Layer_1
 62
7
100
AcDbSpline
 70
8
 71
3
 72
8
 73
4
 74
0
 40
0
 40
0
 40
0
 40
0
 40
1
 40
1
 40
1
 40
1
 10
302.118889
 20
649.432802
 30
0.0
 10
302.094618
 20
649.403781
 30
0.0
 10
302.070601
 20
649.377927
 30
0.0
 10
302.048333
 20
649.344608
 30
0.0
  0
SPLINE
  5
1b4
100
AcDbEntity
  8
Layer_1
 62
7
100
AcDbSpline
 70
8
 71
3
 72
8
 73
4
 74
0
 40
0
 40
0
 40
0
 40
0
 40
1
 40
1
 40
1
 40
1
 10
302.048333
 20
649.344608
 30
0.0
 10
301.858990
 20
649.100683
 30
0.0
 10
301.631181
 20
648.835281
 30
0.0
 10
301.360417
 20
648.550858
 30
0.0
  0
SPLINE
  5
1b5
100
AcDbEntity
  8
Layer_1
 62
7
100
AcDbSpline
 70
8
 71
3
 72
8
 73
4
 74
0
 40
0
 40
0
 40
0
 40
0
 40
1
 40
1
 40
1
 40
1
 10
301.360417
 20
648.550858
 30
0.0
 10
301.089624
 20
648.266406
 30
0.0
 10
300.794984
 20
647.975816
 30
0.0
 10
300.469639
 20
647.677733
 30
0.0
  0
SPLINE
  5
1b6
100
AcDbEntity
  8
Layer_1
 62
7
100
AcDbSpline
 70
8
 71
3
 72
8
 73
4
 74
0
 40
0
 40
0
 40
0
 40
0
 40
1
 40
1
 40
1
 40
1
 10
300.469639
 20
647.677733
 30
0.0
 10
300.144293
 20
647.379678
 30
0.0
 10
299.798825
 20
647.093011
 30
0.0
 10
299.446583
 20
646.822247
 30
0.0
  0
SPLINE
  5
1b7
100
AcDbEntity
  8
Layer_1
 62
7
100
AcDbSpline
 70
8
 71
3
 72
8
 73
4
 74
0
 40
0
 40
0
 40
0
 40
0
 40
1
 40
1
 40
1
 40
1
 10
299.446583
 20
646.822247
 30
0.0
 10
299.094342
 20
646.551454
 30
0.0
 10
298.757284
 20
646.324519
 30
0.0
 10
298.432361
 20
646.134330
 30
0.0
  0
SPLINE
  5
1b8
100
AcDbEntity
  8
Layer_1
 62
7
100
AcDbSpline
 70
8
 71
3
 72
8
 73
4
 74
0
 40
0
 40
0
 40
0
 40
0
 40
1
 40
1
 40
1
 40
1
 10
298.432361
 20
646.134330
 30
0.0
 10
297.592298
 20
645.620065
 30
0.0
 10
296.834108
 20
645.337010
 30
0.0
 10
296.156944
 20
645.296483
 30
0.0
  0
SPLINE
  5
1b9
100
AcDbEntity
  8
Layer_1
 62
7
100
AcDbSpline
 70
8
 71
3
 72
8
 73
4
 74
0
 40
0
 40
0
 40
0
 40
0
 40
1
 40
1
 40
1
 40
1
 10
296.156944
 20
645.296483
 30
0.0
 10
295.479780
 20
645.255956
 30
0.0
 10
294.940538
 20
645.399705
 30
0.0
 10
294.534167
 20
645.710997
 30
0.0
  0
SPLINE
  5
1ba
100
AcDbEntity
  8
Layer_1
 62
7
100
AcDbSpline
 70
8
 71
3
 72
8
 73
4
 74
0
 40
0
 40
0
 40
0
 40
0
 40
1
 40
1
 40
1
 40
1
 10
294.534167
 20
645.710997
 30
0.0
 10
294.127767
 20
646.022288
 30
0.0
 10
293.887596
 20
646.456247
 30
0.0
 10
293.819806
 20
647.025094
 30
0.0
  0
SPLINE
  5
1bb
100
AcDbEntity
  8
Layer_1
 62
7
100
AcDbSpline
 70
8
 71
3
 72
8
 73
4
 74
0
 40
0
 40
0
 40
0
 40
0
 40
1
 40
1
 40
1
 40
1
 10
293.819806
 20
647.025094
 30
0.0
 10
293.751988
 20
647.593941
 30
0.0
 10
293.925357
 20
648.242445
 30
0.0
 10
294.331305
 20
648.974191
 30
0.0
  0
SPLINE
  5
1bc
100
AcDbEntity
  8
Layer_1
 62
7
100
AcDbSpline
 70
8
 71
3
 72
8
 73
4
 74
0
 40
0
 40
0
 40
0
 40
0
 40
1
 40
1
 40
1
 40
1
 10
294.331305
 20
648.974191
 30
0.0
 10
294.657074
 20
649.543038
 30
0.0
 10
295.010558
 20
650.073870
 30
0.0
 10
295.389639
 20
650.561691
 30
0.0
  0
SPLINE
  5
1bd
100
AcDbEntity
  8
Layer_1
 62
7
100
AcDbSpline
 70
8
 71
3
 72
8
 73
4
 74
0
 40
0
 40
0
 40
0
 40
0
 40
1
 40
1
 40
1
 40
1
 10
295.389639
 20
650.561691
 30
0.0
 10
295.768748
 20
651.049512
 30
0.0
 10
296.147857
 20
651.474609
 30
0.0
 10
296.527361
 20
651.840510
 30
0.0
  0
SPLINE
  5
1be
100
AcDbEntity
  8
Layer_1
 62
7
100
AcDbSpline
 70
8
 71
3
 72
8
 73
4
 74
0
 40
0
 40
0
 40
0
 40
0
 40
1
 40
1
 40
1
 40
1
 10
296.527361
 20
651.840510
 30
0.0
 10
296.906865
 20
652.206355
 30
0.0
 10
297.268731
 20
652.492994
 30
0.0
 10
297.620972
 20
652.695997
 30
0.0
  0
SPLINE
  5
1bf
100
AcDbEntity
  8
Layer_1
 62
7
100
AcDbSpline
 70
8
 71
3
 72
8
 73
4
 74
0
 40
0
 40
0
 40
0
 40
0
 40
1
 40
1
 40
1
 40
1
 10
297.620972
 20
652.695997
 30
0.0
 10
297.973186
 20
652.898971
 30
0.0
 10
298.285436
 20
653.004677
 30
0.0
 10
298.555833
 20
653.004677
 30
0.0
  0
SPLINE
  5
1c0
100
AcDbEntity
  8
Layer_1
 62
7
100
AcDbSpline
 70
8
 71
3
 72
8
 73
4
 74
0
 40
0
 40
0
 40
0
 40
0
 40
1
 40
1
 40
1
 40
1
 10
298.555833
 20
653.004677
 30
0.0
 10
298.827021
 20
653.004677
 30
0.0
 10
298.944736
 20
652.916200
 30
0.0
 10
298.917416
 20
652.740094
 30
0.0
  0
SPLINE
  5
1c1
100
AcDbEntity
  8
Layer_1
 62
7
100
AcDbSpline
 70
8
 71
3
 72
8
 73
4
 74
0
 40
0
 40
0
 40
0
 40
0
 40
1
 40
1
 40
1
 40
1
 10
298.917416
 20
652.740094
 30
0.0
 10
298.890126
 20
652.563987
 30
0.0
 10
298.789259
 20
652.344588
 30
0.0
 10
298.599916
 20
652.087455
 30
0.0
  0
SPLINE
  5
1c2
100
AcDbEntity
  8
Layer_1
 62
7
100
AcDbSpline
 70
8
 71
3
 72
8
 73
4
 74
0
 40
0
 40
0
 40
0
 40
0
 40
1
 40
1
 40
1
 40
1
 10
298.599916
 20
652.087455
 30
0.0
 10
298.410574
 20
651.830294
 30
0.0
 10
298.174382
 20
651.564892
 30
0.0
 10
297.903194
 20
651.293705
 30
0.0
  0
SPLINE
  5
1c3
100
AcDbEntity
  8
Layer_1
 62
7
100
AcDbSpline
 70
8
 71
3
 72
8
 73
4
 74
0
 40
0
 40
0
 40
0
 40
0
 40
1
 40
1
 40
1
 40
1
 10
297.903194
 20
651.293705
 30
0.0
 10
297.632007
 20
651.022489
 30
0.0
 10
297.404592
 20
650.795131
 30
0.0
 10
297.215278
 20
650.605788
 30
0.0
  0
SPLINE
  5
1c4
100
AcDbEntity
  8
Layer_1
 62
7
100
AcDbSpline
 70
8
 71
3
 72
8
 73
4
 74
0
 40
0
 40
0
 40
0
 40
0
 40
1
 40
1
 40
1
 40
1
 10
297.215278
 20
650.605788
 30
0.0
 10
297.025907
 20
650.442890
 30
0.0
 10
296.966668
 20
650.241143
 30
0.0
 10
297.047694
 20
649.997247
 30
0.0
  0
SPLINE
  5
1c5
100
AcDbEntity
  8
Layer_1
 62
7
100
AcDbSpline
 70
8
 71
3
 72
8
 73
4
 74
0
 40
0
 40
0
 40
0
 40
0
 40
1
 40
1
 40
1
 40
1
 10
297.047694
 20
649.997247
 30
0.0
 10
297.128748
 20
649.753322
 30
0.0
 10
297.280866
 20
649.537930
 30
0.0
 10
297.497500
 20
649.362247
 30
0.0
  0
SPLINE
  5
1c6
100
AcDbEntity
  8
Layer_1
 62
7
100
AcDbSpline
 70
8
 71
3
 72
8
 73
4
 74
0
 40
0
 40
0
 40
0
 40
0
 40
1
 40
1
 40
1
 40
1
 10
297.497500
 20
649.362247
 30
0.0
 10
297.714134
 20
649.186535
 30
0.0
 10
297.979536
 20
649.089676
 30
0.0
 10
298.291250
 20
649.062385
 30
0.0
  0
SPLINE
  5
1c7
100
AcDbEntity
  8
Layer_1
 62
7
100
AcDbSpline
 70
8
 71
3
 72
8
 73
4
 74
0
 40
0
 40
0
 40
0
 40
0
 40
1
 40
1
 40
1
 40
1
 10
298.291250
 20
649.062385
 30
0.0
 10
298.602964
 20
649.035095
 30
0.0
 10
298.909966
 20
649.144780
 30
0.0
 10
299.208472
 20
649.388705
 30
0.0
  0
SPLINE
  5
1c8
100
AcDbEntity
  8
Layer_1
 62
7
100
AcDbSpline
 70
8
 71
3
 72
8
 73
4
 74
0
 40
0
 40
0
 40
0
 40
0
 40
1
 40
1
 40
1
 40
1
 10
299.208472
 20
649.388705
 30
0.0
 10
299.533395
 20
649.659892
 30
0.0
 10
299.895712
 20
650.042995
 30
0.0
 10
300.302083
 20
650.544052
 30
0.0
  0
SPLINE
  5
1c9
100
AcDbEntity
  8
Layer_1
 62
7
100
AcDbSpline
 70
8
 71
3
 72
8
 73
4
 74
0
 40
0
 40
0
 40
0
 40
0
 40
1
 40
1
 40
1
 40
1
 10
300.302083
 20
650.544052
 30
0.0
 10
300.708483
 20
651.045081
 30
0.0
 10
301.020311
 20
651.576336
 30
0.0
 10
301.236944
 20
652.131552
 30
0.0
  0
SPLINE
  5
1ca
100
AcDbEntity
  8
Layer_1
 62
7
100
AcDbSpline
 70
8
 71
3
 72
8
 73
4
 74
0
 40
0
 40
0
 40
0
 40
0
 40
1
 40
1
 40
1
 40
1
 10
301.236944
 20
652.131552
 30
0.0
 10
301.453578
 20
652.686768
 30
0.0
 10
301.525206
 20
653.204773
 30
0.0
 10
301.457416
 20
653.692594
 30
0.0
  0
SPLINE
  5
1cb
100
AcDbEntity
  8
Layer_1
 62
7
100
AcDbSpline
 70
8
 71
3
 72
8
 73
4
 74
0
 40
0
 40
0
 40
0
 40
0
 40
1
 40
1
 40
1
 40
1
 10
301.457416
 20
653.692594
 30
0.0
 10
301.389655
 20
654.180415
 30
0.0
 10
301.056971
 20
654.542280
 30
0.0
 10
300.460833
 20
654.786205
 30
0.0
  0
SPLINE
  5
1cc
100
AcDbEntity
  8
Layer_1
 62
7
100
AcDbSpline
 70
8
 71
3
 72
8
 73
4
 74
0
 40
0
 40
0
 40
0
 40
0
 40
1
 40
1
 40
1
 40
1
 10
300.460833
 20
654.786205
 30
0.0
 10
299.810960
 20
655.030101
 30
0.0
 10
299.107606
 20
655.097341
 30
0.0
 10
298.335361
 20
654.989052
 30
0.0
  0
SPLINE
  5
1cd
100
AcDbEntity
  8
Layer_1
 62
7
100
AcDbSpline
 70
8
 71
3
 72
8
 73
4
 74
0
 40
0
 40
0
 40
0
 40
0
 40
1
 40
1
 40
1
 40
1
 10
298.335361
 20
654.989052
 30
0.0
 10
297.563088
 20
654.880707
 30
0.0
 10
296.804870
 20
654.611298
 30
0.0
 10
296.059916
 20
654.177663
 30
0.0
  0
SPLINE
  5
1ce
100
AcDbEntity
  8
Layer_1
 62
7
100
AcDbSpline
 70
8
 71
3
 72
8
 73
4
 74
0
 40
0
 40
0
 40
0
 40
0
 40
1
 40
1
 40
1
 40
1
 10
296.059916
 20
654.177663
 30
0.0
 10
295.314963
 20
653.743972
 30
0.0
 10
294.589962
 20
653.183945
 30
0.0
 10
293.899167
 20
652.493149
 30
0.0
  0
SPLINE
  5
1cf
100
AcDbEntity
  8
Layer_1
 62
7
100
AcDbSpline
 70
8
 71
3
 72
8
 73
4
 74
0
 40
0
 40
0
 40
0
 40
0
 40
1
 40
1
 40
1
 40
1
 10
293.899167
 20
652.493149
 30
0.0
 10
293.208343
 20
651.802326
 30
0.0
 10
292.606278
 20
651.005669
 30
0.0
 10
292.091195
 20
650.111899
 30
0.0
  0
SPLINE
  5
1d0
100
AcDbEntity
  8
Layer_1
 62
7
100
AcDbSpline
 70
8
 71
3
 72
8
 73
4
 74
0
 40
0
 40
0
 40
0
 40
0
 40
1
 40
1
 40
1
 40
1
 10
292.091195
 20
650.111899
 30
0.0
 10
291.948136
 20
649.857318
 30
0.0
 10
291.822293
 20
649.591640
 30
0.0
 10
291.711944
 20
649.309330
 30
0.0
  0
SPLINE
  5
1d1
100
AcDbEntity
  8
Layer_1
 62
7
100
AcDbSpline
 70
8
 71
3
 72
8
 73
4
 74
0
 40
0
 40
0
 40
0
 40
0
 40
1
 40
1
 40
1
 40
1
 10
291.711944
 20
649.309330
 30
0.0
 10
291.519328
 20
649.068405
 30
0.0
 10
291.215854
 20
648.743167
 30
0.0
 10
290.777083
 20
648.330372
 30
0.0
  0
SPLINE
  5
1d2
100
AcDbEntity
  8
Layer_1
 62
7
100
AcDbSpline
 70
8
 71
3
 72
8
 73
4
 74
0
 40
0
 40
0
 40
0
 40
0
 40
1
 40
1
 40
1
 40
1
 10
290.777083
 20
648.330372
 30
0.0
 10
290.316525
 20
647.897104
 30
0.0
 10
289.785721
 20
647.458756
 30
0.0
 10
289.189583
 20
647.025094
 30
0.0
  0
SPLINE
  5
1d3
100
AcDbEntity
  8
Layer_1
 62
7
100
AcDbSpline
 70
8
 71
3
 72
8
 73
4
 74
0
 40
0
 40
0
 40
0
 40
0
 40
1
 40
1
 40
1
 40
1
 10
289.189583
 20
647.025094
 30
0.0
 10
288.593445
 20
646.591431
 30
0.0
 10
287.970129
 20
646.204321
 30
0.0
 10
287.319861
 20
645.852108
 30
0.0
  0
SPLINE
  5
1d4
100
AcDbEntity
  8
Layer_1
 62
7
100
AcDbSpline
 70
8
 71
3
 72
8
 73
4
 74
0
 40
0
 40
0
 40
0
 40
0
 40
1
 40
1
 40
1
 40
1
 10
287.319861
 20
645.852108
 30
0.0
 10
286.669565
 20
645.499866
 30
0.0
 10
286.071084
 20
645.306135
 30
0.0
 10
285.529528
 20
645.278844
 30
0.0
  0
SPLINE
  5
1d5
100
AcDbEntity
  8
Layer_1
 62
7
100
AcDbSpline
 70
8
 71
3
 72
8
 73
4
 74
0
 40
0
 40
0
 40
0
 40
0
 40
1
 40
1
 40
1
 40
1
 10
285.529528
 20
645.278844
 30
0.0
 10
284.797754
 20
645.225109
 30
0.0
 10
284.103233
 20
645.291925
 30
0.0
 10
283.439306
 20
645.481691
 30
0.0
  0
SPLINE
  5
1d6
100
AcDbEntity
  8
Layer_1
 62
7
100
AcDbSpline
 70
8
 71
3
 72
8
 73
4
 74
0
 40
0
 40
0
 40
0
 40
0
 40
1
 40
1
 40
1
 40
1
 10
283.439306
 20
645.481691
 30
0.0
 10
282.775350
 20
645.671457
 30
0.0
 10
282.198101
 20
645.979277
 30
0.0
 10
281.710694
 20
646.398913
 30
0.0
  0
SPLINE
  5
1d7
100
AcDbEntity
  8
Layer_1
 62
7
100
AcDbSpline
 70
8
 71
3
 72
8
 73
4
 74
0
 40
0
 40
0
 40
0
 40
0
 40
1
 40
1
 40
1
 40
1
 10
281.710694
 20
646.398913
 30
0.0
 10
281.223277
 20
646.818521
 30
0.0
 10
280.856998
 20
647.357735
 30
0.0
 10
280.599444
 20
648.021691
 30
0.0
  0
SPLINE
  5
1d8
100
AcDbEntity
  8
Layer_1
 62
7
100
AcDbSpline
 70
8
 71
3
 72
8
 73
4
 74
0
 40
0
 40
0
 40
0
 40
0
 40
1
 40
1
 40
1
 40
1
 10
280.599444
 20
648.021691
 30
0.0
 10
280.341888
 20
648.685619
 30
0.0
 10
280.253829
 20
649.465046
 30
0.0
 10
280.334861
 20
650.358844
 30
0.0
  0
SPLINE
  5
1d9
100
AcDbEntity
  8
Layer_1
 62
7
100
AcDbSpline
 70
8
 71
3
 72
8
 73
4
 74
0
 40
0
 40
0
 40
0
 40
0
 40
1
 40
1
 40
1
 40
1
 10
280.334861
 20
650.358844
 30
0.0
 10
280.416714
 20
651.198878
 30
0.0
 10
280.660489
 20
651.927449
 30
0.0
 10
281.066875
 20
652.537247
 30
0.0
  0
SPLINE
  5
1da
100
AcDbEntity
  8
Layer_1
 62
7
100
AcDbSpline
 70
8
 71
3
 72
8
 73
4
 74
0
 40
0
 40
0
 40
0
 40
0
 40
1
 40
1
 40
1
 40
1
 10
281.066875
 20
652.537247
 30
0.0
 10
281.473255
 20
653.147016
 30
0.0
 10
281.953233
 20
653.622603
 30
0.0
 10
282.522083
 20
653.974816
 30
0.0
  0
SPLINE
  5
1db
100
AcDbEntity
  8
Layer_1
 62
7
100
AcDbSpline
 70
8
 71
3
 72
8
 73
4
 74
0
 40
0
 40
0
 40
0
 40
0
 40
1
 40
1
 40
1
 40
1
 10
282.522083
 20
653.974816
 30
0.0
 10
283.090930
 20
654.327058
 30
0.0
 10
283.702224
 20
654.563235
 30
0.0
 10
284.338889
 20
654.671552
 30
0.0
  0
SPLINE
  5
1dc
100
AcDbEntity
  8
Layer_1
 62
7
100
AcDbSpline
 70
8
 71
3
 72
8
 73
4
 74
0
 40
0
 40
0
 40
0
 40
0
 40
1
 40
1
 40
1
 40
1
 10
284.338889
 20
654.671552
 30
0.0
 10
284.975526
 20
654.779841
 30
0.0
 10
285.561193
 20
654.763034
 30
0.0
 10
286.102778
 20
654.627455
 30
0.0
  0
SPLINE
  5
1dd
100
AcDbEntity
  8
Layer_1
 62
7
100
AcDbSpline
 70
8
 71
3
 72
8
 73
4
 74
0
 40
0
 40
0
 40
0
 40
0
 40
1
 40
1
 40
1
 40
1
 10
286.102778
 20
654.627455
 30
0.0
 10
286.401228
 20
654.572873
 30
0.0
 10
286.641060
 20
654.690969
 30
0.0
 10
286.817139
 20
654.989052
 30
0.0
  0
SPLINE
  5
1de
100
AcDbEntity
  8
Layer_1
 62
7
100
AcDbSpline
 70
8
 71
3
 72
8
 73
4
 74
0
 40
0
 40
0
 40
0
 40
0
 40
1
 40
1
 40
1
 40
1
 10
286.817139
 20
654.989052
 30
0.0
 10
286.993274
 20
655.287107
 30
0.0
 10
286.930423
 20
655.632575
 30
0.0
 10
286.631944
 20
656.012108
 30
0.0
  0
SPLINE
  5
1df
100
AcDbEntity
  8
Layer_1
 62
7
100
AcDbSpline
 70
8
 71
3
 72
8
 73
4
 74
0
 40
0
 40
0
 40
0
 40
0
 40
1
 40
1
 40
1
 40
1
 10
286.631944
 20
656.012108
 30
0.0
 10
286.253259
 20
656.445347
 30
0.0
 10
285.983426
 20
657.001395
 30
0.0
 10
285.820556
 20
657.678983
 30
0.0
  0
SPLINE
  5
1e0
100
AcDbEntity
  8
Layer_1
 62
7
100
AcDbSpline
 70
8
 71
3
 72
8
 73
4
 74
0
 40
0
 40
0
 40
0
 40
0
 40
1
 40
1
 40
1
 40
1
 10
285.820556
 20
657.678983
 30
0.0
 10
285.657657
 20
658.356570
 30
0.0
 10
285.619613
 20
659.080696
 30
0.0
 10
285.714722
 20
659.866205
 30
0.0
  0
SPLINE
  5
1e1
100
AcDbEntity
  8
Layer_1
 62
7
100
AcDbSpline
 70
8
 71
3
 72
8
 73
4
 74
0
 40
0
 40
0
 40
0
 40
0
 40
1
 40
1
 40
1
 40
1
 10
285.714722
 20
659.866205
 30
0.0
 10
285.809775
 20
660.651658
 30
0.0
 10
286.070774
 20
661.490366
 30
0.0
 10
286.490833
 20
662.370927
 30
0.0
  0
SPLINE
  5
1e2
100
AcDbEntity
  8
Layer_1
 62
7
100
AcDbSpline
 70
8
 71
3
 72
8
 73
4
 74
0
 40
0
 40
0
 40
0
 40
0
 40
1
 40
1
 40
1
 40
1
 10
286.490833
 20
662.370927
 30
0.0
 10
286.910836
 20
663.251489
 30
0.0
 10
287.513324
 20
664.122949
 30
0.0
 10
288.298805
 20
664.990302
 30
0.0
  0
SPLINE
  5
1e3
100
AcDbEntity
  8
Layer_1
 62
7
100
AcDbSpline
 70
8
 71
3
 72
8
 73
4
 74
0
 40
0
 40
0
 40
0
 40
0
 40
1
 40
1
 40
1
 40
1
 10
288.298805
 20
664.990302
 30
0.0
 10
289.138868
 20
665.938653
 30
0.0
 10
289.968291
 20
666.696843
 30
0.0
 10
290.794722
 20
667.265719
 30
0.0
  0
SPLINE
  5
1e4
100
AcDbEntity
  8
Layer_1
 62
7
100
AcDbSpline
 70
8
 71
3
 72
8
 73
4
 74
0
 40
0
 40
0
 40
0
 40
0
 40
1
 40
1
 40
1
 40
1
 10
290.794722
 20
667.265719
 30
0.0
 10
291.621097
 20
667.834566
 30
0.0
 10
292.404546
 20
668.238849
 30
0.0
 10
293.149528
 20
668.482802
 30
0.0
  0
SPLINE
  5
1e5
100
AcDbEntity
  8
Layer_1
 62
7
100
AcDbSpline
 70
8
 71
3
 72
8
 73
4
 74
0
 40
0
 40
0
 40
0
 40
0
 40
1
 40
1
 40
1
 40
1
 10
293.149528
 20
668.482802
 30
0.0
 10
293.894482
 20
668.726670
 30
0.0
 10
294.585418
 20
668.836384
 30
0.0
 10
295.222083
 20
668.809122
 30
0.0
  0
SPLINE
  5
1e6
100
AcDbEntity
  8
Layer_1
 62
7
100
AcDbSpline
 70
8
 71
3
 72
8
 73
4
 74
0
 40
0
 40
0
 40
0
 40
0
 40
1
 40
1
 40
1
 40
1
 10
295.222083
 20
668.809122
 30
0.0
 10
295.858720
 20
668.781831
 30
0.0
 10
296.410775
 20
668.638490
 30
0.0
 10
296.871305
 20
668.368149
 30
0.0
  0
SPLINE
  5
1e7
100
AcDbEntity
  8
Layer_1
 62
7
100
AcDbSpline
 70
8
 71
3
 72
8
 73
4
 74
0
 40
0
 40
0
 40
0
 40
0
 40
1
 40
1
 40
1
 40
1
 10
296.871305
 20
668.368149
 30
0.0
 10
297.331836
 20
668.096934
 30
0.0
 10
297.555214
 20
667.662961
 30
0.0
 10
297.541583
 20
667.080510
 30
0.0
  0
SPLINE
  5
1e8
100
AcDbEntity
  8
Layer_1
 62
7
100
AcDbSpline
 70
8
 71
3
 72
8
 73
4
 74
0
 40
0
 40
0
 40
0
 40
0
 40
1
 40
1
 40
1
 40
1
 10
297.541583
 20
667.080510
 30
0.0
 10
297.527924
 20
666.497976
 30
0.0
 10
297.347019
 20
665.845492
 30
0.0
 10
296.994806
 20
665.113774
 30
0.0
  0
SPLINE
  5
1e9
100
AcDbEntity
  8
Layer_1
 62
7
100
AcDbSpline
 70
8
 71
3
 72
8
 73
4
 74
0
 40
0
 40
0
 40
0
 40
0
 40
1
 40
1
 40
1
 40
1
 10
296.994806
 20
665.113774
 30
0.0
 10
296.642536
 20
664.382029
 30
0.0
 10
296.174978
 20
663.602601
 30
0.0
 10
295.592500
 20
662.776622
 30
0.0
  0
SPLINE
  5
1ea
100
AcDbEntity
  8
Layer_1
 62
7
100
AcDbSpline
 70
8
 71
3
 72
8
 73
4
 74
0
 40
0
 40
0
 40
0
 40
0
 40
1
 40
1
 40
1
 40
1
 10
295.592500
 20
662.776622
 30
0.0
 10
295.009993
 20
661.950614
 30
0.0
 10
294.386282
 20
661.171186
 30
0.0
 10
293.722778
 20
660.439469
 30
0.0
  0
SPLINE
  5
1eb
100
AcDbEntity
  8
Layer_1
 62
7
100
AcDbSpline
 70
8
 71
3
 72
8
 73
4
 74
0
 40
0
 40
0
 40
0
 40
0
 40
1
 40
1
 40
1
 40
1
 10
293.722778
 20
660.439469
 30
0.0
 10
293.059217
 20
659.707695
 30
0.0
 10
292.406324
 20
659.046420
 30
0.0
 10
291.756028
 20
658.463913
 30
0.0
  0
SPLINE
  5
1ec
100
AcDbEntity
  8
Layer_1
 62
7
100
AcDbSpline
 70
8
 71
3
 72
8
 73
4
 74
0
 40
0
 40
0
 40
0
 40
0
 40
1
 40
1
 40
1
 40
1
 10
291.756028
 20
658.463913
 30
0.0
 10
291.105703
 20
657.881407
 30
0.0
 10
290.532848
 20
657.473087
 30
0.0
 10
290.045084
 20
657.229191
 30
0.0
  0
SPLINE
  5
1ed
100
AcDbEntity
  8
Layer_1
 62
7
100
AcDbSpline
 70
8
 71
3
 72
8
 73
4
 74
0
 40
0
 40
0
 40
0
 40
0
 40
1
 40
1
 40
1
 40
1
 10
290.045084
 20
657.229191
 30
0.0
 10
289.828422
 20
657.120874
 30
0.0
 10
289.718750
 20
656.943921
 30
0.0
 10
289.718750
 20
656.700024
 30
0.0
  0
SPLINE
  5
1ee
100
AcDbEntity
  8
Layer_1
 62
7
100
AcDbSpline
 70
8
 71
3
 72
8
 73
4
 74
0
 40
0
 40
0
 40
0
 40
0
 40
1
 40
1
 40
1
 40
1
 10
289.718750
 20
656.700024
 30
0.0
 10
289.718750
 20
656.456100
 30
0.0
 10
289.803219
 20
656.228713
 30
0.0
 10
289.965694
 20
656.012108
 30
0.0
  0
SPLINE
  5
1ef
100
AcDbEntity
  8
Layer_1
 62
7
100
AcDbSpline
 70
8
 71
3
 72
8
 73
4
 74
0
 40
0
 40
0
 40
0
 40
0
 40
1
 40
1
 40
1
 40
1
 10
289.965694
 20
656.012108
 30
0.0
 10
290.128170
 20
655.795474
 30
0.0
 10
290.355528
 20
655.618521
 30
0.0
 10
290.653611
 20
655.482941
 30
0.0
  0
SPLINE
  5
1f0
100
AcDbEntity
  8
Layer_1
 62
7
100
AcDbSpline
 70
8
 71
3
 72
8
 73
4
 74
0
 40
0
 40
0
 40
0
 40
0
 40
1
 40
1
 40
1
 40
1
 10
290.653611
 20
655.482941
 30
0.0
 10
290.951666
 20
655.347333
 30
0.0
 10
291.280314
 20
655.347333
 30
0.0
 10
291.632584
 20
655.482941
 30
0.0
  0
SPLINE
  5
1f1
100
AcDbEntity
  8
Layer_1
 62
7
100
AcDbSpline
 70
8
 71
3
 72
8
 73
4
 74
0
 40
0
 40
0
 40
0
 40
0
 40
1
 40
1
 40
1
 40
1
 10
291.632584
 20
655.482941
 30
0.0
 10
292.201402
 20
655.699547
 30
0.0
 10
292.879554
 20
656.154319
 30
0.0
 10
293.678695
 20
656.858774
 30
0.0
  0
SPLINE
  5
1f2
100
AcDbEntity
  8
Layer_1
 62
7
100
AcDbSpline
 70
8
 71
3
 72
8
 73
4
 74
0
 40
0
 40
0
 40
0
 40
0
 40
1
 40
1
 40
1
 40
1
 10
293.678695
 20
656.858774
 30
0.0
 10
294.477807
 20
657.563229
 30
0.0
 10
295.282394
 20
658.401486
 30
0.0
 10
296.095194
 20
659.363497
 30
0.0
  0
SPLINE
  5
1f3
100
AcDbEntity
  8
Layer_1
 62
7
100
AcDbSpline
 70
8
 71
3
 72
8
 73
4
 74
0
 40
0
 40
0
 40
0
 40
0
 40
1
 40
1
 40
1
 40
1
 10
296.095194
 20
659.363497
 30
0.0
 10
296.907938
 20
660.325479
 30
0.0
 10
297.657746
 20
661.353079
 30
0.0
 10
298.335361
 20
662.450302
 30
0.0
  0
SPLINE
  5
1f4
100
AcDbEntity
  8
Layer_1
 62
7
100
AcDbSpline
 70
8
 71
3
 72
8
 73
4
 74
0
 40
0
 40
0
 40
0
 40
0
 40
1
 40
1
 40
1
 40
1
 10
298.335361
 20
662.450302
 30
0.0
 10
299.012892
 20
663.547469
 30
0.0
 10
299.509688
 20
664.613535
 30
0.0
 10
299.834639
 20
665.642941
 30
0.0
  0
SPLINE
  5
1f5
100
AcDbEntity
  8
Layer_1
 62
7
100
AcDbSpline
 70
8
 71
3
 72
8
 73
4
 74
0
 40
0
 40
0
 40
0
 40
0
 40
1
 40
1
 40
1
 40
1
 10
299.834639
 20
665.642941
 30
0.0
 10
300.159561
 20
666.672318
 30
0.0
 10
300.248038
 20
667.594635
 30
0.0
 10
300.099250
 20
668.421066
 30
0.0
  0
SPLINE
  5
1f6
100
AcDbEntity
  8
Layer_1
 62
7
100
AcDbSpline
 70
8
 71
3
 72
8
 73
4
 74
0
 40
0
 40
0
 40
0
 40
0
 40
1
 40
1
 40
1
 40
1
 10
300.099250
 20
668.421066
 30
0.0
 10
299.950378
 20
669.247469
 30
0.0
 10
299.457590
 20
669.866326
 30
0.0
 10
298.617584
 20
670.273149
 30
0.0
  0
SPLINE
  5
1f7
100
AcDbEntity
  8
Layer_1
 62
7
100
AcDbSpline
 70
8
 71
3
 72
8
 73
4
 74
0
 40
0
 40
0
 40
0
 40
0
 40
1
 40
1
 40
1
 40
1
 10
298.617584
 20
670.273149
 30
0.0
 10
297.723758
 20
670.706360
 30
0.0
 10
296.759404
 20
670.972186
 30
0.0
 10
295.715972
 20
671.066899
 30
0.0
  0
SPLINE
  5
1f8
100
AcDbEntity
  8
Layer_1
 62
7
100
AcDbSpline
 70
8
 71
3
 72
8
 73
4
 74
0
 40
0
 40
0
 40
0
 40
0
 40
1
 40
1
 40
1
 40
1
 10
295.715972
 20
671.066899
 30
0.0
 10
295.455114
 20
671.090555
 30
0.0
 10
295.187285
 20
671.103060
 30
0.0
 10
294.922222
 20
671.102177
 30
0.0
  0
LINE
  5
1f9
100
AcDbEntity
  8
Layer_1
 62
7
100
AcDbLine
 10
294.922222
 20
671.102177
 30
0.0
 11
294.922222
 21
671.102177
 31
0.0
  0
SPLINE
  5
1fa
100
AcDbEntity
  8
Layer_1
 62
7
100
AcDbSpline
 70
8
 71
3
 72
8
 73
4
 74
0
 40
0
 40
0
 40
0
 40
0
 40
1
 40
1
 40
1
 40
1
 10
385.709583
 20
671.013983
 30
0.0
 10
385.547108
 20
671.013983
 30
0.0
 10
385.371961
 20
670.990756
 30
0.0
 10
385.189250
 20
670.943427
 30
0.0
  0
SPLINE
  5
1fb
100
AcDbEntity
  8
Layer_1
 62
7
100
AcDbSpline
 70
8
 71
3
 72
8
 73
4
 74
0
 40
0
 40
0
 40
0
 40
0
 40
1
 40
1
 40
1
 40
1
 10
385.189250
 20
670.943427
 30
0.0
 10
384.823744
 20
670.848742
 30
0.0
 10
384.524702
 20
670.625334
 30
0.0
 10
384.280833
 20
670.273149
 30
0.0
  0
LINE
  5
1fc
100
AcDbEntity
  8
Layer_1
 62
7
100
AcDbLine
 10
384.280833
 20
670.273149
 30
0.0
 11
384.192639
 21
670.193774
 31
0.0
  0
SPLINE
  5
1fd
100
AcDbEntity
  8
Layer_1
 62
7
100
AcDbSpline
 70
8
 71
3
 72
8
 73
4
 74
0
 40
0
 40
0
 40
0
 40
0
 40
1
 40
1
 40
1
 40
1
 10
384.192639
 20
670.193774
 30
0.0
 10
382.756438
 20
670.410380
 30
0.0
 10
381.210820
 20
670.414359
 30
0.0
 10
379.544806
 20
670.211413
 30
0.0
  0
SPLINE
  5
1fe
100
AcDbEntity
  8
Layer_1
 62
7
100
AcDbSpline
 70
8
 71
3
 72
8
 73
4
 74
0
 40
0
 40
0
 40
0
 40
0
 40
1
 40
1
 40
1
 40
1
 10
379.544806
 20
670.211413
 30
0.0
 10
377.878763
 20
670.008383
 30
0.0
 10
376.214612
 20
669.557645
 30
0.0
 10
374.561806
 20
668.853219
 30
0.0
  0
SPLINE
  5
1ff
100
AcDbEntity
  8
Layer_1
 62
7
100
AcDbSpline
 70
8
 71
3
 72
8
 73
4
 74
0
 40
0
 40
0
 40
0
 40
0
 40
1
 40
1
 40
1
 40
1
 10
374.561806
 20
668.853219
 30
0.0
 10
372.855236
 20
668.121445
 30
0.0
 10
371.372469
 20
667.228748
 30
0.0
 10
370.099167
 20
666.172108
 30
0.0
  0
SPLINE
  5
200
100
AcDbEntity
  8
Layer_1
 62
7
100
AcDbSpline
 70
8
 71
3
 72
8
 73
4
 74
0
 40
0
 40
0
 40
0
 40
0
 40
1
 40
1
 40
1
 40
1
 10
370.099167
 20
666.172108
 30
0.0
 10
368.825865
 20
665.115411
 30
0.0
 10
367.806252
 20
663.990516
 30
0.0
 10
367.047639
 20
662.811899
 30
0.0
  0
SPLINE
  5
201
100
AcDbEntity
  8
Layer_1
 62
7
100
AcDbSpline
 70
8
 71
3
 72
8
 73
4
 74
0
 40
0
 40
0
 40
0
 40
0
 40
1
 40
1
 40
1
 40
1
 10
367.047639
 20
662.811899
 30
0.0
 10
366.289026
 20
661.633226
 30
0.0
 10
365.796237
 20
660.462738
 30
0.0
 10
365.565972
 20
659.284122
 30
0.0
  0
SPLINE
  5
202
100
AcDbEntity
  8
Layer_1
 62
7
100
AcDbSpline
 70
8
 71
3
 72
8
 73
4
 74
0
 40
0
 40
0
 40
0
 40
0
 40
1
 40
1
 40
1
 40
1
 10
365.565972
 20
659.284122
 30
0.0
 10
365.335707
 20
658.105449
 30
0.0
 10
365.407787
 20
657.039016
 30
0.0
 10
365.786472
 20
656.091483
 30
0.0
  0
SPLINE
  5
203
100
AcDbEntity
  8
Layer_1
 62
7
100
AcDbSpline
 70
8
 71
3
 72
8
 73
4
 74
0
 40
0
 40
0
 40
0
 40
0
 40
1
 40
1
 40
1
 40
1
 10
365.786472
 20
656.091483
 30
0.0
 10
366.138686
 20
655.115840
 30
0.0
 10
366.669489
 20
654.336837
 30
0.0
 10
367.373972
 20
653.754330
 30
0.0
  0
SPLINE
  5
204
100
AcDbEntity
  8
Layer_1
 62
7
100
AcDbSpline
 70
8
 71
3
 72
8
 73
4
 74
0
 40
0
 40
0
 40
0
 40
0
 40
1
 40
1
 40
1
 40
1
 10
367.373972
 20
653.754330
 30
0.0
 10
368.078399
 20
653.171823
 30
0.0
 10
368.882648
 20
652.792728
 30
0.0
 10
369.790472
 20
652.616622
 30
0.0
  0
SPLINE
  5
205
100
AcDbEntity
  8
Layer_1
 62
7
100
AcDbSpline
 70
8
 71
3
 72
8
 73
4
 74
0
 40
0
 40
0
 40
0
 40
0
 40
1
 40
1
 40
1
 40
1
 10
369.790472
 20
652.616622
 30
0.0
 10
370.698324
 20
652.440515
 30
0.0
 10
371.696714
 20
652.465703
 30
0.0
 10
372.780278
 20
652.695997
 30
0.0
  0
SPLINE
  5
206
100
AcDbEntity
  8
Layer_1
 62
7
100
AcDbSpline
 70
8
 71
3
 72
8
 73
4
 74
0
 40
0
 40
0
 40
0
 40
0
 40
1
 40
1
 40
1
 40
1
 10
372.780278
 20
652.695997
 30
0.0
 10
373.863814
 20
652.926262
 30
0.0
 10
374.958666
 20
653.369012
 30
0.0
 10
376.069916
 20
654.018913
 30
0.0
  0
SPLINE
  5
207
100
AcDbEntity
  8
Layer_1
 62
7
100
AcDbSpline
 70
8
 71
3
 72
8
 73
4
 74
0
 40
0
 40
0
 40
0
 40
0
 40
1
 40
1
 40
1
 40
1
 10
376.069916
 20
654.018913
 30
0.0
 10
375.690384
 20
653.260695
 30
0.0
 10
375.332554
 20
652.531306
 30
0.0
 10
374.993972
 20
651.840510
 30
0.0
  0
SPLINE
  5
208
100
AcDbEntity
  8
Layer_1
 62
7
100
AcDbSpline
 70
8
 71
3
 72
8
 73
4
 74
0
 40
0
 40
0
 40
0
 40
0
 40
1
 40
1
 40
1
 40
1
 10
374.993972
 20
651.840510
 30
0.0
 10
374.655390
 20
651.149687
 30
0.0
 10
374.297448
 20
650.497203
 30
0.0
 10
373.917972
 20
649.873774
 30
0.0
  0
SPLINE
  5
209
100
AcDbEntity
  8
Layer_1
 62
7
100
AcDbSpline
 70
8
 71
3
 72
8
 73
4
 74
0
 40
0
 40
0
 40
0
 40
0
 40
1
 40
1
 40
1
 40
1
 10
373.917972
 20
649.873774
 30
0.0
 10
373.186198
 20
650.550938
 30
0.0
 10
372.394028
 20
651.115397
 30
0.0
 10
371.554361
 20
651.575927
 30
0.0
  0
SPLINE
  5
20a
100
AcDbEntity
  8
Layer_1
 62
7
100
AcDbSpline
 70
8
 71
3
 72
8
 73
4
 74
0
 40
0
 40
0
 40
0
 40
0
 40
1
 40
1
 40
1
 40
1
 10
371.554361
 20
651.575927
 30
0.0
 10
370.714750
 20
652.036457
 30
0.0
 10
369.780002
 20
652.339903
 30
0.0
 10
368.749806
 20
652.475510
 30
0.0
  0
SPLINE
  5
20b
100
AcDbEntity
  8
Layer_1
 62
7
100
AcDbSpline
 70
8
 71
3
 72
8
 73
4
 74
0
 40
0
 40
0
 40
0
 40
0
 40
1
 40
1
 40
1
 40
1
 10
368.749806
 20
652.475510
 30
0.0
 10
368.343829
 20
652.530064
 30
0.0
 10
367.821408
 20
652.534072
 30
0.0
 10
367.171111
 20
652.493149
 30
0.0
  0
SPLINE
  5
20c
100
AcDbEntity
  8
Layer_1
 62
7
100
AcDbSpline
 70
8
 71
3
 72
8
 73
4
 74
0
 40
0
 40
0
 40
0
 40
0
 40
1
 40
1
 40
1
 40
1
 10
367.171111
 20
652.493149
 30
0.0
 10
366.520815
 20
652.452199
 30
0.0
 10
365.876304
 20
652.275274
 30
0.0
 10
365.239639
 20
651.963983
 30
0.0
  0
SPLINE
  5
20d
100
AcDbEntity
  8
Layer_1
 62
7
100
AcDbSpline
 70
8
 71
3
 72
8
 73
4
 74
0
 40
0
 40
0
 40
0
 40
0
 40
1
 40
1
 40
1
 40
1
 10
365.239639
 20
651.963983
 30
0.0
 10
364.602974
 20
651.652692
 30
0.0
 10
364.030147
 20
651.180689
 30
0.0
 10
363.528695
 20
650.544052
 30
0.0
  0
SPLINE
  5
20e
100
AcDbEntity
  8
Layer_1
 62
7
100
AcDbSpline
 70
8
 71
3
 72
8
 73
4
 74
0
 40
0
 40
0
 40
0
 40
0
 40
1
 40
1
 40
1
 40
1
 10
363.528695
 20
650.544052
 30
0.0
 10
363.027214
 20
649.907387
 30
0.0
 10
362.736582
 20
649.001468
 30
0.0
 10
362.655556
 20
647.836483
 30
0.0
  0
SPLINE
  5
20f
100
AcDbEntity
  8
Layer_1
 62
7
100
AcDbSpline
 70
8
 71
3
 72
8
 73
4
 74
0
 40
0
 40
0
 40
0
 40
0
 40
1
 40
1
 40
1
 40
1
 10
362.655556
 20
647.836483
 30
0.0
 10
362.601820
 20
647.132028
 30
0.0
 10
362.707061
 20
646.479516
 30
0.0
 10
362.964250
 20
645.869747
 30
0.0
  0
SPLINE
  5
210
100
AcDbEntity
  8
Layer_1
 62
7
100
AcDbSpline
 70
8
 71
3
 72
8
 73
4
 74
0
 40
0
 40
0
 40
0
 40
0
 40
1
 40
1
 40
1
 40
1
 10
362.964250
 20
645.869747
 30
0.0
 10
363.221383
 20
645.259949
 30
0.0
 10
363.600492
 20
644.729145
 30
0.0
 10
364.101944
 20
644.282247
 30
0.0
  0
SPLINE
  5
211
100
AcDbEntity
  8
Layer_1
 62
7
100
AcDbSpline
 70
8
 71
3
 72
8
 73
4
 74
0
 40
0
 40
0
 40
0
 40
0
 40
1
 40
1
 40
1
 40
1
 10
364.101944
 20
644.282247
 30
0.0
 10
364.603425
 20
643.835348
 30
0.0
 10
365.201482
 20
643.481469
 30
0.0
 10
365.892306
 20
643.223913
 30
0.0
  0
SPLINE
  5
212
100
AcDbEntity
  8
Layer_1
 62
7
100
AcDbSpline
 70
8
 71
3
 72
8
 73
4
 74
0
 40
0
 40
0
 40
0
 40
0
 40
1
 40
1
 40
1
 40
1
 10
365.892306
 20
643.223913
 30
0.0
 10
366.583101
 20
642.966357
 30
0.0
 10
367.328478
 20
642.844677
 30
0.0
 10
368.141250
 20
642.844677
 30
0.0
  0
SPLINE
  5
213
100
AcDbEntity
  8
Layer_1
 62
7
100
AcDbSpline
 70
8
 71
3
 72
8
 73
4
 74
0
 40
0
 40
0
 40
0
 40
0
 40
1
 40
1
 40
1
 40
1
 10
368.141250
 20
642.844677
 30
0.0
 10
369.278944
 20
642.844677
 30
0.0
 10
370.327767
 20
643.097280
 30
0.0
 10
371.289806
 20
643.611969
 30
0.0
  0
SPLINE
  5
214
100
AcDbEntity
  8
Layer_1
 62
7
100
AcDbSpline
 70
8
 71
3
 72
8
 73
4
 74
0
 40
0
 40
0
 40
0
 40
0
 40
1
 40
1
 40
1
 40
1
 10
371.289806
 20
643.611969
 30
0.0
 10
372.251788
 20
644.126686
 30
0.0
 10
373.158117
 20
644.842006
 30
0.0
 10
373.997361
 20
645.763913
 30
0.0
  0
SPLINE
  5
215
100
AcDbEntity
  8
Layer_1
 62
7
100
AcDbSpline
 70
8
 71
3
 72
8
 73
4
 74
0
 40
0
 40
0
 40
0
 40
0
 40
1
 40
1
 40
1
 40
1
 10
373.997361
 20
645.763913
 30
0.0
 10
374.376865
 20
645.194248
 30
0.0
 10
374.823200
 20
644.697847
 30
0.0
 10
375.337917
 20
644.264608
 30
0.0
  0
SPLINE
  5
216
100
AcDbEntity
  8
Layer_1
 62
7
100
AcDbSpline
 70
8
 71
3
 72
8
 73
4
 74
0
 40
0
 40
0
 40
0
 40
0
 40
1
 40
1
 40
1
 40
1
 10
375.337917
 20
644.264608
 30
0.0
 10
375.852605
 20
643.831340
 30
0.0
 10
376.500672
 20
643.494268
 30
0.0
 10
377.287028
 20
643.250372
 30
0.0
  0
SPLINE
  5
217
100
AcDbEntity
  8
Layer_1
 62
7
100
AcDbSpline
 70
8
 71
3
 72
8
 73
4
 74
0
 40
0
 40
0
 40
0
 40
0
 40
1
 40
1
 40
1
 40
1
 10
377.287028
 20
643.250372
 30
0.0
 10
378.586746
 20
642.817104
 30
0.0
 10
379.884573
 20
642.817104
 30
0.0
 10
381.185194
 20
643.250372
 30
0.0
  0
SPLINE
  5
218
100
AcDbEntity
  8
Layer_1
 62
7
100
AcDbSpline
 70
8
 71
3
 72
8
 73
4
 74
0
 40
0
 40
0
 40
0
 40
0
 40
1
 40
1
 40
1
 40
1
 10
381.185194
 20
643.250372
 30
0.0
 10
382.485759
 20
643.683611
 30
0.0
 10
383.745176
 20
644.399778
 30
0.0
 10
384.951111
 20
645.402316
 30
0.0
  0
SPLINE
  5
219
100
AcDbEntity
  8
Layer_1
 62
7
100
AcDbSpline
 70
8
 71
3
 72
8
 73
4
 74
0
 40
0
 40
0
 40
0
 40
0
 40
1
 40
1
 40
1
 40
1
 10
384.951111
 20
645.402316
 30
0.0
 10
386.157018
 20
646.404826
 30
0.0
 10
387.269087
 20
647.613386
 30
0.0
 10
388.284861
 20
649.035927
 30
0.0
  0
SPLINE
  5
21a
100
AcDbEntity
  8
Layer_1
 62
7
100
AcDbSpline
 70
8
 71
3
 72
8
 73
4
 74
0
 40
0
 40
0
 40
0
 40
0
 40
1
 40
1
 40
1
 40
1
 10
388.284861
 20
649.035927
 30
0.0
 10
389.300579
 20
650.458468
 30
0.0
 10
390.155656
 20
651.946047
 30
0.0
 10
390.860139
 20
653.489747
 30
0.0
  0
SPLINE
  5
21b
100
AcDbEntity
  8
Layer_1
 62
7
100
AcDbSpline
 70
8
 71
3
 72
8
 73
4
 74
0
 40
0
 40
0
 40
0
 40
0
 40
1
 40
1
 40
1
 40
1
 10
390.860139
 20
653.489747
 30
0.0
 10
391.645592
 20
655.224397
 30
0.0
 10
392.176423
 20
656.870882
 30
0.0
 10
392.447639
 20
658.428635
 30
0.0
  0
SPLINE
  5
21c
100
AcDbEntity
  8
Layer_1
 62
7
100
AcDbSpline
 70
8
 71
3
 72
8
 73
4
 74
0
 40
0
 40
0
 40
0
 40
0
 40
1
 40
1
 40
1
 40
1
 10
392.447639
 20
658.428635
 30
0.0
 10
392.718826
 20
659.986361
 30
0.0
 10
392.744029
 20
661.431522
 30
0.0
 10
392.527028
 20
662.758983
 30
0.0
  0
SPLINE
  5
21d
100
AcDbEntity
  8
Layer_1
 62
7
100
AcDbSpline
 70
8
 71
3
 72
8
 73
4
 74
0
 40
0
 40
0
 40
0
 40
0
 40
1
 40
1
 40
1
 40
1
 10
392.527028
 20
662.758983
 30
0.0
 10
392.309943
 20
664.086443
 30
0.0
 10
391.846364
 20
665.252952
 30
0.0
 10
391.142361
 20
666.269122
 30
0.0
  0
SPLINE
  5
21e
100
AcDbEntity
  8
Layer_1
 62
7
100
AcDbSpline
 70
8
 71
3
 72
8
 73
4
 74
0
 40
0
 40
0
 40
0
 40
0
 40
1
 40
1
 40
1
 40
1
 10
391.142361
 20
666.269122
 30
0.0
 10
390.438273
 20
667.285263
 30
0.0
 10
389.520374
 20
668.107136
 30
0.0
 10
388.381861
 20
668.729747
 30
0.0
  0
SPLINE
  5
21f
100
AcDbEntity
  8
Layer_1
 62
7
100
AcDbSpline
 70
8
 71
3
 72
8
 73
4
 74
0
 40
0
 40
0
 40
0
 40
0
 40
1
 40
1
 40
1
 40
1
 10
388.381861
 20
668.729747
 30
0.0
 10
388.084173
 20
668.865326
 30
0.0
 10
387.793145
 20
668.995826
 30
0.0
 10
387.508750
 20
669.117802
 30
0.0
  0
SPLINE
  5
220
100
AcDbEntity
  8
Layer_1
 62
7
100
AcDbSpline
 70
8
 71
3
 72
8
 73
4
 74
0
 40
0
 40
0
 40
0
 40
0
 40
1
 40
1
 40
1
 40
1
 10
387.508750
 20
669.117802
 30
0.0
 10
387.224298
 20
669.239722
 30
0.0
 10
386.917297
 20
669.353415
 30
0.0
 10
386.591528
 20
669.461760
 30
0.0
  0
SPLINE
  5
221
100
AcDbEntity
  8
Layer_1
 62
7
100
AcDbSpline
 70
8
 71
3
 72
8
 73
4
 74
0
 40
0
 40
0
 40
0
 40
0
 40
1
 40
1
 40
1
 40
1
 10
386.591528
 20
669.461760
 30
0.0
 10
386.808980
 20
669.813946
 30
0.0
 10
386.867795
 20
670.125406
 30
0.0
 10
386.759083
 20
670.396622
 30
0.0
  0
SPLINE
  5
222
100
AcDbEntity
  8
Layer_1
 62
7
100
AcDbSpline
 70
8
 71
3
 72
8
 73
4
 74
0
 40
0
 40
0
 40
0
 40
0
 40
1
 40
1
 40
1
 40
1
 10
386.759083
 20
670.396622
 30
0.0
 10
386.650371
 20
670.667809
 30
0.0
 10
386.452618
 20
670.848742
 30
0.0
 10
386.168194
 20
670.943427
 30
0.0
  0
SPLINE
  5
223
100
AcDbEntity
  8
Layer_1
 62
7
100
AcDbSpline
 70
8
 71
3
 72
8
 73
4
 74
0
 40
0
 40
0
 40
0
 40
0
 40
1
 40
1
 40
1
 40
1
 10
386.168194
 20
670.943427
 30
0.0
 10
386.025954
 20
670.990756
 30
0.0
 10
385.872059
 20
671.013983
 30
0.0
 10
385.709583
 20
671.013983
 30
0.0
  0
LINE
  5
224
100
AcDbEntity
  8
Layer_1
 62
7
100
AcDbLine
 10
385.709583
 20
671.013983
 30
0.0
 11
385.709583
 21
671.013983
 31
0.0
  0
SPLINE
  5
225
100
AcDbEntity
  8
Layer_1
 62
7
100
AcDbSpline
 70
8
 71
3
 72
8
 73
4
 74
0
 40
0
 40
0
 40
0
 40
0
 40
1
 40
1
 40
1
 40
1
 10
381.890750
 20
668.006552
 30
0.0
 10
382.196368
 20
668.013402
 30
0.0
 10
382.488271
 20
668.011166
 30
0.0
 10
382.772694
 20
667.997733
 30
0.0
  0
SPLINE
  5
226
100
AcDbEntity
  8
Layer_1
 62
7
100
AcDbSpline
 70
8
 71
3
 72
8
 73
4
 74
0
 40
0
 40
0
 40
0
 40
0
 40
1
 40
1
 40
1
 40
1
 10
382.772694
 20
667.997733
 30
0.0
 10
381.987185
 20
666.697112
 30
0.0
 10
381.245844
 20
665.311626
 30
0.0
 10
380.541389
 20
663.834955
 30
0.0
  0
SPLINE
  5
227
100
AcDbEntity
  8
Layer_1
 62
7
100
AcDbSpline
 70
8
 71
3
 72
8
 73
4
 74
0
 40
0
 40
0
 40
0
 40
0
 40
1
 40
1
 40
1
 40
1
 10
380.541389
 20
663.834955
 30
0.0
 10
379.836934
 20
662.358227
 30
0.0
 10
379.145969
 20
660.854237
 30
0.0
 10
378.468805
 20
659.337038
 30
0.0
  0
SPLINE
  5
228
100
AcDbEntity
  8
Layer_1
 62
7
100
AcDbSpline
 70
8
 71
3
 72
8
 73
4
 74
0
 40
0
 40
0
 40
0
 40
0
 40
1
 40
1
 40
1
 40
1
 10
378.468805
 20
659.337038
 30
0.0
 10
377.980956
 20
658.578820
 30
0.0
 10
377.361676
 20
657.900696
 30
0.0
 10
376.616750
 20
657.290927
 30
0.0
  0
SPLINE
  5
229
100
AcDbEntity
  8
Layer_1
 62
7
100
AcDbSpline
 70
8
 71
3
 72
8
 73
4
 74
0
 40
0
 40
0
 40
0
 40
0
 40
1
 40
1
 40
1
 40
1
 10
376.616750
 20
657.290927
 30
0.0
 10
375.871768
 20
656.681130
 30
0.0
 10
375.088348
 20
656.188765
 30
0.0
 10
374.261944
 20
655.809260
 30
0.0
  0
SPLINE
  5
22a
100
AcDbEntity
  8
Layer_1
 62
7
100
AcDbSpline
 70
8
 71
3
 72
8
 73
4
 74
0
 40
0
 40
0
 40
0
 40
0
 40
1
 40
1
 40
1
 40
1
 10
374.261944
 20
655.809260
 30
0.0
 10
373.435541
 20
655.429728
 30
0.0
 10
372.631293
 20
655.172313
 30
0.0
 10
371.845417
 20
655.050788
 30
0.0
  0
SPLINE
  5
22b
100
AcDbEntity
  8
Layer_1
 62
7
100
AcDbSpline
 70
8
 71
3
 72
8
 73
4
 74
0
 40
0
 40
0
 40
0
 40
0
 40
1
 40
1
 40
1
 40
1
 10
371.845417
 20
655.050788
 30
0.0
 10
371.059512
 20
654.929235
 30
0.0
 10
370.372979
 20
654.988064
 30
0.0
 10
369.790472
 20
655.218358
 30
0.0
  0
SPLINE
  5
22c
100
AcDbEntity
  8
Layer_1
 62
7
100
AcDbSpline
 70
8
 71
3
 72
8
 73
4
 74
0
 40
0
 40
0
 40
0
 40
0
 40
1
 40
1
 40
1
 40
1
 10
369.790472
 20
655.218358
 30
0.0
 10
369.207994
 20
655.448623
 30
0.0
 10
368.786438
 20
655.878151
 30
0.0
 10
368.529306
 20
656.514816
 30
0.0
  0
SPLINE
  5
22d
100
AcDbEntity
  8
Layer_1
 62
7
100
AcDbSpline
 70
8
 71
3
 72
8
 73
4
 74
0
 40
0
 40
0
 40
0
 40
0
 40
1
 40
1
 40
1
 40
1
 10
368.529306
 20
656.514816
 30
0.0
 10
368.272145
 20
657.151481
 30
0.0
 10
368.284534
 20
658.040566
 30
0.0
 10
368.555750
 20
659.178288
 30
0.0
  0
SPLINE
  5
22e
100
AcDbEntity
  8
Layer_1
 62
7
100
AcDbSpline
 70
8
 71
3
 72
8
 73
4
 74
0
 40
0
 40
0
 40
0
 40
0
 40
1
 40
1
 40
1
 40
1
 10
368.555750
 20
659.178288
 30
0.0
 10
368.934464
 20
660.858385
 30
0.0
 10
369.676228
 20
662.277878
 30
0.0
 10
370.787083
 20
663.429260
 30
0.0
  0
SPLINE
  5
22f
100
AcDbEntity
  8
Layer_1
 62
7
100
AcDbSpline
 70
8
 71
3
 72
8
 73
4
 74
0
 40
0
 40
0
 40
0
 40
0
 40
1
 40
1
 40
1
 40
1
 10
370.787083
 20
663.429260
 30
0.0
 10
371.897910
 20
664.580586
 30
0.0
 10
373.148888
 20
665.502902
 30
0.0
 10
374.544167
 20
666.207385
 30
0.0
  0
SPLINE
  5
230
100
AcDbEntity
  8
Layer_1
 62
7
100
AcDbSpline
 70
8
 71
3
 72
8
 73
4
 74
0
 40
0
 40
0
 40
0
 40
0
 40
1
 40
1
 40
1
 40
1
 10
374.544167
 20
666.207385
 30
0.0
 10
375.939417
 20
666.911812
 30
0.0
 10
377.380133
 20
667.400593
 30
0.0
 10
378.856861
 20
667.671413
 30
0.0
  0
SPLINE
  5
231
100
AcDbEntity
  8
Layer_1
 62
7
100
AcDbSpline
 70
8
 71
3
 72
8
 73
4
 74
0
 40
0
 40
0
 40
0
 40
0
 40
1
 40
1
 40
1
 40
1
 10
378.856861
 20
667.671413
 30
0.0
 10
379.964386
 20
667.874464
 30
0.0
 10
380.973923
 20
667.986004
 30
0.0
 10
381.890750
 20
668.006552
 30
0.0
  0
LINE
  5
232
100
AcDbEntity
  8
Layer_1
 62
7
100
AcDbLine
 10
381.890750
 20
668.006552
 30
0.0
 11
381.890750
 21
668.006552
 31
0.0
  0
SPLINE
  5
233
100
AcDbEntity
  8
Layer_1
 62
7
100
AcDbSpline
 70
8
 71
3
 72
8
 73
4
 74
0
 40
0
 40
0
 40
0
 40
0
 40
1
 40
1
 40
1
 40
1
 10
385.295084
 20
667.389191
 30
0.0
 10
385.566214
 20
667.308137
 30
0.0
 10
385.835624
 20
667.215257
 30
0.0
 10
386.106472
 20
667.106969
 30
0.0
  0
SPLINE
  5
234
100
AcDbEntity
  8
Layer_1
 62
7
100
AcDbSpline
 70
8
 71
3
 72
8
 73
4
 74
0
 40
0
 40
0
 40
0
 40
0
 40
1
 40
1
 40
1
 40
1
 10
386.106472
 20
667.106969
 30
0.0
 10
386.377208
 20
666.998624
 30
0.0
 10
386.621810
 20
666.872132
 30
0.0
 10
386.838472
 20
666.736552
 30
0.0
  0
SPLINE
  5
235
100
AcDbEntity
  8
Layer_1
 62
7
100
AcDbSpline
 70
8
 71
3
 72
8
 73
4
 74
0
 40
0
 40
0
 40
0
 40
0
 40
1
 40
1
 40
1
 40
1
 10
386.838472
 20
666.736552
 30
0.0
 10
388.545014
 20
665.571539
 30
0.0
 10
389.518172
 20
663.924631
 30
0.0
 10
389.748889
 20
661.797663
 30
0.0
  0
SPLINE
  5
236
100
AcDbEntity
  8
Layer_1
 62
7
100
AcDbSpline
 70
8
 71
3
 72
8
 73
4
 74
0
 40
0
 40
0
 40
0
 40
0
 40
1
 40
1
 40
1
 40
1
 10
389.748889
 20
661.797663
 30
0.0
 10
389.979521
 20
659.670639
 30
0.0
 10
389.368256
 20
657.155856
 30
0.0
 10
387.932083
 20
654.257038
 30
0.0
  0
SPLINE
  5
237
100
AcDbEntity
  8
Layer_1
 62
7
100
AcDbSpline
 70
8
 71
3
 72
8
 73
4
 74
0
 40
0
 40
0
 40
0
 40
0
 40
1
 40
1
 40
1
 40
1
 10
387.932083
 20
654.257038
 30
0.0
 10
387.227600
 20
652.794365
 30
0.0
 10
386.461423
 20
651.488551
 30
0.0
 10
385.621389
 20
650.323566
 30
0.0
  0
SPLINE
  5
238
100
AcDbEntity
  8
Layer_1
 62
7
100
AcDbSpline
 70
8
 71
3
 72
8
 73
4
 74
0
 40
0
 40
0
 40
0
 40
0
 40
1
 40
1
 40
1
 40
1
 10
385.621389
 20
650.323566
 30
0.0
 10
384.781326
 20
649.158553
 30
0.0
 10
383.934660
 20
648.185394
 30
0.0
 10
383.081389
 20
647.413149
 30
0.0
  0
SPLINE
  5
239
100
AcDbEntity
  8
Layer_1
 62
7
100
AcDbSpline
 70
8
 71
3
 72
8
 73
4
 74
0
 40
0
 40
0
 40
0
 40
0
 40
1
 40
1
 40
1
 40
1
 10
383.081389
 20
647.413149
 30
0.0
 10
382.228090
 20
646.640876
 30
0.0
 10
381.381423
 20
646.089287
 30
0.0
 10
380.541389
 20
645.763913
 30
0.0
  0
SPLINE
  5
23a
100
AcDbEntity
  8
Layer_1
 62
7
100
AcDbSpline
 70
8
 71
3
 72
8
 73
4
 74
0
 40
0
 40
0
 40
0
 40
0
 40
1
 40
1
 40
1
 40
1
 10
380.541389
 20
645.763913
 30
0.0
 10
379.701326
 20
645.438567
 30
0.0
 10
378.917482
 20
645.405336
 30
0.0
 10
378.186583
 20
645.649260
 30
0.0
  0
SPLINE
  5
23b
100
AcDbEntity
  8
Layer_1
 62
7
100
AcDbSpline
 70
8
 71
3
 72
8
 73
4
 74
0
 40
0
 40
0
 40
0
 40
0
 40
1
 40
1
 40
1
 40
1
 10
378.186583
 20
645.649260
 30
0.0
 10
377.563154
 20
645.839422
 30
0.0
 10
377.074797
 20
646.158841
 30
0.0
 10
376.722584
 20
646.619399
 30
0.0
  0
SPLINE
  5
23c
100
AcDbEntity
  8
Layer_1
 62
7
100
AcDbSpline
 70
8
 71
3
 72
8
 73
4
 74
0
 40
0
 40
0
 40
0
 40
0
 40
1
 40
1
 40
1
 40
1
 10
376.722584
 20
646.619399
 30
0.0
 10
376.370314
 20
647.079930
 30
0.0
 10
376.042089
 20
647.543494
 30
0.0
 10
375.743611
 20
648.004052
 30
0.0
  0
SPLINE
  5
23d
100
AcDbEntity
  8
Layer_1
 62
7
100
AcDbSpline
 70
8
 71
3
 72
8
 73
4
 74
0
 40
0
 40
0
 40
0
 40
0
 40
1
 40
1
 40
1
 40
1
 10
375.743611
 20
648.004052
 30
0.0
 10
376.610936
 20
649.331089
 30
0.0
 10
377.431949
 20
650.805446
 30
0.0
 10
378.204250
 20
652.431413
 30
0.0
  0
SPLINE
  5
23e
100
AcDbEntity
  8
Layer_1
 62
7
100
AcDbSpline
 70
8
 71
3
 72
8
 73
4
 74
0
 40
0
 40
0
 40
0
 40
0
 40
1
 40
1
 40
1
 40
1
 10
378.204250
 20
652.431413
 30
0.0
 10
378.976467
 20
654.057324
 30
0.0
 10
379.738664
 20
655.742275
 30
0.0
 10
380.497306
 20
657.476135
 30
0.0
  0
SPLINE
  5
23f
100
AcDbEntity
  8
Layer_1
 62
7
100
AcDbSpline
 70
8
 71
3
 72
8
 73
4
 74
0
 40
0
 40
0
 40
0
 40
0
 40
1
 40
1
 40
1
 40
1
 10
380.497306
 20
657.476135
 30
0.0
 10
381.255863
 20
659.209968
 30
0.0
 10
382.026894
 20
660.928518
 30
0.0
 10
382.799167
 20
662.635510
 30
0.0
  0
SPLINE
  5
240
100
AcDbEntity
  8
Layer_1
 62
7
100
AcDbSpline
 70
8
 71
3
 72
8
 73
4
 74
0
 40
0
 40
0
 40
0
 40
0
 40
1
 40
1
 40
1
 40
1
 10
382.799167
 20
662.635510
 30
0.0
 10
383.571411
 20
664.342447
 30
0.0
 10
384.401229
 20
665.926518
 30
0.0
 10
385.295084
 20
667.389191
 30
0.0
  0
LINE
  5
241
100
AcDbEntity
  8
Layer_1
 62
7
100
AcDbLine
 10
385.295084
 20
667.389191
 30
0.0
 11
385.295084
 21
667.389191
 31
0.0
  0
SPLINE
  5
242
100
AcDbEntity
  8
Layer_1
 62
7
100
AcDbSpline
 70
8
 71
3
 72
8
 73
4
 74
0
 40
0
 40
0
 40
0
 40
0
 40
1
 40
1
 40
1
 40
1
 10
313.672361
 20
661.250858
 30
0.0
 10
313.726096
 20
661.088777
 30
0.0
 10
313.680066
 20
660.848169
 30
0.0
 10
313.531250
 20
660.536483
 30
0.0
  0
SPLINE
  5
243
100
AcDbEntity
  8
Layer_1
 62
7
100
AcDbSpline
 70
8
 71
3
 72
8
 73
4
 74
0
 40
0
 40
0
 40
0
 40
0
 40
1
 40
1
 40
1
 40
1
 10
313.531250
 20
660.536483
 30
0.0
 10
313.382434
 20
660.224768
 30
0.0
 10
313.159027
 20
659.879681
 30
0.0
 10
312.860972
 20
659.486969
 30
0.0
  0
SPLINE
  5
244
100
AcDbEntity
  8
Layer_1
 62
7
100
AcDbSpline
 70
8
 71
3
 72
8
 73
4
 74
0
 40
0
 40
0
 40
0
 40
0
 40
1
 40
1
 40
1
 40
1
 10
312.860972
 20
659.486969
 30
0.0
 10
312.562889
 20
659.094200
 30
0.0
 10
312.212990
 20
658.660283
 30
0.0
 10
311.820278
 20
658.199330
 30
0.0
  0
SPLINE
  5
245
100
AcDbEntity
  8
Layer_1
 62
7
100
AcDbSpline
 70
8
 71
3
 72
8
 73
4
 74
0
 40
0
 40
0
 40
0
 40
0
 40
1
 40
1
 40
1
 40
1
 10
311.820278
 20
658.199330
 30
0.0
 10
311.427509
 20
657.738376
 30
0.0
 10
311.018795
 20
657.292014
 30
0.0
 10
310.585556
 20
656.858774
 30
0.0
  0
SPLINE
  5
246
100
AcDbEntity
  8
Layer_1
 62
7
100
AcDbSpline
 70
8
 71
3
 72
8
 73
4
 74
0
 40
0
 40
0
 40
0
 40
0
 40
1
 40
1
 40
1
 40
1
 10
310.585556
 20
656.858774
 30
0.0
 10
309.582622
 20
655.802078
 30
0.0
 10
308.412106
 20
654.664370
 30
0.0
 10
307.084250
 20
653.445649
 30
0.0
  0
SPLINE
  5
247
100
AcDbEntity
  8
Layer_1
 62
7
100
AcDbSpline
 70
8
 71
3
 72
8
 73
4
 74
0
 40
0
 40
0
 40
0
 40
0
 40
1
 40
1
 40
1
 40
1
 10
307.084250
 20
653.445649
 30
0.0
 10
307.518308
 20
654.284865
 30
0.0
 10
308.057127
 20
655.152741
 30
0.0
 10
308.707028
 20
656.047385
 30
0.0
  0
SPLINE
  5
248
100
AcDbEntity
  8
Layer_1
 62
7
100
AcDbSpline
 70
8
 71
3
 72
8
 73
4
 74
0
 40
0
 40
0
 40
0
 40
0
 40
1
 40
1
 40
1
 40
1
 10
308.707028
 20
656.047385
 30
0.0
 10
309.249403
 20
656.805575
 30
0.0
 10
309.931534
 20
657.648235
 30
0.0
 10
310.744306
 20
658.569747
 30
0.0
  0
SPLINE
  5
249
100
AcDbEntity
  8
Layer_1
 62
7
100
AcDbSpline
 70
8
 71
3
 72
8
 73
4
 74
0
 40
0
 40
0
 40
0
 40
0
 40
1
 40
1
 40
1
 40
1
 10
310.744306
 20
658.569747
 30
0.0
 10
311.557077
 20
659.491230
 30
0.0
 10
312.534639
 20
660.384323
 30
0.0
 10
313.672361
 20
661.250858
 30
0.0
  0
LINE
  5
24a
100
AcDbEntity
  8
Layer_1
 62
7
100
AcDbLine
 10
313.672361
 20
661.250858
 30
0.0
 11
313.672361
 21
661.250858
 31
0.0
  0
SPLINE
  5
24b
100
AcDbEntity
  8
Layer_1
 62
7
100
AcDbSpline
 70
8
 71
3
 72
8
 73
4
 74
0
 40
0
 40
0
 40
0
 40
0
 40
1
 40
1
 40
1
 40
1
 10
318.037972
 20
660.051413
 30
0.0
 10
317.861865
 20
660.061644
 30
0.0
 10
317.671902
 20
660.050030
 30
0.0
 10
317.482361
 20
660.016135
 30
0.0
  0
SPLINE
  5
24c
100
AcDbEntity
  8
Layer_1
 62
7
100
AcDbSpline
 70
8
 71
3
 72
8
 73
4
 74
0
 40
0
 40
0
 40
0
 40
0
 40
1
 40
1
 40
1
 40
1
 10
317.482361
 20
660.016135
 30
0.0
 10
317.103252
 20
659.948317
 30
0.0
 10
316.808245
 20
659.750155
 30
0.0
 10
316.591583
 20
659.425233
 30
0.0
  0
SPLINE
  5
24d
100
AcDbEntity
  8
Layer_1
 62
7
100
AcDbSpline
 70
8
 71
3
 72
8
 73
4
 74
0
 40
0
 40
0
 40
0
 40
0
 40
1
 40
1
 40
1
 40
1
 10
316.591583
 20
659.425233
 30
0.0
 10
316.456004
 20
659.207780
 30
0.0
 10
316.304281
 20
658.967962
 30
0.0
 10
316.141806
 20
658.710858
 30
0.0
  0
SPLINE
  5
24e
100
AcDbEntity
  8
Layer_1
 62
7
100
AcDbSpline
 70
8
 71
3
 72
8
 73
4
 74
0
 40
0
 40
0
 40
0
 40
0
 40
1
 40
1
 40
1
 40
1
 10
316.141806
 20
658.710858
 30
0.0
 10
315.979330
 20
658.453697
 30
0.0
 10
315.862039
 20
658.247548
 30
0.0
 10
315.780194
 20
658.084677
 30
0.0
  0
SPLINE
  5
24f
100
AcDbEntity
  8
Layer_1
 62
7
100
AcDbSpline
 70
8
 71
3
 72
8
 73
4
 74
0
 40
0
 40
0
 40
0
 40
0
 40
1
 40
1
 40
1
 40
1
 10
315.780194
 20
658.084677
 30
0.0
 10
315.536270
 20
657.705173
 30
0.0
 10
315.455808
 20
657.401699
 30
0.0
 10
315.550917
 20
657.185094
 30
0.0
  0
SPLINE
  5
250
100
AcDbEntity
  8
Layer_1
 62
7
100
AcDbSpline
 70
8
 71
3
 72
8
 73
4
 74
0
 40
0
 40
0
 40
0
 40
0
 40
1
 40
1
 40
1
 40
1
 10
315.550917
 20
657.185094
 30
0.0
 10
315.645998
 20
656.968460
 30
0.0
 10
315.822894
 20
656.833530
 30
0.0
 10
316.080084
 20
656.779399
 30
0.0
  0
SPLINE
  5
251
100
AcDbEntity
  8
Layer_1
 62
7
100
AcDbSpline
 70
8
 71
3
 72
8
 73
4
 74
0
 40
0
 40
0
 40
0
 40
0
 40
1
 40
1
 40
1
 40
1
 10
316.080084
 20
656.779399
 30
0.0
 10
316.337216
 20
656.725213
 30
0.0
 10
316.661856
 20
656.742047
 30
0.0
 10
317.041389
 20
656.823497
 30
0.0
  0
SPLINE
  5
252
100
AcDbEntity
  8
Layer_1
 62
7
100
AcDbSpline
 70
8
 71
3
 72
8
 73
4
 74
0
 40
0
 40
0
 40
0
 40
0
 40
1
 40
1
 40
1
 40
1
 10
317.041389
 20
656.823497
 30
0.0
 10
317.420893
 20
656.904918
 30
0.0
 10
317.782758
 20
657.047835
 30
0.0
 10
318.135000
 20
657.264469
 30
0.0
  0
SPLINE
  5
253
100
AcDbEntity
  8
Layer_1
 62
7
100
AcDbSpline
 70
8
 71
3
 72
8
 73
4
 74
0
 40
0
 40
0
 40
0
 40
0
 40
1
 40
1
 40
1
 40
1
 10
318.135000
 20
657.264469
 30
0.0
 10
318.270608
 20
657.372786
 30
0.0
 10
318.447533
 20
657.541724
 30
0.0
 10
318.664167
 20
657.758358
 30
0.0
  0
SPLINE
  5
254
100
AcDbEntity
  8
Layer_1
 62
7
100
AcDbSpline
 70
8
 71
3
 72
8
 73
4
 74
0
 40
0
 40
0
 40
0
 40
0
 40
1
 40
1
 40
1
 40
1
 10
318.664167
 20
657.758358
 30
0.0
 10
318.880772
 20
657.974963
 30
0.0
 10
319.057726
 20
658.185543
 30
0.0
 10
319.193333
 20
658.402177
 30
0.0
  0
SPLINE
  5
255
100
AcDbEntity
  8
Layer_1
 62
7
100
AcDbSpline
 70
8
 71
3
 72
8
 73
4
 74
0
 40
0
 40
0
 40
0
 40
0
 40
1
 40
1
 40
1
 40
1
 10
319.193333
 20
658.402177
 30
0.0
 10
319.409939
 20
658.781681
 30
0.0
 10
319.435141
 20
659.110343
 30
0.0
 10
319.272694
 20
659.381135
 30
0.0
  0
SPLINE
  5
256
100
AcDbEntity
  8
Layer_1
 62
7
100
AcDbSpline
 70
8
 71
3
 72
8
 73
4
 74
0
 40
0
 40
0
 40
0
 40
0
 40
1
 40
1
 40
1
 40
1
 10
319.272694
 20
659.381135
 30
0.0
 10
319.110219
 20
659.651899
 30
0.0
 10
318.866040
 20
659.845659
 30
0.0
 10
318.540694
 20
659.954399
 30
0.0
  0
SPLINE
  5
257
100
AcDbEntity
  8
Layer_1
 62
7
100
AcDbSpline
 70
8
 71
3
 72
8
 73
4
 74
0
 40
0
 40
0
 40
0
 40
0
 40
1
 40
1
 40
1
 40
1
 10
318.540694
 20
659.954399
 30
0.0
 10
318.378022
 20
660.008755
 30
0.0
 10
318.214107
 20
660.041183
 30
0.0
 10
318.037972
 20
660.051413
 30
0.0
  0
LINE
  5
258
100
AcDbEntity
  8
Layer_1
 62
7
100
AcDbLine
 10
318.037972
 20
660.051413
 30
0.0
 11
318.037972
 21
660.051413
 31
0.0
  0
SPLINE
  5
259
100
AcDbEntity
  8
Layer_1
 62
7
100
AcDbSpline
 70
8
 71
3
 72
8
 73
4
 74
0
 40
0
 40
0
 40
0
 40
0
 40
1
 40
1
 40
1
 40
1
 10
347.018695
 20
653.004677
 30
0.0
 10
347.560251
 20
653.004677
 30
0.0
 10
347.770817
 20
652.726025
 30
0.0
 10
347.662500
 20
652.184469
 30
0.0
  0
SPLINE
  5
25a
100
AcDbEntity
  8
Layer_1
 62
7
100
AcDbSpline
 70
8
 71
3
 72
8
 73
4
 74
0
 40
0
 40
0
 40
0
 40
0
 40
1
 40
1
 40
1
 40
1
 10
347.662500
 20
652.184469
 30
0.0
 10
347.554183
 20
651.642913
 30
0.0
 10
347.174679
 20
651.061648
 30
0.0
 10
346.524806
 20
650.438219
 30
0.0
  0
SPLINE
  5
25b
100
AcDbEntity
  8
Layer_1
 62
7
100
AcDbSpline
 70
8
 71
3
 72
8
 73
4
 74
0
 40
0
 40
0
 40
0
 40
0
 40
1
 40
1
 40
1
 40
1
 10
346.524806
 20
650.438219
 30
0.0
 10
345.928640
 20
649.869372
 30
0.0
 10
345.301344
 20
649.469039
 30
0.0
 10
344.637416
 20
649.238774
 30
0.0
  0
SPLINE
  5
25c
100
AcDbEntity
  8
Layer_1
 62
7
100
AcDbSpline
 70
8
 71
3
 72
8
 73
4
 74
0
 40
0
 40
0
 40
0
 40
0
 40
1
 40
1
 40
1
 40
1
 10
344.637416
 20
649.238774
 30
0.0
 10
343.973460
 20
649.008509
 30
0.0
 10
343.346222
 20
648.912441
 30
0.0
 10
342.750084
 20
648.938913
 30
0.0
  0
LINE
  5
25d
100
AcDbEntity
  8
Layer_1
 62
7
100
AcDbLine
 10
342.750084
 20
648.938913
 30
0.0
 11
342.785361
 21
648.974191
 31
0.0
  0
SPLINE
  5
25e
100
AcDbEntity
  8
Layer_1
 62
7
100
AcDbSpline
 70
8
 71
3
 72
8
 73
4
 74
0
 40
0
 40
0
 40
0
 40
0
 40
1
 40
1
 40
1
 40
1
 10
342.785361
 20
648.974191
 30
0.0
 10
343.110284
 20
649.543038
 30
0.0
 10
343.464134
 20
650.073870
 30
0.0
 10
343.843695
 20
650.561691
 30
0.0
  0
SPLINE
  5
25f
100
AcDbEntity
  8
Layer_1
 62
7
100
AcDbSpline
 70
8
 71
3
 72
8
 73
4
 74
0
 40
0
 40
0
 40
0
 40
0
 40
1
 40
1
 40
1
 40
1
 10
343.843695
 20
650.561691
 30
0.0
 10
344.223171
 20
651.049512
 30
0.0
 10
344.602308
 20
651.474609
 30
0.0
 10
344.981389
 20
651.840510
 30
0.0
  0
SPLINE
  5
260
100
AcDbEntity
  8
Layer_1
 62
7
100
AcDbSpline
 70
8
 71
3
 72
8
 73
4
 74
0
 40
0
 40
0
 40
0
 40
0
 40
1
 40
1
 40
1
 40
1
 10
344.981389
 20
651.840510
 30
0.0
 10
345.360498
 20
652.206355
 30
0.0
 10
345.731564
 20
652.492994
 30
0.0
 10
346.083805
 20
652.695997
 30
0.0
  0
SPLINE
  5
261
100
AcDbEntity
  8
Layer_1
 62
7
100
AcDbSpline
 70
8
 71
3
 72
8
 73
4
 74
0
 40
0
 40
0
 40
0
 40
0
 40
1
 40
1
 40
1
 40
1
 10
346.083805
 20
652.695997
 30
0.0
 10
346.436047
 20
652.898971
 30
0.0
 10
346.747451
 20
653.004677
 30
0.0
 10
347.018695
 20
653.004677
 30
0.0
  0
LINE
  5
262
100
AcDbEntity
  8
Layer_1
 62
7
100
AcDbLine
 10
347.018695
 20
653.004677
 30
0.0
 11
347.018695
 21
653.004677
 31
0.0
  0
SPLINE
  5
263
100
AcDbEntity
  8
Layer_1
 62
7
100
AcDbSpline
 70
8
 71
3
 72
8
 73
4
 74
0
 40
0
 40
0
 40
0
 40
0
 40
1
 40
1
 40
1
 40
1
 10
325.058250
 20
652.987038
 30
0.0
 10
325.289587
 20
652.992076
 30
0.0
 10
325.486691
 20
652.938792
 30
0.0
 10
325.649167
 20
652.837108
 30
0.0
  0
SPLINE
  5
264
100
AcDbEntity
  8
Layer_1
 62
7
100
AcDbSpline
 70
8
 71
3
 72
8
 73
4
 74
0
 40
0
 40
0
 40
0
 40
0
 40
1
 40
1
 40
1
 40
1
 10
325.649167
 20
652.837108
 30
0.0
 10
325.838481
 20
652.701500
 30
0.0
 10
325.965397
 20
652.474113
 30
0.0
 10
326.019583
 20
652.149191
 30
0.0
  0
SPLINE
  5
265
100
AcDbEntity
  8
Layer_1
 62
7
100
AcDbSpline
 70
8
 71
3
 72
8
 73
4
 74
0
 40
0
 40
0
 40
0
 40
0
 40
1
 40
1
 40
1
 40
1
 10
326.019583
 20
652.149191
 30
0.0
 10
326.073714
 20
651.824240
 30
0.0
 10
326.056526
 20
651.440743
 30
0.0
 10
325.975472
 20
650.993844
 30
0.0
  0
SPLINE
  5
266
100
AcDbEntity
  8
Layer_1
 62
7
100
AcDbSpline
 70
8
 71
3
 72
8
 73
4
 74
0
 40
0
 40
0
 40
0
 40
0
 40
1
 40
1
 40
1
 40
1
 10
325.975472
 20
650.993844
 30
0.0
 10
325.894446
 20
650.546945
 30
0.0
 10
325.751557
 20
650.058136
 30
0.0
 10
325.534528
 20
649.529816
 30
0.0
  0
SPLINE
  5
267
100
AcDbEntity
  8
Layer_1
 62
7
100
AcDbSpline
 70
8
 71
3
 72
8
 73
4
 74
0
 40
0
 40
0
 40
0
 40
0
 40
1
 40
1
 40
1
 40
1
 10
325.534528
 20
649.529816
 30
0.0
 10
325.317471
 20
649.001468
 30
0.0
 10
325.031241
 20
648.475039
 30
0.0
 10
324.679028
 20
647.959955
 30
0.0
  0
SPLINE
  5
268
100
AcDbEntity
  8
Layer_1
 62
7
100
AcDbSpline
 70
8
 71
3
 72
8
 73
4
 74
0
 40
0
 40
0
 40
0
 40
0
 40
1
 40
1
 40
1
 40
1
 10
324.679028
 20
647.959955
 30
0.0
 10
324.300314
 20
647.444843
 30
0.0
 10
323.903594
 20
646.990493
 30
0.0
 10
323.497222
 20
646.584122
 30
0.0
  0
SPLINE
  5
269
100
AcDbEntity
  8
Layer_1
 62
7
100
AcDbSpline
 70
8
 71
3
 72
8
 73
4
 74
0
 40
0
 40
0
 40
0
 40
0
 40
1
 40
1
 40
1
 40
1
 10
323.497222
 20
646.584122
 30
0.0
 10
323.090822
 20
646.177722
 30
0.0
 10
322.690913
 20
645.853067
 30
0.0
 10
322.297778
 20
645.622802
 30
0.0
  0
SPLINE
  5
26a
100
AcDbEntity
  8
Layer_1
 62
7
100
AcDbSpline
 70
8
 71
3
 72
8
 73
4
 74
0
 40
0
 40
0
 40
0
 40
0
 40
1
 40
1
 40
1
 40
1
 10
322.297778
 20
645.622802
 30
0.0
 10
321.904614
 20
645.392509
 30
0.0
 10
321.521526
 20
645.257607
 30
0.0
 10
321.142416
 20
645.217108
 30
0.0
  0
SPLINE
  5
26b
100
AcDbEntity
  8
Layer_1
 62
7
100
AcDbSpline
 70
8
 71
3
 72
8
 73
4
 74
0
 40
0
 40
0
 40
0
 40
0
 40
1
 40
1
 40
1
 40
1
 10
321.142416
 20
645.217108
 30
0.0
 10
320.763336
 20
645.176581
 30
0.0
 10
320.434660
 20
645.248251
 30
0.0
 10
320.163472
 20
645.437594
 30
0.0
  0
SPLINE
  5
26c
100
AcDbEntity
  8
Layer_1
 62
7
100
AcDbSpline
 70
8
 71
3
 72
8
 73
4
 74
0
 40
0
 40
0
 40
0
 40
0
 40
1
 40
1
 40
1
 40
1
 10
320.163472
 20
645.437594
 30
0.0
 10
319.946838
 20
645.573173
 30
0.0
 10
319.829152
 20
645.804977
 30
0.0
 10
319.801861
 20
646.116691
 30
0.0
  0
SPLINE
  5
26d
100
AcDbEntity
  8
Layer_1
 62
7
100
AcDbSpline
 70
8
 71
3
 72
8
 73
4
 74
0
 40
0
 40
0
 40
0
 40
0
 40
1
 40
1
 40
1
 40
1
 10
319.801861
 20
646.116691
 30
0.0
 10
319.774598
 20
646.428405
 30
0.0
 10
319.803808
 20
646.794673
 30
0.0
 10
319.898889
 20
647.227941
 30
0.0
  0
SPLINE
  5
26e
100
AcDbEntity
  8
Layer_1
 62
7
100
AcDbSpline
 70
8
 71
3
 72
8
 73
4
 74
0
 40
0
 40
0
 40
0
 40
0
 40
1
 40
1
 40
1
 40
1
 10
319.898889
 20
647.227941
 30
0.0
 10
319.993970
 20
647.661180
 30
0.0
 10
320.166492
 20
648.141579
 30
0.0
 10
320.410417
 20
648.656691
 30
0.0
  0
SPLINE
  5
26f
100
AcDbEntity
  8
Layer_1
 62
7
100
AcDbSpline
 70
8
 71
3
 72
8
 73
4
 74
0
 40
0
 40
0
 40
0
 40
0
 40
1
 40
1
 40
1
 40
1
 10
320.410417
 20
648.656691
 30
0.0
 10
320.654313
 20
649.171803
 30
0.0
 10
320.948953
 20
649.693815
 30
0.0
 10
321.301195
 20
650.235372
 30
0.0
  0
SPLINE
  5
270
100
AcDbEntity
  8
Layer_1
 62
7
100
AcDbSpline
 70
8
 71
3
 72
8
 73
4
 74
0
 40
0
 40
0
 40
0
 40
0
 40
1
 40
1
 40
1
 40
1
 10
321.301195
 20
650.235372
 30
0.0
 10
321.653436
 20
650.750484
 30
0.0
 10
322.049733
 20
651.209645
 30
0.0
 10
322.482972
 20
651.602385
 30
0.0
  0
SPLINE
  5
271
100
AcDbEntity
  8
Layer_1
 62
7
100
AcDbSpline
 70
8
 71
3
 72
8
 73
4
 74
0
 40
0
 40
0
 40
0
 40
0
 40
1
 40
1
 40
1
 40
1
 10
322.482972
 20
651.602385
 30
0.0
 10
322.916268
 20
651.995126
 30
0.0
 10
323.324982
 20
652.306981
 30
0.0
 10
323.717694
 20
652.537247
 30
0.0
  0
SPLINE
  5
272
100
AcDbEntity
  8
Layer_1
 62
7
100
AcDbSpline
 70
8
 71
3
 72
8
 73
4
 74
0
 40
0
 40
0
 40
0
 40
0
 40
1
 40
1
 40
1
 40
1
 10
323.717694
 20
652.537247
 30
0.0
 10
324.110435
 20
652.767512
 30
0.0
 10
324.481134
 20
652.906421
 30
0.0
 10
324.820139
 20
652.960580
 30
0.0
  0
SPLINE
  5
273
100
AcDbEntity
  8
Layer_1
 62
7
100
AcDbSpline
 70
8
 71
3
 72
8
 73
4
 74
0
 40
0
 40
0
 40
0
 40
0
 40
1
 40
1
 40
1
 40
1
 10
324.820139
 20
652.960580
 30
0.0
 10
324.904890
 20
652.974118
 30
0.0
 10
324.981147
 20
652.985359
 30
0.0
 10
325.058250
 20
652.987038
 30
0.0
  0
LINE
  5
274
100
AcDbEntity
  8
Layer_1
 62
7
100
AcDbLine
 10
325.058250
 20
652.987038
 30
0.0
 11
325.058250
 21
652.987038
 31
0.0
  0
SPLINE
  5
275
100
AcDbEntity
  8
Layer_1
 62
7
100
AcDbSpline
 70
8
 71
3
 72
8
 73
4
 74
0
 40
0
 40
0
 40
0
 40
0
 40
1
 40
1
 40
1
 40
1
 10
356.781806
 20
650.693983
 30
0.0
 10
356.433092
 20
650.690669
 30
0.0
 10
356.101340
 20
650.667934
 30
0.0
 10
355.776389
 20
650.641066
 30
0.0
  0
SPLINE
  5
276
100
AcDbEntity
  8
Layer_1
 62
7
100
AcDbSpline
 70
8
 71
3
 72
8
 73
4
 74
0
 40
0
 40
0
 40
0
 40
0
 40
1
 40
1
 40
1
 40
1
 10
355.776389
 20
650.641066
 30
0.0
 10
355.396885
 20
650.613775
 30
0.0
 10
355.043401
 20
650.479296
 30
0.0
 10
354.718056
 20
650.235372
 30
0.0
  0
SPLINE
  5
277
100
AcDbEntity
  8
Layer_1
 62
7
100
AcDbSpline
 70
8
 71
3
 72
8
 73
4
 74
0
 40
0
 40
0
 40
0
 40
0
 40
1
 40
1
 40
1
 40
1
 10
354.718056
 20
650.235372
 30
0.0
 10
354.392710
 20
649.991475
 30
0.0
 10
354.152539
 20
649.722038
 30
0.0
 10
354.003695
 20
649.423983
 30
0.0
  0
SPLINE
  5
278
100
AcDbEntity
  8
Layer_1
 62
7
100
AcDbSpline
 70
8
 71
3
 72
8
 73
4
 74
0
 40
0
 40
0
 40
0
 40
0
 40
1
 40
1
 40
1
 40
1
 10
354.003695
 20
649.423983
 30
0.0
 10
353.854879
 20
649.125900
 30
0.0
 10
353.825217
 20
648.860498
 30
0.0
 10
353.906667
 20
648.630233
 30
0.0
  0
SPLINE
  5
279
100
AcDbEntity
  8
Layer_1
 62
7
100
AcDbSpline
 70
8
 71
3
 72
8
 73
4
 74
0
 40
0
 40
0
 40
0
 40
0
 40
1
 40
1
 40
1
 40
1
 10
353.906667
 20
648.630233
 30
0.0
 10
353.988116
 20
648.399968
 30
0.0
 10
354.257525
 20
648.286274
 30
0.0
 10
354.718056
 20
648.286274
 30
0.0
  0
LINE
  5
27a
100
AcDbEntity
  8
Layer_1
 62
7
100
AcDbLine
 10
354.718056
 20
648.286274
 30
0.0
 11
356.076250
 21
648.286274
 31
0.0
  0
LINE
  5
27b
100
AcDbEntity
  8
Layer_1
 62
7
100
AcDbLine
 10
356.076250
 20
648.286274
 30
0.0
 11
356.790639
 21
648.286274
 31
0.0
  0
LINE
  5
27c
100
AcDbEntity
  8
Layer_1
 62
7
100
AcDbLine
 10
356.790639
 20
648.286274
 30
0.0
 11
357.557917
 21
648.286274
 31
0.0
  0
SPLINE
  5
27d
100
AcDbEntity
  8
Layer_1
 62
7
100
AcDbSpline
 70
8
 71
3
 72
8
 73
4
 74
0
 40
0
 40
0
 40
0
 40
0
 40
1
 40
1
 40
1
 40
1
 10
357.557917
 20
648.286274
 30
0.0
 10
357.855972
 20
648.286274
 30
0.0
 10
358.378393
 20
648.303081
 30
0.0
 10
359.110139
 20
648.330372
 30
0.0
  0
SPLINE
  5
27e
100
AcDbEntity
  8
Layer_1
 62
7
100
AcDbSpline
 70
8
 71
3
 72
8
 73
4
 74
0
 40
0
 40
0
 40
0
 40
0
 40
1
 40
1
 40
1
 40
1
 10
359.110139
 20
648.330372
 30
0.0
 10
359.462352
 20
648.330343
 30
0.0
 10
359.782590
 20
648.460843
 30
0.0
 10
360.080278
 20
648.718427
 30
0.0
  0
SPLINE
  5
27f
100
AcDbEntity
  8
Layer_1
 62
7
100
AcDbSpline
 70
8
 71
3
 72
8
 73
4
 74
0
 40
0
 40
0
 40
0
 40
0
 40
1
 40
1
 40
1
 40
1
 10
360.080278
 20
648.718427
 30
0.0
 10
360.377909
 20
648.975955
 30
0.0
 10
360.597309
 20
649.245364
 30
0.0
 10
360.732917
 20
649.529816
 30
0.0
  0
SPLINE
  5
280
100
AcDbEntity
  8
Layer_1
 62
7
100
AcDbSpline
 70
8
 71
3
 72
8
 73
4
 74
0
 40
0
 40
0
 40
0
 40
0
 40
1
 40
1
 40
1
 40
1
 10
360.732917
 20
649.529816
 30
0.0
 10
360.868496
 20
649.814240
 30
0.0
 10
360.893755
 20
650.066814
 30
0.0
 10
360.812306
 20
650.297108
 30
0.0
  0
SPLINE
  5
281
100
AcDbEntity
  8
Layer_1
 62
7
100
AcDbSpline
 70
8
 71
3
 72
8
 73
4
 74
0
 40
0
 40
0
 40
0
 40
0
 40
1
 40
1
 40
1
 40
1
 10
360.812306
 20
650.297108
 30
0.0
 10
360.730828
 20
650.527373
 30
0.0
 10
360.486226
 20
650.641066
 30
0.0
 10
360.080278
 20
650.641066
 30
0.0
  0
SPLINE
  5
282
100
AcDbEntity
  8
Layer_1
 62
7
100
AcDbSpline
 70
8
 71
3
 72
8
 73
4
 74
0
 40
0
 40
0
 40
0
 40
0
 40
1
 40
1
 40
1
 40
1
 10
360.080278
 20
650.641066
 30
0.0
 10
359.348532
 20
650.613775
 30
0.0
 10
358.611537
 20
650.626997
 30
0.0
 10
357.866583
 20
650.667524
 30
0.0
  0
SPLINE
  5
283
100
AcDbEntity
  8
Layer_1
 62
7
100
AcDbSpline
 70
8
 71
3
 72
8
 73
4
 74
0
 40
0
 40
0
 40
0
 40
0
 40
1
 40
1
 40
1
 40
1
 10
357.866583
 20
650.667524
 30
0.0
 10
357.494134
 20
650.687774
 30
0.0
 10
357.130519
 20
650.697296
 30
0.0
 10
356.781806
 20
650.693983
 30
0.0
  0
LINE
  5
284
100
AcDbEntity
  8
Layer_1
 62
7
100
AcDbLine
 10
356.781806
 20
650.693983
 30
0.0
 11
356.781806
 21
650.693983
 31
0.0
  0
SPLINE
  5
285
100
AcDbEntity
  8
Layer_1
 62
7
100
AcDbSpline
 70
8
 71
3
 72
8
 73
4
 74
0
 40
0
 40
0
 40
0
 40
0
 40
1
 40
1
 40
1
 40
1
 10
333.639583
 20
650.111899
 30
0.0
 10
333.801635
 20
649.732367
 30
0.0
 10
333.936566
 20
649.298859
 30
0.0
 10
334.045278
 20
648.797802
 30
0.0
  0
SPLINE
  5
286
100
AcDbEntity
  8
Layer_1
 62
7
100
AcDbSpline
 70
8
 71
3
 72
8
 73
4
 74
0
 40
0
 40
0
 40
0
 40
0
 40
1
 40
1
 40
1
 40
1
 10
334.045278
 20
648.797802
 30
0.0
 10
334.154018
 20
648.296745
 30
0.0
 10
334.212861
 20
647.803957
 30
0.0
 10
334.212861
 20
647.316135
 30
0.0
  0
SPLINE
  5
287
100
AcDbEntity
  8
Layer_1
 62
7
100
AcDbSpline
 70
8
 71
3
 72
8
 73
4
 74
0
 40
0
 40
0
 40
0
 40
0
 40
1
 40
1
 40
1
 40
1
 10
334.212861
 20
647.316135
 30
0.0
 10
334.212861
 20
646.828314
 30
0.0
 10
334.132767
 20
646.369153
 30
0.0
 10
333.983528
 20
645.949122
 30
0.0
  0
SPLINE
  5
288
100
AcDbEntity
  8
Layer_1
 62
7
100
AcDbSpline
 70
8
 71
3
 72
8
 73
4
 74
0
 40
0
 40
0
 40
0
 40
0
 40
1
 40
1
 40
1
 40
1
 10
333.983528
 20
645.949122
 30
0.0
 10
333.834288
 20
645.529090
 30
0.0
 10
333.602894
 20
645.213255
 30
0.0
 10
333.277972
 20
644.996622
 30
0.0
  0
SPLINE
  5
289
100
AcDbEntity
  8
Layer_1
 62
7
100
AcDbSpline
 70
8
 71
3
 72
8
 73
4
 74
0
 40
0
 40
0
 40
0
 40
0
 40
1
 40
1
 40
1
 40
1
 10
333.277972
 20
644.996622
 30
0.0
 10
332.953050
 20
644.807279
 30
0.0
 10
332.637158
 20
644.760825
 30
0.0
 10
332.325472
 20
644.855510
 30
0.0
  0
SPLINE
  5
28a
100
AcDbEntity
  8
Layer_1
 62
7
100
AcDbSpline
 70
8
 71
3
 72
8
 73
4
 74
0
 40
0
 40
0
 40
0
 40
0
 40
1
 40
1
 40
1
 40
1
 10
332.325472
 20
644.855510
 30
0.0
 10
332.013758
 20
644.950168
 30
0.0
 10
331.735571
 20
645.114322
 30
0.0
 10
331.505278
 20
645.358219
 30
0.0
  0
SPLINE
  5
28b
100
AcDbEntity
  8
Layer_1
 62
7
100
AcDbSpline
 70
8
 71
3
 72
8
 73
4
 74
0
 40
0
 40
0
 40
0
 40
0
 40
1
 40
1
 40
1
 40
1
 10
331.505278
 20
645.358219
 30
0.0
 10
331.275013
 20
645.602143
 30
0.0
 10
331.119311
 20
645.888754
 30
0.0
 10
331.037861
 20
646.213705
 30
0.0
  0
SPLINE
  5
28c
100
AcDbEntity
  8
Layer_1
 62
7
100
AcDbSpline
 70
8
 71
3
 72
8
 73
4
 74
0
 40
0
 40
0
 40
0
 40
0
 40
1
 40
1
 40
1
 40
1
 10
331.037861
 20
646.213705
 30
0.0
 10
330.956412
 20
646.538627
 30
0.0
 10
330.998435
 20
646.825266
 30
0.0
 10
331.161305
 20
647.069191
 30
0.0
  0
SPLINE
  5
28d
100
AcDbEntity
  8
Layer_1
 62
7
100
AcDbSpline
 70
8
 71
3
 72
8
 73
4
 74
0
 40
0
 40
0
 40
0
 40
0
 40
1
 40
1
 40
1
 40
1
 10
331.161305
 20
647.069191
 30
0.0
 10
331.296913
 20
647.313116
 30
0.0
 10
331.558336
 20
647.654167
 30
0.0
 10
331.937416
 20
648.101066
 30
0.0
  0
SPLINE
  5
28e
100
AcDbEntity
  8
Layer_1
 62
7
100
AcDbSpline
 70
8
 71
3
 72
8
 73
4
 74
0
 40
0
 40
0
 40
0
 40
0
 40
1
 40
1
 40
1
 40
1
 10
331.937416
 20
648.101066
 30
0.0
 10
332.316526
 20
648.547965
 30
0.0
 10
332.880575
 20
649.217255
 30
0.0
 10
333.639583
 20
650.111899
 30
0.0
  0
LINE
  5
28f
100
AcDbEntity
  8
Layer_1
 62
7
100
AcDbLine
 10
333.639583
 20
650.111899
 30
0.0
 11
333.639583
 21
650.111899
 31
0.0
  0
SPLINE
  5
290
100
AcDbEntity
  8
Layer_1
 62
7
100
AcDbSpline
 70
8
 71
3
 72
8
 73
4
 74
0
 40
0
 40
0
 40
0
 40
0
 40
1
 40
1
 40
1
 40
1
 10
368.053056
 20
649.900233
 30
0.0
 10
368.250385
 20
649.908708
 30
0.0
 10
368.453585
 20
649.900854
 30
0.0
 10
368.670417
 20
649.873774
 30
0.0
  0
SPLINE
  5
291
100
AcDbEntity
  8
Layer_1
 62
7
100
AcDbSpline
 70
8
 71
3
 72
8
 73
4
 74
0
 40
0
 40
0
 40
0
 40
0
 40
1
 40
1
 40
1
 40
1
 10
368.670417
 20
649.873774
 30
0.0
 10
369.536924
 20
649.738195
 30
0.0
 10
370.287127
 20
649.468757
 30
0.0
 10
370.910556
 20
649.062385
 30
0.0
  0
SPLINE
  5
292
100
AcDbEntity
  8
Layer_1
 62
7
100
AcDbSpline
 70
8
 71
3
 72
8
 73
4
 74
0
 40
0
 40
0
 40
0
 40
0
 40
1
 40
1
 40
1
 40
1
 10
370.910556
 20
649.062385
 30
0.0
 10
371.533984
 20
648.656014
 30
0.0
 10
372.055954
 20
648.217638
 30
0.0
 10
372.489250
 20
647.757108
 30
0.0
  0
SPLINE
  5
293
100
AcDbEntity
  8
Layer_1
 62
7
100
AcDbSpline
 70
8
 71
3
 72
8
 73
4
 74
0
 40
0
 40
0
 40
0
 40
0
 40
1
 40
1
 40
1
 40
1
 10
372.489250
 20
647.757108
 30
0.0
 10
371.865793
 20
646.971599
 30
0.0
 10
371.217303
 20
646.360743
 30
0.0
 10
370.540139
 20
645.913844
 30
0.0
  0
SPLINE
  5
294
100
AcDbEntity
  8
Layer_1
 62
7
100
AcDbSpline
 70
8
 71
3
 72
8
 73
4
 74
0
 40
0
 40
0
 40
0
 40
0
 40
1
 40
1
 40
1
 40
1
 10
370.540139
 20
645.913844
 30
0.0
 10
369.862975
 20
645.466945
 30
0.0
 10
369.147231
 20
645.243566
 30
0.0
 10
368.388194
 20
645.243566
 30
0.0
  0
SPLINE
  5
295
100
AcDbEntity
  8
Layer_1
 62
7
100
AcDbSpline
 70
8
 71
3
 72
8
 73
4
 74
0
 40
0
 40
0
 40
0
 40
0
 40
1
 40
1
 40
1
 40
1
 10
368.388194
 20
645.243566
 30
0.0
 10
367.277763
 20
645.243566
 30
0.0
 10
366.502329
 20
645.500572
 30
0.0
 10
366.068695
 20
646.028497
 30
0.0
  0
SPLINE
  5
296
100
AcDbEntity
  8
Layer_1
 62
7
100
AcDbSpline
 70
8
 71
3
 72
8
 73
4
 74
0
 40
0
 40
0
 40
0
 40
0
 40
1
 40
1
 40
1
 40
1
 10
366.068695
 20
646.028497
 30
0.0
 10
365.635004
 20
646.556421
 30
0.0
 10
365.470892
 20
647.129671
 30
0.0
 10
365.565972
 20
647.739469
 30
0.0
  0
SPLINE
  5
297
100
AcDbEntity
  8
Layer_1
 62
7
100
AcDbSpline
 70
8
 71
3
 72
8
 73
4
 74
0
 40
0
 40
0
 40
0
 40
0
 40
1
 40
1
 40
1
 40
1
 10
365.565972
 20
647.739469
 30
0.0
 10
365.661053
 20
648.349238
 30
0.0
 10
365.980895
 20
648.884049
 30
0.0
 10
366.536111
 20
649.344608
 30
0.0
  0
SPLINE
  5
298
100
AcDbEntity
  8
Layer_1
 62
7
100
AcDbSpline
 70
8
 71
3
 72
8
 73
4
 74
0
 40
0
 40
0
 40
0
 40
0
 40
1
 40
1
 40
1
 40
1
 10
366.536111
 20
649.344608
 30
0.0
 10
366.952502
 20
649.690005
 30
0.0
 10
367.461066
 20
649.874813
 30
0.0
 10
368.053056
 20
649.900233
 30
0.0
  0
LINE
  5
299
100
AcDbEntity
  8
Layer_1
 62
7
100
AcDbLine
 10
368.053056
 20
649.900233
 30
0.0
 11
368.053056
 21
649.900233
 31
0.0
  0
ENDSEC
  0
SECTION
  2
OBJECTS
  0
DICTIONARY
  5
C
330
0
100
AcDbDictionary
  3
ACAD_GROUP
350
D
  3
ACAD_MLINESTYLE
350
17
  0
DICTIONARY
  5
D
330
C
100
AcDbDictionary
  0
DICTIONARY
  5
1A
330
C
100
AcDbDictionary
  0
DICTIONARY
  5
17
330
C
100
AcDbDictionary
  3
STANDARD
350
18
  0
DICTIONARY
  5
19
330
C
100
AcDbDictionary
  0
ENDSEC
  0
EOF
