<?xml version="1.0" encoding="UTF-8" standalone="no"?>
<!-- Created with Inkscape (http://www.inkscape.org/) -->

<svg
   xmlns:dc="http://purl.org/dc/elements/1.1/"
   xmlns:cc="http://creativecommons.org/ns#"
   xmlns:rdf="http://www.w3.org/1999/02/22-rdf-syntax-ns#"
   xmlns:svg="http://www.w3.org/2000/svg"
   xmlns="http://www.w3.org/2000/svg"
   xmlns:sodipodi="http://sodipodi.sourceforge.net/DTD/sodipodi-0.dtd"
   xmlns:inkscape="http://www.inkscape.org/namespaces/inkscape"
   width="4212.9922"
   height="2979.9211"
   id="svg2"
   version="1.1"
   inkscape:version="0.48.4 r9939"
   sodipodi:docname="New document 1">
  <title
     id="title2987">Laser A0 Template</title>
  <defs
     id="defs4" />
  <sodipodi:namedview
     id="base"
     pagecolor="#ffffff"
     bordercolor="#666666"
     borderopacity="1.0"
     inkscape:pageopacity="0.0"
     inkscape:pageshadow="2"
     inkscape:zoom="1.1457031"
     inkscape:cx="1093.8686"
     inkscape:cy="446.5507"
     inkscape:document-units="mm"
     inkscape:current-layer="layer1"
     showgrid="true"
     units="mm"
     width="1200mm"
     inkscape:window-width="1920"
     inkscape:window-height="1018"
     inkscape:window-x="-8"
     inkscape:window-y="-8"
     inkscape:window-maximized="1">
    <inkscape:grid
       type="xygrid"
       id="grid2985"
       empspacing="5"
       visible="true"
       enabled="true"
       snapvisiblegridlinesonly="true"
       units="mm"
       spacingx="1mm"
       spacingy="1mm" />
  </sodipodi:namedview>
  <metadata
     id="metadata7">
    <rdf:RDF>
      <cc:Work
         rdf:about="">
        <dc:format>image/svg+xml</dc:format>
        <dc:type
           rdf:resource="http://purl.org/dc/dcmitype/StillImage" />
        <dc:title>Laser A0 Template</dc:title>
      </cc:Work>
    </rdf:RDF>
  </metadata>
  <g
     inkscape:label="Layer 1"
     inkscape:groupmode="layer"
     id="layer1"
     transform="translate(0,1927.5603)">
    <g
       transform="scale(1.0359149,0.96533025)"
       style="font-size:33.14927673px;font-style:normal;font-variant:normal;font-weight:normal;font-stretch:normal;line-height:125%;letter-spacing:0px;word-spacing:0px;fill:#000000;fill-opacity:1;stroke:none;font-family:PMingLiU;-inkscape-font-specification:PMingLiU"
       id="text2984"
       inkscape:export-filename="C:\Users\LaserUser\bitmap.png"
       inkscape:export-xdpi="300"
       inkscape:export-ydpi="300">
      <path
         d="M 638.6077,559.04678 638.6077,536.58037 C 638.6077,536.343 638.65086,536.11909 638.73719,535.90865 638.82351,535.69825 638.94491,535.51481 639.10138,535.35832 639.25784,535.20188 639.43859,535.08048 639.64361,534.99413 639.84864,534.90783 640.07524,534.86467 640.32343,534.86464 640.99246,534.86467 641.49962,535.1722 641.84493,535.78725 L 651.55664,555.19447 661.26834,535.78725 C 661.65678,535.1722 662.16395,534.86467 662.78984,534.86464 663.02721,534.86467 663.25112,534.90783 663.46156,534.99413 663.67196,535.08048 663.8554,535.20188 664.01189,535.35832 664.16833,535.51481 664.28973,535.69825 664.37608,535.90865 664.46238,536.11909 664.50554,536.343 664.50557,536.58037 L 664.50557,559.04678 C 664.50554,559.52157 664.33829,559.92623 664.0038,560.26074 663.66926,560.59526 663.26461,560.76251 662.78984,560.76251 662.31502,560.76251 661.91036,560.59526 661.57587,560.26074 661.24134,559.92623 661.07408,559.52157 661.0741,559.04678 L 661.0741,543.86415 653.04576,559.90465 C 652.71123,560.47656 652.21486,560.76251 651.55664,560.76251 650.84443,560.76251 650.32108,560.41721 649.98658,559.7266 L 642.03917,543.86415 642.03917,559.04678 C 642.03916,559.52157 641.87191,559.92623 641.5374,560.26074 641.20288,560.59526 640.79822,560.76251 640.32343,560.76251 639.84864,560.76251 639.44398,560.59526 639.10947,560.26074 638.77495,559.92623 638.6077,559.52157 638.6077,559.04678 z"
         style="font-weight:bold;font-family:Comfortaa;-inkscape-font-specification:Comfortaa Bold"
         id="path2989" />
      <path
         d="M 671.67604,539.41295 C 671.67604,539.9633 671.4818,540.4327 671.09334,540.82115 670.70487,541.20964 670.23547,541.40387 669.68515,541.40385 669.13481,541.40387 668.66541,541.20964 668.27695,540.82115 667.88848,540.4327 667.69424,539.9633 667.69425,539.41295 667.69424,538.86265 667.88848,538.39325 668.27695,538.00476 668.66541,537.61631 669.13481,537.42208 669.68515,537.42205 670.23547,537.42208 670.70487,537.61631 671.09334,538.00476 671.4818,538.39325 671.67604,538.86265 671.67604,539.41295 z M 668.00178,559.06296 668.00178,544.33355 C 668.00178,543.85877 668.16634,543.45682 668.49546,543.12768 668.82458,542.79858 669.22114,542.63402 669.68515,542.634 670.14914,542.63402 670.54571,542.79858 670.87483,543.12768 671.20394,543.45682 671.3739,543.85877 671.38469,544.33355 L 671.38469,559.06296 C 671.3739,559.53776 671.20394,559.93972 670.87483,560.26883 670.54571,560.59795 670.14914,560.76251 669.68515,560.76251 669.22114,560.76251 668.82458,560.59795 668.49546,560.26883 668.16634,559.93972 668.00178,559.53776 668.00178,559.06296 z"
         style="font-weight:bold;font-family:Comfortaa;-inkscape-font-specification:Comfortaa Bold"
         id="path2991" />
      <path
         d="M 674.70286,559.07915 674.70286,536.56419 C 674.70286,536.08942 674.86202,535.68746 675.18035,535.35832 675.49867,535.02922 675.90063,534.86467 676.38622,534.86464 676.8718,534.86467 677.27376,535.02922 677.59209,535.35832 677.91041,535.68746 678.06958,536.08942 678.06958,536.56419 L 678.06958,557.3796 678.84652,557.3796 C 679.31051,557.37961 679.70707,557.54417 680.0362,557.87328 680.36531,558.2024 680.52987,558.60436 680.52988,559.07915 680.52987,559.54316 680.36531,559.93972 680.0362,560.26883 679.70707,560.59795 679.31051,560.76251 678.84652,560.76251 L 676.37003,560.76251 C 675.90603,560.76251 675.51216,560.59795 675.18844,560.26883 674.86472,559.93972 674.70286,559.54316 674.70286,559.07915 z"
         style="font-weight:bold;font-family:Comfortaa;-inkscape-font-specification:Comfortaa Bold"
         id="path2993" />
      <path
         d="M 682.60171,559.06296 682.60171,536.56419 C 682.60171,536.08942 682.76627,535.68746 683.09539,535.35832 683.4245,535.02922 683.82646,534.86467 684.30126,534.86464 684.76526,534.86467 685.16182,535.02922 685.49094,535.35832 685.82005,535.68746 685.98461,536.08942 685.98462,536.56419 L 685.98462,549.1894 695.66395,542.89298 C 695.9337,542.72035 696.23584,542.63402 696.57037,542.634 696.80776,542.63402 697.02897,542.67718 697.23401,542.76349 697.43902,542.84984 697.61706,542.97123 697.76815,543.12768 697.9192,543.28416 698.0406,543.46491 698.13234,543.66992 698.22404,543.87496 698.2699,544.09077 698.26992,544.31736 698.2699,544.92166 698.05409,545.36948 697.62247,545.66082 L 690.84047,550.06345 697.80052,557.89756 C 698.11344,558.24287 698.2699,558.63673 698.26992,559.07915 698.2699,559.30576 698.22404,559.52157 698.13234,559.7266 698.0406,559.93162 697.9192,560.11237 697.76815,560.26883 697.61706,560.4253 697.43902,560.5467 697.23401,560.63302 697.02897,560.71935 696.80776,560.76251 696.57037,560.76251 696.11715,560.76251 695.73947,560.61684 695.43734,560.32549 L 687.95933,551.92486 685.98462,553.21976 685.98462,559.06296 C 685.98461,559.52697 685.82005,559.92623 685.49094,560.26074 685.16182,560.59526 684.76526,560.76251 684.30126,560.76251 683.82646,560.76251 683.4245,560.59526 683.09539,560.26074 682.76627,559.92623 682.60171,559.52697 682.60171,559.06296 z"
         style="font-weight:bold;font-family:Comfortaa;-inkscape-font-specification:Comfortaa Bold"
         id="path2995" />
      <path
         d="M 706.7191,559.07915 700.89208,545.07811 C 700.78417,544.82994 700.73022,544.57636 700.73022,544.31736 700.73022,544.09077 700.77338,543.87496 700.85971,543.66992 700.94603,543.46491 701.06473,543.28416 701.2158,543.12768 701.36687,542.97123 701.54492,542.84984 701.74995,542.76349 701.95497,542.67718 702.17618,542.63402 702.41358,542.634 702.74809,542.63402 703.06102,542.72844 703.35238,542.91726 703.64372,543.10612 703.86494,543.38398 704.01601,543.75085 L 708.56432,554.61177 713.11264,543.71847 C 713.24211,543.39477 713.42826,543.13309 713.67106,542.93345 713.91384,542.73383 714.25645,542.63402 714.69888,542.634 714.93627,542.63402 715.15748,542.67718 715.36252,542.76349 715.56753,542.84984 715.74557,542.97123 715.89666,543.12768 716.04771,543.28416 716.16911,543.46491 716.26085,543.66992 716.35255,543.87496 716.39841,544.09077 716.39843,544.31736 716.39841,544.55478 716.33907,544.80836 716.22038,545.07811 L 706.91334,567.39884 C 706.77305,567.73335 706.55723,568.00582 706.26589,568.21624 705.97453,568.42666 705.6562,568.53187 705.3109,568.53187 704.82531,568.53187 704.42336,568.37 704.10503,568.04629 703.7867,567.72256 703.62754,567.3179 703.62754,566.83233 703.62754,566.57334 703.68149,566.32515 703.7894,566.08776 z"
         style="font-weight:bold;font-family:Comfortaa;-inkscape-font-specification:Comfortaa Bold"
         id="path2997" />
      <path
         d="M 720.47734,553.38162 C 719.99176,553.38163 719.5898,553.22246 719.27148,552.90413 718.95315,552.58581 718.79398,552.18385 718.79398,551.69826 718.79398,551.21268 718.95315,550.81073 719.27148,550.49239 719.5898,550.17407 719.99176,550.01491 720.47734,550.0149 L 727.85824,550.0149 C 728.34381,550.01491 728.74577,550.17407 729.06411,550.49239 729.38242,550.81073 729.54159,551.21268 729.5416,551.69826 729.54159,552.18385 729.38242,552.58581 729.06411,552.90413 728.74577,553.22246 728.34381,553.38163 727.85824,553.38162 z"
         style="font-weight:bold;font-family:Comfortaa;-inkscape-font-specification:Comfortaa Bold"
         id="path2999" />
      <path
         d="M 731.84004,559.04678 731.84004,536.58037 C 731.84004,536.343 731.88321,536.11909 731.96953,535.90865 732.05586,535.69825 732.17725,535.51481 732.33372,535.35832 732.49019,535.20188 732.67093,535.08048 732.87596,534.99413 733.08098,534.90783 733.30759,534.86467 733.55578,534.86464 734.2248,534.86467 734.73197,535.1722 735.07728,535.78725 L 744.78898,555.19447 754.50068,535.78725 C 754.88913,535.1722 755.39629,534.86467 756.02218,534.86464 756.25955,534.86467 756.48346,534.90783 756.69391,534.99413 756.9043,535.08048 757.08775,535.20188 757.24424,535.35832 757.40068,535.51481 757.52207,535.69825 757.60843,535.90865 757.69473,536.11909 757.73789,536.343 757.73792,536.58037 L 757.73792,559.04678 C 757.73789,559.52157 757.57063,559.92623 757.23615,560.26074 756.90161,560.59526 756.49695,560.76251 756.02218,560.76251 755.54736,560.76251 755.14271,560.59526 754.80822,560.26074 754.47368,559.92623 754.30642,559.52157 754.30645,559.04678 L 754.30645,543.86415 746.27811,559.90465 C 745.94358,560.47656 745.4472,560.76251 744.78898,560.76251 744.07678,560.76251 743.55342,560.41721 743.21892,559.7266 L 735.27151,543.86415 735.27151,559.04678 C 735.27151,559.52157 735.10425,559.92623 734.76974,560.26074 734.43522,560.59526 734.03057,560.76251 733.55578,560.76251 733.08098,560.76251 732.67633,560.59526 732.34182,560.26074 732.0073,559.92623 731.84004,559.52157 731.84004,559.04678 z"
         style="font-weight:bold;font-family:Comfortaa;-inkscape-font-specification:Comfortaa Bold"
         id="path3001" />
      <path
         d="M 764.90839,539.41295 C 764.90838,539.9633 764.71415,540.4327 764.32568,540.82115 763.93721,541.20964 763.46781,541.40387 762.91749,541.40385 762.36715,541.40387 761.89776,541.20964 761.50929,540.82115 761.12082,540.4327 760.92659,539.9633 760.92659,539.41295 760.92659,538.86265 761.12082,538.39325 761.50929,538.00476 761.89776,537.61631 762.36715,537.42208 762.91749,537.42205 763.46781,537.42208 763.93721,537.61631 764.32568,538.00476 764.71415,538.39325 764.90838,538.86265 764.90839,539.41295 z M 761.23413,559.06296 761.23413,544.33355 C 761.23412,543.85877 761.39868,543.45682 761.7278,543.12768 762.05692,542.79858 762.45348,542.63402 762.91749,542.634 763.38149,542.63402 763.77805,542.79858 764.10717,543.12768 764.43628,543.45682 764.60624,543.85877 764.61704,544.33355 L 764.61704,559.06296 C 764.60624,559.53776 764.43628,559.93972 764.10717,560.26883 763.77805,560.59795 763.38149,560.76251 762.91749,560.76251 762.45348,560.76251 762.05692,560.59795 761.7278,560.26883 761.39868,559.93972 761.23412,559.53776 761.23413,559.06296 z"
         style="font-weight:bold;font-family:Comfortaa;-inkscape-font-specification:Comfortaa Bold"
         id="path3003" />
      <path
         d="M 767.9352,559.07915 767.9352,536.56419 C 767.9352,536.08942 768.09436,535.68746 768.41269,535.35832 768.73102,535.02922 769.13298,534.86467 769.61856,534.86464 770.10415,534.86467 770.5061,535.02922 770.82443,535.35832 771.14276,535.68746 771.30192,536.08942 771.30193,536.56419 L 771.30193,557.3796 772.07886,557.3796 C 772.54286,557.37961 772.93942,557.54417 773.26854,557.87328 773.59766,558.2024 773.76222,558.60436 773.76222,559.07915 773.76222,559.54316 773.59766,559.93972 773.26854,560.26883 772.93942,560.59795 772.54286,560.76251 772.07886,560.76251 L 769.60238,560.76251 C 769.13837,560.76251 768.74451,560.59795 768.42079,560.26883 768.09706,559.93972 767.9352,559.54316 767.9352,559.07915 z"
         style="font-weight:bold;font-family:Comfortaa;-inkscape-font-specification:Comfortaa Bold"
         id="path3005" />
      <path
         d="M 775.83405,559.06296 775.83405,536.56419 C 775.83405,536.08942 775.99861,535.68746 776.32773,535.35832 776.65685,535.02922 777.05881,534.86467 777.5336,534.86464 777.9976,534.86467 778.39416,535.02922 778.72329,535.35832 779.0524,535.68746 779.21696,536.08942 779.21696,536.56419 L 779.21696,549.1894 788.89629,542.89298 C 789.16605,542.72035 789.46819,542.63402 789.80272,542.634 790.0401,542.63402 790.26131,542.67718 790.46635,542.76349 790.67136,542.84984 790.84941,542.97123 791.0005,543.12768 791.15155,543.28416 791.27295,543.46491 791.36468,543.66992 791.45639,543.87496 791.50225,544.09077 791.50227,544.31736 791.50225,544.92166 791.28643,545.36948 790.85482,545.66082 L 784.07282,550.06345 791.03287,557.89756 C 791.34578,558.24287 791.50225,558.63673 791.50227,559.07915 791.50225,559.30576 791.45639,559.52157 791.36468,559.7266 791.27295,559.93162 791.15155,560.11237 791.0005,560.26883 790.84941,560.4253 790.67136,560.5467 790.46635,560.63302 790.26131,560.71935 790.0401,560.76251 789.80272,560.76251 789.34949,560.76251 788.97181,560.61684 788.66969,560.32549 L 781.19168,551.92486 779.21696,553.21976 779.21696,559.06296 C 779.21696,559.52697 779.0524,559.92623 778.72329,560.26074 778.39416,560.59526 777.9976,560.76251 777.5336,560.76251 777.05881,560.76251 776.65685,560.59526 776.32773,560.26074 775.99861,559.92623 775.83405,559.52697 775.83405,559.06296 z"
         style="font-weight:bold;font-family:Comfortaa;-inkscape-font-specification:Comfortaa Bold"
         id="path3007" />
      <path
         d="M 799.95145,559.07915 794.12443,545.07811 C 794.01652,544.82994 793.96256,544.57636 793.96256,544.31736 793.96256,544.09077 794.00573,543.87496 794.09205,543.66992 794.17838,543.46491 794.29708,543.28416 794.44815,543.12768 794.59922,542.97123 794.77727,542.84984 794.98229,542.76349 795.18732,542.67718 795.40853,542.63402 795.64593,542.634 795.98044,542.63402 796.29337,542.72844 796.58472,542.91726 796.87607,543.10612 797.09728,543.38398 797.24836,543.75085 L 801.79667,554.61177 806.34498,543.71847 C 806.47446,543.39477 806.6606,543.13309 806.90341,542.93345 807.14619,542.73383 807.48879,542.63402 807.93123,542.634 808.16861,542.63402 808.38982,542.67718 808.59486,542.76349 808.79987,542.84984 808.97792,542.97123 809.12901,543.12768 809.28006,543.28416 809.40146,543.46491 809.49319,543.66992 809.5849,543.87496 809.63076,544.09077 809.63078,544.31736 809.63076,544.55478 809.57141,544.80836 809.45273,545.07811 L 800.14568,567.39884 C 800.00539,567.73335 799.78958,568.00582 799.49823,568.21624 799.20688,568.42666 798.88855,568.53187 798.54325,568.53187 798.05766,568.53187 797.6557,568.37 797.33738,568.04629 797.01905,567.72256 796.85988,567.3179 796.85989,566.83233 796.85988,566.57334 796.91384,566.32515 797.02175,566.08776 z"
         style="font-weight:bold;font-family:Comfortaa;-inkscape-font-specification:Comfortaa Bold"
         id="path3009" />
    </g>
    <text
       xml:space="preserve"
       style="font-size:58.37108231px;font-style:normal;font-variant:normal;font-weight:normal;font-stretch:normal;line-height:125%;letter-spacing:0px;word-spacing:0px;fill:#000000;fill-opacity:1;stroke:none;font-family:PMingLiU;-inkscape-font-specification:PMingLiU"
       x="722.70032"
       y="629.91284"
       id="text3779"
       sodipodi:linespacing="125%"
       inkscape:export-xdpi="300"
       inkscape:export-ydpi="300"><tspan
         sodipodi:role="line"
         id="tspan3781"
         x="722.70032"
         y="629.91284"
         style="font-size:102.14939117px;font-style:normal;font-variant:normal;font-weight:normal;font-stretch:normal;font-family:Disparador Stencil;-inkscape-font-specification:Disparador Stencil">Natural-D</tspan></text>
  </g>
</svg>
