<?xml version="1.0" encoding="UTF-8" standalone="no"?>
<!-- Created with Inkscape (http://www.inkscape.org/) -->

<svg
   xmlns:dc="http://purl.org/dc/elements/1.1/"
   xmlns:cc="http://creativecommons.org/ns#"
   xmlns:rdf="http://www.w3.org/1999/02/22-rdf-syntax-ns#"
   xmlns:svg="http://www.w3.org/2000/svg"
   xmlns="http://www.w3.org/2000/svg"
   xmlns:sodipodi="http://sodipodi.sourceforge.net/DTD/sodipodi-0.dtd"
   xmlns:inkscape="http://www.inkscape.org/namespaces/inkscape"
   width="210mm"
   height="297mm"
   id="svg4455"
   version="1.1"
   inkscape:version="0.48.4 r9939"
   sodipodi:docname="moonshine-tailskid-1.svg">
  <defs
     id="defs3" />
  <sodipodi:namedview
     inkscape:document-units="mm"
     id="base"
     pagecolor="#ffffff"
     bordercolor="#666666"
     borderopacity="1.0"
     inkscape:pageopacity="0.0"
     inkscape:pageshadow="2"
     inkscape:zoom="2.2914062"
     inkscape:cx="401.90778"
     inkscape:cy="886.41273"
     inkscape:current-layer="layer1"
     showgrid="false"
     inkscape:window-width="1920"
     inkscape:window-height="1018"
     inkscape:window-x="-8"
     inkscape:window-y="-8"
     inkscape:window-maximized="1" />
  <metadata
     id="metadata4">
    <rdf:RDF>
      <cc:Work
         rdf:about="">
        <dc:format>image/svg+xml</dc:format>
        <dc:type
           rdf:resource="http://purl.org/dc/dcmitype/StillImage" />
        <dc:title></dc:title>
      </cc:Work>
    </rdf:RDF>
  </metadata>
  <g
     inkscape:label="Layer 1"
     inkscape:groupmode="layer"
     id="layer1">
    <path
       inkscape:connector-curvature="0"
       style="color:#000000;fill:#000000;fill-opacity:0.56084655;stroke:#000000;stroke-width:0.5;stroke-linecap:butt;stroke-linejoin:round;stroke-miterlimit:4;stroke-opacity:1;stroke-dashoffset:0;marker:none;visibility:visible;display:inline;overflow:visible;enable-background:accumulate"
       d="M 554.96205,65.451173 C 553.65975,65.467873 552.31889,65.523473 550.96205,65.607373 L 351.46205,65.607373 139.8058,65.607373 C 130.56765,65.114773 121.9347,68.124773 116.2433,73.607373 116.16023,73.677273 116.07515,73.755473 115.9933,73.826173 111.75303,77.489273 109.16252,82.393673 109.4308,88.669973 109.22604,94.081273 110.88394,100.20227 115.02455,106.79497 130.43169,131.32557 152.04746,158.77477 178.39955,176.41997 202.1606,192.33007 231.25209,200.50587 259.6183,206.29497 290.90142,211.71017 321.00854,210.71997 348.58705,210.48237 379.18442,209.79157 411.59503,211.35597 437.5558,206.29497 465.92201,200.50587 494.98225,192.33007 518.7433,176.41997 545.09539,158.77477 566.71116,131.32557 582.1183,106.79497 586.25891,100.20227 587.91681,94.081273 587.71205,88.669973 587.98034,82.393673 585.38987,77.489273 581.14955,73.826173 581.07069,73.748073 580.97958,73.684573 580.89955,73.607373 571.99748,67.077673 564.07818,65.334173 554.96205,65.451173 z M 242.2433,122.16997 C 246.15723,122.16997 249.33705,125.34997 249.33705,129.26367 249.33705,133.17737 246.15723,136.32617 242.2433,136.32617 238.32937,136.32617 235.1808,133.17737 235.1808,129.26367 235.1808,125.34997 238.32937,122.16997 242.2433,122.16997 z M 454.89955,122.16997 C 458.81348,122.16997 461.9933,125.34997 461.9933,129.26367 461.9933,133.17737 458.81348,136.32617 454.89955,136.32617 450.98562,136.32617 447.8058,133.17737 447.8058,129.26367 447.8058,125.34997 450.98562,122.16997 454.89955,122.16997 z"
       id="path4389" />
    <path
       style="color:#000000;fill:#0aff00;fill-opacity:0.56084655;stroke:#ff0000;stroke-width:0.33314878;stroke-linecap:butt;stroke-linejoin:round;stroke-miterlimit:4;stroke-opacity:1;stroke-dashoffset:0;marker:none;visibility:visible;display:inline;overflow:visible;enable-background:accumulate"
       d="M 146.21991,219.22133 C 137.32353,218.72853 129.00995,221.73863 123.52911,227.22163 123.44911,227.29143 123.36718,227.36973 123.28836,227.44043 119.20496,231.10373 116.71029,236.00853 116.96864,242.28483 116.77146,247.69663 118.36802,253.81773 122.35545,260.41063 137.1926,284.94243 158.00868,312.39283 183.38587,330.03872 206.26787,345.94962 234.28311,354.12582 261.59991,359.91502 291.7257,365.33062 320.71899,364.34012 347.27723,364.10262 376.74264,363.41162 407.95421,364.97642 432.95455,359.91502 460.27134,354.12582 488.25649,345.94962 511.13849,330.03872 536.51568,312.39283 557.33177,284.94243 572.16891,260.41063 576.15634,253.81773 577.75291,247.69663 577.55572,242.28483 577.81409,236.00853 575.31945,231.10373 571.236,227.44043 571.16006,227.36233 571.07232,227.29873 570.99525,227.22163 561.19784,219.75863 552.61841,218.54863 542.1653,219.22133 L 350.04587,219.22133 z"
       id="path4389-1"
       inkscape:connector-curvature="0"
       sodipodi:nodetypes="ccccsscccsscccccc" />
  </g>
</svg>
