  0
SECTION
  2
HEADER
  9
$ACADVER
  1
AC1012
  9
$DWGCODEPAGE
  3
gb2312
  9
$INSBASE
 10
0.0
 20
0.0
 30
0.0
  9
$EXTMIN
 10
1.000000000000000E+20
 20
1.000000000000000E+20
 30
1.000000000000000E+20
  9
$EXTMAX
 10
-1.000000000000000E+20
 20
-1.000000000000000E+20
 30
-1.000000000000000E+20
  9
$LIMMIN
 10
0.0
 20
0.0
  9
$LIMMAX
 10
420.0
 20
297.0
  9
$ORTHOMODE
 70
     0
  9
$REGENMODE
 70
     1
  9
$FILLMODE
 70
     1
  9
$QTEXTMODE
 70
     0
  9
$MIRRTEXT
 70
     1
  9
$DRAGMODE
 70
     2
  9
$LTSCALE
 40
1.0
  9
$OSMODE
 70
    37
  9
$ATTMODE
 70
     1
  9
$TEXTSIZE
 40
2.5
  9
$TRACEWID
 40
1.0
  9
$TEXTSTYLE
  7
STANDARD
  9
$CLAYER
  8
0
  9
$CELTYPE
  6
BYLAYER
  9
$CECOLOR
 62
   256
  9
$CELTSCALE
 40
1.0
  9
$DELOBJ
 70
     1
  9
$DISPSILH
 70
     0
  9
$DIMSCALE
 40
1.0
  9
$DIMASZ
 40
2.5
  9
$DIMEXO
 40
0.625
  9
$DIMDLI
 40
3.75
  9
$DIMRND
 40
0.0
  9
$DIMDLE
 40
0.0
  9
$DIMEXE
 40
1.25
  9
$DIMTP
 40
0.0
  9
$DIMTM
 40
0.0
  9
$DIMTXT
 40
2.5
  9
$DIMCEN
 40
2.5
  9
$DIMTSZ
 40
0.0
  9
$DIMTOL
 70
     0
  9
$DIMLIM
 70
     0
  9
$DIMTIH
 70
     0
  9
$DIMTOH
 70
     0
  9
$DIMSE1
 70
     0
  9
$DIMSE2
 70
     0
  9
$DIMTAD
 70
     1
  9
$DIMZIN
 70
     8
  9
$DIMBLK
  1

  9
$DIMASO
 70
     1
  9
$DIMSHO
 70
     1
  9
$DIMPOST
  1

  9
$DIMAPOST
  1

  9
$DIMALT
 70
     0
  9
$DIMALTD
 70
     3
  9
$DIMALTF
 40
0.03937007874016
  9
$DIMLFAC
 40
1.0
  9
$DIMTOFL
 70
     1
  9
$DIMTVP
 40
0.0
  9
$DIMTIX
 70
     0
  9
$DIMSOXD
 70
     0
  9
$DIMSAH
 70
     0
  9
$DIMBLK1
  1

  9
$DIMBLK2
  1

  9
$DIMSTYLE
  2
ISO-25
  9
$DIMCLRD
 70
     0
  9
$DIMCLRE
 70
     0
  9
$DIMCLRT
 70
     0
  9
$DIMTFAC
 40
1.0
  9
$DIMGAP
 40
0.625
  9
$DIMJUST
 70
     0
  9
$DIMSD1
 70
     0
  9
$DIMSD2
 70
     0
  9
$DIMTOLJ
 70
     0
  9
$DIMTZIN
 70
     8
  9
$DIMALTZ
 70
     0
  9
$DIMALTTZ
 70
     0
  9
$DIMFIT
 70
     3
  9
$DIMUPT
 70
     0
  9
$DIMUNIT
 70
     2
  9
$DIMDEC
 70
     2
  9
$DIMTDEC
 70
     2
  9
$DIMALTU
 70
     2
  9
$DIMALTTD
 70
     3
  9
$DIMTXSTY
  7
STANDARD
  9
$DIMAUNIT
 70
     0
  9
$LUNITS
 70
     2
  9
$LUPREC
 70
     4
  9
$SKETCHINC
 40
1.0
  9
$FILLETRAD
 40
10.0
  9
$AUNITS
 70
     0
  9
$AUPREC
 70
     0
  9
$MENU
  1
.
  9
$ELEVATION
 40
0.0
  9
$PELEVATION
 40
0.0
  9
$THICKNESS
 40
0.0
  9
$LIMCHECK
 70
     0
  9
$BLIPMODE
 70
     0
  9
$CHAMFERA
 40
10.0
  9
$CHAMFERB
 40
10.0
  9
$CHAMFERC
 40
20.0
  9
$CHAMFERD
 40
0.0
  9
$SKPOLY
 70
     0
  9
$TDCREATE
 40
2453935.933843252
  9
$TDUPDATE
 40
2453935.934398680
  9
$TDINDWG
 40
0.0005563542
  9
$TDUSRTIMER
 40
0.0005562384
  9
$USRTIMER
 70
     1
  9
$ANGBASE
 50
0.0
  9
$ANGDIR
 70
     0
  9
$PDMODE
 70
     0
  9
$PDSIZE
 40
0.0
  9
$PLINEWID
 40
0.0
  9
$COORDS
 70
     1
  9
$SPLFRAME
 70
     0
  9
$SPLINETYPE
 70
     6
  9
$SPLINESEGS
 70
     8
  9
$ATTDIA
 70
     0
  9
$ATTREQ
 70
     1
  9
$HANDLING
 70
 22529
  9
$HANDSEED
  5
4A
  9
$SURFTAB1
 70
     6
  9
$SURFTAB2
 70
     6
  9
$SURFTYPE
 70
     6
  9
$SURFU
 70
     6
  9
$SURFV
 70
     6
  9
$UCSNAME
  2

  9
$UCSORG
 10
0.0
 20
0.0
 30
0.0
  9
$UCSXDIR
 10
1.0
 20
0.0
 30
0.0
  9
$UCSYDIR
 10
0.0
 20
1.0
 30
0.0
  9
$PUCSNAME
  2

  9
$PUCSORG
 10
0.0
 20
0.0
 30
0.0
  9
$PUCSXDIR
 10
1.0
 20
0.0
 30
0.0
  9
$PUCSYDIR
 10
0.0
 20
1.0
 30
0.0
  9
$USERI1
 70
     0
  9
$USERI2
 70
     0
  9
$USERI3
 70
     0
  9
$USERI4
 70
     0
  9
$USERI5
 70
     0
  9
$USERR1
 40
0.0
  9
$USERR2
 40
0.0
  9
$USERR3
 40
0.0
  9
$USERR4
 40
0.0
  9
$USERR5
 40
0.0
  9
$WORLDVIEW
 70
     1
  9
$SHADEDGE
 70
     3
  9
$SHADEDIF
 70
    70
  9
$TILEMODE
 70
     1
  9
$MAXACTVP
 70
    64
  9
$PINSBASE
 10
0.0
 20
0.0
 30
0.0
  9
$PLIMCHECK
 70
     0
  9
$PEXTMIN
 10
1.000000000000000E+20
 20
1.000000000000000E+20
 30
1.000000000000000E+20
  9
$PEXTMAX
 10
-1.000000000000000E+20
 20
-1.000000000000000E+20
 30
-1.000000000000000E+20
  9
$PLIMMIN
 10
0.0
 20
0.0
  9
$PLIMMAX
 10
420.0
 20
297.0
  9
$UNITMODE
 70
     0
  9
$VISRETAIN
 70
     1
  9
$PLINEGEN
 70
     0
  9
$PSLTSCALE
 70
     1
  9
$TREEDEPTH
 70
  3020
  9
$PICKSTYLE
 70
     1
  9
$CMLSTYLE
  2
STANDARD
  9
$CMLJUST
 70
     0
  9
$CMLSCALE
 40
20.0
  9
$SAVEIMAGES
 70
     1
  0
ENDSEC
  0
SECTION
  2
CLASSES
  0
CLASS
  1
ACDBDICTIONARYWDFLT
  2
AcDbDictionaryWithDefault
  3
AutoCAD 2000
 90
    32768
280
     0
281
     0
  0
CLASS
  1
ACDBPLACEHOLDER
  2
AcDbPlaceHolder
  3
AutoCAD 2000
 90
    32768
280
     0
281
     0
  0
CLASS
  1
LAYOUT
  2
AcDbLayout
  3
AutoCAD 2000
 90
    32768
280
     0
281
     0
  0
CLASS
  1
DICTIONARYVAR
  2
AcDbDictionaryVar
  3
AutoCAD 2000
 90
    32768
280
     0
281
     0
  0
CLASS
  1
LONG_TRANSACTION
  2
AcDbLongTransaction
  3
AutoCAD 2000
 90
    32768
280
     0
281
     0
  0
CLASS
  1
LWPOLYLINE
  2
AcDbPolyline
  3
AutoCAD 2000
 90
    32768
280
     0
281
     1
  0
CLASS
  1
HATCH
  2
AcDbHatch
  3
AutoCAD 2000
 90
    32768
280
     0
281
     1
  0
CLASS
  1
XRECORD
  2
AcDbXrecord
  3
AutoCAD 2000
 90
    32768
280
     0
281
     0
  0
ENDSEC
  0
SECTION
  2
TABLES
  0
TABLE
  2
VPORT
  5
8
330
0
100
AcDbSymbolTable
 70
     2
  0
VPORT
  5
43
330
8
100
AcDbSymbolTableRecord
100
AcDbViewportTableRecord
  2
*ACTIVE
 70
     0
 10
0.0
 20
0.0
 11
1.0
 21
1.0
 12
505.3812210517317
 22
257.5500453436709
 13
0.0
 23
0.0
 14
10.0
 24
10.0
 15
10.0
 25
10.0
 16
0.0
 26
0.0
 36
1.0
 17
0.0
 27
0.0
 37
0.0
 40
515.1000906873419
 41
1.962264150943396
 42
50.0
 43
0.0
 44
0.0
 50
0.0
 51
0.0
 71
     0
 72
   100
 73
     1
 74
     3
 75
     0
 76
     0
 77
     0
 78
     0
  0
ENDTAB
  0
TABLE
  2
LTYPE
  5
5
330
0
100
AcDbSymbolTable
 70
     1
  0
LTYPE
  5
14
330
5
100
AcDbSymbolTableRecord
100
AcDbLinetypeTableRecord
  2
BYBLOCK
 70
     0
  3

 72
    65
 73
     0
 40
0.0
  0
LTYPE
  5
15
330
5
100
AcDbSymbolTableRecord
100
AcDbLinetypeTableRecord
  2
BYLAYER
 70
     0
  3

 72
    65
 73
     0
 40
0.0
  0
LTYPE
  5
16
330
5
100
AcDbSymbolTableRecord
100
AcDbLinetypeTableRecord
  2
CONTINUOUS
 70
     0
  3
Solid line
 72
    65
 73
     0
 40
0.0
  0
ENDTAB
  0
TABLE
  2
LAYER
  5
2
330
0
100
AcDbSymbolTable
 70
     1
  0
LAYER
  5
10
330
2
100
AcDbSymbolTableRecord
100
AcDbLayerTableRecord
  2
0
 70
     0
 62
     7
  6
CONTINUOUS
  0
ENDTAB
  0
TABLE
  2
STYLE
  5
3
330
0
100
AcDbSymbolTable
 70
     1
  0
STYLE
  5
11
330
3
100
AcDbSymbolTableRecord
100
AcDbTextStyleTableRecord
  2
STANDARD
 70
     0
 40
0.0
 41
1.0
 50
0.0
 71
     0
 42
2.5
  3
txt
  4

  0
ENDTAB
  0
TABLE
  2
VIEW
  5
6
330
0
100
AcDbSymbolTable
 70
     0
  0
ENDTAB
  0
TABLE
  2
UCS
  5
7
330
0
100
AcDbSymbolTable
 70
     0
  0
ENDTAB
  0
TABLE
  2
APPID
  5
9
330
0
100
AcDbSymbolTable
 70
     1
  0
APPID
  5
12
330
9
100
AcDbSymbolTableRecord
100
AcDbRegAppTableRecord
  2
ACAD
 70
     0
  0
ENDTAB
  0
TABLE
  2
DIMSTYLE
  5
A
330
0
100
AcDbSymbolTable
 70
     1
  0
DIMSTYLE
105
27
330
A
100
AcDbSymbolTableRecord
100
AcDbDimStyleTableRecord
  2
ISO-25
 70
     0
  3

  4

  5

  6

  7

 40
1.0
 41
2.5
 42
0.625
 43
3.75
 44
1.25
 45
0.0
 46
0.0
 47
0.0
 48
0.0
140
2.5
141
2.5
142
0.0
143
0.03937007874016
144
1.0
145
0.0
146
1.0
147
0.625
 71
     0
 72
     0
 73
     0
 74
     0
 75
     0
 76
     0
 77
     1
 78
     8
170
     0
171
     3
172
     1
173
     0
174
     0
175
     0
176
     0
177
     0
178
     0
270
     2
271
     2
272
     2
273
     2
274
     3
340
11
275
     0
280
     0
281
     0
282
     0
283
     0
284
     8
285
     0
286
     0
287
     3
288
     0
  0
ENDTAB
  0
TABLE
  2
BLOCK_RECORD
  5
1
330
0
100
AcDbSymbolTable
 70
     1
  0
BLOCK_RECORD
  5
1F
102
{ACAD_XDICTIONARY
360
46
102
}
330
1
100
AcDbSymbolTableRecord
100
AcDbBlockTableRecord
  2
*MODEL_SPACE
  0
BLOCK_RECORD
  5
1B
102
{ACAD_XDICTIONARY
360
44
102
}
330
1
100
AcDbSymbolTableRecord
100
AcDbBlockTableRecord
  2
*PAPER_SPACE
  0
ENDTAB
  0
ENDSEC
  0
SECTION
  2
BLOCKS
  0
BLOCK
  5
20
330
1F
100
AcDbEntity
  8
0
100
AcDbBlockBegin
  2
*MODEL_SPACE
 70
     0
 10
0.0
 20
0.0
 30
0.0
  3
*MODEL_SPACE
  1

  0
ENDBLK
  5
21
330
1F
100
AcDbEntity
  8
0
100
AcDbBlockEnd
  0
BLOCK
  5
1C
330
1B
100
AcDbEntity
 67
     1
  8
0
100
AcDbBlockBegin
  2
*PAPER_SPACE
 70
     0
 10
0.0
 20
0.0
 30
0.0
  3
*PAPER_SPACE
  1

  0
ENDBLK
  5
1D
330
1B
100
AcDbEntity
 67
     1
  8
0
100
AcDbBlockEnd
  0
ENDSEC
  0
SECTION
  2
ENTITIES
  0
SPLINE
  5
100
330
1F
100
AcDbEntity
  8
0
 62
     1
100
AcDbSpline
210
0.000000
220
0.000000
230
1.0
 70
     8
 71
     3
 72
     8
 73
     4
 42
0.0000000001
 43
0.0000000001
 44
0.0000000001
 12
0.000000
 22
0.000000
 32
0.000000
 13
0.000000
 23
0.000000
 33
0.000000
 40
0.000000
 40
0.000000
 40
0.000000
 40
0.000000
 40
1.000000
 40
1.000000
 40
1.000000
 40
1.000000
 10
810.696528
 20
623.743262
 30
0.000000
 10
808.159396
 20
627.756296
 30
0.000000
 10
805.622265
 20
631.769330
 30
0.000000
 10
802.214455
 20
634.696260
 30
0.000000
  0
SPLINE
  5
101
330
1F
100
AcDbEntity
  8
0
 62
     1
100
AcDbSpline
210
0.000000
220
0.000000
230
1.0
 70
     8
 71
     3
 72
     8
 73
     4
 42
0.0000000001
 43
0.0000000001
 44
0.0000000001
 12
0.000000
 22
0.000000
 32
0.000000
 13
0.000000
 23
0.000000
 33
0.000000
 40
0.000000
 40
0.000000
 40
0.000000
 40
0.000000
 40
1.000000
 40
1.000000
 40
1.000000
 40
1.000000
 10
802.214455
 20
634.696260
 30
0.000000
 10
796.648389
 20
639.476893
 30
0.000000
 10
788.759565
 20
641.360068
 30
0.000000
 10
781.139238
 20
642.931193
 30
0.000000
  0
SPLINE
  5
102
330
1F
100
AcDbEntity
  8
0
 62
     1
100
AcDbSpline
210
0.000000
220
0.000000
230
1.0
 70
     8
 71
     3
 72
     8
 73
     4
 42
0.0000000001
 43
0.0000000001
 44
0.0000000001
 12
0.000000
 22
0.000000
 32
0.000000
 13
0.000000
 23
0.000000
 33
0.000000
 40
0.000000
 40
0.000000
 40
0.000000
 40
0.000000
 40
1.000000
 40
1.000000
 40
1.000000
 40
1.000000
 10
781.139238
 20
642.931193
 30
0.000000
 10
771.042819
 20
645.012827
 30
0.000000
 10
761.417732
 20
646.546675
 30
0.000000
 10
751.438680
 20
647.008956
 30
0.000000
  0
SPLINE
  5
103
330
1F
100
AcDbEntity
  8
0
 62
     1
100
AcDbSpline
210
0.000000
220
0.000000
230
1.0
 70
     8
 71
     3
 72
     8
 73
     4
 42
0.0000000001
 43
0.0000000001
 44
0.0000000001
 12
0.000000
 22
0.000000
 32
0.000000
 13
0.000000
 23
0.000000
 33
0.000000
 40
0.000000
 40
0.000000
 40
0.000000
 40
0.000000
 40
1.000000
 40
1.000000
 40
1.000000
 40
1.000000
 10
751.438680
 20
647.008956
 30
0.000000
 10
751.250136
 20
647.017690
 30
0.000000
 10
751.061465
 20
647.026042
 30
0.000000
 10
750.872808
 20
647.034034
 30
0.000000
  0
SPLINE
  5
104
330
1F
100
AcDbEntity
  8
0
 62
     1
100
AcDbSpline
210
0.000000
220
0.000000
230
1.0
 70
     8
 71
     3
 72
     8
 73
     4
 42
0.0000000001
 43
0.0000000001
 44
0.0000000001
 12
0.000000
 22
0.000000
 32
0.000000
 13
0.000000
 23
0.000000
 33
0.000000
 40
0.000000
 40
0.000000
 40
0.000000
 40
0.000000
 40
1.000000
 40
1.000000
 40
1.000000
 40
1.000000
 10
750.872808
 20
647.034034
 30
0.000000
 10
750.683555
 20
647.042051
 30
0.000000
 10
750.494317
 20
647.049706
 30
0.000000
 10
750.305068
 20
647.057297
 30
0.000000
  0
SPLINE
  5
105
330
1F
100
AcDbEntity
  8
0
 62
     1
100
AcDbSpline
210
0.000000
220
0.000000
230
1.0
 70
     8
 71
     3
 72
     8
 73
     4
 42
0.0000000001
 43
0.0000000001
 44
0.0000000001
 12
0.000000
 22
0.000000
 32
0.000000
 13
0.000000
 23
0.000000
 33
0.000000
 40
0.000000
 40
0.000000
 40
0.000000
 40
0.000000
 40
1.000000
 40
1.000000
 40
1.000000
 40
1.000000
 10
750.305068
 20
647.057297
 30
0.000000
 10
750.115567
 20
647.064898
 30
0.000000
 10
749.926054
 20
647.072436
 30
0.000000
 10
749.736527
 20
647.079512
 30
0.000000
  0
SPLINE
  5
106
330
1F
100
AcDbEntity
  8
0
 62
     1
100
AcDbSpline
210
0.000000
220
0.000000
230
1.0
 70
     8
 71
     3
 72
     8
 73
     4
 42
0.0000000001
 43
0.0000000001
 44
0.0000000001
 12
0.000000
 22
0.000000
 32
0.000000
 13
0.000000
 23
0.000000
 33
0.000000
 40
0.000000
 40
0.000000
 40
0.000000
 40
0.000000
 40
1.000000
 40
1.000000
 40
1.000000
 40
1.000000
 10
749.736527
 20
647.079512
 30
0.000000
 10
749.617177
 20
647.083968
 30
0.000000
 10
749.497822
 20
647.088242
 30
0.000000
 10
749.378458
 20
647.092282
 30
0.000000
  0
SPLINE
  5
107
330
1F
100
AcDbEntity
  8
0
 62
     1
100
AcDbSpline
210
0.000000
220
0.000000
230
1.0
 70
     8
 71
     3
 72
     8
 73
     4
 42
0.0000000001
 43
0.0000000001
 44
0.0000000001
 12
0.000000
 22
0.000000
 32
0.000000
 13
0.000000
 23
0.000000
 33
0.000000
 40
0.000000
 40
0.000000
 40
0.000000
 40
0.000000
 40
1.000000
 40
1.000000
 40
1.000000
 40
1.000000
 10
749.378458
 20
647.092282
 30
0.000000
 10
749.258871
 20
647.096329
 30
0.000000
 10
749.139276
 20
647.100143
 30
0.000000
 10
749.019673
 20
647.103690
 30
0.000000
  0
SPLINE
  5
108
330
1F
100
AcDbEntity
  8
0
 62
     1
100
AcDbSpline
210
0.000000
220
0.000000
230
1.0
 70
     8
 71
     3
 72
     8
 73
     4
 42
0.0000000001
 43
0.0000000001
 44
0.0000000001
 12
0.000000
 22
0.000000
 32
0.000000
 13
0.000000
 23
0.000000
 33
0.000000
 40
0.000000
 40
0.000000
 40
0.000000
 40
0.000000
 40
1.000000
 40
1.000000
 40
1.000000
 40
1.000000
 10
749.019673
 20
647.103690
 30
0.000000
 10
748.899962
 20
647.107240
 30
0.000000
 10
748.780243
 20
647.110524
 30
0.000000
 10
748.660556
 20
647.114789
 30
0.000000
  0
SPLINE
  5
109
330
1F
100
AcDbEntity
  8
0
 62
     1
100
AcDbSpline
210
0.000000
220
0.000000
230
1.0
 70
     8
 71
     3
 72
     8
 73
     4
 42
0.0000000001
 43
0.0000000001
 44
0.0000000001
 12
0.000000
 22
0.000000
 32
0.000000
 13
0.000000
 23
0.000000
 33
0.000000
 40
0.000000
 40
0.000000
 40
0.000000
 40
0.000000
 40
1.000000
 40
1.000000
 40
1.000000
 40
1.000000
 10
748.660556
 20
647.114789
 30
0.000000
 10
748.590009
 20
647.117303
 30
0.000000
 10
748.519473
 20
647.120159
 30
0.000000
 10
748.448953
 20
647.123276
 30
0.000000
  0
SPLINE
  5
110
330
1F
100
AcDbEntity
  8
0
 62
     1
100
AcDbSpline
210
0.000000
220
0.000000
230
1.0
 70
     8
 71
     3
 72
     8
 73
     4
 42
0.0000000001
 43
0.0000000001
 44
0.0000000001
 12
0.000000
 22
0.000000
 32
0.000000
 13
0.000000
 23
0.000000
 33
0.000000
 40
0.000000
 40
0.000000
 40
0.000000
 40
0.000000
 40
1.000000
 40
1.000000
 40
1.000000
 40
1.000000
 10
748.448953
 20
647.123276
 30
0.000000
 10
748.378464
 20
647.126391
 30
0.000000
 10
748.307991
 20
647.129768
 30
0.000000
 10
748.237510
 20
647.133199
 30
0.000000
  0
SPLINE
  5
111
330
1F
100
AcDbEntity
  8
0
 62
     1
100
AcDbSpline
210
0.000000
220
0.000000
230
1.0
 70
     8
 71
     3
 72
     8
 73
     4
 42
0.0000000001
 43
0.0000000001
 44
0.0000000001
 12
0.000000
 22
0.000000
 32
0.000000
 13
0.000000
 23
0.000000
 33
0.000000
 40
0.000000
 40
0.000000
 40
0.000000
 40
0.000000
 40
1.000000
 40
1.000000
 40
1.000000
 40
1.000000
 10
748.237510
 20
647.133199
 30
0.000000
 10
748.166885
 20
647.136638
 30
0.000000
 10
748.096252
 20
647.140132
 30
0.000000
 10
748.025556
 20
647.141248
 30
0.000000
  0
SPLINE
  5
112
330
1F
100
AcDbEntity
  8
0
 62
     1
100
AcDbSpline
210
0.000000
220
0.000000
230
1.0
 70
     8
 71
     3
 72
     8
 73
     4
 42
0.0000000001
 43
0.0000000001
 44
0.0000000001
 12
0.000000
 22
0.000000
 32
0.000000
 13
0.000000
 23
0.000000
 33
0.000000
 40
0.000000
 40
0.000000
 40
0.000000
 40
0.000000
 40
1.000000
 40
1.000000
 40
1.000000
 40
1.000000
 10
748.025556
 20
647.141248
 30
0.000000
 10
748.013804
 20
647.141433
 30
0.000000
 10
748.002051
 20
647.141553
 30
0.000000
 10
747.990298
 20
647.141474
 30
0.000000
  0
SPLINE
  5
113
330
1F
100
AcDbEntity
  8
0
 62
     1
100
AcDbSpline
210
0.000000
220
0.000000
230
1.0
 70
     8
 71
     3
 72
     8
 73
     4
 42
0.0000000001
 43
0.0000000001
 44
0.0000000001
 12
0.000000
 22
0.000000
 32
0.000000
 13
0.000000
 23
0.000000
 33
0.000000
 40
0.000000
 40
0.000000
 40
0.000000
 40
0.000000
 40
1.000000
 40
1.000000
 40
1.000000
 40
1.000000
 10
747.990298
 20
647.141474
 30
0.000000
 10
747.978529
 20
647.141394
 30
0.000000
 10
747.966760
 20
647.141116
 30
0.000000
 10
747.954991
 20
647.141041
 30
0.000000
  0
SPLINE
  5
114
330
1F
100
AcDbEntity
  8
0
 62
     1
100
AcDbSpline
210
0.000000
220
0.000000
230
1.0
 70
     8
 71
     3
 72
     8
 73
     4
 42
0.0000000001
 43
0.0000000001
 44
0.0000000001
 12
0.000000
 22
0.000000
 32
0.000000
 13
0.000000
 23
0.000000
 33
0.000000
 40
0.000000
 40
0.000000
 40
0.000000
 40
0.000000
 40
1.000000
 40
1.000000
 40
1.000000
 40
1.000000
 10
747.954991
 20
647.141041
 30
0.000000
 10
747.943235
 20
647.140967
 30
0.000000
 10
747.931478
 20
647.141096
 30
0.000000
 10
747.919722
 20
647.141248
 30
0.000000
  0
SPLINE
  5
115
330
1F
100
AcDbEntity
  8
0
 62
     1
100
AcDbSpline
210
0.000000
220
0.000000
230
1.0
 70
     8
 71
     3
 72
     8
 73
     4
 42
0.0000000001
 43
0.0000000001
 44
0.0000000001
 12
0.000000
 22
0.000000
 32
0.000000
 13
0.000000
 23
0.000000
 33
0.000000
 40
0.000000
 40
0.000000
 40
0.000000
 40
0.000000
 40
1.000000
 40
1.000000
 40
1.000000
 40
1.000000
 10
747.919722
 20
647.141248
 30
0.000000
 10
747.740818
 20
647.143557
 30
0.000000
 10
747.562040
 20
647.150991
 30
0.000000
 10
747.383227
 20
647.156963
 30
0.000000
  0
SPLINE
  5
116
330
1F
100
AcDbEntity
  8
0
 62
     1
100
AcDbSpline
210
0.000000
220
0.000000
230
1.0
 70
     8
 71
     3
 72
     8
 73
     4
 42
0.0000000001
 43
0.0000000001
 44
0.0000000001
 12
0.000000
 22
0.000000
 32
0.000000
 13
0.000000
 23
0.000000
 33
0.000000
 40
0.000000
 40
0.000000
 40
0.000000
 40
0.000000
 40
1.000000
 40
1.000000
 40
1.000000
 40
1.000000
 10
747.383227
 20
647.156963
 30
0.000000
 10
747.203641
 20
647.162960
 30
0.000000
 10
747.024020
 20
647.167483
 30
0.000000
 10
746.844407
 20
647.172651
 30
0.000000
  0
SPLINE
  5
117
330
1F
100
AcDbEntity
  8
0
 62
     1
100
AcDbSpline
210
0.000000
220
0.000000
230
1.0
 70
     8
 71
     3
 72
     8
 73
     4
 42
0.0000000001
 43
0.0000000001
 44
0.0000000001
 12
0.000000
 22
0.000000
 32
0.000000
 13
0.000000
 23
0.000000
 33
0.000000
 40
0.000000
 40
0.000000
 40
0.000000
 40
0.000000
 40
1.000000
 40
1.000000
 40
1.000000
 40
1.000000
 10
746.844407
 20
647.172651
 30
0.000000
 10
746.664879
 20
647.177817
 30
0.000000
 10
746.485358
 20
647.183627
 30
0.000000
 10
746.305763
 20
647.185345
 30
0.000000
  0
SPLINE
  5
118
330
1F
100
AcDbEntity
  8
0
 62
     1
100
AcDbSpline
210
0.000000
220
0.000000
230
1.0
 70
     8
 71
     3
 72
     8
 73
     4
 42
0.0000000001
 43
0.0000000001
 44
0.0000000001
 12
0.000000
 22
0.000000
 32
0.000000
 13
0.000000
 23
0.000000
 33
0.000000
 40
0.000000
 40
0.000000
 40
0.000000
 40
0.000000
 40
1.000000
 40
1.000000
 40
1.000000
 40
1.000000
 10
746.305763
 20
647.185345
 30
0.000000
 10
746.293041
 20
647.185466
 30
0.000000
 10
746.280318
 20
647.185568
 30
0.000000
 10
746.267596
 20
647.185514
 30
0.000000
  0
SPLINE
  5
119
330
1F
100
AcDbEntity
  8
0
 62
     1
100
AcDbSpline
210
0.000000
220
0.000000
230
1.0
 70
     8
 71
     3
 72
     8
 73
     4
 42
0.0000000001
 43
0.0000000001
 44
0.0000000001
 12
0.000000
 22
0.000000
 32
0.000000
 13
0.000000
 23
0.000000
 33
0.000000
 40
0.000000
 40
0.000000
 40
0.000000
 40
0.000000
 40
1.000000
 40
1.000000
 40
1.000000
 40
1.000000
 10
746.267596
 20
647.185514
 30
0.000000
 10
746.254827
 20
647.185460
 30
0.000000
 10
746.242059
 20
647.185251
 30
0.000000
 10
746.229290
 20
647.185194
 30
0.000000
  0
SPLINE
  5
120
330
1F
100
AcDbEntity
  8
0
 62
     1
100
AcDbSpline
210
0.000000
220
0.000000
230
1.0
 70
     8
 71
     3
 72
     8
 73
     4
 42
0.0000000001
 43
0.0000000001
 44
0.0000000001
 12
0.000000
 22
0.000000
 32
0.000000
 13
0.000000
 23
0.000000
 33
0.000000
 40
0.000000
 40
0.000000
 40
0.000000
 40
0.000000
 40
1.000000
 40
1.000000
 40
1.000000
 40
1.000000
 10
746.229290
 20
647.185194
 30
0.000000
 10
746.216564
 20
647.185138
 30
0.000000
 10
746.203837
 20
647.185233
 30
0.000000
 10
746.191111
 20
647.185345
 30
0.000000
  0
SPLINE
  5
121
330
1F
100
AcDbEntity
  8
0
 62
     1
100
AcDbSpline
210
0.000000
220
0.000000
230
1.0
 70
     8
 71
     3
 72
     8
 73
     4
 42
0.0000000001
 43
0.0000000001
 44
0.0000000001
 12
0.000000
 22
0.000000
 32
0.000000
 13
0.000000
 23
0.000000
 33
0.000000
 40
0.000000
 40
0.000000
 40
0.000000
 40
0.000000
 40
1.000000
 40
1.000000
 40
1.000000
 40
1.000000
 10
746.191111
 20
647.185345
 30
0.000000
 10
746.011007
 20
647.186922
 30
0.000000
 10
745.830955
 20
647.191706
 30
0.000000
 10
745.650886
 20
647.195443
 30
0.000000
  0
SPLINE
  5
122
330
1F
100
AcDbEntity
  8
0
 62
     1
100
AcDbSpline
210
0.000000
220
0.000000
230
1.0
 70
     8
 71
     3
 72
     8
 73
     4
 42
0.0000000001
 43
0.0000000001
 44
0.0000000001
 12
0.000000
 22
0.000000
 32
0.000000
 13
0.000000
 23
0.000000
 33
0.000000
 40
0.000000
 40
0.000000
 40
0.000000
 40
0.000000
 40
1.000000
 40
1.000000
 40
1.000000
 40
1.000000
 10
745.650886
 20
647.195443
 30
0.000000
 10
745.470809
 20
647.199180
 30
0.000000
 10
745.290715
 20
647.201868
 30
0.000000
 10
745.110622
 20
647.204798
 30
0.000000
  0
SPLINE
  5
123
330
1F
100
AcDbEntity
  8
0
 62
     1
100
AcDbSpline
210
0.000000
220
0.000000
230
1.0
 70
     8
 71
     3
 72
     8
 73
     4
 42
0.0000000001
 43
0.0000000001
 44
0.0000000001
 12
0.000000
 22
0.000000
 32
0.000000
 13
0.000000
 23
0.000000
 33
0.000000
 40
0.000000
 40
0.000000
 40
0.000000
 40
0.000000
 40
1.000000
 40
1.000000
 40
1.000000
 40
1.000000
 10
745.110622
 20
647.204798
 30
0.000000
 10
744.929866
 20
647.207739
 30
0.000000
 10
744.749111
 20
647.210922
 30
0.000000
 10
744.568334
 20
647.211803
 30
0.000000
  0
SPLINE
  5
124
330
1F
100
AcDbEntity
  8
0
 62
     1
100
AcDbSpline
210
0.000000
220
0.000000
230
1.0
 70
     8
 71
     3
 72
     8
 73
     4
 42
0.0000000001
 43
0.0000000001
 44
0.0000000001
 12
0.000000
 22
0.000000
 32
0.000000
 13
0.000000
 23
0.000000
 33
0.000000
 40
0.000000
 40
0.000000
 40
0.000000
 40
0.000000
 40
1.000000
 40
1.000000
 40
1.000000
 40
1.000000
 10
744.568334
 20
647.211803
 30
0.000000
 10
744.556587
 20
647.211861
 30
0.000000
 10
744.544840
 20
647.211908
 30
0.000000
 10
744.533093
 20
647.211885
 30
0.000000
  0
SPLINE
  5
125
330
1F
100
AcDbEntity
  8
0
 62
     1
100
AcDbSpline
210
0.000000
220
0.000000
230
1.0
 70
     8
 71
     3
 72
     8
 73
     4
 42
0.0000000001
 43
0.0000000001
 44
0.0000000001
 12
0.000000
 22
0.000000
 32
0.000000
 13
0.000000
 23
0.000000
 33
0.000000
 40
0.000000
 40
0.000000
 40
0.000000
 40
0.000000
 40
1.000000
 40
1.000000
 40
1.000000
 40
1.000000
 10
744.533093
 20
647.211885
 30
0.000000
 10
744.521312
 20
647.211861
 30
0.000000
 10
744.509531
 20
647.211767
 30
0.000000
 10
744.497750
 20
647.211740
 30
0.000000
  0
SPLINE
  5
126
330
1F
100
AcDbEntity
  8
0
 62
     1
100
AcDbSpline
210
0.000000
220
0.000000
230
1.0
 70
     8
 71
     3
 72
     8
 73
     4
 42
0.0000000001
 43
0.0000000001
 44
0.0000000001
 12
0.000000
 22
0.000000
 32
0.000000
 13
0.000000
 23
0.000000
 33
0.000000
 40
0.000000
 40
0.000000
 40
0.000000
 40
0.000000
 40
1.000000
 40
1.000000
 40
1.000000
 40
1.000000
 10
744.497750
 20
647.211740
 30
0.000000
 10
744.486000
 20
647.211714
 30
0.000000
 10
744.474250
 20
647.211756
 30
0.000000
 10
744.462500
 20
647.211803
 30
0.000000
  0
SPLINE
  5
127
330
1F
100
AcDbEntity
  8
0
 62
     1
100
AcDbSpline
210
0.000000
220
0.000000
230
1.0
 70
     8
 71
     3
 72
     8
 73
     4
 42
0.0000000001
 43
0.0000000001
 44
0.0000000001
 12
0.000000
 22
0.000000
 32
0.000000
 13
0.000000
 23
0.000000
 33
0.000000
 40
0.000000
 40
0.000000
 40
0.000000
 40
0.000000
 40
1.000000
 40
1.000000
 40
1.000000
 40
1.000000
 10
744.462500
 20
647.211803
 30
0.000000
 10
744.268894
 20
647.212581
 30
0.000000
 10
744.075299
 20
647.214864
 30
0.000000
 10
743.881698
 20
647.216452
 30
0.000000
  0
SPLINE
  5
128
330
1F
100
AcDbEntity
  8
0
 62
     1
100
AcDbSpline
210
0.000000
220
0.000000
230
1.0
 70
     8
 71
     3
 72
     8
 73
     4
 42
0.0000000001
 43
0.0000000001
 44
0.0000000001
 12
0.000000
 22
0.000000
 32
0.000000
 13
0.000000
 23
0.000000
 33
0.000000
 40
0.000000
 40
0.000000
 40
0.000000
 40
0.000000
 40
1.000000
 40
1.000000
 40
1.000000
 40
1.000000
 10
743.881698
 20
647.216452
 30
0.000000
 10
743.687558
 20
647.218044
 30
0.000000
 10
743.493412
 20
647.218939
 30
0.000000
 10
743.299266
 20
647.219517
 30
0.000000
  0
SPLINE
  5
129
330
1F
100
AcDbEntity
  8
0
 62
     1
100
AcDbSpline
210
0.000000
220
0.000000
230
1.0
 70
     8
 71
     3
 72
     8
 73
     4
 42
0.0000000001
 43
0.0000000001
 44
0.0000000001
 12
0.000000
 22
0.000000
 32
0.000000
 13
0.000000
 23
0.000000
 33
0.000000
 40
0.000000
 40
0.000000
 40
0.000000
 40
0.000000
 40
1.000000
 40
1.000000
 40
1.000000
 40
1.000000
 10
743.299266
 20
647.219517
 30
0.000000
 10
743.104928
 20
647.220097
 30
0.000000
 10
742.910589
 20
647.220360
 30
0.000000
 10
742.716250
 20
647.220623
 30
0.000000
  0
SPLINE
  5
130
330
1F
100
AcDbEntity
  8
0
 62
     1
100
AcDbSpline
210
0.000000
220
0.000000
230
1.0
 70
     8
 71
     3
 72
     8
 73
     4
 42
0.0000000001
 43
0.0000000001
 44
0.0000000001
 12
0.000000
 22
0.000000
 32
0.000000
 13
0.000000
 23
0.000000
 33
0.000000
 40
0.000000
 40
0.000000
 40
0.000000
 40
0.000000
 40
1.000000
 40
1.000000
 40
1.000000
 40
1.000000
 10
742.716250
 20
647.220623
 30
0.000000
 10
742.134669
 20
647.218869
 30
0.000000
 10
741.553088
 20
647.217115
 30
0.000000
 10
740.971547
 20
647.211273
 30
0.000000
  0
SPLINE
  5
131
330
1F
100
AcDbEntity
  8
0
 62
     1
100
AcDbSpline
210
0.000000
220
0.000000
230
1.0
 70
     8
 71
     3
 72
     8
 73
     4
 42
0.0000000001
 43
0.0000000001
 44
0.0000000001
 12
0.000000
 22
0.000000
 32
0.000000
 13
0.000000
 23
0.000000
 33
0.000000
 40
0.000000
 40
0.000000
 40
0.000000
 40
0.000000
 40
1.000000
 40
1.000000
 40
1.000000
 40
1.000000
 10
740.971547
 20
647.211273
 30
0.000000
 10
740.393143
 20
647.205464
 30
0.000000
 10
739.814780
 20
647.195611
 30
0.000000
 10
739.236442
 20
647.184285
 30
0.000000
  0
SPLINE
  5
132
330
1F
100
AcDbEntity
  8
0
 62
     1
100
AcDbSpline
210
0.000000
220
0.000000
230
1.0
 70
     8
 71
     3
 72
     8
 73
     4
 42
0.0000000001
 43
0.0000000001
 44
0.0000000001
 12
0.000000
 22
0.000000
 32
0.000000
 13
0.000000
 23
0.000000
 33
0.000000
 40
0.000000
 40
0.000000
 40
0.000000
 40
0.000000
 40
1.000000
 40
1.000000
 40
1.000000
 40
1.000000
 10
739.236442
 20
647.184285
 30
0.000000
 10
738.661807
 20
647.173032
 30
0.000000
 10
738.087197
 20
647.160325
 30
0.000000
 10
737.512778
 20
647.141248
 30
0.000000
  0
SPLINE
  5
133
330
1F
100
AcDbEntity
  8
0
 62
     1
100
AcDbSpline
210
0.000000
220
0.000000
230
1.0
 70
     8
 71
     3
 72
     8
 73
     4
 42
0.0000000001
 43
0.0000000001
 44
0.0000000001
 12
0.000000
 22
0.000000
 32
0.000000
 13
0.000000
 23
0.000000
 33
0.000000
 40
0.000000
 40
0.000000
 40
0.000000
 40
0.000000
 40
1.000000
 40
1.000000
 40
1.000000
 40
1.000000
 10
737.512778
 20
647.141248
 30
0.000000
 10
737.436231
 20
647.138705
 30
0.000000
 10
737.359688
 20
647.136050
 30
0.000000
 10
737.283160
 20
647.132999
 30
0.000000
  0
SPLINE
  5
134
330
1F
100
AcDbEntity
  8
0
 62
     1
100
AcDbSpline
210
0.000000
220
0.000000
230
1.0
 70
     8
 71
     3
 72
     8
 73
     4
 42
0.0000000001
 43
0.0000000001
 44
0.0000000001
 12
0.000000
 22
0.000000
 32
0.000000
 13
0.000000
 23
0.000000
 33
0.000000
 40
0.000000
 40
0.000000
 40
0.000000
 40
0.000000
 40
1.000000
 40
1.000000
 40
1.000000
 40
1.000000
 10
737.283160
 20
647.132999
 30
0.000000
 10
737.206791
 20
647.129955
 30
0.000000
 10
737.130438
 20
647.126518
 30
0.000000
 10
737.054072
 20
647.123386
 30
0.000000
  0
SPLINE
  5
135
330
1F
100
AcDbEntity
  8
0
 62
     1
100
AcDbSpline
210
0.000000
220
0.000000
230
1.0
 70
     8
 71
     3
 72
     8
 73
     4
 42
0.0000000001
 43
0.0000000001
 44
0.0000000001
 12
0.000000
 22
0.000000
 32
0.000000
 13
0.000000
 23
0.000000
 33
0.000000
 40
0.000000
 40
0.000000
 40
0.000000
 40
0.000000
 40
1.000000
 40
1.000000
 40
1.000000
 40
1.000000
 10
737.054072
 20
647.123386
 30
0.000000
 10
736.977679
 20
647.120252
 30
0.000000
 10
736.901273
 20
647.117424
 30
0.000000
 10
736.824861
 20
647.114789
 30
0.000000
  0
SPLINE
  5
136
330
1F
100
AcDbEntity
  8
0
 62
     1
100
AcDbSpline
210
0.000000
220
0.000000
230
1.0
 70
     8
 71
     3
 72
     8
 73
     4
 42
0.0000000001
 43
0.0000000001
 44
0.0000000001
 12
0.000000
 22
0.000000
 32
0.000000
 13
0.000000
 23
0.000000
 33
0.000000
 40
0.000000
 40
0.000000
 40
0.000000
 40
0.000000
 40
1.000000
 40
1.000000
 40
1.000000
 40
1.000000
 10
736.824861
 20
647.114789
 30
0.000000
 10
736.711059
 20
647.110864
 30
0.000000
 10
736.597243
 20
647.107366
 30
0.000000
 10
736.483434
 20
647.103637
 30
0.000000
  0
SPLINE
  5
137
330
1F
100
AcDbEntity
  8
0
 62
     1
100
AcDbSpline
210
0.000000
220
0.000000
230
1.0
 70
     8
 71
     3
 72
     8
 73
     4
 42
0.0000000001
 43
0.0000000001
 44
0.0000000001
 12
0.000000
 22
0.000000
 32
0.000000
 13
0.000000
 23
0.000000
 33
0.000000
 40
0.000000
 40
0.000000
 40
0.000000
 40
0.000000
 40
1.000000
 40
1.000000
 40
1.000000
 40
1.000000
 10
736.483434
 20
647.103637
 30
0.000000
 10
736.369715
 20
647.099911
 30
0.000000
 10
736.256003
 20
647.095953
 30
0.000000
 10
736.142296
 20
647.091879
 30
0.000000
  0
SPLINE
  5
138
330
1F
100
AcDbEntity
  8
0
 62
     1
100
AcDbSpline
210
0.000000
220
0.000000
230
1.0
 70
     8
 71
     3
 72
     8
 73
     4
 42
0.0000000001
 43
0.0000000001
 44
0.0000000001
 12
0.000000
 22
0.000000
 32
0.000000
 13
0.000000
 23
0.000000
 33
0.000000
 40
0.000000
 40
0.000000
 40
0.000000
 40
0.000000
 40
1.000000
 40
1.000000
 40
1.000000
 40
1.000000
 10
736.142296
 20
647.091879
 30
0.000000
 10
736.028797
 20
647.087813
 30
0.000000
 10
735.915303
 20
647.083630
 30
0.000000
 10
735.801805
 20
647.079511
 30
0.000000
  0
SPLINE
  5
139
330
1F
100
AcDbEntity
  8
0
 62
     1
100
AcDbSpline
210
0.000000
220
0.000000
230
1.0
 70
     8
 71
     3
 72
     8
 73
     4
 42
0.0000000001
 43
0.0000000001
 44
0.0000000001
 12
0.000000
 22
0.000000
 32
0.000000
 13
0.000000
 23
0.000000
 33
0.000000
 40
0.000000
 40
0.000000
 40
0.000000
 40
0.000000
 40
1.000000
 40
1.000000
 40
1.000000
 40
1.000000
 10
735.801805
 20
647.079511
 30
0.000000
 10
735.625093
 20
647.073098
 30
0.000000
 10
735.448373
 20
647.066839
 30
0.000000
 10
735.271675
 20
647.060112
 30
0.000000
  0
SPLINE
  5
140
330
1F
100
AcDbEntity
  8
0
 62
     1
100
AcDbSpline
210
0.000000
220
0.000000
230
1.0
 70
     8
 71
     3
 72
     8
 73
     4
 42
0.0000000001
 43
0.0000000001
 44
0.0000000001
 12
0.000000
 22
0.000000
 32
0.000000
 13
0.000000
 23
0.000000
 33
0.000000
 40
0.000000
 40
0.000000
 40
0.000000
 40
0.000000
 40
1.000000
 40
1.000000
 40
1.000000
 40
1.000000
 10
735.271675
 20
647.060112
 30
0.000000
 10
735.095147
 20
647.053391
 30
0.000000
 10
734.918642
 20
647.046202
 30
0.000000
 10
734.742075
 20
647.040161
 30
0.000000
  0
SPLINE
  5
141
330
1F
100
AcDbEntity
  8
0
 62
     1
100
AcDbSpline
210
0.000000
220
0.000000
230
1.0
 70
     8
 71
     3
 72
     8
 73
     4
 42
0.0000000001
 43
0.0000000001
 44
0.0000000001
 12
0.000000
 22
0.000000
 32
0.000000
 13
0.000000
 23
0.000000
 33
0.000000
 40
0.000000
 40
0.000000
 40
0.000000
 40
0.000000
 40
1.000000
 40
1.000000
 40
1.000000
 40
1.000000
 10
734.742075
 20
647.040161
 30
0.000000
 10
734.566084
 20
647.034141
 30
0.000000
 10
734.390031
 20
647.029260
 30
0.000000
 10
734.214306
 20
647.017776
 30
0.000000
  0
SPLINE
  5
142
330
1F
100
AcDbEntity
  8
0
 62
     1
100
AcDbSpline
210
0.000000
220
0.000000
230
1.0
 70
     8
 71
     3
 72
     8
 73
     4
 42
0.0000000001
 43
0.0000000001
 44
0.0000000001
 12
0.000000
 22
0.000000
 32
0.000000
 13
0.000000
 23
0.000000
 33
0.000000
 40
0.000000
 40
0.000000
 40
0.000000
 40
0.000000
 40
1.000000
 40
1.000000
 40
1.000000
 40
1.000000
 10
734.214306
 20
647.017776
 30
0.000000
 10
734.202529
 20
647.017006
 30
0.000000
 10
734.190755
 20
647.016207
 30
0.000000
 10
734.179005
 20
647.015127
 30
0.000000
  0
SPLINE
  5
143
330
1F
100
AcDbEntity
  8
0
 62
     1
100
AcDbSpline
210
0.000000
220
0.000000
230
1.0
 70
     8
 71
     3
 72
     8
 73
     4
 42
0.0000000001
 43
0.0000000001
 44
0.0000000001
 12
0.000000
 22
0.000000
 32
0.000000
 13
0.000000
 23
0.000000
 33
0.000000
 40
0.000000
 40
0.000000
 40
0.000000
 40
0.000000
 40
1.000000
 40
1.000000
 40
1.000000
 40
1.000000
 10
734.179005
 20
647.015127
 30
0.000000
 10
734.167249
 20
647.014046
 30
0.000000
 10
734.155518
 20
647.012684
 30
0.000000
 10
734.143762
 20
647.011609
 30
0.000000
  0
SPLINE
  5
144
330
1F
100
AcDbEntity
  8
0
 62
     1
100
AcDbSpline
210
0.000000
220
0.000000
230
1.0
 70
     8
 71
     3
 72
     8
 73
     4
 42
0.0000000001
 43
0.0000000001
 44
0.0000000001
 12
0.000000
 22
0.000000
 32
0.000000
 13
0.000000
 23
0.000000
 33
0.000000
 40
0.000000
 40
0.000000
 40
0.000000
 40
0.000000
 40
1.000000
 40
1.000000
 40
1.000000
 40
1.000000
 10
734.143762
 20
647.011609
 30
0.000000
 10
734.132016
 20
647.010535
 30
0.000000
 10
734.120244
 20
647.009746
 30
0.000000
 10
734.108473
 20
647.008956
 30
0.000000
  0
SPLINE
  5
145
330
1F
100
AcDbEntity
  8
0
 62
     1
100
AcDbSpline
210
0.000000
220
0.000000
230
1.0
 70
     8
 71
     3
 72
     8
 73
     4
 42
0.0000000001
 43
0.0000000001
 44
0.0000000001
 12
0.000000
 22
0.000000
 32
0.000000
 13
0.000000
 23
0.000000
 33
0.000000
 40
0.000000
 40
0.000000
 40
0.000000
 40
0.000000
 40
1.000000
 40
1.000000
 40
1.000000
 40
1.000000
 10
734.108473
 20
647.008956
 30
0.000000
 10
724.136705
 20
646.340036
 30
0.000000
 10
714.505954
 20
644.965936
 30
0.000000
 10
704.407884
 20
642.931859
 30
0.000000
  0
SPLINE
  5
146
330
1F
100
AcDbEntity
  8
0
 62
     1
100
AcDbSpline
210
0.000000
220
0.000000
230
1.0
 70
     8
 71
     3
 72
     8
 73
     4
 42
0.0000000001
 43
0.0000000001
 44
0.0000000001
 12
0.000000
 22
0.000000
 32
0.000000
 13
0.000000
 23
0.000000
 33
0.000000
 40
0.000000
 40
0.000000
 40
0.000000
 40
0.000000
 40
1.000000
 40
1.000000
 40
1.000000
 40
1.000000
 10
704.407884
 20
642.931859
 30
0.000000
 10
696.786260
 20
641.396618
 30
0.000000
 10
688.898422
 20
639.485411
 30
0.000000
 10
683.332683
 20
634.696594
 30
0.000000
  0
SPLINE
  5
147
330
1F
100
AcDbEntity
  8
0
 62
     1
100
AcDbSpline
210
0.000000
220
0.000000
230
1.0
 70
     8
 71
     3
 72
     8
 73
     4
 42
0.0000000001
 43
0.0000000001
 44
0.0000000001
 12
0.000000
 22
0.000000
 32
0.000000
 13
0.000000
 23
0.000000
 33
0.000000
 40
0.000000
 40
0.000000
 40
0.000000
 40
0.000000
 40
1.000000
 40
1.000000
 40
1.000000
 40
1.000000
 10
683.332683
 20
634.696594
 30
0.000000
 10
679.925027
 20
631.764612
 30
0.000000
 10
677.387826
 20
627.753937
 30
0.000000
 10
674.850625
 20
623.743262
 30
0.000000
  0
SPLINE
  5
148
330
1F
100
AcDbEntity
  8
0
 62
     1
100
AcDbSpline
210
0.000000
220
0.000000
230
1.0
 70
     8
 71
     3
 72
     8
 73
     4
 42
0.0000000001
 43
0.0000000001
 44
0.0000000001
 12
0.000000
 22
0.000000
 32
0.000000
 13
0.000000
 23
0.000000
 33
0.000000
 40
0.000000
 40
0.000000
 40
0.000000
 40
0.000000
 40
1.000000
 40
1.000000
 40
1.000000
 40
1.000000
 10
674.850625
 20
623.743262
 30
0.000000
 10
674.824539
 20
623.579309
 30
0.000000
 10
674.798453
 20
623.415356
 30
0.000000
 10
674.777895
 20
623.250633
 30
0.000000
  0
SPLINE
  5
149
330
1F
100
AcDbEntity
  8
0
 62
     1
100
AcDbSpline
210
0.000000
220
0.000000
230
1.0
 70
     8
 71
     3
 72
     8
 73
     4
 42
0.0000000001
 43
0.0000000001
 44
0.0000000001
 12
0.000000
 22
0.000000
 32
0.000000
 13
0.000000
 23
0.000000
 33
0.000000
 40
0.000000
 40
0.000000
 40
0.000000
 40
0.000000
 40
1.000000
 40
1.000000
 40
1.000000
 40
1.000000
 10
674.777895
 20
623.250633
 30
0.000000
 10
674.757439
 20
623.086726
 30
0.000000
 10
674.742457
 20
622.922056
 30
0.000000
 10
674.733415
 20
622.757133
 30
0.000000
  0
SPLINE
  5
150
330
1F
100
AcDbEntity
  8
0
 62
     1
100
AcDbSpline
210
0.000000
220
0.000000
230
1.0
 70
     8
 71
     3
 72
     8
 73
     4
 42
0.0000000001
 43
0.0000000001
 44
0.0000000001
 12
0.000000
 22
0.000000
 32
0.000000
 13
0.000000
 23
0.000000
 33
0.000000
 40
0.000000
 40
0.000000
 40
0.000000
 40
0.000000
 40
1.000000
 40
1.000000
 40
1.000000
 40
1.000000
 10
674.733415
 20
622.757133
 30
0.000000
 10
674.724369
 20
622.592120
 30
0.000000
 10
674.721268
 20
622.426853
 30
0.000000
 10
674.718334
 20
622.261595
 30
0.000000
  0
SPLINE
  5
151
330
1F
100
AcDbEntity
  8
0
 62
     1
100
AcDbSpline
210
0.000000
220
0.000000
230
1.0
 70
     8
 71
     3
 72
     8
 73
     4
 42
0.0000000001
 43
0.0000000001
 44
0.0000000001
 12
0.000000
 22
0.000000
 32
0.000000
 13
0.000000
 23
0.000000
 33
0.000000
 40
0.000000
 40
0.000000
 40
0.000000
 40
0.000000
 40
1.000000
 40
1.000000
 40
1.000000
 40
1.000000
 10
674.718334
 20
622.261595
 30
0.000000
 10
674.707496
 20
621.651316
 30
0.000000
 10
674.698912
 20
621.041153
 30
0.000000
 10
674.681403
 20
620.431160
 30
0.000000
  0
SPLINE
  5
152
330
1F
100
AcDbEntity
  8
0
 62
     1
100
AcDbSpline
210
0.000000
220
0.000000
230
1.0
 70
     8
 71
     3
 72
     8
 73
     4
 42
0.0000000001
 43
0.0000000001
 44
0.0000000001
 12
0.000000
 22
0.000000
 32
0.000000
 13
0.000000
 23
0.000000
 33
0.000000
 40
0.000000
 40
0.000000
 40
0.000000
 40
0.000000
 40
1.000000
 40
1.000000
 40
1.000000
 40
1.000000
 10
674.681403
 20
620.431160
 30
0.000000
 10
674.662672
 20
619.778593
 30
0.000000
 10
674.633726
 20
619.126219
 30
0.000000
 10
674.618994
 20
618.473567
 30
0.000000
  0
SPLINE
  5
153
330
1F
100
AcDbEntity
  8
0
 62
     1
100
AcDbSpline
210
0.000000
220
0.000000
230
1.0
 70
     8
 71
     3
 72
     8
 73
     4
 42
0.0000000001
 43
0.0000000001
 44
0.0000000001
 12
0.000000
 22
0.000000
 32
0.000000
 13
0.000000
 23
0.000000
 33
0.000000
 40
0.000000
 40
0.000000
 40
0.000000
 40
0.000000
 40
1.000000
 40
1.000000
 40
1.000000
 40
1.000000
 10
674.618994
 20
618.473567
 30
0.000000
 10
674.603770
 20
617.799103
 30
0.000000
 10
674.603725
 20
617.124342
 30
0.000000
 10
674.603681
 20
616.449581
 30
0.000000
  0
SPLINE
  5
154
330
1F
100
AcDbEntity
  8
0
 62
     1
100
AcDbSpline
210
0.000000
220
0.000000
230
1.0
 70
     8
 71
     3
 72
     8
 73
     4
 42
0.0000000001
 43
0.0000000001
 44
0.0000000001
 12
0.000000
 22
0.000000
 32
0.000000
 13
0.000000
 23
0.000000
 33
0.000000
 40
0.000000
 40
0.000000
 40
0.000000
 40
0.000000
 40
1.000000
 40
1.000000
 40
1.000000
 40
1.000000
 10
674.603681
 20
616.449581
 30
0.000000
 10
674.639226
 20
614.615116
 30
0.000000
 10
674.674772
 20
612.780651
 30
0.000000
 10
675.242414
 20
611.005174
 30
0.000000
  0
SPLINE
  5
155
330
1F
100
AcDbEntity
  8
0
 62
     1
100
AcDbSpline
210
0.000000
220
0.000000
230
1.0
 70
     8
 71
     3
 72
     8
 73
     4
 42
0.0000000001
 43
0.0000000001
 44
0.0000000001
 12
0.000000
 22
0.000000
 32
0.000000
 13
0.000000
 23
0.000000
 33
0.000000
 40
0.000000
 40
0.000000
 40
0.000000
 40
0.000000
 40
1.000000
 40
1.000000
 40
1.000000
 40
1.000000
 10
675.242414
 20
611.005174
 30
0.000000
 10
675.765994
 20
609.367518
 30
0.000000
 10
676.742268
 20
607.780048
 30
0.000000
 10
678.068439
 20
606.812443
 30
0.000000
  0
SPLINE
  5
156
330
1F
100
AcDbEntity
  8
0
 62
     1
100
AcDbSpline
210
0.000000
220
0.000000
230
1.0
 70
     8
 71
     3
 72
     8
 73
     4
 42
0.0000000001
 43
0.0000000001
 44
0.0000000001
 12
0.000000
 22
0.000000
 32
0.000000
 13
0.000000
 23
0.000000
 33
0.000000
 40
0.000000
 40
0.000000
 40
0.000000
 40
0.000000
 40
1.000000
 40
1.000000
 40
1.000000
 40
1.000000
 10
678.068439
 20
606.812443
 30
0.000000
 10
679.793692
 20
605.553659
 30
0.000000
 10
682.111117
 20
605.343946
 30
0.000000
 10
684.428542
 20
605.134234
 30
0.000000
  0
LINE
  5
157
330
1F
100
AcDbEntity
  8
0
  62
1
100
AcDbLine
 10
684.428542
 20
605.134234
 30
0.000000
 11
685.804375
 21
605.134234
 31
0.000000
  0
LINE
  5
158
330
1F
100
AcDbEntity
  8
0
  62
1
100
AcDbLine
 10
685.804375
 20
605.134234
 30
0.000000
 11
740.820069
 21
605.134234
 31
0.000000
  0
LINE
  5
159
330
1F
100
AcDbEntity
  8
0
  62
1
100
AcDbLine
 10
740.820069
 20
605.134234
 30
0.000000
 11
744.727083
 21
605.134234
 31
0.000000
  0
LINE
  5
160
330
1F
100
AcDbEntity
  8
0
  62
1
100
AcDbLine
 10
744.727083
 20
605.134234
 30
0.000000
 11
799.742778
 21
605.134234
 31
0.000000
  0
LINE
  5
161
330
1F
100
AcDbEntity
  8
0
  62
1
100
AcDbLine
 10
799.742778
 20
605.134234
 30
0.000000
 11
801.118611
 21
605.134234
 31
0.000000
  0
SPLINE
  5
162
330
1F
100
AcDbEntity
  8
0
 62
     1
100
AcDbSpline
210
0.000000
220
0.000000
230
1.0
 70
     8
 71
     3
 72
     8
 73
     4
 42
0.0000000001
 43
0.0000000001
 44
0.0000000001
 12
0.000000
 22
0.000000
 32
0.000000
 13
0.000000
 23
0.000000
 33
0.000000
 40
0.000000
 40
0.000000
 40
0.000000
 40
0.000000
 40
1.000000
 40
1.000000
 40
1.000000
 40
1.000000
 10
801.118611
 20
605.134234
 30
0.000000
 10
803.479149
 20
605.355956
 30
0.000000
 10
805.839687
 20
605.577678
 30
0.000000
 10
807.567420
 20
606.876800
 30
0.000000
  0
SPLINE
  5
163
330
1F
100
AcDbEntity
  8
0
 62
     1
100
AcDbSpline
210
0.000000
220
0.000000
230
1.0
 70
     8
 71
     3
 72
     8
 73
     4
 42
0.0000000001
 43
0.0000000001
 44
0.0000000001
 12
0.000000
 22
0.000000
 32
0.000000
 13
0.000000
 23
0.000000
 33
0.000000
 40
0.000000
 40
0.000000
 40
0.000000
 40
0.000000
 40
1.000000
 40
1.000000
 40
1.000000
 40
1.000000
 10
807.567420
 20
606.876800
 30
0.000000
 10
808.901611
 20
607.880010
 30
0.000000
 10
809.858444
 20
609.525701
 30
0.000000
 10
810.365773
 20
611.210324
 30
0.000000
  0
SPLINE
  5
164
330
1F
100
AcDbEntity
  8
0
 62
     1
100
AcDbSpline
210
0.000000
220
0.000000
230
1.0
 70
     8
 71
     3
 72
     8
 73
     4
 42
0.0000000001
 43
0.0000000001
 44
0.0000000001
 12
0.000000
 22
0.000000
 32
0.000000
 13
0.000000
 23
0.000000
 33
0.000000
 40
0.000000
 40
0.000000
 40
0.000000
 40
0.000000
 40
1.000000
 40
1.000000
 40
1.000000
 40
1.000000
 10
810.365773
 20
611.210324
 30
0.000000
 10
810.917803
 20
613.043379
 30
0.000000
 10
810.937628
 20
614.922529
 30
0.000000
 10
810.943472
 20
616.793539
 30
0.000000
  0
SPLINE
  5
165
330
1F
100
AcDbEntity
  8
0
 62
     1
100
AcDbSpline
210
0.000000
220
0.000000
230
1.0
 70
     8
 71
     3
 72
     8
 73
     4
 42
0.0000000001
 43
0.0000000001
 44
0.0000000001
 12
0.000000
 22
0.000000
 32
0.000000
 13
0.000000
 23
0.000000
 33
0.000000
 40
0.000000
 40
0.000000
 40
0.000000
 40
0.000000
 40
1.000000
 40
1.000000
 40
1.000000
 40
1.000000
 10
810.943472
 20
616.793539
 30
0.000000
 10
810.943475
 20
616.794523
 30
0.000000
 10
810.943478
 20
616.795506
 30
0.000000
 10
810.943476
 20
616.796490
 30
0.000000
  0
SPLINE
  5
166
330
1F
100
AcDbEntity
  8
0
 62
     1
100
AcDbSpline
210
0.000000
220
0.000000
230
1.0
 70
     8
 71
     3
 72
     8
 73
     4
 42
0.0000000001
 43
0.0000000001
 44
0.0000000001
 12
0.000000
 22
0.000000
 32
0.000000
 13
0.000000
 23
0.000000
 33
0.000000
 40
0.000000
 40
0.000000
 40
0.000000
 40
0.000000
 40
1.000000
 40
1.000000
 40
1.000000
 40
1.000000
 10
810.943476
 20
616.796490
 30
0.000000
 10
810.943475
 20
616.797469
 30
0.000000
 10
810.943468
 20
616.798448
 30
0.000000
 10
810.943468
 20
616.799426
 30
0.000000
  0
SPLINE
  5
167
330
1F
100
AcDbEntity
  8
0
 62
     1
100
AcDbSpline
210
0.000000
220
0.000000
230
1.0
 70
     8
 71
     3
 72
     8
 73
     4
 42
0.0000000001
 43
0.0000000001
 44
0.0000000001
 12
0.000000
 22
0.000000
 32
0.000000
 13
0.000000
 23
0.000000
 33
0.000000
 40
0.000000
 40
0.000000
 40
0.000000
 40
0.000000
 40
1.000000
 40
1.000000
 40
1.000000
 40
1.000000
 10
810.943468
 20
616.799426
 30
0.000000
 10
810.943467
 20
616.800404
 30
0.000000
 10
810.943473
 20
616.801381
 30
0.000000
 10
810.943472
 20
616.802359
 30
0.000000
  0
SPLINE
  5
168
330
1F
100
AcDbEntity
  8
0
 62
     1
100
AcDbSpline
210
0.000000
220
0.000000
230
1.0
 70
     8
 71
     3
 72
     8
 73
     4
 42
0.0000000001
 43
0.0000000001
 44
0.0000000001
 12
0.000000
 22
0.000000
 32
0.000000
 13
0.000000
 23
0.000000
 33
0.000000
 40
0.000000
 40
0.000000
 40
0.000000
 40
0.000000
 40
1.000000
 40
1.000000
 40
1.000000
 40
1.000000
 10
810.943472
 20
616.802359
 30
0.000000
 10
810.943472
 20
616.803338
 30
0.000000
 10
810.943465
 20
616.804318
 30
0.000000
 10
810.943467
 20
616.805298
 30
0.000000
  0
SPLINE
  5
169
330
1F
100
AcDbEntity
  8
0
 62
     1
100
AcDbSpline
210
0.000000
220
0.000000
230
1.0
 70
     8
 71
     3
 72
     8
 73
     4
 42
0.0000000001
 43
0.0000000001
 44
0.0000000001
 12
0.000000
 22
0.000000
 32
0.000000
 13
0.000000
 23
0.000000
 33
0.000000
 40
0.000000
 40
0.000000
 40
0.000000
 40
0.000000
 40
1.000000
 40
1.000000
 40
1.000000
 40
1.000000
 10
810.943467
 20
616.805298
 30
0.000000
 10
810.943468
 20
616.806278
 30
0.000000
 10
810.943478
 20
616.807259
 30
0.000000
 10
810.943480
 20
616.808239
 30
0.000000
  0
SPLINE
  5
170
330
1F
100
AcDbEntity
  8
0
 62
     1
100
AcDbSpline
210
0.000000
220
0.000000
230
1.0
 70
     8
 71
     3
 72
     8
 73
     4
 42
0.0000000001
 43
0.0000000001
 44
0.0000000001
 12
0.000000
 22
0.000000
 32
0.000000
 13
0.000000
 23
0.000000
 33
0.000000
 40
0.000000
 40
0.000000
 40
0.000000
 40
0.000000
 40
1.000000
 40
1.000000
 40
1.000000
 40
1.000000
 10
810.943480
 20
616.808239
 30
0.000000
 10
810.943482
 20
616.809219
 30
0.000000
 10
810.943477
 20
616.810198
 30
0.000000
 10
810.943472
 20
616.811178
 30
0.000000
  0
SPLINE
  5
171
330
1F
100
AcDbEntity
  8
0
 62
     1
100
AcDbSpline
210
0.000000
220
0.000000
230
1.0
 70
     8
 71
     3
 72
     8
 73
     4
 42
0.0000000001
 43
0.0000000001
 44
0.0000000001
 12
0.000000
 22
0.000000
 32
0.000000
 13
0.000000
 23
0.000000
 33
0.000000
 40
0.000000
 40
0.000000
 40
0.000000
 40
0.000000
 40
1.000000
 40
1.000000
 40
1.000000
 40
1.000000
 10
810.943472
 20
616.811178
 30
0.000000
 10
810.940306
 20
617.444109
 30
0.000000
 10
810.935228
 20
618.077108
 30
0.000000
 10
810.918903
 20
618.709813
 30
0.000000
  0
SPLINE
  5
172
330
1F
100
AcDbEntity
  8
0
 62
     1
100
AcDbSpline
210
0.000000
220
0.000000
230
1.0
 70
     8
 71
     3
 72
     8
 73
     4
 42
0.0000000001
 43
0.0000000001
 44
0.0000000001
 12
0.000000
 22
0.000000
 32
0.000000
 13
0.000000
 23
0.000000
 33
0.000000
 40
0.000000
 40
0.000000
 40
0.000000
 40
0.000000
 40
1.000000
 40
1.000000
 40
1.000000
 40
1.000000
 10
810.918903
 20
618.709813
 30
0.000000
 10
810.903128
 20
619.321210
 30
0.000000
 10
810.876851
 20
619.932334
 30
0.000000
 10
810.861122
 20
620.543749
 30
0.000000
  0
SPLINE
  5
173
330
1F
100
AcDbEntity
  8
0
 62
     1
100
AcDbSpline
210
0.000000
220
0.000000
230
1.0
 70
     8
 71
     3
 72
     8
 73
     4
 42
0.0000000001
 43
0.0000000001
 44
0.0000000001
 12
0.000000
 22
0.000000
 32
0.000000
 13
0.000000
 23
0.000000
 33
0.000000
 40
0.000000
 40
0.000000
 40
0.000000
 40
0.000000
 40
1.000000
 40
1.000000
 40
1.000000
 40
1.000000
 10
810.861122
 20
620.543749
 30
0.000000
 10
810.846393
 20
621.116279
 30
0.000000
 10
810.840913
 20
621.689064
 30
0.000000
 10
810.828820
 20
622.261595
 30
0.000000
  0
SPLINE
  5
174
330
1F
100
AcDbEntity
  8
0
 62
     1
100
AcDbSpline
210
0.000000
220
0.000000
230
1.0
 70
     8
 71
     3
 72
     8
 73
     4
 42
0.0000000001
 43
0.0000000001
 44
0.0000000001
 12
0.000000
 22
0.000000
 32
0.000000
 13
0.000000
 23
0.000000
 33
0.000000
 40
0.000000
 40
0.000000
 40
0.000000
 40
0.000000
 40
1.000000
 40
1.000000
 40
1.000000
 40
1.000000
 10
810.828820
 20
622.261595
 30
0.000000
 10
810.825392
 20
622.423852
 30
0.000000
 10
810.821434
 20
622.586089
 30
0.000000
 10
810.813064
 20
622.748270
 30
0.000000
  0
SPLINE
  5
175
330
1F
100
AcDbEntity
  8
0
 62
     1
100
AcDbSpline
210
0.000000
220
0.000000
230
1.0
 70
     8
 71
     3
 72
     8
 73
     4
 42
0.0000000001
 43
0.0000000001
 44
0.0000000001
 12
0.000000
 22
0.000000
 32
0.000000
 13
0.000000
 23
0.000000
 33
0.000000
 40
0.000000
 40
0.000000
 40
0.000000
 40
0.000000
 40
1.000000
 40
1.000000
 40
1.000000
 40
1.000000
 10
810.813064
 20
622.748270
 30
0.000000
 10
810.804698
 20
622.910393
 30
0.000000
 10
810.791923
 20
623.072459
 30
0.000000
 10
810.767911
 20
623.232928
 30
0.000000
  0
SPLINE
  5
176
330
1F
100
AcDbEntity
  8
0
 62
     1
100
AcDbSpline
210
0.000000
220
0.000000
230
1.0
 70
     8
 71
     3
 72
     8
 73
     4
 42
0.0000000001
 43
0.0000000001
 44
0.0000000001
 12
0.000000
 22
0.000000
 32
0.000000
 13
0.000000
 23
0.000000
 33
0.000000
 40
0.000000
 40
0.000000
 40
0.000000
 40
0.000000
 40
1.000000
 40
1.000000
 40
1.000000
 40
1.000000
 10
810.767911
 20
623.232928
 30
0.000000
 10
810.743782
 20
623.394174
 30
0.000000
 10
810.708306
 20
623.553807
 30
0.000000
 10
810.696528
 20
623.716803
 30
0.000000
  0
SPLINE
  5
177
330
1F
100
AcDbEntity
  8
0
 62
     1
100
AcDbSpline
210
0.000000
220
0.000000
230
1.0
 70
     8
 71
     3
 72
     8
 73
     4
 42
0.0000000001
 43
0.0000000001
 44
0.0000000001
 12
0.000000
 22
0.000000
 32
0.000000
 13
0.000000
 23
0.000000
 33
0.000000
 40
0.000000
 40
0.000000
 40
0.000000
 40
0.000000
 40
1.000000
 40
1.000000
 40
1.000000
 40
1.000000
 10
810.696528
 20
623.716803
 30
0.000000
 10
810.696317
 20
623.719726
 30
0.000000
 10
810.696113
 20
623.722651
 30
0.000000
 10
810.696214
 20
623.725569
 30
0.000000
  0
SPLINE
  5
178
330
1F
100
AcDbEntity
  8
0
 62
     1
100
AcDbSpline
210
0.000000
220
0.000000
230
1.0
 70
     8
 71
     3
 72
     8
 73
     4
 42
0.0000000001
 43
0.0000000001
 44
0.0000000001
 12
0.000000
 22
0.000000
 32
0.000000
 13
0.000000
 23
0.000000
 33
0.000000
 40
0.000000
 40
0.000000
 40
0.000000
 40
0.000000
 40
1.000000
 40
1.000000
 40
1.000000
 40
1.000000
 10
810.696214
 20
623.725569
 30
0.000000
 10
810.696318
 20
623.728553
 30
0.000000
 10
810.696740
 20
623.731531
 30
0.000000
 10
810.696841
 20
623.734514
 30
0.000000
  0
SPLINE
  5
179
330
1F
100
AcDbEntity
  8
0
 62
     1
100
AcDbSpline
210
0.000000
220
0.000000
230
1.0
 70
     8
 71
     3
 72
     8
 73
     4
 42
0.0000000001
 43
0.0000000001
 44
0.0000000001
 12
0.000000
 22
0.000000
 32
0.000000
 13
0.000000
 23
0.000000
 33
0.000000
 40
0.000000
 40
0.000000
 40
0.000000
 40
0.000000
 40
1.000000
 40
1.000000
 40
1.000000
 40
1.000000
 10
810.696841
 20
623.734514
 30
0.000000
 10
810.696940
 20
623.737427
 30
0.000000
 10
810.696734
 20
623.740344
 30
0.000000
 10
810.696528
 20
623.743262
 30
0.000000
  0
SPLINE
  5
180
330
1F
100
AcDbEntity
  8
0
 62
     1
100
AcDbSpline
210
0.000000
220
0.000000
230
1.0
 70
     8
 71
     3
 72
     8
 73
     4
 42
0.0000000001
 43
0.0000000001
 44
0.0000000001
 12
0.000000
 22
0.000000
 32
0.000000
 13
0.000000
 23
0.000000
 33
0.000000
 40
0.000000
 40
0.000000
 40
0.000000
 40
0.000000
 40
1.000000
 40
1.000000
 40
1.000000
 40
1.000000
 10
712.774236
 20
625.224928
 30
0.000000
 10
713.126985
 20
625.169765
 30
0.000000
 10
713.479734
 20
625.114601
 30
0.000000
 10
713.784193
 20
624.951346
 30
0.000000
  0
SPLINE
  5
181
330
1F
100
AcDbEntity
  8
0
 62
     1
100
AcDbSpline
210
0.000000
220
0.000000
230
1.0
 70
     8
 71
     3
 72
     8
 73
     4
 42
0.0000000001
 43
0.0000000001
 44
0.0000000001
 12
0.000000
 22
0.000000
 32
0.000000
 13
0.000000
 23
0.000000
 33
0.000000
 40
0.000000
 40
0.000000
 40
0.000000
 40
0.000000
 40
1.000000
 40
1.000000
 40
1.000000
 40
1.000000
 10
713.784193
 20
624.951346
 30
0.000000
 10
714.079841
 20
624.792814
 30
0.000000
 10
714.329954
 20
624.532357
 30
0.000000
 10
714.502667
 20
624.232871
 30
0.000000
  0
SPLINE
  5
182
330
1F
100
AcDbEntity
  8
0
 62
     1
100
AcDbSpline
210
0.000000
220
0.000000
230
1.0
 70
     8
 71
     3
 72
     8
 73
     4
 42
0.0000000001
 43
0.0000000001
 44
0.0000000001
 12
0.000000
 22
0.000000
 32
0.000000
 13
0.000000
 23
0.000000
 33
0.000000
 40
0.000000
 40
0.000000
 40
0.000000
 40
0.000000
 40
1.000000
 40
1.000000
 40
1.000000
 40
1.000000
 10
714.502667
 20
624.232871
 30
0.000000
 10
714.680527
 20
623.924461
 30
0.000000
 10
714.776306
 20
623.574662
 30
0.000000
 10
714.776250
 20
623.222914
 30
0.000000
  0
SPLINE
  5
183
330
1F
100
AcDbEntity
  8
0
 62
     1
100
AcDbSpline
210
0.000000
220
0.000000
230
1.0
 70
     8
 71
     3
 72
     8
 73
     4
 42
0.0000000001
 43
0.0000000001
 44
0.0000000001
 12
0.000000
 22
0.000000
 32
0.000000
 13
0.000000
 23
0.000000
 33
0.000000
 40
0.000000
 40
0.000000
 40
0.000000
 40
0.000000
 40
1.000000
 40
1.000000
 40
1.000000
 40
1.000000
 10
714.776250
 20
623.222914
 30
0.000000
 10
714.776194
 20
622.871908
 30
0.000000
 10
714.680706
 20
622.518961
 30
0.000000
 10
714.502667
 20
622.215244
 30
0.000000
  0
SPLINE
  5
184
330
1F
100
AcDbEntity
  8
0
 62
     1
100
AcDbSpline
210
0.000000
220
0.000000
230
1.0
 70
     8
 71
     3
 72
     8
 73
     4
 42
0.0000000001
 43
0.0000000001
 44
0.0000000001
 12
0.000000
 22
0.000000
 32
0.000000
 13
0.000000
 23
0.000000
 33
0.000000
 40
0.000000
 40
0.000000
 40
0.000000
 40
0.000000
 40
1.000000
 40
1.000000
 40
1.000000
 40
1.000000
 10
714.502667
 20
622.215244
 30
0.000000
 10
714.329926
 20
621.920564
 30
0.000000
 10
714.079474
 20
621.672229
 30
0.000000
 10
713.784193
 20
621.501016
 30
0.000000
  0
SPLINE
  5
185
330
1F
100
AcDbEntity
  8
0
 62
     1
100
AcDbSpline
210
0.000000
220
0.000000
230
1.0
 70
     8
 71
     3
 72
     8
 73
     4
 42
0.0000000001
 43
0.0000000001
 44
0.0000000001
 12
0.000000
 22
0.000000
 32
0.000000
 13
0.000000
 23
0.000000
 33
0.000000
 40
0.000000
 40
0.000000
 40
0.000000
 40
0.000000
 40
1.000000
 40
1.000000
 40
1.000000
 40
1.000000
 10
713.784193
 20
621.501016
 30
0.000000
 10
713.479386
 20
621.324279
 30
0.000000
 10
713.126811
 20
621.229720
 30
0.000000
 10
712.774236
 20
621.229720
 30
0.000000
  0
SPLINE
  5
186
330
1F
100
AcDbEntity
  8
0
 62
     1
100
AcDbSpline
210
0.000000
220
0.000000
230
1.0
 70
     8
 71
     3
 72
     8
 73
     4
 42
0.0000000001
 43
0.0000000001
 44
0.0000000001
 12
0.000000
 22
0.000000
 32
0.000000
 13
0.000000
 23
0.000000
 33
0.000000
 40
0.000000
 40
0.000000
 40
0.000000
 40
0.000000
 40
1.000000
 40
1.000000
 40
1.000000
 40
1.000000
 10
712.774236
 20
621.229720
 30
0.000000
 10
712.421661
 20
621.229720
 30
0.000000
 10
712.069086
 20
621.324279
 30
0.000000
 10
711.764279
 20
621.501016
 30
0.000000
  0
SPLINE
  5
187
330
1F
100
AcDbEntity
  8
0
 62
     1
100
AcDbSpline
210
0.000000
220
0.000000
230
1.0
 70
     8
 71
     3
 72
     8
 73
     4
 42
0.0000000001
 43
0.0000000001
 44
0.0000000001
 12
0.000000
 22
0.000000
 32
0.000000
 13
0.000000
 23
0.000000
 33
0.000000
 40
0.000000
 40
0.000000
 40
0.000000
 40
0.000000
 40
1.000000
 40
1.000000
 40
1.000000
 40
1.000000
 10
711.764279
 20
621.501016
 30
0.000000
 10
711.468998
 20
621.672229
 30
0.000000
 10
711.218546
 20
621.920564
 30
0.000000
 10
711.045805
 20
622.215244
 30
0.000000
  0
SPLINE
  5
188
330
1F
100
AcDbEntity
  8
0
 62
     1
100
AcDbSpline
210
0.000000
220
0.000000
230
1.0
 70
     8
 71
     3
 72
     8
 73
     4
 42
0.0000000001
 43
0.0000000001
 44
0.0000000001
 12
0.000000
 22
0.000000
 32
0.000000
 13
0.000000
 23
0.000000
 33
0.000000
 40
0.000000
 40
0.000000
 40
0.000000
 40
0.000000
 40
1.000000
 40
1.000000
 40
1.000000
 40
1.000000
 10
711.045805
 20
622.215244
 30
0.000000
 10
710.867766
 20
622.518961
 30
0.000000
 10
710.772278
 20
622.871908
 30
0.000000
 10
710.772222
 20
623.222914
 30
0.000000
  0
SPLINE
  5
189
330
1F
100
AcDbEntity
  8
0
 62
     1
100
AcDbSpline
210
0.000000
220
0.000000
230
1.0
 70
     8
 71
     3
 72
     8
 73
     4
 42
0.0000000001
 43
0.0000000001
 44
0.0000000001
 12
0.000000
 22
0.000000
 32
0.000000
 13
0.000000
 23
0.000000
 33
0.000000
 40
0.000000
 40
0.000000
 40
0.000000
 40
0.000000
 40
1.000000
 40
1.000000
 40
1.000000
 40
1.000000
 10
710.772222
 20
623.222914
 30
0.000000
 10
710.772166
 20
623.574662
 30
0.000000
 10
710.867945
 20
623.924461
 30
0.000000
 10
711.045805
 20
624.232871
 30
0.000000
  0
SPLINE
  5
190
330
1F
100
AcDbEntity
  8
0
 62
     1
100
AcDbSpline
210
0.000000
220
0.000000
230
1.0
 70
     8
 71
     3
 72
     8
 73
     4
 42
0.0000000001
 43
0.0000000001
 44
0.0000000001
 12
0.000000
 22
0.000000
 32
0.000000
 13
0.000000
 23
0.000000
 33
0.000000
 40
0.000000
 40
0.000000
 40
0.000000
 40
0.000000
 40
1.000000
 40
1.000000
 40
1.000000
 40
1.000000
 10
711.045805
 20
624.232871
 30
0.000000
 10
711.218518
 20
624.532357
 30
0.000000
 10
711.468631
 20
624.792814
 30
0.000000
 10
711.764279
 20
624.951346
 30
0.000000
  0
SPLINE
  5
191
330
1F
100
AcDbEntity
  8
0
 62
     1
100
AcDbSpline
210
0.000000
220
0.000000
230
1.0
 70
     8
 71
     3
 72
     8
 73
     4
 42
0.0000000001
 43
0.0000000001
 44
0.0000000001
 12
0.000000
 22
0.000000
 32
0.000000
 13
0.000000
 23
0.000000
 33
0.000000
 40
0.000000
 40
0.000000
 40
0.000000
 40
0.000000
 40
1.000000
 40
1.000000
 40
1.000000
 40
1.000000
 10
711.764279
 20
624.951346
 30
0.000000
 10
712.068738
 20
625.114601
 30
0.000000
 10
712.421487
 20
625.169765
 30
0.000000
 10
712.774236
 20
625.224928
 30
0.000000
  0
SPLINE
  5
192
330
1F
100
AcDbEntity
  8
0
 62
     1
100
AcDbSpline
210
0.000000
220
0.000000
230
1.0
 70
     8
 71
     3
 72
     8
 73
     4
 42
0.0000000001
 43
0.0000000001
 44
0.0000000001
 12
0.000000
 22
0.000000
 32
0.000000
 13
0.000000
 23
0.000000
 33
0.000000
 40
0.000000
 40
0.000000
 40
0.000000
 40
0.000000
 40
1.000000
 40
1.000000
 40
1.000000
 40
1.000000
 10
772.772917
 20
625.224928
 30
0.000000
 10
773.125666
 20
625.169765
 30
0.000000
 10
773.478415
 20
625.114601
 30
0.000000
 10
773.782874
 20
624.951346
 30
0.000000
  0
SPLINE
  5
193
330
1F
100
AcDbEntity
  8
0
 62
     1
100
AcDbSpline
210
0.000000
220
0.000000
230
1.0
 70
     8
 71
     3
 72
     8
 73
     4
 42
0.0000000001
 43
0.0000000001
 44
0.0000000001
 12
0.000000
 22
0.000000
 32
0.000000
 13
0.000000
 23
0.000000
 33
0.000000
 40
0.000000
 40
0.000000
 40
0.000000
 40
0.000000
 40
1.000000
 40
1.000000
 40
1.000000
 40
1.000000
 10
773.782874
 20
624.951346
 30
0.000000
 10
774.078522
 20
624.792814
 30
0.000000
 10
774.328635
 20
624.532357
 30
0.000000
 10
774.501348
 20
624.232871
 30
0.000000
  0
SPLINE
  5
194
330
1F
100
AcDbEntity
  8
0
 62
     1
100
AcDbSpline
210
0.000000
220
0.000000
230
1.0
 70
     8
 71
     3
 72
     8
 73
     4
 42
0.0000000001
 43
0.0000000001
 44
0.0000000001
 12
0.000000
 22
0.000000
 32
0.000000
 13
0.000000
 23
0.000000
 33
0.000000
 40
0.000000
 40
0.000000
 40
0.000000
 40
0.000000
 40
1.000000
 40
1.000000
 40
1.000000
 40
1.000000
 10
774.501348
 20
624.232871
 30
0.000000
 10
774.679208
 20
623.924461
 30
0.000000
 10
774.774987
 20
623.574662
 30
0.000000
 10
774.774931
 20
623.222914
 30
0.000000
  0
SPLINE
  5
195
330
1F
100
AcDbEntity
  8
0
 62
     1
100
AcDbSpline
210
0.000000
220
0.000000
230
1.0
 70
     8
 71
     3
 72
     8
 73
     4
 42
0.0000000001
 43
0.0000000001
 44
0.0000000001
 12
0.000000
 22
0.000000
 32
0.000000
 13
0.000000
 23
0.000000
 33
0.000000
 40
0.000000
 40
0.000000
 40
0.000000
 40
0.000000
 40
1.000000
 40
1.000000
 40
1.000000
 40
1.000000
 10
774.774931
 20
623.222914
 30
0.000000
 10
774.774875
 20
622.871908
 30
0.000000
 10
774.679387
 20
622.518961
 30
0.000000
 10
774.501348
 20
622.215244
 30
0.000000
  0
SPLINE
  5
196
330
1F
100
AcDbEntity
  8
0
 62
     1
100
AcDbSpline
210
0.000000
220
0.000000
230
1.0
 70
     8
 71
     3
 72
     8
 73
     4
 42
0.0000000001
 43
0.0000000001
 44
0.0000000001
 12
0.000000
 22
0.000000
 32
0.000000
 13
0.000000
 23
0.000000
 33
0.000000
 40
0.000000
 40
0.000000
 40
0.000000
 40
0.000000
 40
1.000000
 40
1.000000
 40
1.000000
 40
1.000000
 10
774.501348
 20
622.215244
 30
0.000000
 10
774.328607
 20
621.920564
 30
0.000000
 10
774.078155
 20
621.672229
 30
0.000000
 10
773.782874
 20
621.501016
 30
0.000000
  0
SPLINE
  5
197
330
1F
100
AcDbEntity
  8
0
 62
     1
100
AcDbSpline
210
0.000000
220
0.000000
230
1.0
 70
     8
 71
     3
 72
     8
 73
     4
 42
0.0000000001
 43
0.0000000001
 44
0.0000000001
 12
0.000000
 22
0.000000
 32
0.000000
 13
0.000000
 23
0.000000
 33
0.000000
 40
0.000000
 40
0.000000
 40
0.000000
 40
0.000000
 40
1.000000
 40
1.000000
 40
1.000000
 40
1.000000
 10
773.782874
 20
621.501016
 30
0.000000
 10
773.478067
 20
621.324279
 30
0.000000
 10
773.125492
 20
621.229720
 30
0.000000
 10
772.772917
 20
621.229720
 30
0.000000
  0
SPLINE
  5
198
330
1F
100
AcDbEntity
  8
0
 62
     1
100
AcDbSpline
210
0.000000
220
0.000000
230
1.0
 70
     8
 71
     3
 72
     8
 73
     4
 42
0.0000000001
 43
0.0000000001
 44
0.0000000001
 12
0.000000
 22
0.000000
 32
0.000000
 13
0.000000
 23
0.000000
 33
0.000000
 40
0.000000
 40
0.000000
 40
0.000000
 40
0.000000
 40
1.000000
 40
1.000000
 40
1.000000
 40
1.000000
 10
772.772917
 20
621.229720
 30
0.000000
 10
772.420342
 20
621.229720
 30
0.000000
 10
772.067767
 20
621.324279
 30
0.000000
 10
771.762960
 20
621.501016
 30
0.000000
  0
SPLINE
  5
199
330
1F
100
AcDbEntity
  8
0
 62
     1
100
AcDbSpline
210
0.000000
220
0.000000
230
1.0
 70
     8
 71
     3
 72
     8
 73
     4
 42
0.0000000001
 43
0.0000000001
 44
0.0000000001
 12
0.000000
 22
0.000000
 32
0.000000
 13
0.000000
 23
0.000000
 33
0.000000
 40
0.000000
 40
0.000000
 40
0.000000
 40
0.000000
 40
1.000000
 40
1.000000
 40
1.000000
 40
1.000000
 10
771.762960
 20
621.501016
 30
0.000000
 10
771.467679
 20
621.672229
 30
0.000000
 10
771.217227
 20
621.920564
 30
0.000000
 10
771.044486
 20
622.215244
 30
0.000000
  0
SPLINE
  5
200
330
1F
100
AcDbEntity
  8
0
 62
     1
100
AcDbSpline
210
0.000000
220
0.000000
230
1.0
 70
     8
 71
     3
 72
     8
 73
     4
 42
0.0000000001
 43
0.0000000001
 44
0.0000000001
 12
0.000000
 22
0.000000
 32
0.000000
 13
0.000000
 23
0.000000
 33
0.000000
 40
0.000000
 40
0.000000
 40
0.000000
 40
0.000000
 40
1.000000
 40
1.000000
 40
1.000000
 40
1.000000
 10
771.044486
 20
622.215244
 30
0.000000
 10
770.866447
 20
622.518961
 30
0.000000
 10
770.770959
 20
622.871908
 30
0.000000
 10
770.770903
 20
623.222914
 30
0.000000
  0
SPLINE
  5
201
330
1F
100
AcDbEntity
  8
0
 62
     1
100
AcDbSpline
210
0.000000
220
0.000000
230
1.0
 70
     8
 71
     3
 72
     8
 73
     4
 42
0.0000000001
 43
0.0000000001
 44
0.0000000001
 12
0.000000
 22
0.000000
 32
0.000000
 13
0.000000
 23
0.000000
 33
0.000000
 40
0.000000
 40
0.000000
 40
0.000000
 40
0.000000
 40
1.000000
 40
1.000000
 40
1.000000
 40
1.000000
 10
770.770903
 20
623.222914
 30
0.000000
 10
770.770847
 20
623.574662
 30
0.000000
 10
770.866625
 20
623.924461
 30
0.000000
 10
771.044485
 20
624.232871
 30
0.000000
  0
SPLINE
  5
202
330
1F
100
AcDbEntity
  8
0
 62
     1
100
AcDbSpline
210
0.000000
220
0.000000
230
1.0
 70
     8
 71
     3
 72
     8
 73
     4
 42
0.0000000001
 43
0.0000000001
 44
0.0000000001
 12
0.000000
 22
0.000000
 32
0.000000
 13
0.000000
 23
0.000000
 33
0.000000
 40
0.000000
 40
0.000000
 40
0.000000
 40
0.000000
 40
1.000000
 40
1.000000
 40
1.000000
 40
1.000000
 10
771.044485
 20
624.232871
 30
0.000000
 10
771.217199
 20
624.532357
 30
0.000000
 10
771.467311
 20
624.792814
 30
0.000000
 10
771.762960
 20
624.951346
 30
0.000000
  0
SPLINE
  5
203
330
1F
100
AcDbEntity
  8
0
 62
     1
100
AcDbSpline
210
0.000000
220
0.000000
230
1.0
 70
     8
 71
     3
 72
     8
 73
     4
 42
0.0000000001
 43
0.0000000001
 44
0.0000000001
 12
0.000000
 22
0.000000
 32
0.000000
 13
0.000000
 23
0.000000
 33
0.000000
 40
0.000000
 40
0.000000
 40
0.000000
 40
0.000000
 40
1.000000
 40
1.000000
 40
1.000000
 40
1.000000
 10
771.762960
 20
624.951346
 30
0.000000
 10
772.067419
 20
625.114601
 30
0.000000
 10
772.420168
 20
625.169765
 30
0.000000
 10
772.772917
 20
625.224928
 30
0.000000
 0
ENDSEC
  0
SECTION
  2
OBJECTS
  0
DICTIONARY
  5
C
330
0
100
AcDbDictionary
  3
ACAD_GROUP
350
D
  3
ACAD_LAYOUT
350
1A
  3
ACAD_MLINESTYLE
350
17
  3
ACAD_PLOTSETTINGS
350
19
1001
ACAD
1000
TREAT_AS_HARD
1070
     0
  0
DICTIONARY
  5
46
330
1F
100
AcDbDictionary
  3
ACAD_LAYOUTSELFREF
350
47
  0
DICTIONARY
  5
44
330
1B
100
AcDbDictionary
  3
ACAD_LAYOUTSELFREF
350
45
  0
DICTIONARY
  5
D
102
{ACAD_REACTORS
330
C
102
}
330
C
100
AcDbDictionary
1001
ACAD
1000
TREAT_AS_HARD
1070
     0
  0
DICTIONARY
  5
1A
102
{ACAD_REACTORS
330
C
102
}
330
C
100
AcDbDictionary
1001
ACAD
1000
TREAT_AS_HARD
1070
     0
  0
DICTIONARY
  5
17
102
{ACAD_REACTORS
330
C
102
}
330
C
100
AcDbDictionary
  3
STANDARD
350
18
1001
ACAD
1000
TREAT_AS_HARD
1070
     0
  0
DICTIONARY
  5
19
102
{ACAD_REACTORS
330
C
102
}
330
C
100
AcDbDictionary
1001
ACAD
1000
TREAT_AS_HARD
1070
     0
  0
XRECORD
  5
47
102
{ACAD_REACTORS
330
46
102
}
330
46
100
AcDbXrecord
340
1F
  0
XRECORD
  5
45
102
{ACAD_REACTORS
330
44
102
}
330
44
100
AcDbXrecord
340
1B
  0
MLINESTYLE
  5
18
102
{ACAD_REACTORS
330
17
102
}
330
17
100
AcDbMlineStyle
  2
STANDARD
 70
     0
  3

 62
   256
 51
90.0
 52
90.0
 71
     2
 49
0.5
 62
   256
  6
BYLAYER
 49
-0.5
 62
   256
  6
BYLAYER
  0
ENDSEC
  0
EOF
